<svg xmlns="http://www.w3.org/2000/svg" width="53.174" height="53.174" viewBox="0 0 53.174 53.174"><defs><style>.a{fill:#fff;}</style></defs><g transform="translate(0 26.587)"><path class="a" d="M25.7,245.317H19a3.508,3.508,0,0,0,.493-1.772,3.53,3.53,0,0,0-6.2-2.32,3.526,3.526,0,0,0-5.711,4.093H.886A.887.887,0,0,0,0,246.2v19.5a.887.887,0,0,0,.886.886H25.7a.887.887,0,0,0,.886-.886V246.2A.887.887,0,0,0,25.7,245.317Zm-15.066,19.5H1.772V252.407h8.862Zm0-14.18H1.772V247.09h8.862Zm0-5.317a1.772,1.772,0,1,1,1.772-1.772v1.772H10.635Zm3.545,19.5H12.407V252.407H14.18Zm0-14.18H12.407V247.09H14.18Zm0-5.317v-1.772a1.772,1.772,0,1,1,1.772,1.772H14.18Zm10.635,19.5H15.952V252.407h8.862Zm0-14.18H15.952V247.09h8.862Z" transform="translate(0 -240)"/></g><g transform="translate(8.862)"><path class="a" d="M123.425,0H80.886A.887.887,0,0,0,80,.886V23.928a.887.887,0,0,0,.886.886h42.539a.887.887,0,0,0,.886-.886V.886A.887.887,0,0,0,123.425,0Zm-.886,23.042H81.772V1.772h40.767Z" transform="translate(-80 0)"/></g><g transform="translate(12.407 3.545)"><path class="a" d="M149.221,36.431a.887.887,0,0,0-.886-.886,2.661,2.661,0,0,1-2.658-2.659A.887.887,0,0,0,144.79,32H116.431a.887.887,0,0,0-.886.886,2.662,2.662,0,0,1-2.659,2.659.887.887,0,0,0-.886.886v8.862a.887.887,0,0,0,.886.886,2.662,2.662,0,0,1,2.659,2.659.887.887,0,0,0,.886.886H144.79a.887.887,0,0,0,.886-.886,2.662,2.662,0,0,1,2.659-2.659.887.887,0,0,0,.886-.886ZM147.449,44.5a4.444,4.444,0,0,0-3.455,3.455H117.229a4.444,4.444,0,0,0-3.455-3.455V37.228h0a4.444,4.444,0,0,0,3.455-3.455h26.765a4.446,4.446,0,0,0,3.456,3.455Z" transform="translate(-112 -32)"/></g><g transform="translate(25.701 7.09)"><path class="a" d="M237.317,64a5.317,5.317,0,1,0,5.317,5.317A5.323,5.323,0,0,0,237.317,64Zm0,8.862a3.545,3.545,0,1,1,3.545-3.545A3.548,3.548,0,0,1,237.317,72.862Z" transform="translate(-232 -64)"/></g><g transform="translate(5.161 10.915)"><rect class="a" width="1.364" height="1.364"/></g><g transform="translate(1.75 10.915)"><rect class="a" width="1.364" height="1.364"/></g><g transform="translate(1.75 14.326)"><rect class="a" width="1.364" height="1.364"/></g><g transform="translate(1.75 17.736)"><rect class="a" width="1.364" height="2.047"/></g><g transform="translate(1.75 21.147)"><rect class="a" width="1.364" height="2.047"/></g><g transform="translate(1.75 24.558)"><rect class="a" width="1.364" height="2.047"/></g><g transform="translate(1.75 28.651)"><rect class="a" width="1.364" height="1.364"/></g><g transform="translate(49.502 30.015)"><g transform="translate(0)"><rect class="a" width="1.364" height="2.047"/></g></g><g transform="translate(49.502 26.605)"><g transform="translate(0)"><rect class="a" width="1.364" height="2.047"/></g></g><g transform="translate(49.502 33.426)"><g transform="translate(0)"><rect class="a" width="1.364" height="2.047"/></g></g><g transform="translate(49.502 37.519)"><g transform="translate(0)"><rect class="a" width="1.364" height="1.364"/></g></g><g transform="translate(49.502 40.93)"><g transform="translate(0)"><rect class="a" width="1.364" height="1.364"/></g></g><g transform="translate(49.502 44.341)"><g transform="translate(0)"><rect class="a" width="1.364" height="2.047"/></g></g><g transform="translate(46.091 44.341)"><g transform="translate(0)"><rect class="a" width="1.364" height="2.047"/></g></g><g transform="translate(41.998 44.341)"><g transform="translate(0)"><rect class="a" width="2.047" height="2.047"/></g></g><g transform="translate(38.587 44.341)"><g transform="translate(0)"><rect class="a" width="2.047" height="2.047"/></g></g><g transform="translate(35.176 44.341)"><g transform="translate(0)"><rect class="a" width="2.047" height="2.047"/></g></g><g transform="translate(31.765 44.341)"><g transform="translate(0)"><rect class="a" width="1.364" height="2.047"/></g></g><g transform="translate(28.355 44.341)"><g transform="translate(0)"><rect class="a" width="1.364" height="2.047"/></g></g><g transform="translate(18.122 11.597)"><g transform="translate(0)"><rect class="a" width="2.047" height="1.364"/></g></g><g transform="translate(41.316 11.597)"><g transform="translate(0)"><rect class="a" width="2.047" height="1.364"/></g></g><g transform="translate(17.44 40.93)"><g transform="translate(0)"><rect class="a" width="2.047" height="1.364"/></g></g><g transform="translate(20.851 40.93)"><g transform="translate(0)"><rect class="a" width="2.047" height="1.364"/></g></g><g transform="translate(17.44 44.341)"><g transform="translate(0)"><rect class="a" width="2.047" height="2.047"/></g></g><g transform="translate(20.851 44.341)"><g transform="translate(0)"><rect class="a" width="2.047" height="2.047"/></g></g><g transform="translate(17.44 47.752)"><g transform="translate(0)"><rect class="a" width="2.047" height="2.047"/></g></g><g transform="translate(20.851 47.752)"><g transform="translate(0)"><rect class="a" width="2.047" height="2.047"/></g></g><g transform="translate(3.114 40.93)"><rect class="a" width="2.047" height="1.364"/></g><g transform="translate(6.525 40.93)"><rect class="a" width="2.047" height="1.364"/></g><g transform="translate(3.114 44.341)"><rect class="a" width="2.047" height="2.047"/></g><g transform="translate(6.525 44.341)"><rect class="a" width="2.047" height="2.047"/></g><g transform="translate(3.114 47.752)"><rect class="a" width="2.047" height="2.047"/></g><g transform="translate(6.525 47.752)"><rect class="a" width="2.047" height="2.047"/></g></svg>