<svg xmlns="http://www.w3.org/2000/svg" width="35.464" height="49.677" viewBox="0 0 35.464 49.677"><defs><style>.a{fill:#f8f8f8;}</style></defs><path class="a" d="M107.976,36.055a.73.73,0,0,0-.73.73v9.66a1.773,1.773,0,0,1-1.771,1.771h-29A1.773,1.773,0,0,1,74.7,46.445V3.231A1.773,1.773,0,0,1,76.473,1.46h5.313a.73.73,0,0,0,0-1.46H76.473a3.235,3.235,0,0,0-3.231,3.231V46.445a3.235,3.235,0,0,0,3.231,3.231h29a3.235,3.235,0,0,0,3.231-3.231v-9.66A.73.73,0,0,0,107.976,36.055Z" transform="translate(-73.242 0)"/><path class="a" d="M209.36,0H189.02a.73.73,0,0,0,0,1.46h20.34a1.773,1.773,0,0,1,1.771,1.771v30.05a.73.73,0,1,0,1.46,0V3.231A3.235,3.235,0,0,0,209.36,0Z" transform="translate(-177.128)"/><path class="a" d="M142.261,79.9V44.055a1.218,1.218,0,0,0-1.217-1.217H116.093a1.218,1.218,0,0,0-1.217,1.217v35.84a1.218,1.218,0,0,0,1.217,1.217h24.952A1.218,1.218,0,0,0,142.261,79.9Zm-1.46-.243H116.336V44.3H140.8Z" transform="translate(-110.836 -38.682)"/><circle class="a" cx="1.442" cy="1.442" r="1.442" transform="translate(16.29 43.929)"/><path class="a" d="M169.571,205.879h-2.814l-1.2-3.138a.73.73,0,0,0-1.363,0l-1.651,4.31-2.555-6.67a.73.73,0,0,0-1.363,0l-3.447,9-1.16-3.027a.73.73,0,0,0-.682-.469h-3.122a.73.73,0,0,0,0,1.46h2.62l1.662,4.338a.73.73,0,0,0,1.363,0l3.447-9,2.555,6.67a.73.73,0,0,0,1.363,0l1.651-4.31.7,1.827a.73.73,0,0,0,.682.469h3.316a.73.73,0,0,0,0-1.46Z" transform="translate(-142.086 -180.517)"/><path class="a" d="M149.958,102.2h18.6a1.033,1.033,0,0,0,1.032-1.032V99.231a1.033,1.033,0,0,0-1.032-1.032h-3.769V94.464a1.033,1.033,0,0,0-1.032-1.032h-4.2a1.033,1.033,0,0,0-1.032,1.032v1.342h-3.352a1.032,1.032,0,0,0-1.02-.885h-4.2a1.033,1.033,0,0,0-1.032,1.032v5.214A1.033,1.033,0,0,0,149.958,102.2Zm18.17-2.538v1.078h-3.34V99.659Zm-8.141-4.767h3.34v5.845h-3.34V94.892Zm-1.46,5.845h-3.34V97.265h3.34Zm-8.141-4.357h3.34v4.357h-3.34Z" transform="translate(-141.584 -84.367)"/><path class="a" d="M145.928,344.941a3.029,3.029,0,1,0-3.029-3.029A3.033,3.033,0,0,0,145.928,344.941Zm0-4.6a1.569,1.569,0,1,1-1.569,1.569A1.571,1.571,0,0,1,145.928,340.342Z" transform="translate(-136.141 -306.002)"/><path class="a" d="M255.434,338.882a3.029,3.029,0,1,0,3.029,3.029A3.033,3.033,0,0,0,255.434,338.882Zm0,4.6A1.569,1.569,0,1,1,257,341.911,1.571,1.571,0,0,1,255.434,343.481Z" transform="translate(-235.022 -306.002)"/><path class="a" d="M211.26,349.039h-1.551a.73.73,0,1,0,0,1.46h1.551a.73.73,0,1,0,0-1.46Z" transform="translate(-195.809 -315.174)"/><path class="a" d="M211.26,378.881h-1.551a.73.73,0,1,0,0,1.46h1.551a.73.73,0,0,0,0-1.46Z" transform="translate(-195.809 -342.12)"/><path class="a" d="M320.766,349.039h-1.551a.73.73,0,1,0,0,1.46h1.551a.73.73,0,1,0,0-1.46Z" transform="translate(-294.69 -315.174)"/><path class="a" d="M320.766,378.881h-1.551a.73.73,0,0,0,0,1.46h1.551a.73.73,0,0,0,0-1.46Z" transform="translate(-294.69 -342.12)"/></svg>