<?xml version="1.0" encoding="utf-8"?>
<!-- Generator: Adobe Illustrator 24.0.2, SVG Export Plug-In . SVG Version: 6.00 Build 0)  -->
<svg version="1.1" id="Capa_1" xmlns="http://www.w3.org/2000/svg" xmlns:xlink="http://www.w3.org/1999/xlink" x="0px" y="0px"
	 viewBox="0 0 283.5 283.5" style="enable-background:new 0 0 283.5 283.5;" xml:space="preserve">
<style type="text/css">
	.st0{fill:#FFEBCF;}
	.st1{fill:#FDD583;}
	.st2{clip-path:url(#SVGID_2_);}
	.st3{fill:#EDC6A3;}
	.st4{fill:#F8DCC4;}
	.st5{opacity:0.7;}
	.st6{fill:#E5B18D;}
	.st7{fill:#62A838;}
	.st8{fill:#DEF4D0;}
	.st9{fill:#75B952;}
	.st10{fill:#1C1C1B;}
	.st11{fill:#478E19;}
	.st12{fill:#92D868;}
	.st13{fill:#FFFFFF;}
	.st14{fill:#EAF3E5;}
	.st15{opacity:0.5;}
	.st16{clip-path:url(#SVGID_4_);}
	.st17{fill:#FBDEC7;}
	.st18{fill:#DB9666;}
</style>
<g>
	<g>
		<path class="st0" d="M159.4,256.8c23,4.6,47.2,4.9,69.4-2.7c22.1-7.7,41.9-24.1,50-46c8.2-21.9,3-49.2-15-64.1
			c-16-13.3-38.1-15.2-58.7-17.8c-36.4-4.5-74-13.3-102-37.1C89.3,77.4,77.3,62,59.9,58.2C45.9,55.1,31,60.6,20.7,70.5
			C10.4,80.4,4.5,94.2,2.2,108.3c-4.6,27.4,3.8,56,19.9,78.6c12.2,17,28.6,30.7,46.7,41c15.5,8.8,33.8,11.4,50.5,17.4
			C132.4,249.9,145.7,254,159.4,256.8z"/>
		<path class="st1" d="M191,260.7c-10.1,0-20.7-1.1-31.8-3.3c-12-2.4-24.8-6.1-40.2-11.6c-5.9-2.1-12-3.8-18-5.5
			c-11-3.1-22.5-6.2-32.5-12c-19.4-11.1-35.2-24.9-46.9-41.2C4.5,163.3-2.8,134.5,1.6,108.2C3.4,97.2,8.1,81.7,20.2,70
			C31.3,59.4,46.5,54.6,60,57.5c13.4,2.9,23.7,12.7,33.6,22.1c3.2,3,6.4,6.1,9.7,8.9c12.9,11,28.5,19.4,47.6,25.7
			c15.3,5,32.5,8.6,54.1,11.3c1.2,0.2,2.4,0.3,3.7,0.4c19.8,2.4,40.2,4.9,55.4,17.5c8.8,7.3,14.8,17.6,17.5,29.8
			c2.6,11.6,1.8,24.1-2.3,35c-7.8,20.8-26.6,38.2-50.4,46.4C217.3,258.7,204.6,260.7,191,260.7z M51.9,57.9
			c-10.9,0-22.2,4.6-30.8,13C9.2,82.4,4.6,97.6,2.8,108.4c-4.3,26,2.9,54.5,19.8,78.1c11.5,16.1,27.2,29.9,46.5,40.8
			c10,5.7,21.3,8.8,32.3,11.8c6,1.7,12.2,3.4,18.1,5.5c15.4,5.5,28.1,9.1,40,11.5l0,0c25.8,5.1,49.1,4.2,69-2.7
			c23.5-8.1,42-25.2,49.6-45.6c4-10.7,4.8-22.9,2.3-34.3c-2.6-11.9-8.6-22-17.1-29.1c-14.9-12.4-35.1-14.8-54.7-17.2
			c-1.2-0.1-2.5-0.3-3.7-0.4c-21.6-2.7-38.9-6.3-54.3-11.3c-19.3-6.3-35-14.8-48-25.9c-3.3-2.8-6.6-5.9-9.8-8.9
			c-9.8-9.3-20-18.9-33-21.8C57.2,58.2,54.6,57.9,51.9,57.9z"/>
	</g>
	<g>
		<defs>
			<path id="SVGID_1_" d="M159.4,256.8c23,4.6,47.2,4.9,69.4-2.7c22.1-7.7,41.9-24.1,50-46c8.2-21.9,3-49.2-15-64.1
				c-16-13.3-38.1-15.2-58.7-17.8c-36.4-4.5-74-13.3-102-37.1C89.3,77.4,77.3,62,59.9,58.2C45.9,55.1,31,60.6,20.7,70.5
				C10.4,80.4,4.5,94.2,2.2,108.3c-4.6,27.4,3.8,56,19.9,78.6c12.2,17,28.6,30.7,46.7,41c15.5,8.8,33.8,11.4,50.5,17.4
				C132.4,249.9,145.7,254,159.4,256.8z"/>
		</defs>
		<clipPath id="SVGID_2_">
			<use xlink:href="#SVGID_1_"  style="overflow:visible;"/>
		</clipPath>
		<g class="st2">
			<path class="st1" d="M298.5,204.7c-16.2,8.7-32.7,17.6-50.7,20.8s-38.3,0.2-51.6-12.5c-9.3-8.9-15.3-22.3-27.5-26.7
				c-10.9-3.9-22.7,1-34.2,2.4c-23.1,2.8-47.4-10.6-57.3-31.7c-7.5-15.9-7.3-34.6-15.5-50.1c-8.5-15.9-25.4-26.4-43.2-29.6
				c-17.8-3.2-36.3,0.4-52.9,7.4c6,49.1,16.3,98.1,29.1,145.9c3.9,14.7,8.6,30,19.6,40.5c10.9,10.4,26.4,14.4,41.2,17.3
				c41.6,8.2,84.1,11.2,126.4,10.5c19.3-0.3,38.8-1.5,57.4-6.8c18.6-5.3,36.4-15.1,48.4-30.2C299.7,246.9,304.2,223.2,298.5,204.7z"
				/>
		</g>
	</g>
	<g>
		<g>
			<g>
				<path class="st3" d="M192.8,209.4l6-75.4c0,0-7.3-27.6-9.1-31.1c-7.3-4.7-56.6-24.5-56.6-24.5s-12.2,8.9,5.2,16.3
					c17.5,7.4,34.4,17.4,34.4,17.4l-0.2,19.9L192.8,209.4z"/>
			</g>
			<g>
				<path class="st4" d="M198.8,133.9c0,0-7.3-27.6-9.1-31.1c-0.9-0.6-2.5-1.4-4.6-2.4l3.6,4.1c0,0,5.9,23.5,6.4,31.9
					c0.5,8.5-1.6,61.2-1.6,61.2s0.1-0.1,0.2-0.2L198.8,133.9z"/>
			</g>
			<g class="st5">
				<path class="st6" d="M181.6,133.2c-0.5-12.4,4.7-30.5,4.7-30.5l-0.6-1.9C172,94,133.1,78.3,133.1,78.3s-12.2,8.9,5.2,16.3
					c17.5,7.4,34.4,17.4,34.4,17.4l-0.2,19.9l13.4,51.2C192.8,157.9,182,143.7,181.6,133.2z"/>
			</g>
		</g>
		<g>
			<g>
				<path class="st7" d="M199.4,48.8l-51.2-24.8c-5.7-2.7-12.5-0.4-15.2,5.3L78.8,140.9c-2.7,5.7-0.4,12.5,5.3,15.2l51.2,24.8
					c5.7,2.7,12.5,0.4,15.2-5.3L204.7,64C207.5,58.4,205.1,51.5,199.4,48.8z"/>
			</g>
			<g>
				<path class="st8" d="M198.5,50.7l-51.2-24.8c-4.6-2.2-10.2-0.3-12.4,4.3L80.7,141.9c-2.2,4.6-0.3,10.2,4.3,12.4l51.2,24.8
					c4.6,2.2,10.2,0.3,12.4-4.3l54.2-111.7C205,58.5,203.1,52.9,198.5,50.7z"/>
			</g>
			<g>
				<path class="st7" d="M121,159.3l-11.4-5.6c-1.4-0.7-3,0-3.7,1.4c-0.7,1.4-0.1,3.1,1.2,3.8l2.7,1.3l1.8,0.9l7,3.4
					c1.4,0.7,3,0,3.7-1.4C122.9,161.6,122.4,159.9,121,159.3z"/>
			</g>
			<g>
				<path class="st9" d="M121.1,159.3l-11.2-5.4c-1.3-0.6-2.9-0.1-3.6,1.2c-0.6,1.3-0.1,2.9,1.2,3.6l2.7,1.3l1.7,0.8l6.8,3.3
					c1.3,0.6,2.9,0.1,3.6-1.2C123,161.5,122.4,159.9,121.1,159.3z"/>
			</g>
			<g>
				<g>
					
						<rect x="153.5" y="72.8" transform="matrix(0.4366 -0.8996 0.8996 0.4366 20.7088 180.1368)" class="st10" width="1.4" height="1.4"/>
				</g>
				<g>
					<path class="st10" d="M162.9,77l-0.6,1.3l-0.6,1.3l-0.6,1.3l-0.6,1.3l-0.6,1.3l-0.6,1.3l-0.6,1.3l9.1,4.4l0.6-1.3l0.6-1.3
						l0.6-1.3l0.6-1.3l0.6-1.3l0.6-1.3l0.6-1.3L162.9,77z M169.4,83.3l-0.6,1.3l-0.6,1.3l-0.6,1.3l-0.6,1.3l-6.5-3.1l0.6-1.3
						l0.6-1.3l0.6-1.3l0.6-1.3l0.6-1.3l6.5,3.1L169.4,83.3z"/>
				</g>
				<g>
					<polygon class="st10" points="140.3,70.8 139.7,72.1 139.1,73.4 142.9,75.3 143.6,74 144.2,72.7 144.8,71.4 140.9,69.5 					
						"/>
				</g>
				<g>
					
						<rect x="147.7" y="75.7" transform="matrix(0.4366 -0.8996 0.8996 0.4366 14.2259 176.9971)" class="st10" width="1.4" height="2.9"/>
				</g>
				<g>
					<polygon class="st10" points="150.7,79 150.1,80.3 151.4,81 152,79.7 153.3,80.3 152.7,81.6 154,82.2 154.6,80.9 155.9,81.6 
						156.5,80.3 155.2,79.6 155.9,78.3 159.7,80.2 160.4,78.9 157.8,77.7 158.4,76.4 159,75.1 157.7,74.5 157.1,75.8 154.5,74.5 
						153.9,75.8 153.3,77.1 154.6,77.7 153.9,79 152.6,78.4 153.3,77.1 152,76.5 152.6,75.2 150,73.9 150.6,72.6 151.3,71.3 
						150,70.7 149.3,72 148.7,73.3 148.1,74.6 150.7,75.8 150,77.1 151.3,77.7 					"/>
				</g>
				<g>
					
						<rect x="157.4" y="81.1" transform="matrix(0.4366 -0.8996 0.8996 0.4366 15.4558 188.384)" class="st10" width="1.4" height="1.4"/>
				</g>
				<g>
					<polygon class="st10" points="166.9,85.3 167.5,84 168.1,82.7 164.2,80.8 163.6,82.1 163,83.4 162.4,84.7 166.2,86.6 					"/>
				</g>
				<g>
					<path class="st10" d="M144.9,77.8l0.6-1.3l0.6-1.3l0.6-1.3l0.6-1.3l0.6-1.3l0.6-1.3l-9.1-4.4L139,67l-0.6,1.3l-0.6,1.3
						l-0.6,1.3l-0.6,1.3l-0.6,1.3l-0.6,1.3l9.1,4.4L144.9,77.8z M137.1,74.1l0.6-1.3l0.6-1.3l0.6-1.3l0.6-1.3l0.6-1.3l6.5,3.1
						l-0.6,1.3l-0.6,1.3l-0.6,1.3l-0.6,1.3l-0.6,1.3L137.1,74.1z"/>
				</g>
				<g>
					
						<rect x="145.8" y="78.7" transform="matrix(0.4366 -0.8996 0.8996 0.4366 11.1074 176.566)" class="st10" width="1.4" height="1.4"/>
				</g>
				<g>
					
						<rect x="148.4" y="80" transform="matrix(0.4366 -0.8996 0.8996 0.4366 11.4353 179.6025)" class="st10" width="1.4" height="1.4"/>
				</g>
				<g>
					
						<rect x="151" y="81.2" transform="matrix(0.4366 -0.8996 0.8996 0.4366 11.7633 182.639)" class="st10" width="1.4" height="1.4"/>
				</g>
				<g>
					
						<rect x="153.6" y="82.5" transform="matrix(0.4366 -0.8996 0.8996 0.4366 12.0913 185.6755)" class="st10" width="1.4" height="1.4"/>
				</g>
				<g>
					
						<rect x="151.7" y="83.1" transform="matrix(0.4366 -0.8996 0.8996 0.4366 10.409 184.3212)" class="st10" width="1.4" height="1.4"/>
				</g>
				<g>
					<polygon class="st10" points="162.4,91.1 161.1,90.5 161.8,89.2 160.5,88.6 159.8,89.9 158.6,89.2 157.9,90.5 156.6,89.9 
						156,91.2 157.3,91.8 156.7,93.1 158,93.8 158.6,92.5 159.2,91.2 160.5,91.8 159.9,93.1 159.3,94.4 163.1,96.3 162.5,97.6 
						163.8,98.2 164.4,96.9 165.1,95.6 165.7,94.3 164.4,93.7 163.8,95 161.2,93.7 161.8,92.4 164.4,93.7 165,92.4 166.3,93 
						166.9,91.7 163.1,89.8 					"/>
				</g>
				<g>
					<polygon class="st10" points="141.8,84.3 142.4,83 141.1,82.4 141.7,81.1 143,81.7 142.4,83 143.7,83.6 144.3,82.3 145.6,83 
						145,84.3 143.7,83.6 143.1,84.9 145.6,86.2 145,87.5 146.3,88.1 146.9,86.8 147.6,85.5 146.3,84.9 146.9,83.6 147.5,82.3 
						138.5,77.9 137.8,79.2 140.4,80.5 139.8,81.7 137.2,80.5 136.6,81.8 137.9,82.4 137.3,83.7 138.6,84.3 139.2,83 					"/>
				</g>
				<g>
					<polygon class="st10" points="134,80.5 135.3,81.2 135.9,79.9 136.6,78.6 135.3,77.9 135.9,76.6 134.6,76 134,77.3 133.3,78.6 
						132.7,79.9 132.1,81.2 131.5,82.5 130.8,83.8 130.2,85.1 129.6,86.4 128.9,87.7 130.2,88.3 130.9,87 131.5,85.7 132.8,86.3 
						133.4,85 132.1,84.4 132.7,83.1 134,83.7 134.7,82.4 133.4,81.8 					"/>
				</g>
				<g>
					
						<rect x="134.9" y="81.4" transform="matrix(0.4366 -0.8996 0.8996 0.4366 2.5322 168.2765)" class="st10" width="1.4" height="1.4"/>
				</g>
				<g>
					
						<rect x="141.4" y="84.5" transform="matrix(0.4366 -0.8996 0.8996 0.4366 3.3521 175.8677)" class="st10" width="1.4" height="1.4"/>
				</g>
				<g>
					<polygon class="st10" points="148.3,90.7 148.9,89.4 149.5,88.1 150.8,88.7 151.5,87.4 152.7,88 152.1,89.3 154.7,90.6 
						155.3,89.3 154,88.7 154.7,87.4 156,88 155.3,89.3 156.6,89.9 157.3,88.6 157.9,87.3 156.6,86.7 157.2,85.4 157.9,84.1 
						156.6,83.5 155.9,84.8 155.3,86.1 154,85.4 153.4,86.7 150.8,85.5 150.2,86.8 148.9,86.1 148.2,87.4 147.6,88.7 146.3,88.1 
						145.7,89.4 					"/>
				</g>
				<g>
					
						<rect x="155" y="92.7" transform="matrix(0.4366 -0.8996 0.8996 0.4366 3.6377 192.7324)" class="st10" width="1.4" height="1.4"/>
				</g>
				<g>
					
						<rect x="142.7" y="88.4" transform="matrix(0.4366 -0.8996 0.8996 0.4366 0.6436 179.2322)" class="st10" width="1.4" height="1.4"/>
				</g>
				<g>
					<polygon class="st10" points="160.6,98.2 158,97 158.6,95.7 157.3,95.1 156.7,96.3 156.1,97.6 157.4,98.3 156.7,99.6 
						158,100.2 157.4,101.5 156.8,102.8 159.4,104 160,102.7 160.6,101.4 159.3,100.8 160,99.5 161.3,100.2 160.6,101.4 
						161.9,102.1 162.6,100.8 163.2,99.5 161.9,98.9 162.5,97.6 161.2,96.9 					"/>
				</g>
				<g>
					<polygon class="st10" points="136,86.3 134.7,85.7 134.1,87 133.4,88.3 134.7,88.9 135.4,87.6 					"/>
				</g>
				<g>
					<polygon class="st10" points="140.5,90.1 141.8,90.7 142.5,89.4 141.2,88.8 141.8,87.5 140.5,86.9 139.9,88.2 138.6,87.6 
						139.2,86.3 140.5,86.9 141.1,85.6 138.6,84.3 137.9,85.6 136.6,85 136,86.3 137.3,86.9 136.7,88.2 136,89.5 137.3,90.1 
						138,88.8 139.3,89.5 138.6,90.8 137.3,90.1 136.7,91.4 139.3,92.7 139.9,91.4 					"/>
				</g>
				<g>
					<path class="st10" d="M156.1,97.6l-1.3-0.6l-0.6,1.3l-1.3-0.6l0.6-1.3l1.3,0.6l0.6-1.3l-1.3-0.6l0.6-1.3l-1.3-0.6l0.6-1.3
						l-2.6-1.3l-0.6,1.3l-2.6-1.3l-0.6,1.3l-2.6-1.3l-0.6,1.3l-0.6,1.3l1.3,0.6l0.6-1.3l3.9,1.9l-0.6,1.3l-0.6,1.3l-1.3-0.6
						l-0.6,1.3l-0.6,1.3l1.3,0.6l0.6-1.3L149,99l-0.6,1.3l-1.3-0.6l-0.6,1.3l-0.6,1.3l3.9,1.9l-0.6,1.3l1.3,0.6l0.6-1.3l2.6,1.3
						l0.6-1.3l0.6-1.3l0.6-1.3l0.6-1.3l0.6-1.3l-1.3-0.6L156.1,97.6z M154.2,101.5l-0.6,1.3l-0.6,1.3l-3.9-1.9l0.6-1.3l0.6-1.3
						l0.6-1.3l3.9,1.9L154.2,101.5z"/>
				</g>
				<g>
					
						<rect x="134.4" y="89.1" transform="matrix(0.4366 -0.8996 0.8996 0.4366 -4.7311 172.1329)" class="st10" width="1.4" height="1.4"/>
				</g>
				<g>
					
						<rect x="146" y="94.8" transform="matrix(0.4366 -0.8996 0.8996 0.4366 -3.2552 185.7971)" class="st10" width="1.4" height="1.4"/>
				</g>
				<g>
					<path class="st10" d="M145.1,97.1l0.6-1.3l-2.6-1.3l0.6-1.3l-1.3-0.6l0.6-1.3l-1.3-0.6l-0.6,1.3l-0.6,1.3l1.3,0.6l-0.6,1.3
						l-1.3-0.6l0.6-1.3l-1.3-0.6l-0.6,1.3l-0.6,1.3l-0.6,1.3l-0.6,1.3l-0.6,1.3l2.6,1.3l0.6-1.3l1.3,0.6l0.6-1.3l0.6-1.3l1.3,0.6
						l0.6-1.3L145.1,97.1z M140,97.8l-1.3-0.6l0.6-1.3l1.3,0.6L140,97.8z"/>
				</g>
				<g>
					<path class="st10" d="M127.7,90.3l-0.6,1.3l-0.6,1.3l-0.6,1.3l-0.6,1.3l-0.6,1.3l-0.6,1.3l9.1,4.4l0.6-1.3l0.6-1.3l0.6-1.3
						l0.6-1.3l0.6-1.3l0.6-1.3l0.6-1.3l-9.1-4.4L127.7,90.3z M135.4,94l-0.6,1.3l-0.6,1.3l-0.6,1.3l-0.6,1.3l-0.6,1.3l-6.5-3.1
						l0.6-1.3l0.6-1.3l0.6-1.3l0.6-1.3l0.6-1.3L135.4,94z"/>
				</g>
				<g>
					
						<rect x="151.2" y="100.5" transform="matrix(0.4366 -0.8996 0.8996 0.4366 -5.4717 193.7163)" class="st10" width="1.4" height="1.4"/>
				</g>
				<g>
					
						<rect x="159" y="104.3" transform="matrix(0.4366 -0.8996 0.8996 0.4366 -4.4878 202.8258)" class="st10" width="1.4" height="1.4"/>
				</g>
				<g>
					<polygon class="st10" points="145.2,100.3 145.8,99 143.2,97.8 142.6,99.1 142,100.4 143.3,101 143.9,99.7 					"/>
				</g>
				<g>
					<polygon class="st10" points="156.8,106 156.2,107.3 155.6,108.6 151.7,106.7 151.1,108 149.8,107.4 149.1,108.7 151.7,109.9 
						152.3,108.6 153.6,109.2 153,110.5 155.6,111.8 155,113.1 156.3,113.7 156.9,112.4 157.5,111.1 158.2,109.8 158.8,108.5 
						159.4,107.3 158.1,106.6 158.7,105.3 157.4,104.7 					"/>
				</g>
				<g>
					<polygon class="st10" points="142.6,102.3 141.3,101.7 140.7,103 143.3,104.2 143.9,102.9 145.2,103.6 145.8,102.3 143.3,101 
											"/>
				</g>
				<g>
					<polygon class="st10" points="132.3,97.3 132.9,96 133.5,94.7 129.6,92.8 129,94.1 128.4,95.4 127.8,96.7 131.6,98.6 					"/>
				</g>
				<g>
					
						<rect x="147.4" y="105.1" transform="matrix(0.4366 -0.8996 0.8996 0.4366 -11.7087 192.8541)" class="st10" width="1.4" height="1.4"/>
				</g>
				<g>
					
						<rect x="134.5" y="102" transform="matrix(0.4366 -0.8996 0.8996 0.4366 -16.2211 179.5178)" class="st10" width="1.4" height="1.4"/>
				</g>
				<g>
					<polygon class="st10" points="140.1,104.3 139.4,105.6 143.3,107.4 144,106.1 144.6,104.9 143.3,104.2 142.7,105.5 					"/>
				</g>
				<g>
					
						<rect x="145.5" y="106.6" transform="matrix(0.4366 -0.8996 0.8996 0.4366 -14.8272 192.4229)" class="st10" width="1.4" height="2.9"/>
				</g>
				<g>
					
						<rect x="151.3" y="110.2" transform="matrix(0.4366 -0.8996 0.8996 0.4366 -14.0892 199.255)" class="st10" width="1.4" height="1.4"/>
				</g>
			</g>
			<g>
				<g>
					<g>
						<polygon class="st11" points="133.5,68 132.6,67.6 137.1,58.3 145.9,62.6 145.5,63.5 137.5,59.6 						"/>
					</g>
				</g>
				<g>
					<g>
						<polygon class="st11" points="174.8,88.1 173.9,87.7 178,79.3 170.1,75.4 170.5,74.5 179.3,78.8 						"/>
					</g>
				</g>
				<g>
					<g>
						<polygon class="st11" points="125.4,104.8 116.6,100.6 120.7,92.2 121.5,92.6 117.9,100.1 125.8,104 						"/>
					</g>
				</g>
				<g>
					<g>
						<polygon class="st11" points="158.8,121 150,116.8 150.4,115.9 158.4,119.8 162,112.3 162.9,112.7 						"/>
					</g>
				</g>
			</g>
			<g>
				
					<rect x="100.4" y="133.6" transform="matrix(0.8996 0.4366 -0.4366 0.8996 73.2942 -40.0744)" class="st12" width="46.9" height="11.6"/>
			</g>
			<g>
				<path class="st13" d="M109.8,135.2l-2.3-1.1l2-4.1l2.3,1.1l-0.3,0.7l-1.5-0.7l-0.4,0.9l1.4,0.7l-0.3,0.7l-1.4-0.7l-0.5,1
					l1.5,0.7L109.8,135.2z"/>
				<path class="st13" d="M113.9,135.8c-0.2,0.4-0.5,0.6-0.8,0.7c-0.4,0.1-0.8,0-1.3-0.2c-0.4-0.2-0.8-0.5-1-0.8l0.4-0.8
					c0.2,0.3,0.4,0.5,0.6,0.6c0.2,0.1,0.3,0.3,0.5,0.3c0.2,0.1,0.4,0.1,0.5,0.1c0.1,0,0.2-0.1,0.3-0.2c0-0.1,0.1-0.2,0-0.2
					c0-0.1-0.1-0.2-0.1-0.3c-0.1-0.1-0.2-0.3-0.4-0.5c-0.2-0.2-0.3-0.4-0.4-0.6c-0.1-0.2-0.1-0.3-0.1-0.5c0-0.2,0-0.4,0.1-0.6
					c0.2-0.4,0.4-0.6,0.8-0.7c0.3-0.1,0.7,0,1.2,0.2c0.2,0.1,0.4,0.2,0.6,0.4c0.2,0.1,0.3,0.3,0.5,0.5l-0.6,0.5
					c-0.2-0.2-0.3-0.3-0.4-0.4c-0.1-0.1-0.3-0.2-0.4-0.3c-0.2-0.1-0.3-0.1-0.4-0.1c-0.1,0-0.2,0.1-0.3,0.2c0,0.1-0.1,0.2,0,0.2
					c0,0.1,0,0.2,0.1,0.2c0.1,0.1,0.2,0.3,0.4,0.6c0.3,0.4,0.5,0.7,0.5,0.9C114,135.3,114,135.5,113.9,135.8z"/>
				<path class="st13" d="M117.7,134.9c-0.3-0.2-0.6-0.2-0.9,0c-0.3,0.2-0.6,0.5-0.8,0.9c-0.4,0.9-0.3,1.5,0.4,1.9
					c0.3,0.1,0.7,0.2,1.1,0.3l-0.4,0.7c-0.4,0-0.8-0.1-1.2-0.3c-0.6-0.3-1-0.7-1.1-1.2c-0.1-0.5,0-1.1,0.3-1.8
					c0.2-0.4,0.5-0.8,0.8-1c0.3-0.2,0.6-0.4,1-0.4c0.4,0,0.8,0,1.1,0.2c0.4,0.2,0.7,0.5,1.1,0.9l-0.6,0.6c-0.1-0.1-0.2-0.3-0.4-0.4
					C118,135,117.9,134.9,117.7,134.9z"/>
				<path class="st13" d="M120.7,140.5l0.2-1.1l-1.5-0.7l-0.8,0.8l-0.9-0.5l3.4-3.4l1.1,0.5l-0.5,4.8L120.7,140.5z M121.1,138.6
					c0.2-1,0.2-1.6,0.3-1.7s0-0.2,0.1-0.3c-0.2,0.2-0.6,0.7-1.4,1.5L121.1,138.6z"/>
				<path class="st13" d="M126.1,143.1l-1.1-0.5l-0.3-3.9l0,0c-0.2,0.6-0.4,1-0.5,1.2l-0.9,1.9l-0.8-0.4l2-4.1l1.1,0.5l0.3,3.9l0,0
					c0.2-0.5,0.4-0.9,0.5-1.1l0.9-1.9l0.8,0.4L126.1,143.1z"/>
				<path class="st13" d="M129.7,144.9l-2.3-1.1l2-4.1l2.3,1.1l-0.3,0.7l-1.5-0.7l-0.4,0.9l1.4,0.7l-0.3,0.7l-1.4-0.7l-0.5,1
					l1.5,0.7L129.7,144.9z"/>
				<path class="st13" d="M133.4,146.7l0.2-1.1l-1.5-0.7l-0.8,0.8l-0.9-0.5l3.4-3.4l1.1,0.5l-0.5,4.8L133.4,146.7z M133.7,144.7
					c0.2-1,0.2-1.6,0.3-1.7c0-0.1,0-0.2,0.1-0.3c-0.2,0.2-0.6,0.7-1.4,1.5L133.7,144.7z"/>
				<path class="st13" d="M136.7,146.4l-0.8,1.6l-0.9-0.4l2-4.1l1.2,0.6c0.6,0.3,0.9,0.6,1.1,0.9c0.2,0.3,0.2,0.7,0,1.1
					c-0.1,0.2-0.3,0.4-0.5,0.5c-0.2,0.1-0.5,0.2-0.8,0.2c0.2,1.2,0.3,2,0.3,2.4l-1-0.5l-0.2-2L136.7,146.4z M137,145.6l0.3,0.1
					c0.3,0.1,0.5,0.2,0.7,0.2c0.2,0,0.3-0.1,0.4-0.3c0.1-0.2,0.1-0.4,0-0.5c-0.1-0.1-0.3-0.3-0.6-0.4l-0.3-0.1L137,145.6z"/>
			</g>
			<g>
				<path class="st14" d="M148.6,174.8l54.2-111.7c2.2-4.6,0.3-10.2-4.3-12.4l-51.2-24.8c-3.8-1.9-8.3-0.8-11,2.2
					c9,2.4,26.7,15,36.3,25.6c12.4,13.6,13.5,16.2,3.3,52c-7.2,25.3-28.1,70.4-37.2,74.3C142.6,180.6,146.7,178.6,148.6,174.8z"/>
			</g>
			<g>
				<path class="st13" d="M198.5,50.7l-51.2-24.8c-2.5-1.2-5.2-1.2-7.6-0.2c2.1-0.6,4.4-0.4,6.5,0.6l51.2,24.8
					c4.6,2.2,6.5,7.8,4.3,12.4l-54.2,111.7c-1,2.1-2.8,3.7-4.8,4.5c2.5-0.7,4.6-2.4,5.8-4.9l54.2-111.7
					C205,58.5,203.1,52.9,198.5,50.7z"/>
			</g>
			<g>
				<path class="st11" d="M85.5,154.1c-4.6-2.2-6.5-7.8-4.3-12.4l27.9-57.5l26.1-54.6c-0.1,0.2-0.2,0.4-0.3,0.6L80.7,141.9
					c-2.2,4.6-0.3,10.2,4.3,12.4l51.2,24.8c0.4,0.2,0.9,0.4,1.4,0.5L85.5,154.1z"/>
			</g>
			<g class="st15">
				<path class="st13" d="M199.1,51l-72-4.4l-8.6,18.1l80.1,7.1l4.3-8.8C204.9,58.7,203.3,53.4,199.1,51z"/>
			</g>
			<g class="st15">
				<path class="st13" d="M128.5,43.8c12.5,0.1,41.4-0.3,54.6-0.6l-23.7-11.5l-25.7,1.1l-1.2,2.4L128.5,43.8z"/>
			</g>
		</g>
	</g>
	<g>
		<defs>
			<path id="SVGID_3_" d="M159.3,256.4c23,4.6,47.2,4.9,69.4-2.7c22.1-7.7,41.9-24.1,50-46c8.2-21.9,3-49.2-15-64.1
				c-16-13.3-38.1-15.2-58.7-17.8c-36.4-4.5-74-13.3-102-37.1c-13.6-11.6-25.6-27-43.1-30.9c-13.9-3.1-28.9,2.4-39.2,12.3
				C10.3,80,4.5,93.8,2.1,107.9c-4.6,27.4,3.8,56,19.9,78.6c12.2,17,28.6,30.7,46.7,41c15.5,8.8,33.8,11.4,50.5,17.4
				C132.3,249.5,145.6,253.7,159.3,256.4z"/>
		</defs>
		<clipPath id="SVGID_4_">
			<use xlink:href="#SVGID_3_"  style="overflow:visible;"/>
		</clipPath>
		<g class="st16">
			<g>
				<path class="st3" d="M141.4,207.5c0,0-13.1-26.5,10.3-54.5c-2.2-12.2-2.3-18.2-2.3-18.2s-26.2,0.6-23.9-15.8
					c19.5-2.4,40.8-2.6,40.8-2.6s13.1,22.7,19.2,42.7c9.9,32,16.6,102.1,16.6,102.1l-64.9,0.1L141.4,207.5z"/>
			</g>
			<g>
				<path class="st13" d="M140.6,123c0-2.1-0.1-3.9-0.1-5.4c-4.1,0.3-8.5,0.7-13.1,1.2C127.6,121.7,129.7,125.5,140.6,123z"/>
			</g>
			<g class="st5">
				<path class="st6" d="M150.4,207.8c0,0-12.8-9.7-8.8-27.7c4-18,16.9-26.6,16.9-26.6l-4.2-0.9l-2.4-17.3c0,0,0.8-0.3,3.3-2.5
					c-27.8,1.8-29.1-9.9-28.8-13.8c-0.3,0-0.6,0.1-0.9,0.1c-2.3,16.4,23.9,15.8,23.9,15.8s0.1,6,2.3,18.2
					c-23.4,27.9-10.3,54.5-10.3,54.5l-4.2,53.9h13.1L150.4,207.8z"/>
			</g>
			<g>
				<path class="st17" d="M185.5,159.2c-5.9-19.2-18.3-41-19.2-42.6c3.3,7.5,16.2,37.4,19.6,57c3.1,17.9,2.5,61.3,4.7,87.7l11.5,0
					C202.1,261.3,195.4,191.2,185.5,159.2z"/>
			</g>
			<g>
				<g>
					<path class="st18" d="M161.3,116.6l-2.5,7.3l4.7-7.4C162.8,116.5,162.1,116.6,161.3,116.6z"/>
				</g>
				<g>
					<path class="st18" d="M166.3,116.5l-4.7,10.5l6.6-7.1C167,117.7,166.3,116.5,166.3,116.5z"/>
				</g>
			</g>
		</g>
	</g>
</g>
</svg>
