<?xml version="1.0" encoding="utf-8"?>
<!-- Generator: Adobe Illustrator 24.0.2, SVG Export Plug-In . SVG Version: 6.00 Build 0)  -->
<svg version="1.1" id="Capa_1" xmlns="http://www.w3.org/2000/svg" xmlns:xlink="http://www.w3.org/1999/xlink" x="0px" y="0px"
	 viewBox="0 0 2267.7 2267.7" style="enable-background:new 0 0 2267.7 2267.7;" xml:space="preserve">
<style type="text/css">
	.st0{fill:#FFFFFF;}
	.st1{fill:#C5DFB5;}
	.st2{fill:#EBF4E6;}
	.st3{fill:#82BE5F;}
	.st4{fill:#EF8C8D;}
	.st5{fill:#83BE60;}
	.st6{fill:none;stroke:#82BE5F;stroke-width:1.5;stroke-linecap:round;stroke-linejoin:round;stroke-miterlimit:10;}
	.st7{fill:#E54346;}
	.st8{clip-path:url(#SVGID_2_);fill:#EF8C8D;}
	.st9{clip-path:url(#SVGID_2_);fill:#EF8B8C;}
	.st10{clip-path:url(#SVGID_2_);fill:#EF8A8B;}
	.st11{clip-path:url(#SVGID_2_);fill:#EF898A;}
	.st12{clip-path:url(#SVGID_2_);fill:#EF8889;}
	.st13{clip-path:url(#SVGID_2_);fill:#EF8788;}
	.st14{clip-path:url(#SVGID_2_);fill:#EF8687;}
	.st15{clip-path:url(#SVGID_2_);fill:#EE8586;}
	.st16{clip-path:url(#SVGID_2_);fill:#EE8485;}
	.st17{clip-path:url(#SVGID_2_);fill:#EE8384;}
	.st18{clip-path:url(#SVGID_2_);fill:#EE8283;}
	.st19{clip-path:url(#SVGID_2_);fill:#EE8182;}
	.st20{clip-path:url(#SVGID_2_);fill:#EE8081;}
	.st21{clip-path:url(#SVGID_2_);fill:#EE7F80;}
	.st22{clip-path:url(#SVGID_2_);fill:#EE7E7F;}
	.st23{clip-path:url(#SVGID_2_);fill:#EE7D7E;}
	.st24{clip-path:url(#SVGID_2_);fill:#EE7C7D;}
	.st25{clip-path:url(#SVGID_2_);fill:#EE7B7C;}
	.st26{clip-path:url(#SVGID_2_);fill:#ED7A7B;}
	.st27{clip-path:url(#SVGID_2_);fill:#ED797A;}
	.st28{clip-path:url(#SVGID_2_);fill:#ED7879;}
	.st29{clip-path:url(#SVGID_2_);fill:#ED7778;}
	.st30{clip-path:url(#SVGID_2_);fill:#ED7577;}
	.st31{clip-path:url(#SVGID_2_);fill:#ED7476;}
	.st32{clip-path:url(#SVGID_2_);fill:#ED7375;}
	.st33{clip-path:url(#SVGID_2_);fill:#ED7274;}
	.st34{clip-path:url(#SVGID_2_);fill:#ED7173;}
	.st35{clip-path:url(#SVGID_2_);fill:#ED7073;}
	.st36{clip-path:url(#SVGID_2_);fill:#EC6F72;}
	.st37{clip-path:url(#SVGID_2_);fill:#EC6E71;}
	.st38{clip-path:url(#SVGID_2_);fill:#EC6E70;}
	.st39{clip-path:url(#SVGID_2_);fill:#EC6D6F;}
	.st40{clip-path:url(#SVGID_2_);fill:#EC6C6E;}
	.st41{clip-path:url(#SVGID_2_);fill:#EC6B6E;}
	.st42{clip-path:url(#SVGID_2_);fill:#EC6B6D;}
	.st43{clip-path:url(#SVGID_2_);fill:#EC6A6C;}
	.st44{clip-path:url(#SVGID_2_);fill:#EC696B;}
	.st45{clip-path:url(#SVGID_2_);fill:#EB696A;}
	.st46{clip-path:url(#SVGID_2_);fill:#EB6869;}
	.st47{clip-path:url(#SVGID_2_);fill:#EB6769;}
	.st48{clip-path:url(#SVGID_2_);fill:#EB6668;}
	.st49{clip-path:url(#SVGID_2_);fill:#EB6667;}
	.st50{clip-path:url(#SVGID_2_);fill:#EB6566;}
	.st51{clip-path:url(#SVGID_2_);fill:#EB6465;}
	.st52{clip-path:url(#SVGID_2_);fill:#EB6365;}
	.st53{clip-path:url(#SVGID_2_);fill:#EB6364;}
	.st54{clip-path:url(#SVGID_2_);fill:#EB6263;}
	.st55{clip-path:url(#SVGID_2_);fill:#EA6162;}
	.st56{clip-path:url(#SVGID_2_);fill:#EA6061;}
	.st57{clip-path:url(#SVGID_2_);fill:#EA5F60;}
	.st58{clip-path:url(#SVGID_2_);fill:#EA5E5F;}
	.st59{clip-path:url(#SVGID_2_);fill:#EA5D5E;}
	.st60{clip-path:url(#SVGID_2_);fill:#EA5C5D;}
	.st61{clip-path:url(#SVGID_2_);fill:#EA5B5C;}
	.st62{clip-path:url(#SVGID_2_);fill:#E95A5B;}
	.st63{clip-path:url(#SVGID_2_);fill:#E9595A;}
	.st64{clip-path:url(#SVGID_2_);fill:#E95859;}
	.st65{clip-path:url(#SVGID_2_);fill:#E95758;}
	.st66{clip-path:url(#SVGID_2_);fill:#E95657;}
	.st67{clip-path:url(#SVGID_2_);fill:#E95556;}
	.st68{clip-path:url(#SVGID_2_);fill:#E95455;}
	.st69{clip-path:url(#SVGID_2_);fill:#E85355;}
	.st70{clip-path:url(#SVGID_2_);fill:#E85354;}
	.st71{clip-path:url(#SVGID_2_);fill:#E85253;}
	.st72{clip-path:url(#SVGID_2_);fill:#E85152;}
	.st73{clip-path:url(#SVGID_2_);fill:#E85052;}
	.st74{clip-path:url(#SVGID_2_);fill:#E84F51;}
	.st75{clip-path:url(#SVGID_2_);fill:#E84F50;}
	.st76{clip-path:url(#SVGID_2_);fill:#E84E4F;}
	.st77{clip-path:url(#SVGID_2_);fill:#E84D4F;}
	.st78{clip-path:url(#SVGID_2_);fill:#E84C4E;}
	.st79{clip-path:url(#SVGID_2_);fill:#E74B4D;}
	.st80{clip-path:url(#SVGID_2_);fill:#E74A4C;}
	.st81{clip-path:url(#SVGID_2_);fill:#E7494B;}
	.st82{clip-path:url(#SVGID_2_);fill:#E7484A;}
	.st83{clip-path:url(#SVGID_2_);fill:#E74749;}
	.st84{clip-path:url(#SVGID_2_);fill:#E74649;}
	.st85{clip-path:url(#SVGID_2_);fill:#E74548;}
	.st86{clip-path:url(#SVGID_2_);fill:#E74547;}
	.st87{clip-path:url(#SVGID_2_);fill:#E64446;}
	.st88{clip-path:url(#SVGID_2_);fill:#E64346;}
	.st89{clip-path:url(#SVGID_2_);fill:#E64245;}
	.st90{clip-path:url(#SVGID_2_);fill:#E64144;}
	.st91{clip-path:url(#SVGID_2_);fill:#E64044;}
	.st92{clip-path:url(#SVGID_2_);fill:#E63F43;}
	.st93{clip-path:url(#SVGID_2_);fill:#E63F42;}
	.st94{clip-path:url(#SVGID_2_);fill:#E63E41;}
	.st95{clip-path:url(#SVGID_2_);fill:#E63D41;}
	.st96{clip-path:url(#SVGID_2_);fill:#E53C40;}
	.st97{clip-path:url(#SVGID_2_);fill:#E53B3F;}
	.st98{clip-path:url(#SVGID_2_);fill:#E53A3E;}
	.st99{clip-path:url(#SVGID_2_);fill:#E5393D;}
	.st100{clip-path:url(#SVGID_2_);fill:#E5383D;}
	.st101{clip-path:url(#SVGID_2_);fill:#E5373C;}
	.st102{clip-path:url(#SVGID_2_);fill:#E5373B;}
	.st103{clip-path:url(#SVGID_4_);fill:#EF8C8D;}
	.st104{clip-path:url(#SVGID_4_);fill:#EF8B8C;}
	.st105{clip-path:url(#SVGID_4_);fill:#EF8A8B;}
	.st106{clip-path:url(#SVGID_4_);fill:#EF898A;}
	.st107{clip-path:url(#SVGID_4_);fill:#EF8889;}
	.st108{clip-path:url(#SVGID_4_);fill:#EF8788;}
	.st109{clip-path:url(#SVGID_4_);fill:#EF8687;}
	.st110{clip-path:url(#SVGID_4_);fill:#EE8586;}
	.st111{clip-path:url(#SVGID_4_);fill:#EE8485;}
	.st112{clip-path:url(#SVGID_4_);fill:#EE8384;}
	.st113{clip-path:url(#SVGID_4_);fill:#EE8283;}
	.st114{clip-path:url(#SVGID_4_);fill:#EE8182;}
	.st115{clip-path:url(#SVGID_4_);fill:#EE8081;}
	.st116{clip-path:url(#SVGID_4_);fill:#EE7F80;}
	.st117{clip-path:url(#SVGID_4_);fill:#EE7E7F;}
	.st118{clip-path:url(#SVGID_4_);fill:#EE7D7E;}
	.st119{clip-path:url(#SVGID_4_);fill:#EE7C7D;}
	.st120{clip-path:url(#SVGID_4_);fill:#EE7B7C;}
	.st121{clip-path:url(#SVGID_4_);fill:#ED7A7B;}
	.st122{clip-path:url(#SVGID_4_);fill:#ED797A;}
	.st123{clip-path:url(#SVGID_4_);fill:#ED7879;}
	.st124{clip-path:url(#SVGID_4_);fill:#ED7778;}
	.st125{clip-path:url(#SVGID_4_);fill:#ED7577;}
	.st126{clip-path:url(#SVGID_4_);fill:#ED7476;}
	.st127{clip-path:url(#SVGID_4_);fill:#ED7375;}
	.st128{clip-path:url(#SVGID_4_);fill:#ED7274;}
	.st129{clip-path:url(#SVGID_4_);fill:#ED7173;}
	.st130{clip-path:url(#SVGID_4_);fill:#ED7073;}
	.st131{clip-path:url(#SVGID_4_);fill:#EC6F72;}
	.st132{clip-path:url(#SVGID_4_);fill:#EC6E71;}
	.st133{clip-path:url(#SVGID_4_);fill:#EC6D70;}
	.st134{clip-path:url(#SVGID_4_);fill:#EC6C6F;}
	.st135{clip-path:url(#SVGID_4_);fill:#EC6C6E;}
	.st136{clip-path:url(#SVGID_4_);fill:#EB6B6D;}
	.st137{clip-path:url(#SVGID_4_);fill:#EB6A6C;}
	.st138{clip-path:url(#SVGID_4_);fill:#EB696C;}
	.st139{clip-path:url(#SVGID_4_);fill:#EB686B;}
	.st140{clip-path:url(#SVGID_4_);fill:#EB676A;}
	.st141{clip-path:url(#SVGID_4_);fill:#EA6669;}
	.st142{clip-path:url(#SVGID_4_);fill:#EA6668;}
	.st143{clip-path:url(#SVGID_4_);fill:#EA6567;}
	.st144{clip-path:url(#SVGID_4_);fill:#EA6466;}
	.st145{clip-path:url(#SVGID_4_);fill:#EA6365;}
	.st146{clip-path:url(#SVGID_4_);fill:#E96265;}
	.st147{clip-path:url(#SVGID_4_);fill:#E96164;}
	.st148{clip-path:url(#SVGID_4_);fill:#E96063;}
	.st149{clip-path:url(#SVGID_6_);fill:#EF8C8D;}
	.st150{clip-path:url(#SVGID_6_);fill:#EF8B8C;}
	.st151{clip-path:url(#SVGID_6_);fill:#EF8A8B;}
	.st152{clip-path:url(#SVGID_6_);fill:#EF898A;}
	.st153{clip-path:url(#SVGID_6_);fill:#EF8889;}
	.st154{clip-path:url(#SVGID_6_);fill:#EF8788;}
	.st155{clip-path:url(#SVGID_6_);fill:#EF8687;}
	.st156{clip-path:url(#SVGID_6_);fill:#EE8586;}
	.st157{clip-path:url(#SVGID_6_);fill:#EE8485;}
	.st158{clip-path:url(#SVGID_6_);fill:#EE8384;}
	.st159{clip-path:url(#SVGID_6_);fill:#EE8283;}
	.st160{clip-path:url(#SVGID_6_);fill:#EE8182;}
	.st161{clip-path:url(#SVGID_6_);fill:#EE8081;}
	.st162{clip-path:url(#SVGID_6_);fill:#EE7F80;}
	.st163{clip-path:url(#SVGID_6_);fill:#EE7E7F;}
	.st164{clip-path:url(#SVGID_6_);fill:#EE7D7E;}
	.st165{clip-path:url(#SVGID_6_);fill:#EE7C7D;}
	.st166{clip-path:url(#SVGID_6_);fill:#EE7B7C;}
	.st167{clip-path:url(#SVGID_6_);fill:#ED7A7B;}
	.st168{clip-path:url(#SVGID_6_);fill:#ED797A;}
	.st169{clip-path:url(#SVGID_6_);fill:#ED7879;}
	.st170{clip-path:url(#SVGID_6_);fill:#ED7778;}
	.st171{clip-path:url(#SVGID_6_);fill:#ED7577;}
	.st172{clip-path:url(#SVGID_6_);fill:#ED7476;}
	.st173{clip-path:url(#SVGID_6_);fill:#ED7375;}
	.st174{clip-path:url(#SVGID_6_);fill:#ED7274;}
	.st175{clip-path:url(#SVGID_6_);fill:#ED7173;}
	.st176{clip-path:url(#SVGID_6_);fill:#ED7073;}
	.st177{clip-path:url(#SVGID_6_);fill:#EC6F72;}
	.st178{clip-path:url(#SVGID_6_);fill:#EC6E71;}
	.st179{clip-path:url(#SVGID_6_);fill:#EC6D70;}
	.st180{clip-path:url(#SVGID_6_);fill:#EC6C6F;}
	.st181{clip-path:url(#SVGID_6_);fill:#EC6C6E;}
	.st182{clip-path:url(#SVGID_6_);fill:#EB6B6D;}
	.st183{clip-path:url(#SVGID_6_);fill:#EB6A6C;}
	.st184{clip-path:url(#SVGID_6_);fill:#EB696C;}
	.st185{clip-path:url(#SVGID_6_);fill:#EB686B;}
	.st186{clip-path:url(#SVGID_6_);fill:#EB676A;}
	.st187{clip-path:url(#SVGID_6_);fill:#EA6669;}
	.st188{clip-path:url(#SVGID_6_);fill:#EA6668;}
	.st189{clip-path:url(#SVGID_6_);fill:#EA6567;}
	.st190{clip-path:url(#SVGID_6_);fill:#EA6466;}
	.st191{clip-path:url(#SVGID_6_);fill:#EA6365;}
	.st192{clip-path:url(#SVGID_6_);fill:#E96265;}
	.st193{clip-path:url(#SVGID_6_);fill:#E96164;}
	.st194{clip-path:url(#SVGID_6_);fill:#E96063;}
	.st195{clip-path:url(#SVGID_8_);fill:#EF8C8D;}
	.st196{clip-path:url(#SVGID_8_);fill:#EF8B8C;}
	.st197{clip-path:url(#SVGID_8_);fill:#EF8A8B;}
	.st198{clip-path:url(#SVGID_8_);fill:#EF898A;}
	.st199{clip-path:url(#SVGID_8_);fill:#EF8889;}
	.st200{clip-path:url(#SVGID_8_);fill:#EF8788;}
	.st201{clip-path:url(#SVGID_8_);fill:#EF8687;}
	.st202{clip-path:url(#SVGID_8_);fill:#EE8586;}
	.st203{clip-path:url(#SVGID_8_);fill:#EE8485;}
	.st204{clip-path:url(#SVGID_8_);fill:#EE8384;}
	.st205{clip-path:url(#SVGID_8_);fill:#EE8283;}
	.st206{clip-path:url(#SVGID_8_);fill:#EE8182;}
	.st207{clip-path:url(#SVGID_8_);fill:#EE8081;}
	.st208{clip-path:url(#SVGID_8_);fill:#EE7F80;}
	.st209{clip-path:url(#SVGID_8_);fill:#EE7E7F;}
	.st210{clip-path:url(#SVGID_8_);fill:#EE7D7E;}
	.st211{clip-path:url(#SVGID_8_);fill:#EE7C7D;}
	.st212{clip-path:url(#SVGID_8_);fill:#EE7B7C;}
	.st213{clip-path:url(#SVGID_8_);fill:#ED7A7B;}
	.st214{clip-path:url(#SVGID_8_);fill:#ED797A;}
	.st215{clip-path:url(#SVGID_8_);fill:#ED7879;}
	.st216{clip-path:url(#SVGID_8_);fill:#ED7778;}
	.st217{clip-path:url(#SVGID_8_);fill:#ED7577;}
	.st218{clip-path:url(#SVGID_8_);fill:#ED7476;}
	.st219{clip-path:url(#SVGID_8_);fill:#ED7375;}
	.st220{clip-path:url(#SVGID_8_);fill:#ED7274;}
	.st221{clip-path:url(#SVGID_8_);fill:#ED7173;}
	.st222{clip-path:url(#SVGID_8_);fill:#ED7073;}
	.st223{clip-path:url(#SVGID_8_);fill:#EC6F72;}
	.st224{clip-path:url(#SVGID_8_);fill:#EC6E71;}
	.st225{clip-path:url(#SVGID_8_);fill:#EC6E70;}
	.st226{clip-path:url(#SVGID_8_);fill:#EC6D6F;}
	.st227{clip-path:url(#SVGID_8_);fill:#EC6C6E;}
	.st228{clip-path:url(#SVGID_8_);fill:#EC6B6E;}
	.st229{clip-path:url(#SVGID_8_);fill:#EC6B6D;}
	.st230{clip-path:url(#SVGID_8_);fill:#EC6A6C;}
	.st231{clip-path:url(#SVGID_8_);fill:#EC696B;}
	.st232{clip-path:url(#SVGID_8_);fill:#EB696A;}
	.st233{clip-path:url(#SVGID_8_);fill:#EB6869;}
	.st234{clip-path:url(#SVGID_8_);fill:#EB6769;}
	.st235{clip-path:url(#SVGID_8_);fill:#EB6668;}
	.st236{clip-path:url(#SVGID_8_);fill:#EB6667;}
	.st237{clip-path:url(#SVGID_8_);fill:#EB6566;}
	.st238{clip-path:url(#SVGID_8_);fill:#EB6465;}
	.st239{clip-path:url(#SVGID_8_);fill:#EB6365;}
	.st240{clip-path:url(#SVGID_8_);fill:#EB6364;}
	.st241{clip-path:url(#SVGID_8_);fill:#EB6263;}
	.st242{clip-path:url(#SVGID_8_);fill:#EA6162;}
	.st243{clip-path:url(#SVGID_8_);fill:#EA6061;}
	.st244{clip-path:url(#SVGID_8_);fill:#EA5F60;}
	.st245{clip-path:url(#SVGID_8_);fill:#EA5E5F;}
	.st246{clip-path:url(#SVGID_8_);fill:#EA5D5E;}
	.st247{clip-path:url(#SVGID_8_);fill:#EA5C5D;}
	.st248{clip-path:url(#SVGID_8_);fill:#EA5B5C;}
	.st249{clip-path:url(#SVGID_8_);fill:#E95A5B;}
	.st250{clip-path:url(#SVGID_8_);fill:#E9595A;}
	.st251{clip-path:url(#SVGID_8_);fill:#E95859;}
	.st252{clip-path:url(#SVGID_8_);fill:#E95758;}
	.st253{clip-path:url(#SVGID_8_);fill:#E95657;}
	.st254{clip-path:url(#SVGID_8_);fill:#E95556;}
	.st255{clip-path:url(#SVGID_8_);fill:#E95455;}
	.st256{clip-path:url(#SVGID_8_);fill:#E85355;}
	.st257{clip-path:url(#SVGID_8_);fill:#E85354;}
	.st258{clip-path:url(#SVGID_8_);fill:#E85253;}
	.st259{clip-path:url(#SVGID_8_);fill:#E85152;}
	.st260{clip-path:url(#SVGID_8_);fill:#E85052;}
	.st261{clip-path:url(#SVGID_8_);fill:#E84F51;}
	.st262{clip-path:url(#SVGID_8_);fill:#E84F50;}
	.st263{clip-path:url(#SVGID_8_);fill:#E84E4F;}
	.st264{clip-path:url(#SVGID_8_);fill:#E84D4F;}
	.st265{clip-path:url(#SVGID_8_);fill:#E84C4E;}
	.st266{clip-path:url(#SVGID_8_);fill:#E74B4D;}
	.st267{clip-path:url(#SVGID_8_);fill:#E74A4C;}
	.st268{clip-path:url(#SVGID_8_);fill:#E7494B;}
	.st269{clip-path:url(#SVGID_8_);fill:#E7484A;}
	.st270{clip-path:url(#SVGID_8_);fill:#E74749;}
	.st271{clip-path:url(#SVGID_8_);fill:#E74649;}
	.st272{clip-path:url(#SVGID_8_);fill:#E74548;}
	.st273{clip-path:url(#SVGID_8_);fill:#E74547;}
	.st274{clip-path:url(#SVGID_8_);fill:#E64446;}
	.st275{clip-path:url(#SVGID_8_);fill:#E64346;}
	.st276{clip-path:url(#SVGID_8_);fill:#E64245;}
	.st277{clip-path:url(#SVGID_8_);fill:#E64144;}
	.st278{clip-path:url(#SVGID_8_);fill:#E64044;}
	.st279{clip-path:url(#SVGID_8_);fill:#E63F43;}
	.st280{clip-path:url(#SVGID_8_);fill:#E63F42;}
	.st281{clip-path:url(#SVGID_8_);fill:#E63E41;}
	.st282{clip-path:url(#SVGID_8_);fill:#E63D41;}
	.st283{clip-path:url(#SVGID_8_);fill:#E53C40;}
	.st284{clip-path:url(#SVGID_8_);fill:#E53B3F;}
	.st285{clip-path:url(#SVGID_8_);fill:#E53A3E;}
	.st286{clip-path:url(#SVGID_8_);fill:#E5393D;}
	.st287{clip-path:url(#SVGID_8_);fill:#E5383D;}
	.st288{clip-path:url(#SVGID_8_);fill:#E5373C;}
	.st289{clip-path:url(#SVGID_8_);fill:#E5373B;}
	.st290{clip-path:url(#SVGID_10_);fill:#EF8C8D;}
	.st291{clip-path:url(#SVGID_10_);fill:#EF8B8C;}
	.st292{clip-path:url(#SVGID_10_);fill:#EF8A8B;}
	.st293{clip-path:url(#SVGID_10_);fill:#EF898A;}
	.st294{clip-path:url(#SVGID_10_);fill:#EF8889;}
	.st295{clip-path:url(#SVGID_10_);fill:#EF8788;}
	.st296{clip-path:url(#SVGID_10_);fill:#EF8687;}
	.st297{clip-path:url(#SVGID_10_);fill:#EE8586;}
	.st298{clip-path:url(#SVGID_10_);fill:#EE8485;}
	.st299{clip-path:url(#SVGID_10_);fill:#EE8384;}
	.st300{clip-path:url(#SVGID_10_);fill:#EE8283;}
	.st301{clip-path:url(#SVGID_10_);fill:#EE8182;}
	.st302{clip-path:url(#SVGID_10_);fill:#EE8081;}
	.st303{clip-path:url(#SVGID_10_);fill:#EE7F80;}
	.st304{clip-path:url(#SVGID_10_);fill:#EE7E7F;}
	.st305{clip-path:url(#SVGID_10_);fill:#EE7D7E;}
	.st306{clip-path:url(#SVGID_10_);fill:#EE7C7D;}
	.st307{clip-path:url(#SVGID_10_);fill:#EE7B7C;}
	.st308{clip-path:url(#SVGID_10_);fill:#ED7A7B;}
	.st309{clip-path:url(#SVGID_10_);fill:#ED797A;}
	.st310{clip-path:url(#SVGID_10_);fill:#ED7879;}
	.st311{clip-path:url(#SVGID_10_);fill:#ED7778;}
	.st312{clip-path:url(#SVGID_10_);fill:#ED7577;}
	.st313{clip-path:url(#SVGID_10_);fill:#ED7476;}
	.st314{clip-path:url(#SVGID_10_);fill:#ED7375;}
	.st315{clip-path:url(#SVGID_10_);fill:#ED7274;}
	.st316{clip-path:url(#SVGID_10_);fill:#ED7173;}
	.st317{clip-path:url(#SVGID_10_);fill:#ED7073;}
	.st318{clip-path:url(#SVGID_10_);fill:#EC6F72;}
	.st319{clip-path:url(#SVGID_10_);fill:#EC6E71;}
	.st320{clip-path:url(#SVGID_10_);fill:#EC6D70;}
	.st321{clip-path:url(#SVGID_10_);fill:#EC6C6F;}
	.st322{clip-path:url(#SVGID_10_);fill:#EC6C6E;}
	.st323{clip-path:url(#SVGID_10_);fill:#EB6B6D;}
	.st324{clip-path:url(#SVGID_10_);fill:#EB6A6C;}
	.st325{clip-path:url(#SVGID_10_);fill:#EB696C;}
	.st326{clip-path:url(#SVGID_10_);fill:#EB686B;}
	.st327{clip-path:url(#SVGID_10_);fill:#EB676A;}
	.st328{clip-path:url(#SVGID_10_);fill:#EA6669;}
	.st329{clip-path:url(#SVGID_10_);fill:#EA6668;}
	.st330{clip-path:url(#SVGID_10_);fill:#EA6567;}
	.st331{clip-path:url(#SVGID_10_);fill:#EA6466;}
	.st332{clip-path:url(#SVGID_10_);fill:#EA6365;}
	.st333{clip-path:url(#SVGID_10_);fill:#E96265;}
	.st334{clip-path:url(#SVGID_10_);fill:#E96164;}
	.st335{clip-path:url(#SVGID_10_);fill:#E96063;}
	.st336{clip-path:url(#SVGID_12_);fill:#EF8C8D;}
	.st337{clip-path:url(#SVGID_12_);fill:#EF8B8C;}
	.st338{clip-path:url(#SVGID_12_);fill:#EF8A8B;}
	.st339{clip-path:url(#SVGID_12_);fill:#EF898A;}
	.st340{clip-path:url(#SVGID_12_);fill:#EF8889;}
	.st341{clip-path:url(#SVGID_12_);fill:#EF8788;}
	.st342{clip-path:url(#SVGID_12_);fill:#EF8687;}
	.st343{clip-path:url(#SVGID_12_);fill:#EE8586;}
	.st344{clip-path:url(#SVGID_12_);fill:#EE8485;}
	.st345{clip-path:url(#SVGID_12_);fill:#EE8384;}
	.st346{clip-path:url(#SVGID_12_);fill:#EE8283;}
	.st347{clip-path:url(#SVGID_12_);fill:#EE8182;}
	.st348{clip-path:url(#SVGID_12_);fill:#EE8081;}
	.st349{clip-path:url(#SVGID_12_);fill:#EE7F80;}
	.st350{clip-path:url(#SVGID_12_);fill:#EE7E7F;}
	.st351{clip-path:url(#SVGID_12_);fill:#EE7D7E;}
	.st352{clip-path:url(#SVGID_12_);fill:#EE7C7D;}
	.st353{clip-path:url(#SVGID_12_);fill:#EE7B7C;}
	.st354{clip-path:url(#SVGID_12_);fill:#ED7A7B;}
	.st355{clip-path:url(#SVGID_12_);fill:#ED797A;}
	.st356{clip-path:url(#SVGID_12_);fill:#ED7879;}
	.st357{clip-path:url(#SVGID_12_);fill:#ED7778;}
	.st358{clip-path:url(#SVGID_12_);fill:#ED7577;}
	.st359{clip-path:url(#SVGID_12_);fill:#ED7476;}
	.st360{clip-path:url(#SVGID_12_);fill:#ED7375;}
	.st361{clip-path:url(#SVGID_12_);fill:#ED7274;}
	.st362{clip-path:url(#SVGID_12_);fill:#ED7173;}
	.st363{clip-path:url(#SVGID_12_);fill:#ED7073;}
	.st364{clip-path:url(#SVGID_12_);fill:#EC6F72;}
	.st365{clip-path:url(#SVGID_12_);fill:#EC6E71;}
	.st366{clip-path:url(#SVGID_12_);fill:#EC6D70;}
	.st367{clip-path:url(#SVGID_12_);fill:#EC6C6F;}
	.st368{clip-path:url(#SVGID_12_);fill:#EC6C6E;}
	.st369{clip-path:url(#SVGID_12_);fill:#EB6B6D;}
	.st370{clip-path:url(#SVGID_12_);fill:#EB6A6C;}
	.st371{clip-path:url(#SVGID_12_);fill:#EB696C;}
	.st372{clip-path:url(#SVGID_12_);fill:#EB686B;}
	.st373{clip-path:url(#SVGID_12_);fill:#EB676A;}
	.st374{clip-path:url(#SVGID_12_);fill:#EA6669;}
	.st375{clip-path:url(#SVGID_12_);fill:#EA6668;}
	.st376{clip-path:url(#SVGID_12_);fill:#EA6567;}
	.st377{clip-path:url(#SVGID_12_);fill:#EA6466;}
	.st378{clip-path:url(#SVGID_12_);fill:#EA6365;}
	.st379{clip-path:url(#SVGID_12_);fill:#E96265;}
	.st380{clip-path:url(#SVGID_12_);fill:#E96164;}
	.st381{clip-path:url(#SVGID_12_);fill:#E96063;}
</style>
<g>
	<g>
		
			<image style="overflow:visible;opacity:0.75;" width="401" height="295" xlink:href="assets/svg/288BC9E96749B42F.png"  transform="matrix(4.0519 0 0 4.0519 323.4805 1067.0021)">
		</image>
		<g>
			<g>
				<polygon class="st0" points="419.6,1237.2 420.8,1934.2 1172.7,2151.8 1921.3,1938.2 1924.5,1238 1175.9,1076.6 				"/>
			</g>
		</g>
	</g>
	<g>
		
			<image style="overflow:visible;opacity:0.75;" width="402" height="234" xlink:href="assets/svg/288BC9E96749B42D.png"  transform="matrix(4.0519 0 0 4.0519 319.4286 5.4072)">
		</image>
		<g>
			<g>
				<path class="st0" d="M1172.5,844.7L418.8,714.1V508c0,0,235.5-65.6,244.3-68.1c-5.8-24.6-7.2-54.9,10.6-74.2
					c17-18.5,48.5-23.7,73.7-27c-22.5-12.9-44.1-44.7-38.4-90.8c4.3-34.5,30.7-57.1,50.1-59.8c2.6-59.9,36.7-105.2,63-119.1
					s178.2-52.3,178.2-52.3s38.8-5.6,61.5,33.6c12.1,21,18.9,59.3,25.9,87.9c8.8,36,15.9,67.7,36.2,91.2
					c28.3,33,47.8,48.9,49.7,51.8c18.9-16.9,44.3-38.1,64.9-72.2c5.4-8.9,7.6-21.9,11.1-32c14.6-42.1,18.3-85.8,36.9-126.6
					c10.1-22.1,38.6-31.8,48.7-31.8c25.1,0,157.3,38.9,189.9,52.3c45.1,20.9,65.7,99.4,63,119.1c54,11.4,76.6,107.9,11.7,150.6
					c51.2,6.6,105.1,20.4,84.5,100.2c21.8,5.6,240.9,62.4,240.9,62.4v215.1L1172.5,844.7z"/>
			</g>
		</g>
	</g>
	<g>
		<polygon class="st1" points="418.8,714 1172.1,498.6 1925.9,714 1172.5,844.7 		"/>
	</g>
	<g>
		<polygon class="st2" points="1925.4,503.2 1925.4,718.3 1172.5,844.7 1172.5,608.3 		"/>
		<path class="st3" d="M1172.6,861.6c-4,0-7.8-1.4-10.9-4c-3.8-3.2-6-7.9-6-12.9V608.3c0-8.4,6.2-15.6,14.5-16.7l752.9-105.1
			c4.9-0.7,9.7,0.8,13.4,4c3.7,3.2,5.8,7.8,5.8,12.7v215.1c0,8.2-6,15.3-14.1,16.7l-752.9,126.4
			C1174.4,861.5,1173.5,861.6,1172.6,861.6z M1189.4,623v201.8L1908.5,704V522.6L1189.4,623z"/>
	</g>
	<g>
		<polygon class="st0" points="418.8,508 418.8,714.1 1172.5,844.7 1172.5,608.3 		"/>
		<path class="st3" d="M1172.6,857.3c-0.7,0-1.4-0.1-2.2-0.2L416.6,726.6c-6.1-1-10.5-6.3-10.5-12.5V508c0-3.7,1.6-7.1,4.3-9.5
			c2.8-2.4,6.4-3.5,10-3l753.8,100.3c6.3,0.8,11,6.2,11,12.6v236.4c0,3.7-1.6,7.3-4.5,9.7C1178.4,856.3,1175.5,857.3,1172.6,857.3z
			 M431.4,703.4l728.5,126.2V619.4l-728.5-96.9V703.4z"/>
	</g>
	<g>
		<polygon class="st1" points="422.9,1237.5 1175.9,1076.6 1924.5,1238 1175.9,1399.5 		"/>
	</g>
	<g>
		<polygon class="st4" points="686.7,1293.1 686.7,2011.2 905.6,2075.9 905.6,1340.2 		"/>
	</g>
	<g>
		<polygon class="st4" points="1438.8,1339.5 1438.8,2075.9 1653.9,2014.5 1653.9,1293.1 		"/>
	</g>
	<g>
		<path class="st5" d="M1172.7,1416.1c-1.2,0-2.4-0.1-3.5-0.4l-753.1-162c-7.8-1.7-13.3-8.6-13.3-16.5c0-8,5.6-14.8,13.4-16.5
			l753.1-160.9c2.3-0.5,4.7-0.5,7.1,0l748.6,161.4c7.8,1.7,13.3,8.6,13.3,16.5c0,7.9-5.6,14.8-13.3,16.5l-748.6,161.4
			C1175.1,1415.9,1173.9,1416.1,1172.7,1416.1z M500.2,1237.3l672.5,144.6l668.5-144.2l-668.5-144.2L500.2,1237.3z"/>
	</g>
	<g>
		<path class="st6" d="M335.1,1790.8"/>
	</g>
	<g>
		<path class="st5" d="M1172.7,2168.7c-1.6,0-3.1-0.2-4.7-0.7l-119.8-34.7c-9-2.6-14.1-12-11.5-20.9c2.6-9,12-14.1,20.9-11.5
			l98.2,28.4v-716.5l-719.3-154.7l1.2,663.4L938,2066.3c9,2.6,14.1,12,11.5,20.9c-2.6,9-12,14.1-20.9,11.5l-512.4-148.3
			c-7.2-2.1-12.2-8.7-12.2-16.2l-1.2-697c0-5.1,2.3-9.9,6.3-13.2c4-3.2,9.2-4.4,14.2-3.4l753.1,162c7.8,1.7,13.3,8.5,13.3,16.5
			v752.6c0,5.3-2.5,10.3-6.7,13.5C1179.9,2167.5,1176.3,2168.7,1172.7,2168.7z"/>
	</g>
	<g>
		<path class="st5" d="M1172.7,2168.7c-3.6,0-7.2-1.2-10.2-3.4c-4.2-3.2-6.7-8.2-6.7-13.5v-752.6c0-7.9,5.6-14.8,13.3-16.5
			l748.6-161.4c5-1.1,10.2,0.2,14.2,3.4c4,3.2,6.3,8,6.3,13.1v700.4c0,7.5-5,14.2-12.2,16.2l-509.4,145.4
			c-8.9,2.5-18.3-2.6-20.9-11.6c-2.6-9,2.6-18.3,11.6-20.9l497.2-141.9v-666.8l-714.8,154.2v716.6l98-28c9-2.4,18.3,2.6,20.9,11.6
			c2.6,9-2.6,18.3-11.6,20.9l-119.5,34.1C1175.8,2168.5,1174.2,2168.7,1172.7,2168.7z"/>
	</g>
	<g>
		<polygon class="st2" points="1172.5,297.9 1172.5,498.6 418.8,714 418.8,508 		"/>
		<path class="st3" d="M418.8,730.9c-3.6,0-7.2-1.2-10.2-3.4c-4.2-3.2-6.7-8.2-6.7-13.5V508c0-7.6,5.1-14.2,12.3-16.3L1168,281.6
			c5.1-1.4,10.5-0.4,14.7,2.8c4.2,3.2,6.7,8.2,6.7,13.4v200.7c0,7.5-5,14.2-12.2,16.2L423.4,730.2
			C421.9,730.7,420.3,730.9,418.8,730.9z M435.7,520.9v170.8l720-205.8V320.1L435.7,520.9z"/>
	</g>
	<g>
		<polygon class="st0" points="1172.1,297.9 1172.1,498.6 1925.9,714 1925.9,508 		"/>
		<path class="st3" d="M1925.9,726.7c-1.2,0-2.3-0.2-3.5-0.5l-753.8-215.4c-5.4-1.6-9.2-6.5-9.2-12.2V297.9c0-4,1.8-7.7,5-10.1
			c3.1-2.4,7.2-3.1,11-2.1l753.8,210.1c5.5,1.5,9.3,6.5,9.3,12.2v206c0,4-1.9,7.7-5,10.1C1931.3,725.8,1928.6,726.7,1925.9,726.7z
			 M1184.7,489.1l728.5,208.2V517.6l-728.5-203.1V489.1z"/>
	</g>
	<g>
		<g>
			<g>
				<path class="st7" d="M1577.8,785.5c0,0-78.5-146.7-71-239c2.8-34.4,21.4-103.7,14.6-137.6c-4.7-23.4-88-51.7-137.9-68
					c-86.5-28.3-143.6-48.4-143.6-48.4s69.9,14,137.6,31.7c67,17.6,102.5,22.5,137.6,28.2c37.8,6.2,136,2.8,158.6,33.7
					c27.4,37.4-39.9,89.8-29.9,164.6c6.5,49,93.5,196.9,93.5,196.9l-7.7,9.6l-120.7-93L1590,780.1L1577.8,785.5z"/>
			</g>
			<g>
				<g>
					<defs>
						<path id="SVGID_1_" d="M1590,780.1c0,0-75.3-148.5-67.9-240.7c2.8-34.4,20.6-100.9,13.8-134.7
							c-12.5-62.3-164.2-81.8-116.2-69.8c84.6,21.2,128.7-1.6,137.7-0.2c37.8,6.2,98.7,7.8,121.3,38.7c27.4,37.4-13.2,97.2-3.2,172
							c8.2,61.8,61.7,202.3,61.7,202.3l-107.2-92.3L1590,780.1z"/>
					</defs>
					<clipPath id="SVGID_2_">
						<use xlink:href="#SVGID_1_"  style="overflow:visible;"/>
					</clipPath>
					<polygon class="st8" points="1436.3,780.1 1433.2,765.8 1737.1,699.9 1737.1,780.1 					"/>
					<polygon class="st8" points="1433.2,765.8 1431.7,758.8 1737.1,692.7 1737.1,699.9 					"/>
					<polygon class="st9" points="1431.7,758.8 1430.2,751.9 1737.1,685.4 1737.1,692.7 					"/>
					<polygon class="st10" points="1430.2,751.9 1428.7,745 1737.1,678.2 1737.1,685.4 					"/>
					<polygon class="st11" points="1428.7,745 1427.2,738.1 1737.1,670.9 1737.1,678.2 					"/>
					<polygon class="st12" points="1427.2,738.1 1425.7,731.1 1737.1,663.7 1737.1,670.9 					"/>
					<polygon class="st13" points="1425.7,731.1 1424.2,724.2 1737.1,656.4 1737.1,663.7 					"/>
					<polygon class="st14" points="1424.2,724.2 1422.7,717.3 1737.1,649.1 1737.1,656.4 					"/>
					<polygon class="st15" points="1422.7,717.3 1421.2,710.4 1737.1,641.9 1737.1,649.1 					"/>
					<polygon class="st16" points="1421.2,710.4 1419.7,703.4 1737.1,634.6 1737.1,641.9 					"/>
					<polygon class="st17" points="1419.7,703.4 1418.2,696.5 1737.1,627.4 1737.1,634.6 					"/>
					<polygon class="st18" points="1418.2,696.5 1416.7,689.6 1737.1,620.1 1737.1,627.4 					"/>
					<polygon class="st19" points="1416.7,689.6 1415.2,682.6 1737.1,612.9 1737.1,620.1 					"/>
					<polygon class="st20" points="1415.2,682.6 1413.7,675.7 1737.1,605.6 1737.1,612.9 					"/>
					<polygon class="st21" points="1413.7,675.7 1412.1,668.8 1737.1,598.4 1737.1,605.6 					"/>
					<polygon class="st22" points="1412.1,668.8 1410.6,661.9 1737.1,591.1 1737.1,598.4 					"/>
					<polygon class="st22" points="1410.6,661.9 1409.1,654.9 1737.1,583.9 1737.1,591.1 					"/>
					<polygon class="st23" points="1409.1,654.9 1407.6,648 1737.1,576.6 1737.1,583.9 					"/>
					<polygon class="st24" points="1407.6,648 1406.1,641.1 1737.1,569.4 1737.1,576.6 					"/>
					<polygon class="st25" points="1406.1,641.1 1404.6,634.2 1737.1,562.1 1737.1,569.4 					"/>
					<polygon class="st26" points="1404.6,634.2 1403.1,627.2 1737.1,554.9 1737.1,562.1 					"/>
					<polygon class="st27" points="1403.1,627.2 1401.6,620.3 1737.1,547.6 1737.1,554.9 					"/>
					<polygon class="st28" points="1401.6,620.3 1400.1,613.4 1737.1,540.4 1737.1,547.6 					"/>
					<polygon class="st29" points="1400.1,613.4 1398.6,606.5 1737.1,533.1 1737.1,540.4 					"/>
					<polygon class="st30" points="1398.6,606.5 1397.1,599.5 1737.1,525.9 1737.1,533.1 					"/>
					<polygon class="st31" points="1397.1,599.5 1395.6,592.6 1737.1,518.6 1737.1,525.9 					"/>
					<polygon class="st32" points="1395.6,592.6 1394.1,585.7 1737.1,511.4 1737.1,518.6 					"/>
					<polygon class="st33" points="1394.1,585.7 1392.6,578.7 1737.1,504.1 1737.1,511.4 					"/>
					<polygon class="st34" points="1392.6,578.7 1391.1,571.8 1737.1,496.9 1737.1,504.1 					"/>
					<polygon class="st35" points="1391.1,571.8 1389.6,564.9 1737.1,489.6 1737.1,496.9 					"/>
					<polygon class="st36" points="1389.6,564.9 1388.1,558 1737.1,482.3 1737.1,489.6 					"/>
					<polygon class="st36" points="1388.1,558 1387.6,555.4 1737.1,479.6 1737.1,482.3 					"/>
					<polygon class="st37" points="1387.6,555.4 1387,552.8 1737.1,476.9 1737.1,479.6 					"/>
					<polygon class="st38" points="1387,552.8 1386.5,550.2 1737.1,474.2 1737.1,476.9 					"/>
					<polygon class="st39" points="1386.5,550.2 1385.9,547.6 1737.1,471.5 1737.1,474.2 					"/>
					<polygon class="st40" points="1385.9,547.6 1385.3,545 1737.1,468.8 1737.1,471.5 					"/>
					<polygon class="st41" points="1385.3,545 1384.8,542.4 1737.1,466.1 1737.1,468.8 					"/>
					<polygon class="st42" points="1384.8,542.4 1384.2,539.8 1737.1,463.4 1737.1,466.1 					"/>
					<polygon class="st43" points="1384.2,539.8 1383.7,537.3 1737.1,460.7 1737.1,463.4 					"/>
					<polygon class="st44" points="1383.7,537.3 1383.1,534.7 1737.1,458 1737.1,460.7 					"/>
					<polygon class="st45" points="1383.1,534.7 1382.5,532.1 1737.1,455.3 1737.1,458 					"/>
					<polygon class="st46" points="1382.5,532.1 1382,529.5 1737.1,452.5 1737.1,455.3 					"/>
					<polygon class="st47" points="1382,529.5 1381.4,526.9 1737.1,449.8 1737.1,452.5 					"/>
					<polygon class="st48" points="1381.4,526.9 1380.8,524.3 1737.1,447.1 1737.1,449.8 					"/>
					<polygon class="st49" points="1380.8,524.3 1380.3,521.7 1737.1,444.4 1737.1,447.1 					"/>
					<polygon class="st50" points="1380.3,521.7 1379.7,519.1 1737.1,441.7 1737.1,444.4 					"/>
					<polygon class="st51" points="1379.7,519.1 1379.2,516.6 1737.1,439 1737.1,441.7 					"/>
					<polygon class="st52" points="1379.2,516.6 1378.6,514 1737.1,436.3 1737.1,439 					"/>
					<polygon class="st53" points="1378.6,514 1378,511.4 1737.1,433.6 1737.1,436.3 					"/>
					<polygon class="st54" points="1378,511.4 1377.5,508.8 1737.1,430.9 1737.1,433.6 					"/>
					<polygon class="st55" points="1377.5,508.8 1376.9,506.2 1737.1,428.2 1737.1,430.9 					"/>
					<polygon class="st56" points="1376.9,506.2 1376.4,503.6 1737.1,425.5 1737.1,428.2 					"/>
					<polygon class="st56" points="1376.4,503.6 1375.8,501 1737.1,422.7 1737.1,425.5 					"/>
					<polygon class="st57" points="1375.8,501 1375.2,498.4 1737.1,420 1737.1,422.7 					"/>
					<polygon class="st58" points="1375.2,498.4 1374.7,495.9 1737.1,417.3 1737.1,420 					"/>
					<polygon class="st59" points="1374.7,495.9 1374.1,493.3 1737.1,414.6 1737.1,417.3 					"/>
					<polygon class="st60" points="1374.1,493.3 1373.6,490.7 1737.1,411.9 1737.1,414.6 					"/>
					<polygon class="st60" points="1373.6,490.7 1373,488.1 1737.1,409.2 1737.1,411.9 					"/>
					<polygon class="st61" points="1373,488.1 1372.4,485.5 1737.1,406.5 1737.1,409.2 					"/>
					<polygon class="st62" points="1372.4,485.5 1371.9,482.9 1737.1,403.8 1737.1,406.5 					"/>
					<polygon class="st63" points="1371.9,482.9 1371.8,482.4 1371.8,480.2 1737.1,401.1 1737.1,403.8 					"/>
					<polygon class="st64" points="1371.8,477.5 1737.1,398.4 1737.1,401.1 1371.8,480.2 					"/>
					<polygon class="st64" points="1371.8,474.8 1737.1,395.7 1737.1,398.4 1371.8,477.5 					"/>
					<polygon class="st65" points="1371.8,472.1 1736.8,393 1737.1,394.3 1737.1,395.7 1371.8,474.8 					"/>
					<polygon class="st66" points="1371.8,469.4 1736.3,390.4 1736.8,393 1371.8,472.1 					"/>
					<polygon class="st67" points="1371.8,466.7 1735.7,387.8 1736.3,390.4 1371.8,469.4 					"/>
					<polygon class="st68" points="1371.8,464 1735.2,385.2 1735.7,387.8 1371.8,466.7 					"/>
					<polygon class="st69" points="1371.8,461.3 1734.6,382.7 1735.2,385.2 1371.8,464 					"/>
					<polygon class="st70" points="1371.8,458.6 1734,380.1 1734.6,382.7 1371.8,461.3 					"/>
					<polygon class="st71" points="1371.8,455.9 1733.5,377.5 1734,380.1 1371.8,458.6 					"/>
					<polygon class="st72" points="1371.8,453.1 1732.9,374.9 1733.5,377.5 1371.8,455.9 					"/>
					<polygon class="st73" points="1371.8,450.4 1732.4,372.3 1732.9,374.9 1371.8,453.1 					"/>
					<polygon class="st74" points="1371.8,447.7 1731.8,369.7 1732.4,372.3 1371.8,450.4 					"/>
					<polygon class="st75" points="1371.8,445 1731.2,367.1 1731.8,369.7 1371.8,447.7 					"/>
					<polygon class="st76" points="1371.8,442.3 1730.7,364.5 1731.2,367.1 1371.8,445 					"/>
					<polygon class="st77" points="1371.8,439.6 1730.1,362 1730.7,364.5 1371.8,442.3 					"/>
					<polygon class="st78" points="1371.8,436.9 1729.6,359.4 1730.1,362 1371.8,439.6 					"/>
					<polygon class="st79" points="1371.8,434.2 1729,356.8 1729.6,359.4 1371.8,436.9 					"/>
					<polygon class="st80" points="1371.8,431.5 1728.4,354.2 1729,356.8 1371.8,434.2 					"/>
					<polygon class="st80" points="1371.8,428.8 1727.9,351.6 1728.4,354.2 1371.8,431.5 					"/>
					<polygon class="st81" points="1371.8,426.1 1727.3,349 1727.9,351.6 1371.8,428.8 					"/>
					<polygon class="st82" points="1371.8,423.3 1726.7,346.4 1727.3,349 1371.8,426.1 					"/>
					<polygon class="st83" points="1371.8,420.6 1726.2,343.8 1726.7,346.4 1371.8,423.3 					"/>
					<polygon class="st84" points="1371.8,417.9 1725.6,341.3 1726.2,343.8 1371.8,420.6 					"/>
					<polygon class="st85" points="1371.8,415.2 1725.1,338.7 1725.6,341.3 1371.8,417.9 					"/>
					<polygon class="st86" points="1371.8,412.5 1724.5,336.1 1725.1,338.7 1371.8,415.2 					"/>
					<polygon class="st87" points="1371.8,409.8 1723.9,333.5 1724.5,336.1 1371.8,412.5 					"/>
					<polygon class="st88" points="1371.8,407.1 1723.4,330.9 1723.9,333.5 1371.8,409.8 					"/>
					<polygon class="st89" points="1371.8,404.4 1722.8,328.3 1723.4,330.9 1371.8,407.1 					"/>
					<polygon class="st90" points="1371.8,401.7 1722.3,325.7 1722.8,328.3 1371.8,404.4 					"/>
					<polygon class="st91" points="1371.8,399 1721.7,323.1 1722.3,325.7 1371.8,401.7 					"/>
					<polygon class="st92" points="1371.8,396.3 1710.3,322.9 1721.7,322.9 1721.7,323.1 1371.8,399 					"/>
					<polygon class="st93" points="1371.8,393.5 1697.8,322.9 1710.3,322.9 1371.8,396.3 					"/>
					<polygon class="st94" points="1371.8,390.8 1685.3,322.9 1697.8,322.9 1371.8,393.5 					"/>
					<polygon class="st95" points="1371.8,388.1 1672.7,322.9 1685.3,322.9 1371.8,390.8 					"/>
					<polygon class="st96" points="1371.8,385.4 1660.2,322.9 1672.7,322.9 1371.8,388.1 					"/>
					<polygon class="st97" points="1371.8,382.7 1647.7,322.9 1660.2,322.9 1371.8,385.4 					"/>
					<polygon class="st97" points="1371.8,380 1635.2,322.9 1647.7,322.9 1371.8,382.7 					"/>
					<polygon class="st98" points="1371.8,377.3 1622.7,322.9 1635.2,322.9 1371.8,380 					"/>
					<polygon class="st99" points="1371.8,374.6 1610.2,322.9 1622.7,322.9 1371.8,377.3 					"/>
					<polygon class="st100" points="1371.8,371.9 1597.7,322.9 1610.2,322.9 1371.8,374.6 					"/>
					<polygon class="st101" points="1371.8,369.2 1585.2,322.9 1597.7,322.9 1371.8,371.9 					"/>
					<polygon class="st102" points="1371.8,366.5 1572.7,322.9 1585.2,322.9 1371.8,369.2 					"/>
					<polygon class="st102" points="1572.7,322.9 1371.8,366.5 1371.8,322.9 					"/>
				</g>
			</g>
		</g>
		<g>
			<g>
				<g>
					<defs>
						<path id="SVGID_3_" d="M1173.7,283.1c0,0,47.8-42.1,63-71.7c18.4-35.9,30-112.2,44.3-149.9c7-18.4,31.6-52.9,79.3-40.3
							c55.6,14.7,121.8,32.2,164.9,49.6c33,13.4,79.1,94,57.4,153.1c-30.1,82.1-104.4,84.5-150.8,95.4
							C1368.3,334.2,1173.7,283.1,1173.7,283.1z"/>
					</defs>
					<clipPath id="SVGID_4_">
						<use xlink:href="#SVGID_3_"  style="overflow:visible;"/>
					</clipPath>
					<polygon class="st103" points="1604.3,48.2 1173.7,34.6 1173.7,8.6 1604.3,8.6 					"/>
					<polygon class="st103" points="1604.3,52.6 1173.7,39 1173.7,34.6 1604.3,48.2 					"/>
					<polygon class="st104" points="1604.3,57 1173.7,43.4 1173.7,39 1604.3,52.6 					"/>
					<polygon class="st105" points="1604.3,61.4 1173.7,47.8 1173.7,43.4 1604.3,57 					"/>
					<polygon class="st106" points="1604.3,65.8 1173.7,52.2 1173.7,47.8 1604.3,61.4 					"/>
					<polygon class="st107" points="1604.3,70.2 1173.7,56.6 1173.7,52.2 1604.3,65.8 					"/>
					<polygon class="st108" points="1604.3,74.6 1173.7,61 1173.7,56.6 1604.3,70.2 					"/>
					<polygon class="st109" points="1604.3,79 1173.7,65.4 1173.7,61 1604.3,74.6 					"/>
					<polygon class="st110" points="1604.3,83.4 1173.7,69.8 1173.7,65.4 1604.3,79 					"/>
					<polygon class="st111" points="1604.3,87.8 1173.7,74.2 1173.7,69.8 1604.3,83.4 					"/>
					<polygon class="st112" points="1604.3,92.2 1173.7,78.6 1173.7,74.2 1604.3,87.8 					"/>
					<polygon class="st113" points="1604.3,96.6 1173.7,83 1173.7,78.6 1604.3,92.2 					"/>
					<polygon class="st114" points="1604.3,101 1173.7,87.4 1173.7,83 1604.3,96.6 					"/>
					<polygon class="st115" points="1604.3,105.4 1173.7,91.8 1173.7,87.4 1604.3,101 					"/>
					<polygon class="st116" points="1604.3,109.8 1173.7,96.2 1173.7,91.8 1604.3,105.4 					"/>
					<polygon class="st117" points="1604.3,114.2 1173.7,100.6 1173.7,96.2 1604.3,109.8 					"/>
					<polygon class="st117" points="1604.3,118.6 1173.7,105 1173.7,100.6 1604.3,114.2 					"/>
					<polygon class="st118" points="1604.3,123 1173.7,109.4 1173.7,105 1604.3,118.6 					"/>
					<polygon class="st119" points="1604.3,127.4 1173.7,113.8 1173.7,109.4 1604.3,123 					"/>
					<polygon class="st120" points="1604.3,131.8 1173.7,118.2 1173.7,113.8 1604.3,127.4 					"/>
					<polygon class="st121" points="1604.3,136.3 1173.7,122.6 1173.7,118.2 1604.3,131.8 					"/>
					<polygon class="st122" points="1604.3,140.7 1173.7,127 1173.7,122.6 1604.3,136.3 					"/>
					<polygon class="st123" points="1604.3,145.1 1173.7,131.4 1173.7,127 1604.3,140.7 					"/>
					<polygon class="st124" points="1604.3,149.5 1173.7,135.8 1173.7,131.4 1604.3,145.1 					"/>
					<polygon class="st125" points="1604.3,153.9 1173.7,140.2 1173.7,135.8 1604.3,149.5 					"/>
					<polygon class="st126" points="1604.3,158.3 1173.7,144.6 1173.7,140.2 1604.3,153.9 					"/>
					<polygon class="st127" points="1604.3,162.7 1173.7,149 1173.7,144.6 1604.3,158.3 					"/>
					<polygon class="st128" points="1604.3,167.1 1173.7,153.4 1173.7,149 1604.3,162.7 					"/>
					<polygon class="st129" points="1604.3,171.5 1173.7,157.8 1173.7,153.4 1604.3,167.1 					"/>
					<polygon class="st130" points="1604.3,175.9 1173.7,162.2 1173.7,157.8 1604.3,171.5 					"/>
					<polygon class="st131" points="1604.3,180.3 1173.7,166.6 1173.7,162.2 1604.3,175.9 					"/>
					<polygon class="st131" points="1604.3,186.9 1173.7,173.2 1173.7,166.6 1604.3,180.3 					"/>
					<polygon class="st132" points="1604.3,193.4 1173.7,179.8 1173.7,173.2 1604.3,186.9 					"/>
					<polygon class="st133" points="1604.3,200 1173.7,186.4 1173.7,179.8 1604.3,193.4 					"/>
					<polygon class="st134" points="1604.3,206.6 1173.7,192.9 1173.7,186.4 1604.3,200 					"/>
					<polygon class="st135" points="1604.3,213.2 1173.7,199.5 1173.7,192.9 1604.3,206.6 					"/>
					<polygon class="st136" points="1604.3,219.7 1173.7,206.1 1173.7,199.5 1604.3,213.2 					"/>
					<polygon class="st137" points="1604.3,226.3 1173.7,212.7 1173.7,206.1 1604.3,219.7 					"/>
					<polygon class="st138" points="1604.3,232.9 1173.7,219.3 1173.7,212.7 1604.3,226.3 					"/>
					<polygon class="st139" points="1604.3,239.5 1173.7,225.8 1173.7,219.3 1604.3,232.9 					"/>
					<polygon class="st140" points="1604.3,246.1 1173.7,232.4 1173.7,225.8 1604.3,239.5 					"/>
					<polygon class="st141" points="1604.3,252.6 1173.7,239 1173.7,232.4 1604.3,246.1 					"/>
					<polygon class="st142" points="1604.3,259.2 1173.7,245.6 1173.7,239 1604.3,252.6 					"/>
					<polygon class="st143" points="1604.3,265.8 1173.7,252.2 1173.7,245.6 1604.3,259.2 					"/>
					<polygon class="st144" points="1604.3,272.4 1173.7,258.7 1173.7,252.2 1604.3,265.8 					"/>
					<polygon class="st145" points="1604.3,279 1173.7,265.3 1173.7,258.7 1604.3,272.4 					"/>
					<polygon class="st146" points="1604.3,285.5 1173.7,271.9 1173.7,265.3 1604.3,279 					"/>
					<polygon class="st147" points="1604.3,292.1 1173.7,278.5 1173.7,271.9 1604.3,285.5 					"/>
					<polygon class="st148" points="1604.3,298.7 1173.7,285 1173.7,278.5 1604.3,292.1 					"/>
					<polygon class="st148" points="1173.7,285 1604.3,298.7 1604.3,334.2 1173.7,334.2 					"/>
				</g>
			</g>
			<g>
				<path class="st7" d="M1192.6,277.7c0,0,39.4-24.7,61.3-66.5c20.4-38.9,27.5-145.7,66.9-165.2c22.1-10.9,56.2-7.9,79.4,28.5
					c23,36,24.5,78.7,5.5,119c-19.9,42.3-53.9,71-83.6,82.4C1256.9,301,1192.6,277.7,1192.6,277.7z"/>
			</g>
		</g>
		<g>
			<g>
				<g>
					<defs>
						<path id="SVGID_5_" d="M1604.4,196.3c21.2,12.9,43.3,43.5,31.7,94.2c-11,48-65.6,69.2-95.4,73.5
							c-60.2,8.6-238.9-46.4-238.9-46.4l-89.4-26.1c0,0,77.4-16,119.2-42.8c36-23,31-74.2,75.3-83.7c23.2-5,75.8,4.6,112.3,11.7
							C1556.2,184,1589.6,187.3,1604.4,196.3z"/>
					</defs>
					<clipPath id="SVGID_6_">
						<use xlink:href="#SVGID_5_"  style="overflow:visible;"/>
					</clipPath>
					<polygon class="st149" points="1647.7,175.3 1417.6,160.1 1647.7,160.1 					"/>
					<polygon class="st149" points="1647.7,178.5 1368.7,160.1 1417.6,160.1 1647.7,175.3 					"/>
					<polygon class="st150" points="1647.7,181.8 1319.7,160.1 1368.7,160.1 1647.7,178.5 					"/>
					<polygon class="st151" points="1647.7,185 1270.8,160.1 1319.7,160.1 1647.7,181.8 					"/>
					<polygon class="st152" points="1647.7,188.2 1221.8,160.1 1270.8,160.1 1647.7,185 					"/>
					<polygon class="st153" points="1647.7,191.5 1212.4,162.7 1212.4,160.1 1221.8,160.1 1647.7,188.2 					"/>
					<polygon class="st154" points="1647.7,194.7 1212.4,165.9 1212.4,162.7 1647.7,191.5 					"/>
					<polygon class="st155" points="1647.7,198 1212.4,169.2 1212.4,165.9 1647.7,194.7 					"/>
					<polygon class="st156" points="1647.7,201.2 1212.4,172.4 1212.4,169.2 1647.7,198 					"/>
					<polygon class="st157" points="1647.7,204.4 1212.4,175.6 1212.4,172.4 1647.7,201.2 					"/>
					<polygon class="st158" points="1647.7,207.7 1212.4,178.9 1212.4,175.6 1647.7,204.4 					"/>
					<polygon class="st159" points="1647.7,210.9 1212.4,182.1 1212.4,178.9 1647.7,207.7 					"/>
					<polygon class="st160" points="1647.7,214.2 1212.4,185.4 1212.4,182.1 1647.7,210.9 					"/>
					<polygon class="st161" points="1647.7,217.4 1212.4,188.6 1212.4,185.4 1647.7,214.2 					"/>
					<polygon class="st162" points="1647.7,220.7 1212.4,191.8 1212.4,188.6 1647.7,217.4 					"/>
					<polygon class="st163" points="1647.7,223.9 1212.4,195.1 1212.4,191.8 1647.7,220.7 					"/>
					<polygon class="st163" points="1647.7,227.1 1212.4,198.3 1212.4,195.1 1647.7,223.9 					"/>
					<polygon class="st164" points="1647.7,230.4 1212.4,201.6 1212.4,198.3 1647.7,227.1 					"/>
					<polygon class="st165" points="1647.7,233.6 1212.4,204.8 1212.4,201.6 1647.7,230.4 					"/>
					<polygon class="st166" points="1647.7,236.9 1212.4,208 1212.4,204.8 1647.7,233.6 					"/>
					<polygon class="st167" points="1647.7,240.1 1212.4,211.3 1212.4,208 1647.7,236.9 					"/>
					<polygon class="st168" points="1647.7,243.3 1212.4,214.5 1212.4,211.3 1647.7,240.1 					"/>
					<polygon class="st169" points="1647.7,246.6 1212.4,217.8 1212.4,214.5 1647.7,243.3 					"/>
					<polygon class="st170" points="1647.7,249.8 1212.4,221 1212.4,217.8 1647.7,246.6 					"/>
					<polygon class="st171" points="1647.7,253.1 1212.4,224.2 1212.4,221 1647.7,249.8 					"/>
					<polygon class="st172" points="1647.7,256.3 1212.4,227.5 1212.4,224.2 1647.7,253.1 					"/>
					<polygon class="st173" points="1647.7,259.5 1212.4,230.7 1212.4,227.5 1647.7,256.3 					"/>
					<polygon class="st174" points="1647.7,262.8 1212.4,234 1212.4,230.7 1647.7,259.5 					"/>
					<polygon class="st175" points="1647.7,266 1212.4,237.2 1212.4,234 1647.7,262.8 					"/>
					<polygon class="st176" points="1647.7,269.3 1212.4,240.4 1212.4,237.2 1647.7,266 					"/>
					<polygon class="st177" points="1647.7,272.5 1212.4,243.7 1212.4,240.4 1647.7,269.3 					"/>
					<polygon class="st177" points="1647.7,277.3 1212.4,248.5 1212.4,243.7 1647.7,272.5 					"/>
					<polygon class="st178" points="1647.7,282.2 1212.4,253.4 1212.4,248.5 1647.7,277.3 					"/>
					<polygon class="st179" points="1647.7,287 1212.4,258.2 1212.4,253.4 1647.7,282.2 					"/>
					<polygon class="st180" points="1647.7,291.9 1212.4,263 1212.4,258.2 1647.7,287 					"/>
					<polygon class="st181" points="1647.7,296.7 1212.4,267.9 1212.4,263 1647.7,291.9 					"/>
					<polygon class="st182" points="1647.7,301.5 1212.4,272.7 1212.4,267.9 1647.7,296.7 					"/>
					<polygon class="st183" points="1647.7,306.4 1212.4,277.6 1212.4,272.7 1647.7,301.5 					"/>
					<polygon class="st184" points="1647.7,311.2 1212.4,282.4 1212.4,277.6 1647.7,306.4 					"/>
					<polygon class="st185" points="1647.7,316.1 1212.4,287.3 1212.4,282.4 1647.7,311.2 					"/>
					<polygon class="st186" points="1647.7,320.9 1212.4,292.1 1212.4,287.3 1647.7,316.1 					"/>
					<polygon class="st187" points="1647.7,325.8 1212.4,296.9 1212.4,292.1 1647.7,320.9 					"/>
					<polygon class="st188" points="1647.7,330.6 1212.4,301.8 1212.4,296.9 1647.7,325.8 					"/>
					<polygon class="st189" points="1647.7,335.4 1212.4,306.6 1212.4,301.8 1647.7,330.6 					"/>
					<polygon class="st190" points="1647.7,340.3 1212.4,311.5 1212.4,306.6 1647.7,335.4 					"/>
					<polygon class="st191" points="1647.7,345.1 1212.4,316.3 1212.4,311.5 1647.7,340.3 					"/>
					<polygon class="st192" points="1647.7,350 1212.4,321.1 1212.4,316.3 1647.7,345.1 					"/>
					<polygon class="st193" points="1647.7,354.8 1212.4,326 1212.4,321.1 1647.7,350 					"/>
					<polygon class="st194" points="1647.7,359.6 1212.4,330.8 1212.4,326 1647.7,354.8 					"/>
					<polygon class="st194" points="1212.4,330.8 1647.7,359.6 1647.7,372.6 1212.4,372.6 					"/>
				</g>
			</g>
			<g>
				<path class="st7" d="M1201.8,289.1c0,0,99.1-0.4,145.8-36.7c28.6-22.2,32.3-79.5,74.1-78.4c32.7,0.9,68.1,67.4,32.1,116.7
					c-24.5,33.6-58.1,45.6-95.4,37C1319,318.8,1201.8,289.1,1201.8,289.1z"/>
			</g>
		</g>
	</g>
	<g>
		<g>
			<g>
				<path class="st7" d="M769.6,783.6c0,0,78.5-146.7,71-239c-2.8-34.4-21.4-103.7-14.6-137.6c4.7-23.4,88-51.7,137.9-68
					c86.5-28.3,143.6-48.4,143.6-48.4s-69.9,14-137.6,31.7c-67,17.6-102.5,22.5-137.6,28.2c-37.8,6.2-136,2.8-158.6,33.7
					c-27.4,37.4,39.9,89.8,29.9,164.6c-6.5,49-93.5,196.9-93.5,196.9l7.7,9.6l120.7-93l18.7,115.8L769.6,783.6z"/>
			</g>
			<g>
				<g>
					<defs>
						<path id="SVGID_7_" d="M757.4,778.2c0,0,75.3-148.5,67.9-240.7c-2.8-34.4-20.6-100.9-13.8-134.7
							c12.5-62.3,164.2-81.8,116.2-69.8C843,354.1,799,331.3,790,332.8c-37.8,6.2-98.7,7.8-121.3,38.7c-27.4,37.4,13.2,97.2,3.2,172
							c-8.2,61.8-61.7,202.3-61.7,202.3l107.2-92.3L757.4,778.2z"/>
					</defs>
					<clipPath id="SVGID_8_">
						<use xlink:href="#SVGID_7_"  style="overflow:visible;"/>
					</clipPath>
					<polygon class="st195" points="610.3,698 914.2,763.8 911.1,778.2 610.3,778.2 					"/>
					<polygon class="st195" points="610.3,690.7 915.7,756.9 914.2,763.8 610.3,698 					"/>
					<polygon class="st196" points="610.3,683.5 917.2,750 915.7,756.9 610.3,690.7 					"/>
					<polygon class="st197" points="610.3,676.2 918.7,743.1 917.2,750 610.3,683.5 					"/>
					<polygon class="st198" points="610.3,669 920.2,736.1 918.7,743.1 610.3,676.2 					"/>
					<polygon class="st199" points="610.3,661.7 921.7,729.2 920.2,736.1 610.3,669 					"/>
					<polygon class="st200" points="610.3,654.5 923.2,722.3 921.7,729.2 610.3,661.7 					"/>
					<polygon class="st201" points="610.3,647.2 924.7,715.4 923.2,722.3 610.3,654.5 					"/>
					<polygon class="st202" points="610.3,640 926.2,708.4 924.7,715.4 610.3,647.2 					"/>
					<polygon class="st203" points="610.3,632.7 927.7,701.5 926.2,708.4 610.3,640 					"/>
					<polygon class="st204" points="610.3,625.5 929.2,694.6 927.7,701.5 610.3,632.7 					"/>
					<polygon class="st205" points="610.3,618.2 930.7,687.6 929.2,694.6 610.3,625.5 					"/>
					<polygon class="st206" points="610.3,611 932.2,680.7 930.7,687.6 610.3,618.2 					"/>
					<polygon class="st207" points="610.3,603.7 933.7,673.8 932.2,680.7 610.3,611 					"/>
					<polygon class="st208" points="610.3,596.4 935.2,666.9 933.7,673.8 610.3,603.7 					"/>
					<polygon class="st209" points="610.3,589.2 936.7,659.9 935.2,666.9 610.3,596.4 					"/>
					<polygon class="st209" points="610.3,581.9 938.2,653 936.7,659.9 610.3,589.2 					"/>
					<polygon class="st210" points="610.3,574.7 939.7,646.1 938.2,653 610.3,581.9 					"/>
					<polygon class="st211" points="610.3,567.4 941.2,639.2 939.7,646.1 610.3,574.7 					"/>
					<polygon class="st212" points="610.3,560.2 942.7,632.2 941.2,639.2 610.3,567.4 					"/>
					<polygon class="st213" points="610.3,552.9 944.2,625.3 942.7,632.2 610.3,560.2 					"/>
					<polygon class="st214" points="610.3,545.7 945.7,618.4 944.2,625.3 610.3,552.9 					"/>
					<polygon class="st215" points="610.3,538.4 947.2,611.4 945.7,618.4 610.3,545.7 					"/>
					<polygon class="st216" points="610.3,531.2 948.8,604.5 947.2,611.4 610.3,538.4 					"/>
					<polygon class="st217" points="610.3,523.9 950.3,597.6 948.8,604.5 610.3,531.2 					"/>
					<polygon class="st218" points="610.3,516.7 951.8,590.7 950.3,597.6 610.3,523.9 					"/>
					<polygon class="st219" points="610.3,509.4 953.3,583.7 951.8,590.7 610.3,516.7 					"/>
					<polygon class="st220" points="610.3,502.2 954.8,576.8 953.3,583.7 610.3,509.4 					"/>
					<polygon class="st221" points="610.3,494.9 956.3,569.9 954.8,576.8 610.3,502.2 					"/>
					<polygon class="st222" points="610.3,487.7 957.8,563 956.3,569.9 610.3,494.9 					"/>
					<polygon class="st223" points="610.3,480.4 959.3,556 957.8,563 610.3,487.7 					"/>
					<polygon class="st223" points="610.3,477.7 959.8,553.4 959.3,556 610.3,480.4 					"/>
					<polygon class="st224" points="610.3,475 960.4,550.9 959.8,553.4 610.3,477.7 					"/>
					<polygon class="st225" points="610.3,472.3 960.9,548.3 960.4,550.9 610.3,475 					"/>
					<polygon class="st226" points="610.3,469.6 961.5,545.7 960.9,548.3 610.3,472.3 					"/>
					<polygon class="st227" points="610.3,466.9 962.1,543.1 961.5,545.7 610.3,469.6 					"/>
					<polygon class="st228" points="610.3,464.2 962.6,540.5 962.1,543.1 610.3,466.9 					"/>
					<polygon class="st229" points="610.3,461.4 963.2,537.9 962.6,540.5 610.3,464.2 					"/>
					<polygon class="st230" points="610.3,458.7 963.7,535.3 963.2,537.9 610.3,461.4 					"/>
					<polygon class="st231" points="610.3,456 964.3,532.7 963.7,535.3 610.3,458.7 					"/>
					<polygon class="st232" points="610.3,453.3 964.9,530.2 964.3,532.7 610.3,456 					"/>
					<polygon class="st233" points="610.3,450.6 965.4,527.6 964.9,530.2 610.3,453.3 					"/>
					<polygon class="st234" points="610.3,447.9 966,525 965.4,527.6 610.3,450.6 					"/>
					<polygon class="st235" points="610.3,445.2 966.5,522.4 966,525 610.3,447.9 					"/>
					<polygon class="st236" points="610.3,442.5 967.1,519.8 966.5,522.4 610.3,445.2 					"/>
					<polygon class="st237" points="610.3,439.8 967.7,517.2 967.1,519.8 610.3,442.5 					"/>
					<polygon class="st238" points="610.3,437.1 968.2,514.6 967.7,517.2 610.3,439.8 					"/>
					<polygon class="st239" points="610.3,434.4 968.8,512 968.2,514.6 610.3,437.1 					"/>
					<polygon class="st240" points="610.3,431.6 969.3,509.5 968.8,512 610.3,434.4 					"/>
					<polygon class="st241" points="610.3,428.9 969.9,506.9 969.3,509.5 610.3,431.6 					"/>
					<polygon class="st242" points="610.3,426.2 970.5,504.3 969.9,506.9 610.3,428.9 					"/>
					<polygon class="st243" points="610.3,423.5 971,501.7 970.5,504.3 610.3,426.2 					"/>
					<polygon class="st243" points="610.3,420.8 971.6,499.1 971,501.7 610.3,423.5 					"/>
					<polygon class="st244" points="610.3,418.1 972.2,496.5 971.6,499.1 610.3,420.8 					"/>
					<polygon class="st245" points="610.3,415.4 972.7,493.9 972.2,496.5 610.3,418.1 					"/>
					<polygon class="st246" points="610.3,412.7 973.3,491.3 972.7,493.9 610.3,415.4 					"/>
					<polygon class="st247" points="610.3,410 973.8,488.7 973.3,491.3 610.3,412.7 					"/>
					<polygon class="st247" points="610.3,407.3 974.4,486.2 973.8,488.7 610.3,410 					"/>
					<polygon class="st248" points="610.3,404.6 975,483.6 974.4,486.2 610.3,407.3 					"/>
					<polygon class="st249" points="610.3,401.8 975.5,481 975,483.6 610.3,404.6 					"/>
					<polygon class="st250" points="610.3,399.1 975.6,478.3 975.6,480.4 975.5,481 610.3,401.8 					"/>
					<polygon class="st251" points="610.3,396.4 975.6,475.6 975.6,478.3 610.3,399.1 					"/>
					<polygon class="st251" points="610.3,393.7 975.6,472.9 975.6,475.6 610.3,396.4 					"/>
					<polygon class="st252" points="610.3,392.4 610.5,391.1 975.6,470.2 975.6,472.9 610.3,393.7 					"/>
					<polygon class="st253" points="610.5,391.1 611.1,388.5 975.6,467.5 975.6,470.2 					"/>
					<polygon class="st254" points="611.1,388.5 611.7,385.9 975.6,464.8 975.6,467.5 					"/>
					<polygon class="st255" points="611.7,385.9 612.2,383.3 975.6,462 975.6,464.8 					"/>
					<polygon class="st256" points="612.2,383.3 612.8,380.7 975.6,459.3 975.6,462 					"/>
					<polygon class="st257" points="612.8,380.7 613.4,378.1 975.6,456.6 975.6,459.3 					"/>
					<polygon class="st258" points="613.4,378.1 613.9,375.5 975.6,453.9 975.6,456.6 					"/>
					<polygon class="st259" points="613.9,375.5 614.5,373 975.6,451.2 975.6,453.9 					"/>
					<polygon class="st260" points="614.5,373 615,370.4 975.6,448.5 975.6,451.2 					"/>
					<polygon class="st261" points="615,370.4 615.6,367.8 975.6,445.8 975.6,448.5 					"/>
					<polygon class="st262" points="615.6,367.8 616.2,365.2 975.6,443.1 975.6,445.8 					"/>
					<polygon class="st263" points="616.2,365.2 616.7,362.6 975.6,440.4 975.6,443.1 					"/>
					<polygon class="st264" points="616.7,362.6 617.3,360 975.6,437.7 975.6,440.4 					"/>
					<polygon class="st265" points="617.3,360 617.8,357.4 975.6,435 975.6,437.7 					"/>
					<polygon class="st266" points="617.8,357.4 618.4,354.8 975.6,432.2 975.6,435 					"/>
					<polygon class="st267" points="618.4,354.8 619,352.3 975.6,429.5 975.6,432.2 					"/>
					<polygon class="st267" points="619,352.3 619.5,349.7 975.6,426.8 975.6,429.5 					"/>
					<polygon class="st268" points="619.5,349.7 620.1,347.1 975.6,424.1 975.6,426.8 					"/>
					<polygon class="st269" points="620.1,347.1 620.6,344.5 975.6,421.4 975.6,424.1 					"/>
					<polygon class="st270" points="620.6,344.5 621.2,341.9 975.6,418.7 975.6,421.4 					"/>
					<polygon class="st271" points="621.2,341.9 621.8,339.3 975.6,416 975.6,418.7 					"/>
					<polygon class="st272" points="621.8,339.3 622.3,336.7 975.6,413.3 975.6,416 					"/>
					<polygon class="st273" points="622.3,336.7 622.9,334.1 975.6,410.6 975.6,413.3 					"/>
					<polygon class="st274" points="622.9,334.1 623.4,331.6 975.6,407.9 975.6,410.6 					"/>
					<polygon class="st275" points="623.4,331.6 624,329 975.6,405.2 975.6,407.9 					"/>
					<polygon class="st276" points="624,329 624.6,326.4 975.6,402.4 975.6,405.2 					"/>
					<polygon class="st277" points="624.6,326.4 625.1,323.8 975.6,399.7 975.6,402.4 					"/>
					<polygon class="st278" points="625.1,323.8 625.7,321.2 975.6,397 975.6,399.7 					"/>
					<polygon class="st279" points="625.7,321.2 625.7,321 637.1,321 975.6,394.3 975.6,397 					"/>
					<polygon class="st280" points="649.6,321 975.6,391.6 975.6,394.3 637.1,321 					"/>
					<polygon class="st281" points="662.1,321 975.6,388.9 975.6,391.6 649.6,321 					"/>
					<polygon class="st282" points="674.6,321 975.6,386.2 975.6,388.9 662.1,321 					"/>
					<polygon class="st283" points="687.1,321 975.6,383.5 975.6,386.2 674.6,321 					"/>
					<polygon class="st284" points="699.7,321 975.6,380.8 975.6,383.5 687.1,321 					"/>
					<polygon class="st284" points="712.2,321 975.6,378.1 975.6,380.8 699.7,321 					"/>
					<polygon class="st285" points="724.7,321 975.6,375.4 975.6,378.1 712.2,321 					"/>
					<polygon class="st286" points="737.2,321 975.6,372.6 975.6,375.4 724.7,321 					"/>
					<polygon class="st287" points="749.7,321 975.6,369.9 975.6,372.6 737.2,321 					"/>
					<polygon class="st288" points="762.2,321 975.6,367.2 975.6,369.9 749.7,321 					"/>
					<polygon class="st289" points="774.7,321 975.6,364.5 975.6,367.2 762.2,321 					"/>
					<polygon class="st289" points="975.6,364.5 774.7,321 975.6,321 					"/>
				</g>
			</g>
		</g>
		<g>
			<g>
				<g>
					<defs>
						<path id="SVGID_9_" d="M1173.7,281.2c0,0-47.8-42.1-63-71.7c-18.4-35.9-30-112.2-44.3-149.9c-7-18.4-31.6-52.9-79.3-40.3
							C931.5,34,865.3,51.5,822.2,68.9c-33,13.4-79.1,94-57.4,153.1c30.1,82.1,104.4,84.5,150.8,95.4
							C979,332.3,1173.7,281.2,1173.7,281.2z"/>
					</defs>
					<clipPath id="SVGID_10_">
						<use xlink:href="#SVGID_9_"  style="overflow:visible;"/>
					</clipPath>
					<polygon class="st290" points="1173.7,32.6 743.1,46.3 743.1,6.7 1173.7,6.7 					"/>
					<polygon class="st290" points="1173.7,37 743.1,50.7 743.1,46.3 1173.7,32.6 					"/>
					<polygon class="st291" points="1173.7,41.4 743.1,55.1 743.1,50.7 1173.7,37 					"/>
					<polygon class="st292" points="1173.7,45.8 743.1,59.5 743.1,55.1 1173.7,41.4 					"/>
					<polygon class="st293" points="1173.7,50.2 743.1,63.9 743.1,59.5 1173.7,45.8 					"/>
					<polygon class="st294" points="1173.7,54.6 743.1,68.3 743.1,63.9 1173.7,50.2 					"/>
					<polygon class="st295" points="1173.7,59 743.1,72.7 743.1,68.3 1173.7,54.6 					"/>
					<polygon class="st296" points="1173.7,63.4 743.1,77.1 743.1,72.7 1173.7,59 					"/>
					<polygon class="st297" points="1173.7,67.8 743.1,81.5 743.1,77.1 1173.7,63.4 					"/>
					<polygon class="st298" points="1173.7,72.2 743.1,85.9 743.1,81.5 1173.7,67.8 					"/>
					<polygon class="st299" points="1173.7,76.6 743.1,90.3 743.1,85.9 1173.7,72.2 					"/>
					<polygon class="st300" points="1173.7,81 743.1,94.7 743.1,90.3 1173.7,76.6 					"/>
					<polygon class="st301" points="1173.7,85.5 743.1,99.1 743.1,94.7 1173.7,81 					"/>
					<polygon class="st302" points="1173.7,89.9 743.1,103.5 743.1,99.1 1173.7,85.5 					"/>
					<polygon class="st303" points="1173.7,94.3 743.1,107.9 743.1,103.5 1173.7,89.9 					"/>
					<polygon class="st304" points="1173.7,98.7 743.1,112.3 743.1,107.9 1173.7,94.3 					"/>
					<polygon class="st304" points="1173.7,103.1 743.1,116.7 743.1,112.3 1173.7,98.7 					"/>
					<polygon class="st305" points="1173.7,107.5 743.1,121.1 743.1,116.7 1173.7,103.1 					"/>
					<polygon class="st306" points="1173.7,111.9 743.1,125.5 743.1,121.1 1173.7,107.5 					"/>
					<polygon class="st307" points="1173.7,116.3 743.1,129.9 743.1,125.5 1173.7,111.9 					"/>
					<polygon class="st308" points="1173.7,120.7 743.1,134.3 743.1,129.9 1173.7,116.3 					"/>
					<polygon class="st309" points="1173.7,125.1 743.1,138.7 743.1,134.3 1173.7,120.7 					"/>
					<polygon class="st310" points="1173.7,129.5 743.1,143.1 743.1,138.7 1173.7,125.1 					"/>
					<polygon class="st311" points="1173.7,133.9 743.1,147.5 743.1,143.1 1173.7,129.5 					"/>
					<polygon class="st312" points="1173.7,138.3 743.1,151.9 743.1,147.5 1173.7,133.9 					"/>
					<polygon class="st313" points="1173.7,142.7 743.1,156.3 743.1,151.9 1173.7,138.3 					"/>
					<polygon class="st314" points="1173.7,147.1 743.1,160.7 743.1,156.3 1173.7,142.7 					"/>
					<polygon class="st315" points="1173.7,151.5 743.1,165.1 743.1,160.7 1173.7,147.1 					"/>
					<polygon class="st316" points="1173.7,155.9 743.1,169.5 743.1,165.1 1173.7,151.5 					"/>
					<polygon class="st317" points="1173.7,160.3 743.1,173.9 743.1,169.5 1173.7,155.9 					"/>
					<polygon class="st318" points="1173.7,164.7 743.1,178.3 743.1,173.9 1173.7,160.3 					"/>
					<polygon class="st318" points="1173.7,171.3 743.1,184.9 743.1,178.3 1173.7,164.7 					"/>
					<polygon class="st319" points="1173.7,177.9 743.1,191.5 743.1,184.9 1173.7,171.3 					"/>
					<polygon class="st320" points="1173.7,184.4 743.1,198.1 743.1,191.5 1173.7,177.9 					"/>
					<polygon class="st321" points="1173.7,191 743.1,204.7 743.1,198.1 1173.7,184.4 					"/>
					<polygon class="st322" points="1173.7,197.6 743.1,211.2 743.1,204.7 1173.7,191 					"/>
					<polygon class="st323" points="1173.7,204.2 743.1,217.8 743.1,211.2 1173.7,197.6 					"/>
					<polygon class="st324" points="1173.7,210.7 743.1,224.4 743.1,217.8 1173.7,204.2 					"/>
					<polygon class="st325" points="1173.7,217.3 743.1,231 743.1,224.4 1173.7,210.7 					"/>
					<polygon class="st326" points="1173.7,223.9 743.1,237.6 743.1,231 1173.7,217.3 					"/>
					<polygon class="st327" points="1173.7,230.5 743.1,244.1 743.1,237.6 1173.7,223.9 					"/>
					<polygon class="st328" points="1173.7,237.1 743.1,250.7 743.1,244.1 1173.7,230.5 					"/>
					<polygon class="st329" points="1173.7,243.6 743.1,257.3 743.1,250.7 1173.7,237.1 					"/>
					<polygon class="st330" points="1173.7,250.2 743.1,263.9 743.1,257.3 1173.7,243.6 					"/>
					<polygon class="st331" points="1173.7,256.8 743.1,270.4 743.1,263.9 1173.7,250.2 					"/>
					<polygon class="st332" points="1173.7,263.4 743.1,277 743.1,270.4 1173.7,256.8 					"/>
					<polygon class="st333" points="1173.7,270 743.1,283.6 743.1,277 1173.7,263.4 					"/>
					<polygon class="st334" points="1173.7,276.5 743.1,290.2 743.1,283.6 1173.7,270 					"/>
					<polygon class="st335" points="1173.7,283.1 743.1,296.8 743.1,290.2 1173.7,276.5 					"/>
					<polygon class="st335" points="743.1,296.8 1173.7,283.1 1173.7,332.3 743.1,332.3 					"/>
				</g>
			</g>
			<g>
				<path class="st7" d="M1154.7,275.7c0,0-39.4-24.7-61.3-66.5c-20.4-38.9-27.5-145.7-66.9-165.2c-22.1-10.9-56.2-7.9-79.4,28.5
					c-23,36-24.5,78.7-5.5,119c19.9,42.3,53.9,71,83.6,82.4C1090.5,299.1,1154.7,275.7,1154.7,275.7z"/>
			</g>
		</g>
		<g>
			<g>
				<g>
					<defs>
						<path id="SVGID_11_" d="M743,194.4c-21.2,12.9-43.3,43.5-31.7,94.2c11,48,65.6,69.2,95.4,73.5c60.2,8.6,238.9-46.4,238.9-46.4
							l89.4-26.1c0,0-77.4-16-119.2-42.8c-36-23-31-74.2-75.3-83.7c-23.2-5-75.8,4.6-112.3,11.7C791.2,182,757.7,185.4,743,194.4z"
							/>
					</defs>
					<clipPath id="SVGID_12_">
						<use xlink:href="#SVGID_11_"  style="overflow:visible;"/>
					</clipPath>
					<polygon class="st336" points="929.8,158.1 699.7,173.4 699.7,158.1 					"/>
					<polygon class="st336" points="978.7,158.1 699.7,176.6 699.7,173.4 929.8,158.1 					"/>
					<polygon class="st337" points="1027.7,158.1 699.7,179.8 699.7,176.6 978.7,158.1 					"/>
					<polygon class="st338" points="1076.6,158.1 699.7,183.1 699.7,179.8 1027.7,158.1 					"/>
					<polygon class="st339" points="1125.6,158.1 699.7,186.3 699.7,183.1 1076.6,158.1 					"/>
					<polygon class="st340" points="1135,160.7 699.7,189.6 699.7,186.3 1125.6,158.1 1135,158.1 					"/>
					<polygon class="st341" points="1135,164 699.7,192.8 699.7,189.6 1135,160.7 					"/>
					<polygon class="st342" points="1135,167.2 699.7,196 699.7,192.8 1135,164 					"/>
					<polygon class="st343" points="1135,170.5 699.7,199.3 699.7,196 1135,167.2 					"/>
					<polygon class="st344" points="1135,173.7 699.7,202.5 699.7,199.3 1135,170.5 					"/>
					<polygon class="st345" points="1135,176.9 699.7,205.8 699.7,202.5 1135,173.7 					"/>
					<polygon class="st346" points="1135,180.2 699.7,209 699.7,205.8 1135,176.9 					"/>
					<polygon class="st347" points="1135,183.4 699.7,212.2 699.7,209 1135,180.2 					"/>
					<polygon class="st348" points="1135,186.7 699.7,215.5 699.7,212.2 1135,183.4 					"/>
					<polygon class="st349" points="1135,189.9 699.7,218.7 699.7,215.5 1135,186.7 					"/>
					<polygon class="st350" points="1135,193.1 699.7,222 699.7,218.7 1135,189.9 					"/>
					<polygon class="st350" points="1135,196.4 699.7,225.2 699.7,222 1135,193.1 					"/>
					<polygon class="st351" points="1135,199.6 699.7,228.4 699.7,225.2 1135,196.4 					"/>
					<polygon class="st352" points="1135,202.9 699.7,231.7 699.7,228.4 1135,199.6 					"/>
					<polygon class="st353" points="1135,206.1 699.7,234.9 699.7,231.7 1135,202.9 					"/>
					<polygon class="st354" points="1135,209.3 699.7,238.2 699.7,234.9 1135,206.1 					"/>
					<polygon class="st355" points="1135,212.6 699.7,241.4 699.7,238.2 1135,209.3 					"/>
					<polygon class="st356" points="1135,215.8 699.7,244.6 699.7,241.4 1135,212.6 					"/>
					<polygon class="st357" points="1135,219.1 699.7,247.9 699.7,244.6 1135,215.8 					"/>
					<polygon class="st358" points="1135,222.3 699.7,251.1 699.7,247.9 1135,219.1 					"/>
					<polygon class="st359" points="1135,225.5 699.7,254.4 699.7,251.1 1135,222.3 					"/>
					<polygon class="st360" points="1135,228.8 699.7,257.6 699.7,254.4 1135,225.5 					"/>
					<polygon class="st361" points="1135,232 699.7,260.8 699.7,257.6 1135,228.8 					"/>
					<polygon class="st362" points="1135,235.3 699.7,264.1 699.7,260.8 1135,232 					"/>
					<polygon class="st363" points="1135,238.5 699.7,267.3 699.7,264.1 1135,235.3 					"/>
					<polygon class="st364" points="1135,241.7 699.7,270.6 699.7,267.3 1135,238.5 					"/>
					<polygon class="st364" points="1135,246.6 699.7,275.4 699.7,270.6 1135,241.7 					"/>
					<polygon class="st365" points="1135,251.4 699.7,280.2 699.7,275.4 1135,246.6 					"/>
					<polygon class="st366" points="1135,256.3 699.7,285.1 699.7,280.2 1135,251.4 					"/>
					<polygon class="st367" points="1135,261.1 699.7,289.9 699.7,285.1 1135,256.3 					"/>
					<polygon class="st368" points="1135,266 699.7,294.8 699.7,289.9 1135,261.1 					"/>
					<polygon class="st369" points="1135,270.8 699.7,299.6 699.7,294.8 1135,266 					"/>
					<polygon class="st370" points="1135,275.6 699.7,304.5 699.7,299.6 1135,270.8 					"/>
					<polygon class="st371" points="1135,280.5 699.7,309.3 699.7,304.5 1135,275.6 					"/>
					<polygon class="st372" points="1135,285.3 699.7,314.1 699.7,309.3 1135,280.5 					"/>
					<polygon class="st373" points="1135,290.2 699.7,319 699.7,314.1 1135,285.3 					"/>
					<polygon class="st374" points="1135,295 699.7,323.8 699.7,319 1135,290.2 					"/>
					<polygon class="st375" points="1135,299.8 699.7,328.7 699.7,323.8 1135,295 					"/>
					<polygon class="st376" points="1135,304.7 699.7,333.5 699.7,328.7 1135,299.8 					"/>
					<polygon class="st377" points="1135,309.5 699.7,338.3 699.7,333.5 1135,304.7 					"/>
					<polygon class="st378" points="1135,314.4 699.7,343.2 699.7,338.3 1135,309.5 					"/>
					<polygon class="st379" points="1135,319.2 699.7,348 699.7,343.2 1135,314.4 					"/>
					<polygon class="st380" points="1135,324.1 699.7,352.9 699.7,348 1135,319.2 					"/>
					<polygon class="st381" points="1135,328.9 699.7,357.7 699.7,352.9 1135,324.1 					"/>
					<polygon class="st381" points="699.7,357.7 1135,328.9 1135,370.7 699.7,370.7 					"/>
				</g>
			</g>
			<g>
				<path class="st7" d="M1145.6,287.1c0,0-99.1-0.4-145.8-36.7c-28.6-22.2-32.3-79.5-74.1-78.4c-32.7,0.9-68.1,67.4-32.1,116.7
					c24.5,33.6,58.1,45.6,95.4,37C1028.4,316.8,1145.6,287.1,1145.6,287.1z"/>
			</g>
		</g>
	</g>
</g>
</svg>
