<?xml version="1.0" encoding="utf-8"?>
<!-- Generator: Adobe Illustrator 24.0.2, SVG Export Plug-In . SVG Version: 6.00 Build 0)  -->
<svg version="1.1" id="Capa_1" xmlns="http://www.w3.org/2000/svg" xmlns:xlink="http://www.w3.org/1999/xlink" x="0px" y="0px"
	 viewBox="0 0 283.5 283.5" style="enable-background:new 0 0 283.5 283.5;" xml:space="preserve">
<style type="text/css">
	.st0{fill:#FFEBCF;}
	.st1{fill:#FDD583;}
	.st2{opacity:0.7;}
	.st3{fill:#75B851;}
	.st4{fill:#69A548;}
	.st5{fill:#518038;}
	.st6{fill:#B2DFF5;}
	.st7{fill:#EAF5FB;}
	.st8{fill:#9ECD85;}
	.st9{opacity:0.3;}
	.st10{fill:#FFFFFF;}
	.st11{fill:#5D9340;}
	.st12{fill:#00833E;}
	.st13{fill:#BADBA8;}
	.st14{fill:#E6363B;}
	.st15{fill:#930012;}
	.st16{fill:#263238;}
	.st17{fill:#FAFAFA;}
	.st18{fill:#E0E0E0;}
	.st19{opacity:0.4;}
	.st20{fill:#FF99A1;}
	.st21{fill:none;stroke:#839198;stroke-miterlimit:10;}
	.st22{fill:#455A64;}
	.st23{fill:#EBEBEB;}
	.st24{fill:#F5F5F5;}
</style>
<g>
	<g>
		<g>
			<g>
				<g>
					<path class="st0" d="M282.7,236c-8.3-9.4-19.8-6.6-11.6-27.6c5.1-13,9.2-28.3,4.4-42c-5.8-16.4-23.8-25-40.2-26.4
						c-8.9-0.7-18.3,3.3-26.8,1.5c-10.4-2.2-16.6-12.5-17.8-22.5c0,0,0,0,0-0.1h79.1c0,0,1-2.9-2.6-4.9c-3.6-2-5.2-0.3-6.5-2
						c-1.3-1.6,3.6-5.9-6.2-10.1c0,0-0.7-9.1-14-9.4c-13.3-0.3-9.8,9.1-13.3,11.4c-3.6,2.3-4.6-1.3-8.1,1c-3.6,2.3-2,6.8-4.9,7.5
						c-2.9,0.7-6.8-2.9-10.4-0.7c-3.6,2.3-3.6,4.2-5.2,4.2c-1.6,0-4.9-1.3-6.8,0c-0.4,0.3-0.8,0.5-1.2,0.8c-0.6-8.3,1.1-16.7,2.2-25
						c3.3-23.9-6.7-42.4-30.5-49.4c-24.5-7.2-52.3-3.3-74,9.9C51.1,75,74.3,119.1,45.6,131.8C17,144.4-10.2,170.5,5.4,210.6
						c2.7,6.9,11.8,21.7,18.6,25.2C79.3,235.8,252.7,235.9,282.7,236z M117,157.3H17.1c0,0,2.8-2,5.1-3.6c2.4-1.6,6.3,0,8.3,0
						c2,0,2-2.4,6.3-5.1c4.3-2.8,9.1,1.6,12.6,0.8c3.6-0.8,1.6-6.3,5.9-9.1c4.3-2.8,5.5,1.6,9.9-1.2c4.3-2.8,0-14.2,16.2-13.8
						c16.2,0.4,17,11.5,17,11.5c11.8,5.1,5.9,10.3,7.5,12.2c1.6,2,3.6,0,7.9,2.4C118.2,153.7,117,157.3,117,157.3z M167.9,62h-60.1
						c0,0,1.7-1.2,3.1-2.1c1.4-1,3.8,0,5,0c1.2,0,1.2-1.4,3.8-3.1c2.6-1.7,5.5,1,7.6,0.5c2.1-0.5,1-3.8,3.6-5.5
						c2.6-1.7,3.3,1,5.9-0.7c2.6-1.7,0-8.6,9.7-8.3c9.7,0.2,10.2,6.9,10.2,6.9c7.1,3.1,3.6,6.2,4.5,7.4c1,1.2,2.1,0,4.8,1.4
						C168.6,59.9,167.9,62,167.9,62z M230.4,165.9h-27.5c0,0,0.8-0.5,1.4-1c0.7-0.4,1.7,0,2.3,0c0.5,0,0.5-0.7,1.7-1.4
						c1.2-0.8,2.5,0.4,3.5,0.2c1-0.2,0.4-1.7,1.6-2.5c1.2-0.8,1.5,0.4,2.7-0.3c1.2-0.8,0-3.9,4.5-3.8c4.5,0.1,4.7,3.1,4.7,3.1
						c3.3,1.4,1.6,2.8,2.1,3.4c0.4,0.5,1,0,2.2,0.7S230.4,165.9,230.4,165.9z"/>
				</g>
				<g>
					<path class="st1" d="M282.7,236.5C282.7,236.5,282.7,236.5,282.7,236.5c-29.6-0.1-201-0.1-258.7-0.1c-0.1,0-0.2,0-0.3-0.1
						c-7-3.6-16.2-18.6-18.9-25.5c-7.2-18.5-6-35.4,3.6-50.2c9.6-15,25.4-24.2,37-29.3c13.2-5.9,15.2-18.4,17.4-32.9
						c2.5-16.1,5.3-34.3,25-46.4c22.1-13.5,49.9-17.2,74.4-10c11.8,3.5,20.5,9.8,25.8,18.7c5.1,8.6,6.9,19.2,5.2,31.4
						c-0.2,1.6-0.5,3.3-0.7,4.9c-0.9,6.2-1.9,12.7-1.6,19c0.1-0.1,0.2-0.1,0.3-0.2c1.6-1,3.7-0.6,5.5-0.3c0.7,0.1,1.3,0.2,1.7,0.2
						c0.5,0,0.8-0.3,1.4-1c0.7-0.8,1.6-1.9,3.5-3.1c2.4-1.5,4.8-0.7,7,0c1.3,0.4,2.6,0.8,3.7,0.6c1-0.2,1.3-1.1,1.7-2.6
						c0.4-1.6,0.9-3.5,3-4.8c2-1.3,3.4-0.9,4.5-0.6c1.1,0.3,2,0.6,3.6-0.4c1-0.6,1.3-1.9,1.8-3.5c1-3.5,2.4-8.2,11.9-8
						c12.2,0.3,14.2,7.9,14.5,9.6c7.1,3.2,6.5,6.6,6.1,8.7c-0.1,0.6-0.2,1.2,0,1.5c0.4,0.6,0.9,0.6,1.9,0.6c1.1,0,2.5,0.1,4.5,1.2
						c4,2.2,2.9,5.5,2.9,5.6c-0.1,0.2-0.3,0.4-0.6,0.4h-78.4c1.3,9.2,7.1,19.3,17.3,21.4c4.6,1,9.6,0.2,14.5-0.6
						c4-0.6,8.2-1.3,12.3-1c8.7,0.7,17.3,3.4,24.3,7.6c8,4.8,13.7,11.4,16.4,19.1c5.3,14.8,0,31.3-4.4,42.4
						c-5.8,14.6-1.8,17.2,4.1,21c2.3,1.5,5,3.2,7.4,5.9c0.2,0.2,0.2,0.4,0.1,0.6C283.1,236.4,282.9,236.5,282.7,236.5z M24.1,235.2
						c57,0,224.1,0,257.2,0.1c-2-2-4.2-3.5-6.2-4.7c-6-3.9-10.7-6.9-4.6-22.4c4.3-11,9.5-27.2,4.4-41.6c-2.7-7.5-8.2-13.9-15.9-18.5
						c-6.9-4.1-15.3-6.8-23.8-7.4c-3.9-0.3-8,0.3-12,0.9c-5,0.8-10.1,1.6-14.9,0.6c-5-1-9.4-4-12.7-8.6c-2.9-4-4.9-9.2-5.6-14.4
						l0-0.1c0-0.2,0-0.3,0.1-0.5c0.1-0.1,0.3-0.2,0.4-0.2h78.6c0.1-0.8,0-2.5-2.4-3.8c-1.7-0.9-3-1-4-1c-1,0-1.9-0.1-2.7-1.1
						c-0.5-0.7-0.4-1.5-0.2-2.4c0.4-2,0.9-4.7-5.7-7.5c-0.2-0.1-0.3-0.3-0.3-0.5c0-0.3-0.8-8.6-13.4-8.9c-8.6-0.2-9.8,3.7-10.8,7.2
						c-0.5,1.7-0.9,3.3-2.3,4.1c-2,1.3-3.4,0.9-4.5,0.6c-1.1-0.3-2-0.6-3.6,0.4c-1.6,1-2.1,2.6-2.5,4.1c-0.4,1.5-0.8,3.1-2.6,3.5
						c-1.3,0.3-2.8-0.2-4.3-0.6c-2-0.6-4.1-1.3-6-0.1c-1.7,1.1-2.6,2.1-3.2,2.9c-0.7,0.8-1.2,1.5-2.3,1.5c-0.5,0-1.2-0.1-1.9-0.3
						c-1.5-0.3-3.4-0.6-4.6,0.2c-0.4,0.3-0.8,0.5-1.2,0.8c-0.2,0.1-0.4,0.1-0.6,0c-0.2-0.1-0.3-0.3-0.3-0.5
						c-0.5-6.8,0.5-13.6,1.5-20.2c0.2-1.6,0.5-3.2,0.7-4.8c1.6-12-0.1-22.3-5-30.7c-5.2-8.6-13.6-14.7-25.1-18.1
						c-24.2-7.2-51.7-3.5-73.5,9.9c-19.3,11.8-22,29.8-24.5,45.6c-2.2,14.3-4.2,27.7-18.1,33.8c-11.4,5-27,14.2-36.5,28.9
						C0,175.7-1.1,192.3,5.9,210.4C8.5,217.1,17.4,231.6,24.1,235.2z M230.4,166.4h-27.5c-0.3,0-0.5-0.2-0.6-0.4
						c-0.1-0.2,0-0.5,0.2-0.7c0,0,0.8-0.6,1.4-1c0.7-0.4,1.5-0.3,2.1-0.2c0.2,0,0.4,0.1,0.5,0.1c0,0,0.1-0.1,0.2-0.2
						c0.2-0.3,0.6-0.7,1.2-1.1c0.9-0.6,1.9-0.3,2.6-0.1c0.4,0.1,0.8,0.2,1,0.2c0.1,0,0.2-0.1,0.3-0.6c0.1-0.6,0.4-1.3,1.2-1.8
						c0.8-0.5,1.4-0.4,1.8-0.2c0.3,0.1,0.5,0.1,0.9-0.1c0.2-0.1,0.3-0.5,0.4-0.9c0.3-1.2,0.9-3,4.4-3c4,0.1,4.9,2.4,5.2,3.3
						c2.2,1,2.3,2.2,2.1,3.2c0,0.1,0,0.2,0,0.2c0,0,0.1,0,0.3,0c0.4,0,0.9,0,1.7,0.4c1.3,0.7,1.3,1.8,1.1,2.3
						C230.8,166.3,230.6,166.4,230.4,166.4z M207.2,165.3h22.6c-0.1-0.2-0.2-0.4-0.6-0.5c-0.5-0.3-0.8-0.3-1.2-0.3
						c-0.4,0-0.8,0-1.2-0.5c-0.3-0.4-0.2-0.8-0.1-1.1c0.1-0.6,0.2-1.3-1.7-2.1c-0.2-0.1-0.3-0.3-0.3-0.5c0-0.1-0.3-2.5-4.1-2.6
						c-2.6-0.1-2.9,1-3.2,2.1c-0.2,0.6-0.4,1.2-0.9,1.6c-0.8,0.5-1.4,0.4-1.8,0.2c-0.3-0.1-0.5-0.1-0.9,0.1
						c-0.4,0.3-0.5,0.7-0.7,1.1c-0.1,0.5-0.3,1.3-1.2,1.4c-0.5,0.1-1.1-0.1-1.6-0.2c-0.7-0.2-1.2-0.4-1.7-0.1
						c-0.5,0.3-0.8,0.6-1,0.9C207.5,165,207.4,165.2,207.2,165.3z M204.9,165.3h0.3C205.1,165.3,205,165.3,204.9,165.3z M117,157.9
						H17.1c-0.3,0-0.5-0.2-0.6-0.4c-0.1-0.2,0-0.5,0.2-0.7c0,0,2.8-2,5.1-3.6c1.9-1.2,4.4-0.8,6.5-0.4c0.8,0.1,1.6,0.3,2.1,0.3
						c0.7,0,1-0.4,1.8-1.3c0.8-1,1.9-2.3,4.2-3.7c2.8-1.8,5.7-0.9,8.3,0c1.6,0.5,3.2,1,4.5,0.7c1.3-0.3,1.7-1.4,2.2-3.3
						c0.5-1.9,1.1-4.2,3.5-5.7c2.4-1.5,4-1.1,5.4-0.7c1.3,0.4,2.5,0.7,4.5-0.5c1.2-0.8,1.7-2.4,2.2-4.3c1.2-4.2,2.8-9.9,14.3-9.6
						c4.7,0.1,11.2,1.3,15,6.1c1.9,2.4,2.4,4.7,2.5,5.5c8.6,3.8,7.9,7.8,7.4,10.4c-0.2,0.9-0.3,1.5,0,1.9c0.6,0.7,1.2,0.8,2.4,0.8
						c1.3,0,3,0.1,5.4,1.4c4.7,2.6,3.4,6.6,3.4,6.6C117.5,157.7,117.3,157.9,117,157.9z M18.9,156.7h97.6c0.1-0.9,0.1-3.2-3-4.8
						c-2.1-1.2-3.6-1.2-4.9-1.3c-1.2,0-2.3-0.1-3.2-1.2c-0.6-0.8-0.4-1.8-0.2-2.8c0.4-2.4,1.1-5.8-7-9.3c-0.2-0.1-0.3-0.3-0.3-0.5
						c0,0-0.2-2.7-2.3-5.3c-2.8-3.5-7.7-5.4-14.1-5.6c-10.6-0.3-12,4.5-13.2,8.8c-0.6,2-1.1,4-2.7,4.9c-2.4,1.5-4,1.1-5.4,0.7
						c-1.3-0.4-2.5-0.7-4.5,0.5c-2,1.3-2.5,3.2-3,5c-0.5,1.8-1,3.7-3.1,4.1c-1.6,0.4-3.3-0.2-5.1-0.8c-2.5-0.8-5-1.6-7.3-0.1
						c-2.1,1.3-3.2,2.6-3.9,3.5c-0.8,1-1.5,1.7-2.7,1.7c-0.6,0-1.4-0.1-2.3-0.3c-1.9-0.3-4.2-0.8-5.7,0.2
						C21.3,155.1,20,156,18.9,156.7z M167.9,62.6h-60.1c-0.3,0-0.5-0.2-0.6-0.4c-0.1-0.2,0-0.5,0.2-0.7c0,0,1.7-1.2,3.1-2.1
						c1.2-0.8,2.8-0.5,4.1-0.3c0.5,0.1,0.9,0.2,1.2,0.2c0.3,0,0.4-0.1,0.9-0.7c0.5-0.6,1.2-1.4,2.6-2.3c1.8-1.1,3.6-0.6,5.2,0
						c1,0.3,1.9,0.6,2.6,0.4c0.7-0.1,0.9-0.7,1.2-1.8c0.3-1.2,0.7-2.6,2.2-3.6c1.5-1,2.6-0.7,3.4-0.4c0.8,0.2,1.4,0.4,2.5-0.3
						c0.6-0.4,0.9-1.4,1.2-2.4c0.7-2.6,1.7-6.1,8.8-6c7.7,0.2,10.4,4.5,10.7,7.1c5.2,2.4,4.8,4.9,4.5,6.5c-0.1,0.4-0.1,0.8,0,0.9
						c0.3,0.3,0.5,0.4,1.2,0.4c0.8,0,1.9,0.1,3.3,0.9c2.4,1.3,2.5,3.4,2.2,4.3C168.4,62.5,168.2,62.6,167.9,62.6z M109.6,61.4h57.8
						c0-0.6-0.2-1.6-1.7-2.5c-1.2-0.7-2.1-0.7-2.8-0.7c-0.7,0-1.5-0.1-2.1-0.8c-0.4-0.5-0.3-1.2-0.2-1.9c0.3-1.5,0.6-3.3-4.1-5.3
						c-0.2-0.1-0.3-0.3-0.3-0.5c0-0.2-0.6-6.1-9.6-6.3c-6.2-0.2-7,2.6-7.7,5.1c-0.4,1.3-0.7,2.5-1.7,3.1c-1.5,1-2.6,0.7-3.4,0.4
						c-0.8-0.2-1.4-0.4-2.5,0.3c-1.1,0.7-1.4,1.8-1.7,2.9c-0.3,1.1-0.6,2.3-2,2.6c-1,0.2-2.1-0.1-3.2-0.5c-1.5-0.5-2.9-0.9-4.2-0.1
						c-1.2,0.8-1.9,1.5-2.3,2.1c-0.5,0.6-0.9,1.1-1.8,1.1c-0.4,0-0.9-0.1-1.4-0.2c-1.1-0.2-2.4-0.4-3.2,0.1
						C110.7,60.7,110.1,61.1,109.6,61.4z"/>
				</g>
			</g>
		</g>
		<g class="st2">
			<g>
				<g>
					<path class="st0" d="M282.7,236c-8.3-9.4-19.8-6.6-11.6-27.6c5.1-13,9.2-28.3,4.4-42c-5.8-16.4-23.8-25-40.2-26.4
						c-8.9-0.7-18.3,3.3-26.8,1.5c-10.4-2.2-16.6-12.5-17.8-22.5c0,0,0,0,0-0.1h79.1c0,0,1-2.9-2.6-4.9c-3.6-2-5.2-0.3-6.5-2
						c-1.3-1.6,3.6-5.9-6.2-10.1c0,0-0.7-9.1-14-9.4c-13.3-0.3-9.8,9.1-13.3,11.4c-3.6,2.3-4.6-1.3-8.1,1c-3.6,2.3-2,6.8-4.9,7.5
						c-2.9,0.7-6.8-2.9-10.4-0.7c-3.6,2.3-3.6,4.2-5.2,4.2c-1.6,0-4.9-1.3-6.8,0c-0.4,0.3-0.8,0.5-1.2,0.8c-0.6-8.3,1.1-16.7,2.2-25
						c3.3-23.9-6.7-42.4-30.5-49.4c-24.5-7.2-52.3-3.3-74,9.9C51.1,75,74.3,119.1,45.6,131.8C17,144.4-10.2,170.5,5.4,210.6
						c4.9,12.7,11.8,20.5,18.4,25.1C24,235.8,208,235.8,282.7,236z M117,157.3H17.1c0,0,2.8-2,5.1-3.6c2.4-1.6,6.3,0,8.3,0
						c2,0,2-2.4,6.3-5.1c4.3-2.8,9.1,1.6,12.6,0.8c3.6-0.8,1.6-6.3,5.9-9.1c4.3-2.8,5.5,1.6,9.9-1.2c4.3-2.8,0-14.2,16.2-13.8
						c16.2,0.4,17,11.5,17,11.5c11.8,5.1,5.9,10.3,7.5,12.2c1.6,2,3.6,0,7.9,2.4C118.2,153.7,117,157.3,117,157.3z M167.9,62h-60.1
						c0,0,1.7-1.2,3.1-2.1c1.4-1,3.8,0,5,0c1.2,0,1.2-1.4,3.8-3.1c2.6-1.7,5.5,1,7.6,0.5c2.1-0.5,1-3.8,3.6-5.5
						c2.6-1.7,3.3,1,5.9-0.7c2.6-1.7,0-8.6,9.7-8.3c9.7,0.2,10.2,6.9,10.2,6.9c7.1,3.1,3.6,6.2,4.5,7.4c1,1.2,2.1,0,4.8,1.4
						C168.6,59.9,167.9,62,167.9,62z M230.4,165.9h-27.5c0,0,0.8-0.5,1.4-1c0.7-0.4,1.7,0,2.3,0c0.5,0,0.5-0.7,1.7-1.4
						c1.2-0.8,2.5,0.4,3.5,0.2c1-0.2,0.4-1.7,1.6-2.5c1.2-0.8,1.5,0.4,2.7-0.3c1.2-0.8,0-3.9,4.5-3.8c4.5,0.1,4.7,3.1,4.7,3.1
						c3.3,1.4,1.6,2.8,2.1,3.4c0.4,0.5,1,0,2.2,0.7S230.4,165.9,230.4,165.9z"/>
				</g>
				<g>
					<path class="st1" d="M282.7,236.5C282.7,236.5,282.7,236.5,282.7,236.5c-35.8-0.1-96.8-0.1-150.6-0.1c-29.2,0-56.2,0-76,0
						c-9.9,0-17.9,0-23.5,0c-8.9,0-8.9,0-9.1-0.1c-8-5.6-14.3-14.1-18.7-25.4c-7.2-18.5-6-35.4,3.6-50.2c9.6-15,25.4-24.2,37-29.3
						c13.2-5.9,15.2-18.4,17.4-32.9c2.5-16.1,5.3-34.3,25-46.4c22.1-13.5,49.9-17.2,74.4-10c11.8,3.5,20.5,9.8,25.8,18.7
						c5.1,8.6,6.9,19.2,5.2,31.4c-0.2,1.6-0.5,3.3-0.7,4.9c-0.9,6.2-1.9,12.7-1.6,19c0.1-0.1,0.2-0.1,0.3-0.2c1.6-1,3.7-0.6,5.5-0.3
						c0.7,0.1,1.3,0.2,1.7,0.2c0.5,0,0.8-0.3,1.4-1c0.7-0.8,1.6-1.9,3.5-3.1c2.4-1.5,4.8-0.7,7,0c1.3,0.4,2.6,0.8,3.7,0.6
						c1-0.2,1.3-1.1,1.7-2.6c0.4-1.6,0.9-3.5,3-4.8c2-1.3,3.4-0.9,4.5-0.6c1.1,0.3,2,0.6,3.6-0.4c1-0.6,1.3-1.9,1.8-3.5
						c1-3.5,2.4-8.2,11.9-8c12.2,0.3,14.2,7.9,14.5,9.6c7.1,3.2,6.5,6.6,6.1,8.7c-0.1,0.6-0.2,1.2,0,1.5c0.4,0.6,0.9,0.6,1.9,0.6
						c1.1,0,2.5,0.1,4.5,1.2c4,2.2,2.9,5.5,2.9,5.6c-0.1,0.2-0.3,0.4-0.6,0.4h-78.4c1.3,9.2,7.1,19.3,17.3,21.4
						c4.6,1,9.6,0.2,14.5-0.6c4-0.6,8.2-1.3,12.3-1c8.7,0.7,17.3,3.4,24.3,7.6c8,4.8,13.7,11.4,16.4,19.1c5.3,14.8,0,31.3-4.4,42.4
						c-5.8,14.6-1.8,17.2,4.1,21c2.3,1.5,5,3.2,7.4,5.9c0.2,0.2,0.2,0.4,0.1,0.6C283.1,236.4,282.9,236.5,282.7,236.5z M24,235.1
						c3.1,0,51.8,0.1,108,0.1c53.1,0,113.3,0.1,149.3,0.1c-2-2-4.2-3.5-6.2-4.7c-6-3.9-10.7-6.9-4.6-22.4c4.3-11,9.5-27.2,4.4-41.6
						c-2.7-7.5-8.2-13.9-15.9-18.5c-6.9-4.1-15.3-6.8-23.8-7.4c-3.9-0.3-8,0.3-12,0.9c-5,0.8-10.1,1.6-14.9,0.6c-5-1-9.4-4-12.7-8.6
						c-2.9-4-4.9-9.2-5.6-14.4l0-0.1c0-0.2,0-0.3,0.1-0.5c0.1-0.1,0.3-0.2,0.4-0.2h78.6c0.1-0.8,0-2.5-2.4-3.8c-1.7-0.9-3-1-4-1
						c-1,0-1.9-0.1-2.7-1.1c-0.5-0.7-0.4-1.5-0.2-2.4c0.4-2,0.9-4.7-5.7-7.5c-0.2-0.1-0.3-0.3-0.3-0.5c0-0.3-0.8-8.6-13.4-8.9
						c-8.6-0.2-9.8,3.7-10.8,7.2c-0.5,1.7-0.9,3.3-2.3,4.1c-2,1.3-3.4,0.9-4.5,0.6c-1.1-0.3-2-0.6-3.6,0.4c-1.6,1-2.1,2.6-2.5,4.1
						c-0.4,1.5-0.8,3.1-2.6,3.5c-1.3,0.3-2.8-0.2-4.3-0.6c-2-0.6-4.1-1.3-6-0.1c-1.7,1.1-2.6,2.1-3.2,2.9c-0.7,0.8-1.2,1.5-2.3,1.5
						c-0.5,0-1.2-0.1-1.9-0.3c-1.5-0.3-3.4-0.6-4.6,0.2c-0.4,0.3-0.8,0.5-1.2,0.8c-0.2,0.1-0.4,0.1-0.6,0c-0.2-0.1-0.3-0.3-0.3-0.5
						c-0.5-6.8,0.5-13.6,1.5-20.2c0.2-1.6,0.5-3.2,0.7-4.8c1.6-12-0.1-22.3-5-30.7c-5.2-8.6-13.6-14.7-25.1-18.1
						c-24.2-7.2-51.7-3.5-73.5,9.9c-19.3,11.8-22,29.8-24.5,45.6c-2.2,14.3-4.2,27.7-18.1,33.8c-11.4,5-27,14.2-36.5,28.9
						C0,175.7-1.1,192.3,5.9,210.4C10.2,221.4,16.3,229.7,24,235.1z M230.4,166.4h-27.5c-0.3,0-0.5-0.2-0.6-0.4
						c-0.1-0.2,0-0.5,0.2-0.7c0,0,0.8-0.6,1.4-1c0.7-0.4,1.5-0.3,2.1-0.2c0.2,0,0.4,0.1,0.5,0.1c0,0,0.1-0.1,0.2-0.2
						c0.2-0.3,0.6-0.7,1.2-1.1c0.9-0.6,1.9-0.3,2.6-0.1c0.4,0.1,0.8,0.2,1,0.2c0.1,0,0.2-0.1,0.3-0.6c0.1-0.6,0.4-1.3,1.2-1.8
						c0.8-0.5,1.4-0.4,1.8-0.2c0.3,0.1,0.5,0.1,0.9-0.1c0.2-0.1,0.3-0.5,0.4-0.9c0.3-1.2,0.9-3,4.4-3c4,0.1,4.9,2.4,5.2,3.3
						c2.2,1,2.3,2.2,2.1,3.2c0,0.1,0,0.2,0,0.2c0,0,0.1,0,0.3,0c0.4,0,0.9,0,1.7,0.4c1.3,0.7,1.3,1.8,1.1,2.3
						C230.8,166.3,230.6,166.4,230.4,166.4z M207.2,165.3h22.6c-0.1-0.2-0.2-0.4-0.6-0.5c-0.5-0.3-0.8-0.3-1.2-0.3
						c-0.4,0-0.8,0-1.2-0.5c-0.3-0.4-0.2-0.8-0.1-1.1c0.1-0.6,0.2-1.3-1.7-2.1c-0.2-0.1-0.3-0.3-0.3-0.5c0-0.1-0.3-2.5-4.1-2.6
						c-2.6-0.1-2.9,1-3.2,2.1c-0.2,0.6-0.4,1.2-0.9,1.6c-0.8,0.5-1.4,0.4-1.8,0.2c-0.3-0.1-0.5-0.1-0.9,0.1
						c-0.4,0.3-0.5,0.7-0.7,1.1c-0.1,0.5-0.3,1.3-1.2,1.4c-0.5,0.1-1.1-0.1-1.6-0.2c-0.7-0.2-1.2-0.4-1.7-0.1
						c-0.5,0.3-0.8,0.6-1,0.9C207.5,165,207.4,165.2,207.2,165.3z M204.9,165.3h0.3C205.1,165.3,205,165.3,204.9,165.3z M117,157.9
						H17.1c-0.3,0-0.5-0.2-0.6-0.4c-0.1-0.2,0-0.5,0.2-0.7c0,0,2.8-2,5.1-3.6c1.9-1.2,4.4-0.8,6.5-0.4c0.8,0.1,1.6,0.3,2.1,0.3
						c0.7,0,1-0.4,1.8-1.3c0.8-1,1.9-2.3,4.2-3.7c2.8-1.8,5.7-0.9,8.3,0c1.6,0.5,3.2,1,4.5,0.7c1.3-0.3,1.7-1.4,2.2-3.3
						c0.5-1.9,1.1-4.2,3.5-5.7c2.4-1.5,4-1.1,5.4-0.7c1.3,0.4,2.5,0.7,4.5-0.5c1.2-0.8,1.7-2.4,2.2-4.3c1.2-4.2,2.8-9.9,14.3-9.6
						c4.7,0.1,11.2,1.3,15,6.1c1.9,2.4,2.4,4.7,2.5,5.5c8.6,3.8,7.9,7.8,7.4,10.4c-0.2,0.9-0.3,1.5,0,1.9c0.6,0.7,1.2,0.8,2.4,0.8
						c1.3,0,3,0.1,5.4,1.4c4.7,2.6,3.4,6.6,3.4,6.6C117.5,157.7,117.3,157.9,117,157.9z M18.9,156.7h97.6c0.1-0.9,0.1-3.2-3-4.8
						c-2.1-1.2-3.6-1.2-4.9-1.3c-1.2,0-2.3-0.1-3.2-1.2c-0.6-0.8-0.4-1.8-0.2-2.8c0.4-2.4,1.1-5.8-7-9.3c-0.2-0.1-0.3-0.3-0.3-0.5
						c0,0-0.2-2.7-2.3-5.3c-2.8-3.5-7.7-5.4-14.1-5.6c-10.6-0.3-12,4.5-13.2,8.8c-0.6,2-1.1,4-2.7,4.9c-2.4,1.5-4,1.1-5.4,0.7
						c-1.3-0.4-2.5-0.7-4.5,0.5c-2,1.3-2.5,3.2-3,5c-0.5,1.8-1,3.7-3.1,4.1c-1.6,0.4-3.3-0.2-5.1-0.8c-2.5-0.8-5-1.6-7.3-0.1
						c-2.1,1.3-3.2,2.6-3.9,3.5c-0.8,1-1.5,1.7-2.7,1.7c-0.6,0-1.4-0.1-2.3-0.3c-1.9-0.3-4.2-0.8-5.7,0.2
						C21.3,155.1,20,156,18.9,156.7z M167.9,62.6h-60.1c-0.3,0-0.5-0.2-0.6-0.4c-0.1-0.2,0-0.5,0.2-0.7c0,0,1.7-1.2,3.1-2.1
						c1.2-0.8,2.8-0.5,4.1-0.3c0.5,0.1,0.9,0.2,1.2,0.2c0.3,0,0.4-0.1,0.9-0.7c0.5-0.6,1.2-1.4,2.6-2.3c1.8-1.1,3.6-0.6,5.2,0
						c1,0.3,1.9,0.6,2.6,0.4c0.7-0.1,0.9-0.7,1.2-1.8c0.3-1.2,0.7-2.6,2.2-3.6c1.5-1,2.6-0.7,3.4-0.4c0.8,0.2,1.4,0.4,2.5-0.3
						c0.6-0.4,0.9-1.4,1.2-2.4c0.7-2.6,1.7-6.1,8.8-6c7.7,0.2,10.4,4.5,10.7,7.1c5.2,2.4,4.8,4.9,4.5,6.5c-0.1,0.4-0.1,0.8,0,0.9
						c0.3,0.3,0.5,0.4,1.2,0.4c0.8,0,1.9,0.1,3.3,0.9c2.4,1.3,2.5,3.4,2.2,4.3C168.4,62.5,168.2,62.6,167.9,62.6z M109.6,61.4h57.8
						c0-0.6-0.2-1.6-1.7-2.5c-1.2-0.7-2.1-0.7-2.8-0.7c-0.7,0-1.5-0.1-2.1-0.8c-0.4-0.5-0.3-1.2-0.2-1.9c0.3-1.5,0.6-3.3-4.1-5.3
						c-0.2-0.1-0.3-0.3-0.3-0.5c0-0.2-0.6-6.1-9.6-6.3c-6.2-0.2-7,2.6-7.7,5.1c-0.4,1.3-0.7,2.5-1.7,3.1c-1.5,1-2.6,0.7-3.4,0.4
						c-0.8-0.2-1.4-0.4-2.5,0.3c-1.1,0.7-1.4,1.8-1.7,2.9c-0.3,1.1-0.6,2.3-2,2.6c-1,0.2-2.1-0.1-3.2-0.5c-1.5-0.5-2.9-0.9-4.2-0.1
						c-1.2,0.8-1.9,1.5-2.3,2.1c-0.5,0.6-0.9,1.1-1.8,1.1c-0.4,0-0.9-0.1-1.4-0.2c-1.1-0.2-2.4-0.4-3.2,0.1
						C110.7,60.7,110.1,61.1,109.6,61.4z"/>
				</g>
			</g>
		</g>
	</g>
	<g>
		<g>
			<g>
				<g>
					<g>
						<polygon class="st3" points="122.5,169.7 122.5,234.1 273.5,234.1 273.5,176.5 						"/>
					</g>
				</g>
				<g>
					<g>
						<polygon class="st4" points="227.1,164.1 122.5,164.1 122.5,169.7 227.1,176.5 						"/>
					</g>
				</g>
				<g>
					<g>
						<polygon class="st5" points="227.1,164.1 227.1,176.5 273.5,195.2 273.5,164.1 						"/>
					</g>
				</g>
				<g>
					<g>
						<polygon class="st4" points="227.1,234.1 273.5,234.1 273.5,195.2 227.1,176.5 						"/>
					</g>
				</g>
			</g>
			<g>
				<g>
					<rect x="128.1" y="168.5" class="st6" width="29" height="57.6"/>
				</g>
			</g>
			<g>
				<g>
					<rect x="159.3" y="168.5" class="st6" width="29" height="57.6"/>
				</g>
			</g>
			<g>
				<g>
					<path class="st7" d="M221.1,166.5h-2h-29h-2h-29h-2h-30.9v61.5h30.9h2h29h2h29h2V166.5z M219.1,226.1h-29v-57.6h29V226.1z
						 M188.2,226.1h-29v-57.6h29V226.1z M157.2,226.1h-29v-57.6h29V226.1z"/>
				</g>
			</g>
			<g>
				<g>
					<rect x="111.4" y="141.9" class="st8" width="167.8" height="24.4"/>
				</g>
			</g>
			<g>
				<g>
					<rect x="190.2" y="168.5" class="st6" width="29" height="57.6"/>
				</g>
			</g>
			<g>
				<g>
					<rect x="235" y="141.9" class="st3" width="44.9" height="24.4"/>
				</g>
			</g>
			<g>
				<g>
					<g>
						<rect x="22.8" y="109.9" class="st8" width="172.9" height="14.3"/>
					</g>
				</g>
				<g>
					<g>
						<rect x="195.7" y="109.9" class="st3" width="38.9" height="14.3"/>
					</g>
				</g>
			</g>
			<g>
				<g class="st9">
					<g>
						<polygon class="st10" points="157.4,174.4 159.2,171.9 160.2,170.5 161.6,168.6 159.2,168.6 157.4,168.6 145.9,168.6 
							144.5,170.5 130.3,189.9 128.4,192.4 128.4,213.8 130.3,211.3 						"/>
					</g>
				</g>
				<g class="st9">
					<g>
						<polygon class="st10" points="159.2,181.6 167.4,170.5 168.7,168.6 165.8,168.6 164.5,170.5 159.2,177.6 157.4,180.1 
							130.3,217.1 128.4,219.6 128.4,223.5 130.3,221 157.4,184.1 						"/>
					</g>
				</g>
				<g class="st9">
					<g>
						<polygon class="st10" points="159.2,195.3 177.4,170.5 178.8,168.6 176.6,168.6 175.2,170.5 159.2,192.3 157.4,194.8 
							135.7,224.4 134.3,226.2 136.5,226.2 137.9,224.4 157.4,197.8 						"/>
					</g>
				</g>
				<g class="st9">
					<g>
						<polygon class="st10" points="188.2,210.4 215.3,173.9 217.1,171.4 217.8,170.5 219.1,168.6 217.1,168.6 215.3,168.6 
							199.8,168.6 198.4,170.5 188.2,184.3 186.3,186.8 159.2,223.3 157.1,226.2 157.4,226.2 159.2,226.2 176.4,226.2 177.8,224.4 
							186.3,212.9 						"/>
					</g>
				</g>
				<g class="st9">
					<g>
						<polygon class="st10" points="217.1,217.3 215.3,219.7 211.8,224.4 210.5,226.2 215.3,226.2 217.1,226.2 219.1,226.2 
							219.1,214.6 						"/>
					</g>
				</g>
				<g class="st9">
					<g>
						<polygon class="st10" points="219.1,178.5 219.1,176 215.3,181.7 188.2,218.1 186.3,220.5 183.5,224.4 182.1,226.2 
							183.9,226.2 185.3,224.4 186.3,223 188.2,220.5 215.3,184.1 						"/>
					</g>
				</g>
				<g class="st9">
					<g>
						<polygon class="st10" points="217.1,191.6 219.1,188.9 219.1,185.8 217.1,188.5 215.3,191 190.4,224.4 189,226.2 191.4,226.2 
							192.7,224.4 215.3,194.1 						"/>
					</g>
				</g>
			</g>
			<g>
				<g>
					<g>
						<rect x="49.2" y="122.7" class="st11" width="7.5" height="111.4"/>
					</g>
				</g>
				<g>
					<g>
						<rect x="207.9" y="122.7" class="st11" width="7.5" height="111.4"/>
					</g>
				</g>
			</g>
		</g>
		<g>
			<g>
				<g>
					<rect x="11.3" y="163.7" class="st12" width="1.9" height="15.1"/>
				</g>
			</g>
			<g>
				<g>
					<rect x="15.4" y="163.7" class="st12" width="1.9" height="15.1"/>
				</g>
			</g>
			<g>
				<g>
					<rect x="19.6" y="163.7" class="st12" width="1.9" height="15.1"/>
				</g>
			</g>
			<g>
				<g>
					<rect x="72.7" y="163.7" class="st12" width="1.9" height="15.1"/>
				</g>
			</g>
			<g>
				<g>
					<rect x="76.9" y="163.7" class="st12" width="1.9" height="15.1"/>
				</g>
			</g>
			<g>
				<g>
					<rect x="81" y="163.7" class="st12" width="1.9" height="15.1"/>
				</g>
			</g>
		</g>
		<g>
			<g>
				<rect x="3.6" y="152.2" class="st13" width="25.6" height="12"/>
			</g>
		</g>
		<g>
			<g>
				<rect x="3.6" y="178.2" class="st13" width="25.6" height="57.6"/>
			</g>
		</g>
		<g>
			<g>
				<rect x="29.2" y="152.2" class="st8" width="10.8" height="12"/>
			</g>
		</g>
		<g>
			<g>
				<rect x="29.2" y="178.2" class="st8" width="10.8" height="57.6"/>
			</g>
		</g>
		<g>
			<g>
				<rect x="7.9" y="184.2" class="st10" width="16.9" height="7.9"/>
			</g>
		</g>
		<g>
			<g>
				<rect x="5.8" y="164.2" class="st3" width="2.2" height="14"/>
			</g>
		</g>
		<g>
			<g>
				<rect x="35.4" y="164.2" class="st8" width="2.2" height="14"/>
			</g>
		</g>
		<g>
			<g>
				<rect x="65" y="152.2" class="st13" width="25.6" height="12"/>
			</g>
		</g>
		<g>
			<g>
				<rect x="65" y="178.2" class="st13" width="25.6" height="57.6"/>
			</g>
		</g>
		<g>
			<g>
				<rect x="90.6" y="152.2" class="st8" width="10.8" height="12"/>
			</g>
		</g>
		<g>
			<g>
				<rect x="90.6" y="178.2" class="st8" width="10.8" height="57.6"/>
			</g>
		</g>
		<g>
			<g>
				<rect x="69.4" y="184.2" class="st10" width="16.9" height="7.9"/>
			</g>
		</g>
		<g>
			<g>
				<rect x="67.2" y="164.2" class="st3" width="2.2" height="14"/>
			</g>
		</g>
		<g>
			<g>
				<rect x="96.8" y="164.2" class="st8" width="2.2" height="14"/>
			</g>
		</g>
		<g>
			<g>
				<g>
					<g>
						<g>
							<path class="st14" d="M201.6,215.8L201.6,215.8c2.9,3.1,3.1,8,0.4,11.3c-1.2,1.4-2.7,2.6-4.4,3.3l-14.6,6.6l-10.3,1.6
								l-135.2-0.9l-8.5-1.7c-4.1-0.8-7-4.4-7-8.6l0.1-5.9c0-0.9,0.6-1.7,1.5-2l0.6-0.2c0,0,0.5-5.8,4-7.1
								c12.7-5.5,21.1-7.2,42.3-8.1l17.9-10.7c0,0,7.2-4.6,14-5.2c6.7-0.6,22-0.6,29-0.2c8.2,0.5,18.6,4.2,24.5,7.1
								c4.6,2.3,15.5,7.8,15.5,7.8l6.2,1c0.9,0,18.1,1.1,20,1.4c1.2,0.2,2.6,1,3.1,2.7C201.2,209.8,201.6,215.7,201.6,215.8"/>
						</g>
						<g>
							<path class="st15" d="M172.6,239L172.6,239l-135.3-0.9l0,0l-8.5-1.7c-4.3-0.8-7.4-4.6-7.3-9l0.1-5.9c0-1.1,0.7-2.1,1.8-2.4
								l0.3-0.1c0.2-1.2,1-5.9,4.2-7.2c13-5.6,21.7-7.3,42.4-8.1l17.8-10.7c0.3-0.2,7.4-4.7,14.2-5.3c6.6-0.6,22-0.6,29.1-0.2
								c8,0.5,18.3,4,24.6,7.1c4.3,2.1,14.6,7.4,15.5,7.8l6.1,1c1.1,0.1,18,1.1,20,1.4c1.3,0.2,2.9,1.2,3.5,3
								c0.5,1.6,0.9,6.8,0.9,7.6c3,3.3,3.1,8.3,0.3,11.7c-1.2,1.5-2.8,2.7-4.6,3.5l-14.7,6.6L172.6,239z M37.4,237.3l135.1,0.9
								l10.2-1.6l14.6-6.6c1.6-0.7,3.1-1.9,4.3-3.2c2.6-3.1,2.4-7.7-0.3-10.7l0.4-0.3l-0.5,0c0-0.1-0.4-5.9-0.9-7.5
								c-0.4-1.4-1.7-2.2-2.8-2.4c-1.9-0.3-19.2-1.3-20-1.4l-0.1,0l-6.3-1.1l-0.1,0c-0.1-0.1-11-5.6-15.5-7.8
								c-6.2-3.1-16.5-6.6-24.3-7.1c-7.1-0.4-22.4-0.4-29,0.2c-6.6,0.6-13.7,5.1-13.8,5.2l-18,10.8l-0.1,0
								c-20.6,0.9-29.3,2.5-42.2,8.1c-3.2,1.2-3.7,6.7-3.7,6.7l0,0.3l-0.9,0.3c-0.7,0.2-1.2,0.8-1.2,1.6l-0.1,5.9
								c-0.1,4,2.7,7.4,6.6,8.1L37.4,237.3z"/>
						</g>
					</g>
				</g>
			</g>
			<g>
				<g>
					<g>
						<g>
							<path class="st16" d="M149.2,195.5c-2.9-1.5-10.8-3.5-15.1-4.3c-4.4-0.8-13.3-0.9-16.9-0.8c-3.6,0.1-13.5,0.3-18.7,1.7
								c-2.7,0.8-7,3-9.5,4.9c-0.9,0.6-4.7,3.7-5.6,4.3l-6.6,6.2l81.5-2.6c0,0,0.5-2.8-1-4.5C155.9,198.8,149.2,195.5,149.2,195.5z"
								/>
						</g>
					</g>
				</g>
			</g>
			<g>
				<g>
					<g>
						<g>
							<g>
								<g>
									<g>
										<path class="st17" d="M28.3,219.1l-4.1-0.1c0.2-1.1,0.7-4.1,2.5-5.7l5.5,0.1c1,0,1.6,1.1,1.1,2l-1,1.6
											C31.3,218.3,29.9,219.1,28.3,219.1z"/>
									</g>
									<g>
										<path class="st15" d="M28.4,219.2C28.3,219.2,28.3,219.2,28.4,219.2l-4.4-0.1l0-0.2c0.2-1.5,0.8-4.2,2.5-5.8l0,0l5.5,0.1
											c0.5,0,1,0.3,1.2,0.7c0.3,0.5,0.2,1,0,1.4l-1,1.6C31.5,218.4,30,219.2,28.4,219.2z M28.3,219c1.5,0,3-0.8,3.8-2.1l1-1.6
											c0.2-0.4,0.2-0.8,0-1.1c-0.2-0.4-0.6-0.6-1-0.6l-5.4-0.1c-1.5,1.5-2.1,4-2.4,5.4L28.3,219z"/>
									</g>
								</g>
							</g>
						</g>
					</g>
				</g>
				<g>
					<g>
						<g>
							<g>
								<g>
									<g>
										<path class="st18" d="M31.3,213.6l0.7,0c0.9,0,1.5,1,1,1.8l-0.9,1.5c-0.7,1.1-1.9,1.7-3.2,1.8
											C28.9,218.6,29.8,214.7,31.3,213.6z"/>
									</g>
								</g>
							</g>
						</g>
					</g>
				</g>
			</g>
			<g>
				<g class="st2">
					<g>
						<g>
							<g>
								<g>
									<g>
										<path d="M68.8,238c0.4-2.1,0.5-4.2,0.3-6.5C68,222.3,62,215.8,53,215.6c-7.9-0.1-14.4,4.8-15.7,13.9
											c-0.4,2.7-0.3,5.5,0.3,8.2L68.8,238z"/>
									</g>
								</g>
							</g>
						</g>
					</g>
				</g>
				<g class="st2">
					<g>
						<g>
							<g>
								<g>
									<g>
										<path d="M182.9,237c0-0.3,0-0.7,0-1c-0.2-11.6-7.9-19.6-17.1-19.7c-8.4-0.1-15.4,6.6-15.5,15.1c0,2.6-0.2,5,0.1,7.1
											l22.2,0.1L182.9,237z"/>
									</g>
								</g>
							</g>
						</g>
					</g>
				</g>
			</g>
			<g>
				<g>
					<g>
						<g>
							<g>
								<g>
									<g>
										<path class="st16" d="M152.2,231.4c-0.1,7.4,5.8,13.4,13.1,13.5c7.4,0.1,13.4-5.8,13.5-13.1c0.1-7.4-5.8-13.4-13.1-13.5
											C158.3,218.1,152.3,224,152.2,231.4z"/>
									</g>
								</g>
							</g>
						</g>
					</g>
				</g>
				<g>
					<g>
						<g>
							<g>
								<g>
									<g>
										<path class="st16" d="M152.2,231.3C152.2,231.3,152.2,231.3,152.2,231.3c-0.1,7.4,5.8,13.4,13.1,13.5
											c7.4,0.1,13.4-5.8,13.5-13.1c0,0,0,0,0,0L152.2,231.3z"/>
									</g>
								</g>
							</g>
						</g>
					</g>
				</g>
				<g>
					<g>
						<g>
							<g>
								<g>
									<g>
										<path class="st17" d="M156.2,231.4c-0.1,5.2,4,9.4,9.2,9.5c5.2,0.1,9.4-4,9.5-9.2c0.1-5.2-4-9.4-9.2-9.5
											C160.5,222.1,156.2,226.3,156.2,231.4z"/>
									</g>
								</g>
							</g>
						</g>
					</g>
				</g>
				<g>
					<g>
						<g>
							<g>
								<g>
									<g>
										<path class="st18" d="M165.6,222.2c-5.2-0.1-9.4,4-9.5,9.2l18.7,0.3C174.9,226.5,170.8,222.3,165.6,222.2z"/>
									</g>
								</g>
							</g>
						</g>
					</g>
				</g>
				<g>
					<g>
						<g>
							<g>
								<g>
									<g>
										<path class="st16" d="M159.8,231.5c0,3.1,2.5,5.7,5.6,5.8c3.1,0,5.7-2.5,5.8-5.6c0-3.1-2.5-5.7-5.6-5.8
											C162.4,225.8,159.9,228.3,159.8,231.5z"/>
									</g>
								</g>
							</g>
						</g>
					</g>
				</g>
			</g>
			<g>
				<g>
					<g>
						<g>
							<g>
								<g>
									<g>
										
											<ellipse transform="matrix(0.999 -4.491636e-02 4.491636e-02 0.999 -10.362 2.6255)" class="st16" cx="53.2" cy="231.9" rx="13.3" ry="13.3"/>
									</g>
								</g>
							</g>
						</g>
					</g>
				</g>
				<g>
					<g>
						<g>
							<g>
								<g>
									<g>
										<path class="st16" d="M39.9,231.7C39.9,231.7,39.9,231.7,39.9,231.7c-0.1,7.4,5.8,13.4,13.1,13.5
											c7.4,0.1,13.4-5.8,13.5-13.1c0,0,0,0,0,0L39.9,231.7z"/>
									</g>
								</g>
							</g>
						</g>
					</g>
				</g>
				<g>
					<g>
						<g>
							<g>
								<g>
									<g>
										<path class="st17" d="M43.9,231.8c-0.1,5.2,4,9.4,9.2,9.5c5.2,0.1,9.4-4,9.5-9.2c0.1-5.2-4-9.4-9.2-9.5
											C48.2,222.5,44,226.6,43.9,231.8z"/>
									</g>
								</g>
							</g>
						</g>
					</g>
				</g>
				<g>
					<g>
						<g>
							<g>
								<g>
									<g>
										<path class="st18" d="M53.4,222.5c-5.2-0.1-9.4,4-9.5,9.2l18.7,0.3C62.7,226.9,58.5,222.6,53.4,222.5z"/>
									</g>
								</g>
							</g>
						</g>
					</g>
				</g>
				<g>
					<g>
						<g>
							<g>
								<g>
									<g>
										<path class="st16" d="M47.5,231.8c0,3.1,2.5,5.7,5.6,5.8c3.1,0,5.7-2.5,5.8-5.6c0-3.1-2.5-5.7-5.6-5.8
											C50.2,226.2,47.6,228.7,47.5,231.8z"/>
									</g>
								</g>
							</g>
						</g>
					</g>
				</g>
			</g>
			<g class="st19">
				<g>
					<g>
						<g>
							<g>
								<g>
									<path d="M27.5,228.8c0,1.5-0.8,2.7-1.7,2.7c-0.9,0-1.6-1.2-1.6-2.7c0-1.5,0.8-2.7,1.7-2.7
										C26.8,226.1,27.5,227.3,27.5,228.8z"/>
								</g>
							</g>
						</g>
					</g>
				</g>
			</g>
			<g>
				<g>
					<g>
						<g>
							<g>
								<g>
									<g>
										<path class="st20" d="M182.5,237.2c0,0,0.1,0,0.2-0.1c0.1-0.1,0.3-0.2,0.5-0.3c0.4-0.3,0.9-0.9,1.2-1.7
											c0.4-0.9,0.5-2,0.4-3.3c-0.1-1.3-0.4-2.8-0.9-4.4c-0.5-1.6-1.2-3.3-2.1-5c-1-1.7-2.3-3.4-4-4.8c-1.7-1.4-3.7-2.7-6-3.4
											c-2.3-0.7-4.8-0.9-7.4-0.6c-2.5,0.3-5,0.9-7.2,1.9c-2.2,0.9-4.2,2.2-5.7,3.9c-1.5,1.6-2.5,3.5-3.2,5.3
											c-0.7,1.8-1.1,3.6-1.4,5.3c-0.1,0.8-0.2,1.6-0.3,2.4c-0.1,0.8-0.1,1.5-0.1,2.1c0,1.3,0.5,2.5,1.2,3.1
											c0.7,0.7,1.4,0.9,1.9,0.9c0.5,0,0.7-0.1,0.7-0.1c0,0-0.1,0-0.2,0.1c-0.1,0-0.3,0.1-0.6,0.1c-0.5,0-1.2-0.2-1.9-0.9
											c-0.7-0.7-1.2-1.8-1.2-3.1c0-0.7,0-1.4,0.1-2.1c0.1-0.8,0.2-1.5,0.3-2.4c0.3-1.7,0.7-3.5,1.4-5.3c0.4-0.9,0.8-1.9,1.3-2.8
											c0.5-0.9,1.2-1.8,1.9-2.6c1.5-1.7,3.5-3,5.7-3.9c2.2-1,4.7-1.6,7.2-1.9c2.6-0.3,5.1-0.1,7.4,0.6c2.3,0.7,4.4,1.9,6,3.4
											c1.7,1.5,3,3.2,4,4.9c1,1.7,1.7,3.4,2.1,5.1c0.5,1.6,0.8,3.1,0.9,4.4c0.1,1.3-0.1,2.5-0.5,3.4c-0.4,0.9-0.9,1.4-1.3,1.7
											C182.7,237.1,182.5,237.2,182.5,237.2z"/>
									</g>
								</g>
							</g>
						</g>
					</g>
				</g>
			</g>
			<g>
				<g>
					<g>
						<g>
							<g>
								<g>
									<g>
										<path class="st21" d="M156.8,234.5"/>
									</g>
								</g>
							</g>
						</g>
					</g>
				</g>
			</g>
			<g>
				<g>
					<g>
						<g>
							<g>
								<g>
									<g>
										<path class="st20" d="M73.5,236.6c0,0,0-0.1,0-0.2c0-0.1,0-0.3,0-0.5c0-0.2,0-0.5,0-0.9c0-0.3,0-0.7-0.1-1.2
											c-0.2-1.8-0.6-4.3-1.6-7.4c-0.5-1.5-1.2-3.1-2.1-4.8c-0.9-1.6-2-3.3-3.4-4.9c-1.4-1.6-3.2-2.9-5.3-3.8
											c-2.1-0.9-4.5-1.4-6.9-1.4c-1.2,0-2.4,0.1-3.6,0.3c-1.2,0.2-2.3,0.5-3.4,0.8c-1.1,0.4-2.1,0.8-3.1,1.3l-0.4,0.2l-0.3,0.2
											c-0.2,0.1-0.5,0.3-0.7,0.4c-0.2,0.2-0.4,0.3-0.7,0.5l-0.3,0.2l-0.3,0.2c-1.7,1.3-3,2.8-4.1,4.3c-1.1,1.5-1.8,3.1-2.4,4.6
											c-0.5,1.5-0.9,2.9-1,4.2c-0.1,0.6-0.1,1.2-0.2,1.8c0,0.5,0,1,0,1.5c0,0.4,0,0.8,0.1,1.2c0,0.3,0.1,0.6,0.1,0.9
											c0,0.2,0.1,0.4,0.1,0.5c0,0.1,0,0.2,0,0.2s0-0.1,0-0.2c0-0.1,0-0.3-0.1-0.5c0-0.2-0.1-0.5-0.1-0.9c0-0.3-0.1-0.7-0.1-1.2
											c0-0.4,0-0.9,0-1.5c0-0.5,0.1-1.1,0.1-1.8c0.2-1.3,0.5-2.7,1-4.2c0.5-1.5,1.3-3.1,2.4-4.7c1-1.6,2.4-3.1,4.1-4.4l0.3-0.2
											l0.3-0.2c0.2-0.2,0.4-0.3,0.7-0.5c0.2-0.1,0.5-0.3,0.7-0.4l0.4-0.2l0.4-0.2c1-0.5,2-1,3.1-1.4c1.1-0.4,2.2-0.7,3.4-0.9
											c1.2-0.2,2.4-0.3,3.6-0.3c2.4,0.1,4.8,0.5,7,1.4c2.1,0.9,4,2.2,5.4,3.8c1.4,1.6,2.5,3.3,3.4,5c0.9,1.7,1.6,3.3,2.1,4.8
											c1,3,1.4,5.6,1.6,7.4C73.5,235.6,73.5,236.6,73.5,236.6z"/>
									</g>
								</g>
							</g>
						</g>
					</g>
				</g>
			</g>
			<g>
				<g>
					<g>
						<g>
							<g>
								<g>
									<g>
										<path class="st15" d="M109.9,211.5c0,0,0.1,0,0.2,0c0.1,0,0.3,0,0.5,0c0.2,0,0.5,0.1,0.6,0.4c0.2,0.2,0.3,0.6,0.1,1
											c-0.2,0.4-0.5,0.6-1,0.7c-0.4,0.1-0.9,0.1-1.4,0.1c-1-0.1-2-0.1-3.1-0.2c-0.3,0-0.6,0-0.8-0.2c-0.3-0.1-0.5-0.3-0.6-0.6
											c-0.1-0.3,0-0.6,0.2-0.8c0.2-0.2,0.4-0.4,0.6-0.5c0.5-0.2,1-0.1,1.4-0.1c0.4,0,0.8,0,1.2,0c0.7,0,1.3,0.1,1.7,0.1
											c0.4,0,0.6,0,0.6,0C110.1,211.5,110,211.5,109.9,211.5c-0.1,0-0.3,0-0.5,0c-0.4,0-1,0-1.7,0c-0.4,0-0.8,0-1.2,0
											c-0.4,0-0.9,0-1.3,0.1c-0.2,0.1-0.4,0.2-0.5,0.4c-0.1,0.2-0.2,0.4-0.1,0.6c0.1,0.2,0.3,0.4,0.5,0.5
											c0.2,0.1,0.5,0.1,0.8,0.1c1.1,0.1,2.2,0.1,3.1,0.2c0.5,0,0.9,0.1,1.3,0c0.4-0.1,0.7-0.3,0.9-0.7c0.2-0.3,0.1-0.6,0-0.9
											c-0.1-0.2-0.4-0.3-0.6-0.4C110.2,211.5,109.9,211.6,109.9,211.5z"/>
									</g>
									<g>
										<path class="st15" d="M109.6,214c-0.2,0-0.4,0-0.6,0l-3.1-0.2c-0.3,0-0.6,0-0.9-0.2c-0.4-0.2-0.6-0.4-0.7-0.7
											c-0.1-0.3,0-0.7,0.2-1c0.2-0.2,0.4-0.4,0.7-0.5c0.4-0.1,0.8-0.1,1.2-0.1c0.1,0,0.2,0,0.2,0c0.4,0,0.7,0,1.2,0l1.9,0.1
											c0.2,0,0.3,0,0.4,0c0,0,0.1,0,0.1,0c0.1,0,0.3,0,0.5,0c0.2,0,0.5,0.1,0.8,0.5c0.2,0.3,0.3,0.7,0.1,1.2
											c-0.2,0.4-0.6,0.7-1.1,0.9C110.1,214,109.8,214,109.6,214z M107,211.8c-0.1,0-0.3,0-0.4,0c-0.1,0-0.1,0-0.2,0
											c-0.3,0-0.7,0-1,0.1c-0.2,0.1-0.3,0.2-0.4,0.3c-0.1,0.1-0.1,0.3-0.1,0.4c0,0.1,0.2,0.3,0.4,0.4c0.2,0.1,0.5,0.1,0.7,0.1
											l3.1,0.2c0.4,0,0.9,0.1,1.3,0c0.3-0.1,0.6-0.3,0.7-0.5c0.1-0.3,0.1-0.5,0-0.7c-0.1-0.2-0.2-0.2-0.4-0.3
											c-0.2,0-0.4-0.1-0.5-0.1c0,0,0,0,0,0c0,0,0,0-0.1,0c-0.1,0-0.3,0-0.5,0c-0.4,0-1,0-1.7,0
											C107.5,211.8,107.2,211.8,107,211.8z"/>
									</g>
								</g>
							</g>
						</g>
					</g>
				</g>
			</g>
			<g>
				<g>
					<g>
						<g>
							<g>
								<g>
									<g>
										<path class="st15" d="M152,211.2c0,0,0.1,0,0.2,0c0.1,0,0.3,0,0.5,0c0.2,0,0.5,0.1,0.6,0.4c0.2,0.2,0.3,0.6,0.1,1
											c-0.2,0.4-0.5,0.6-1,0.7c-0.4,0.1-0.9,0.1-1.4,0.1c-1-0.1-2-0.1-3.1-0.2c-0.3,0-0.6,0-0.8-0.2c-0.3-0.1-0.5-0.3-0.6-0.6
											c-0.1-0.3,0-0.6,0.2-0.8c0.2-0.2,0.4-0.4,0.6-0.5c0.5-0.2,1-0.1,1.4-0.1c0.4,0,0.8,0,1.2,0c0.7,0,1.3,0.1,1.7,0.1
											c0.4,0,0.6,0,0.6,0C152.2,211.2,152.1,211.2,152,211.2c-0.1,0-0.3,0-0.5,0c-0.4,0-1,0-1.7,0c-0.4,0-0.8,0-1.2,0
											c-0.4,0-0.9,0-1.3,0.1c-0.2,0.1-0.4,0.2-0.5,0.4c-0.1,0.2-0.2,0.4-0.1,0.6c0.1,0.2,0.3,0.4,0.5,0.5
											c0.2,0.1,0.5,0.1,0.8,0.1c1.1,0.1,2.2,0.1,3.1,0.2c0.5,0,0.9,0.1,1.3,0c0.4-0.1,0.7-0.3,0.9-0.7c0.2-0.3,0.1-0.6,0-0.9
											c-0.1-0.2-0.4-0.3-0.6-0.4C152.3,211.2,152,211.2,152,211.2z"/>
									</g>
									<g>
										<path class="st15" d="M151.7,213.6c-0.2,0-0.4,0-0.6,0l-3.1-0.2c-0.3,0-0.6,0-0.9-0.2c-0.4-0.2-0.6-0.4-0.7-0.7
											c-0.1-0.3,0-0.7,0.2-1c0.2-0.2,0.4-0.4,0.7-0.5c0.4-0.1,0.8-0.1,1.2-0.1c0.1,0,0.2,0,0.2,0c0.4,0,0.7,0,1.2,0l1.9,0.1
											c0.2,0,0.3,0,0.4,0c0,0,0.1,0,0.1,0c0.1,0,0.3,0,0.5,0c0.2,0,0.5,0.1,0.8,0.5c0.2,0.3,0.3,0.7,0.1,1.2
											c-0.2,0.4-0.6,0.7-1.1,0.9C152.2,213.6,151.9,213.6,151.7,213.6z M149.1,211.4c-0.1,0-0.3,0-0.4,0c-0.1,0-0.1,0-0.2,0
											c-0.3,0-0.7,0-1,0.1c-0.2,0.1-0.3,0.2-0.4,0.3c-0.1,0.1-0.1,0.3-0.1,0.4c0,0.1,0.2,0.3,0.4,0.4c0.2,0.1,0.5,0.1,0.7,0.1
											l3.1,0.2c0.4,0,0.9,0.1,1.3,0c0.3-0.1,0.6-0.3,0.7-0.5c0.1-0.3,0.1-0.5,0-0.7c-0.1-0.2-0.2-0.2-0.4-0.3
											c-0.2,0-0.4-0.1-0.5-0.1c0,0,0,0,0,0c0,0,0,0-0.1,0c-0.1,0-0.3,0-0.5,0c-0.4,0-1,0-1.7,0
											C149.6,211.4,149.3,211.4,149.1,211.4z"/>
									</g>
								</g>
							</g>
						</g>
					</g>
				</g>
			</g>
			<g>
				<g>
					<g>
						<g>
							<path class="st16" d="M74,205.6c-1,0.7-2.4,0.9-3.5,0.7c-1.2-0.2-2.1-0.8-2.7-1.8l2.6-0.1L74,205.6z"/>
						</g>
					</g>
				</g>
			</g>
			<g>
				<g>
					<g>
						<g>
							<path class="st22" d="M70.4,204.3c0,0,2.6,1.6,3.4,1.4c0.8-0.2,13.1-10,20.5-13.7c0,0-1-0.4-2.3-0.5c0,0-3.5,1.8-7.8,4.3
								c-3.3,2-6.6,4-8.2,5C72.7,202.9,70.4,204.3,70.4,204.3z"/>
						</g>
					</g>
				</g>
			</g>
			<g>
				<g>
					<g>
						<g>
							<g>
								<g>
									<g>
										<g>
											<path class="st15" d="M201.6,215.8c0,0-0.1,0-0.3,0c-0.2,0-0.4,0-0.7,0c-0.6,0-1.6,0-2.7,0.1c-1.1,0-2.5,0.1-4,0.2
												c-1.5,0.1-3.2,0.3-4.8,0.7c-0.8,0.2-1.7,0.5-2.4,0.8c-0.7,0.4-1.4,0.8-2,1.3c-1.2,0.9-2.1,2-2.9,2.8
												c-0.8,0.8-1.5,1.4-2.1,1.7c-0.3,0.2-0.5,0.3-0.6,0.4c-0.2,0.1-0.2,0.1-0.2,0.1c0,0,0.3-0.2,0.8-0.5
												c0.5-0.4,1.2-0.9,2-1.8c0.8-0.8,1.7-1.9,2.9-2.8c0.6-0.5,1.2-1,2-1.3c0.7-0.4,1.6-0.6,2.4-0.8c1.7-0.4,3.4-0.6,4.9-0.7
												c1.5-0.1,2.9-0.2,4-0.2c1.1,0,2.1,0,2.7,0c0.3,0,0.5,0,0.7,0C201.5,215.8,201.6,215.8,201.6,215.8z"/>
										</g>
										<g>
											<path class="st15" d="M178.8,224.1C178.8,224.1,178.8,224.1,178.8,224.1c-0.1,0-0.2-0.1-0.2-0.1
												c-0.1-0.2,0.1-0.3,0.2-0.4c0.1-0.1,0.4-0.2,0.7-0.4c0.6-0.4,1.3-1,2-1.7c0.2-0.2,0.4-0.4,0.6-0.6
												c0.7-0.7,1.4-1.5,2.3-2.2c0.5-0.4,1.2-0.9,2-1.3c0.7-0.3,1.5-0.6,2.5-0.9c1.7-0.4,3.4-0.6,4.9-0.7c1.4-0.1,2.7-0.2,4-0.2
												c0.9,0,1.8,0,2.7,0l0.7,0c0.3,0,0.5,0,0.5,0.2c0,0.2-0.2,0.2-0.5,0.2l-1.1,0c-0.6,0-1.4,0-2.4,0.1c-1.3,0-2.7,0.1-4,0.2
												c-1.4,0.1-3.1,0.3-4.8,0.7c-1,0.2-1.7,0.5-2.3,0.8c-0.8,0.4-1.4,0.9-1.9,1.3c-0.9,0.7-1.6,1.4-2.2,2.1
												c-0.2,0.2-0.4,0.5-0.7,0.7c-0.8,0.8-1.5,1.4-2.1,1.8c-0.3,0.2-0.5,0.3-0.7,0.4C179,224.1,178.9,224.1,178.8,224.1z
												 M201.8,215.8L201.8,215.8L201.8,215.8z"/>
										</g>
									</g>
								</g>
							</g>
						</g>
					</g>
				</g>
				<g>
					<g>
						<g>
							<g>
								<g>
									<g>
										<g>
											<path class="st15" d="M37.5,229.6c0,0-0.2-0.2-0.4-0.5c-0.3-0.3-0.7-0.8-1.3-1.3c-1.2-1-3.1-2-5.4-2.4
												c-2.3-0.5-4.4-0.4-5.9-0.4c-0.8,0-1.4,0.1-1.8,0.1c-0.4,0-0.7,0-0.7,0c0,0,0.1,0,0.2,0c0.1,0,0.3,0,0.5-0.1
												c0.4,0,1-0.1,1.8-0.1c1.5-0.1,3.7-0.1,6,0.3c2.3,0.5,4.2,1.5,5.4,2.5c0.6,0.5,1,1,1.3,1.3c0.1,0.2,0.2,0.3,0.3,0.4
												C37.5,229.5,37.5,229.6,37.5,229.6z"/>
										</g>
										<g>
											<path class="st15" d="M37.5,229.8c-0.1,0-0.2-0.1-0.3-0.3c-0.1-0.1-0.2-0.2-0.3-0.3c-0.2-0.3-0.6-0.7-1.3-1.2
												c-1.3-1.1-3.3-2-5.3-2.4c-2.1-0.4-4.1-0.4-5.9-0.4c-0.6,0-1.2,0.1-1.6,0.1l-0.2,0c-0.8,0-0.9,0-0.9-0.2
												c0-0.2,0.2-0.2,0.4-0.3l0.5-0.1c0.4,0,1-0.1,1.8-0.1c1.6-0.1,3.8-0.1,6,0.3c2.1,0.4,4.1,1.4,5.5,2.6
												c0.7,0.6,1.1,1.1,1.3,1.3c0.1,0.1,0.2,0.2,0.2,0.3c0,0,0,0.1,0.1,0.1c0.1,0.1,0.2,0.3,0,0.5
												C37.6,229.8,37.6,229.8,37.5,229.8z"/>
										</g>
									</g>
								</g>
							</g>
						</g>
					</g>
				</g>
				<g>
					<g>
						<g>
							<g>
								<g>
									<g>
										<g>
											<path class="st15" d="M37.4,219.6c0,0.1-3.2,0-7.1,0c-3.9-0.1-7.1-0.1-7.1-0.2c0-0.1,3.2,0,7.1,0
												C34.3,219.5,37.4,219.6,37.4,219.6z"/>
										</g>
										<g>
											<path class="st15" d="M35.6,219.9c-1.1,0-2.7,0-5.2-0.1c-7.1-0.1-7.2-0.2-7.2-0.3c0,0-0.1-0.1-0.1-0.2
												c0-0.3,0-0.3,2.3-0.3c1.3,0,3.1,0,5,0c7.3,0.1,7.3,0.1,7.3,0.4c0,0,0,0,0,0C37.7,219.8,37.7,219.9,35.6,219.9z
												 M37.4,219.6L37.4,219.6L37.4,219.6z M37.4,219.6L37.4,219.6L37.4,219.6z"/>
										</g>
									</g>
								</g>
							</g>
						</g>
					</g>
				</g>
				<g>
					<g>
						<g>
							<g>
								<g>
									<g>
										<g>
											<path class="st15" d="M177.6,204.2c0,0,0,0.1,0,0.2c0,0.1,0,0.3-0.1,0.6c-0.1,0.5-0.2,1.2-0.2,2c-0.1,0.9-0.1,1.9,0.1,3
												c0.2,1.1,0.8,2.3,1.7,3.2c0.9,0.9,2,1.6,3.1,2c1.1,0.4,2.1,0.7,2.9,0.8c0.8,0.2,1.5,0.3,2,0.4c0.2,0,0.4,0.1,0.6,0.1
												c0.1,0,0.2,0,0.2,0c0,0-0.1,0-0.2,0c-0.1,0-0.3,0-0.6-0.1c-0.5-0.1-1.2-0.1-2-0.3c-0.9-0.2-1.9-0.4-2.9-0.8
												c-1.1-0.4-2.2-1.1-3.1-2c-0.9-1-1.5-2.2-1.7-3.3c-0.2-1.1-0.2-2.2-0.1-3.1c0.1-0.9,0.2-1.6,0.3-2c0-0.2,0.1-0.4,0.1-0.5
												C177.6,204.3,177.6,204.2,177.6,204.2z"/>
										</g>
										<g>
											<path class="st15" d="M187.7,216.8c-0.1,0-0.1,0-0.2,0l-0.6-0.1c-0.4-0.1-1.2-0.1-2-0.3c-0.8-0.1-1.9-0.4-3-0.8
												c-1.3-0.5-2.4-1.2-3.2-2.1c-0.9-0.9-1.5-2.1-1.8-3.4c-0.2-1.2-0.2-2.4-0.1-3.1c0.1-0.8,0.2-1.5,0.3-2.1
												c0-0.2,0.1-0.4,0.1-0.6c0-0.2,0.1-0.4,0.3-0.4c0.2,0,0.2,0.2,0.2,0.4l-0.1,0.7c-0.1,0.5-0.1,1.1-0.2,1.8
												c-0.1,0.8-0.1,1.8,0.1,2.9c0.2,1.2,0.8,2.3,1.6,3.1c0.8,0.8,1.8,1.5,3,2c1,0.4,2,0.7,2.9,0.8c0.7,0.1,1.3,0.2,1.7,0.3
												l0.9,0.1c0.2,0,0.4,0.1,0.4,0.3C188,216.8,187.9,216.8,187.7,216.8z"/>
										</g>
									</g>
								</g>
							</g>
						</g>
					</g>
				</g>
				<g>
					<g>
						<g>
							<g>
								<g>
									<path class="st15" d="M158.2,204.9c0,0,0,0.1,0,0.2c0,0.1-0.1,0.3-0.1,0.5c-0.1,0.4-0.3,1.1-0.5,1.9
										c-0.5,1.7-1.2,4.2-2,7.3l0,0l0,0c-1.4,0.6-2.8,1.5-4.1,2.7c-0.7,0.6-1.3,1.3-1.9,2c-0.6,0.8-1.2,1.6-1.7,2.5
										c-1,1.8-1.8,3.8-2.4,6.1c-0.6,2.2-0.9,4.6-0.9,7.1v0.1h-0.1c-8.8,0-19,0-29.8,0c-14.5,0-27.8,0-38.4,0h-0.1l0-0.1
										c-1-7.9-1.6-14.4-1.9-18.9c-0.2-2.3-0.3-4-0.4-5.2c0-0.6-0.1-1.1-0.1-1.4c0-0.3,0-0.5,0-0.5s0,0.2,0,0.5
										c0,0.3,0.1,0.8,0.1,1.4c0.1,1.2,0.2,3,0.4,5.2c0.4,4.5,1,11,2,18.9l-0.1-0.1c10.6,0,24,0,38.4,0c10.8,0,21,0,29.8,0
										l-0.1,0.1c0-2.5,0.4-4.9,0.9-7.2c0.6-2.2,1.4-4.3,2.4-6.1c0.5-0.9,1.1-1.7,1.7-2.5c0.6-0.7,1.2-1.4,1.9-2
										c1.3-1.2,2.8-2.1,4.1-2.7l0,0c0.9-3.1,1.6-5.6,2.1-7.3c0.2-0.8,0.4-1.5,0.6-1.9c0.1-0.2,0.1-0.4,0.1-0.5
										C158.2,205,158.2,204.9,158.2,204.9z"/>
								</g>
								<g>
									<path class="st15" d="M114.6,235.5l-38.5,0c-0.1,0-0.2-0.1-0.2-0.2l0-0.1c-1-8.2-1.6-14.8-1.9-18.9
										c-0.1-1.8-0.3-3.5-0.4-5.2l-0.1-1.4c0-0.3,0-0.5,0-0.5c0-0.1,0.1-0.2,0.2-0.2c0.1,0,0.2,0.1,0.2,0.2c0,0,0,0.2,0,0.5
										l0.5,6.6c0.5,6,1.2,12.3,2,18.7l38.2,0l29.5,0c0-2.2,0.3-4.6,0.9-6.9c0.6-2.3,1.4-4.3,2.4-6.1c0.6-1,1.1-1.8,1.7-2.5
										c0.7-0.9,1.3-1.5,1.9-2.1c1.2-1.1,2.6-2,4.1-2.7l2.7-9.6c0-0.1,0.1-0.2,0.1-0.2c0-0.1,0.2-0.2,0.3-0.1
										c0.1,0,0.2,0.1,0.2,0.3c0,0,0,0.1,0,0.2l-0.7,2.4l-2,7.3c0,0.1-0.1,0.1-0.1,0.2c-1.5,0.7-2.8,1.6-4,2.7
										c-0.6,0.5-1.2,1.1-1.9,2c-0.6,0.7-1.1,1.5-1.6,2.4c-1,1.8-1.8,3.8-2.4,6c-0.6,2.4-0.9,4.8-0.9,7.1v0.1
										c0,0.1-0.1,0.2-0.2,0.2L114.6,235.5z"/>
								</g>
							</g>
						</g>
					</g>
				</g>
				<g>
					<g>
						<g>
							<g>
								<g>
									<path class="st15" d="M115.5,206.4C115.5,206.4,115.5,206.4,115.5,206.4c0,0.1,0,0.2,0,0.3c0,0.2-0.1,0.5-0.1,0.8
										c0,0.4-0.1,0.8-0.2,1.3c-0.1,0.5-0.1,1.1-0.2,1.8c-0.1,0.6-0.1,1.4-0.2,2.1c-0.1,0.8-0.1,1.6-0.1,2.4
										c-0.1,1.7-0.1,3.6,0,5.6c0.1,2,0.2,3.9,0.4,5.6c0.1,0.9,0.2,1.7,0.3,2.4c0.1,0.8,0.2,1.5,0.3,2.1c0.1,0.6,0.2,1.2,0.3,1.7
										c0.1,0.5,0.2,0.9,0.2,1.3c0.1,0.3,0.1,0.6,0.2,0.8c0,0.1,0,0.2,0,0.2c0,0,0,0.1,0,0.1c0,0,0,0,0-0.1c0-0.1,0-0.1-0.1-0.2
										c0-0.2-0.1-0.5-0.2-0.8c-0.1-0.4-0.2-0.8-0.3-1.3c-0.1-0.5-0.2-1.1-0.3-1.7c-0.1-0.6-0.2-1.3-0.3-2.1
										c-0.1-0.8-0.2-1.6-0.3-2.4c-0.2-1.7-0.3-3.6-0.4-5.6c-0.1-2,0-3.9,0-5.6c0-0.9,0.1-1.7,0.1-2.4c0.1-0.8,0.1-1.5,0.2-2.1
										c0.1-0.7,0.1-1.2,0.2-1.8c0.1-0.5,0.1-1,0.2-1.3c0.1-0.4,0.1-0.6,0.1-0.8C115.4,206.6,115.4,206.6,115.5,206.4
										C115.5,206.4,115.5,206.4,115.5,206.4z"/>
								</g>
								<g>
									<path class="st15" d="M116.4,235.3c-0.1,0-0.2-0.1-0.2-0.2l-0.1-0.2l-0.2-0.8c-0.1-0.5-0.2-0.9-0.3-1.3l-0.1-0.4
										c-0.1-0.4-0.2-0.9-0.2-1.4c-0.1-0.6-0.2-1.3-0.3-2.1c-0.1-0.6-0.2-1.3-0.3-2l0-0.4c-0.2-1.9-0.3-3.8-0.4-5.6
										c-0.1-1.8-0.1-3.7,0-5.6l0-0.4c0-0.7,0.1-1.4,0.1-2c0.1-0.8,0.1-1.5,0.2-2.1c0-0.5,0.1-1,0.2-1.4l0-0.4
										c0.1-0.4,0.1-0.9,0.2-1.3l0.2-1c0-0.1,0.1-0.3,0.3-0.3c0,0,0,0,0,0c0.2,0,0.2,0.2,0.2,0.3l-0.1,1.1c0,0.3-0.1,0.8-0.2,1.3
										c0,0.1,0,0.3-0.1,0.5c0,0.4-0.1,0.8-0.1,1.3c-0.1,0.7-0.1,1.4-0.2,2.1c0,0.6-0.1,1.3-0.1,1.9l0,0.5c-0.1,1.9-0.1,3.8,0,5.6
										c0.1,1.8,0.2,3.7,0.4,5.6l0.1,0.5c0.1,0.7,0.1,1.3,0.2,1.9c0.1,0.8,0.2,1.5,0.3,2.1c0.1,0.5,0.1,0.9,0.2,1.3
										c0,0.2,0.1,0.3,0.1,0.5c0.1,0.5,0.2,1,0.2,1.3l0.2,1C116.7,235.2,116.6,235.3,116.4,235.3
										C116.5,235.3,116.4,235.3,116.4,235.3z"/>
								</g>
							</g>
						</g>
					</g>
				</g>
				<g>
					<g>
						<g>
							<g>
								<g>
									<path class="st15" d="M78.9,206.4C78.9,206.4,78.8,206.4,78.9,206.4c-0.1,0.1-0.2,0.1-0.3,0.2c-0.2,0.1-0.6,0.3-1,0.6
										c-0.9,0.5-2.2,1.2-3.8,2.1l0,0l0,0c-2.4-0.1-5.5-0.1-9,0c-1.8,0.1-3.6,0.2-5.6,0.4c-1.9,0.2-4,0.5-6,0.8
										c-3.6,0.6-7.1,1.3-10.2,1.9c-3.1,0.6-6,0.9-8.4,1c-2.4,0.1-4.4,0.1-5.7,0.1c-0.7,0-1.2,0-1.6-0.1c-0.2,0-0.3,0-0.4,0
										c-0.1,0-0.1,0-0.1,0s0,0,0.1,0c0.1,0,0.2,0,0.4,0c0.4,0,0.9,0,1.6,0c1.3,0,3.3,0,5.7-0.1c2.4-0.1,5.3-0.5,8.4-1
										c3.1-0.6,6.6-1.3,10.2-1.9c2.1-0.3,4.1-0.6,6.1-0.8c2-0.2,3.8-0.3,5.6-0.4c3.5-0.1,6.6-0.1,9,0l0,0
										c1.6-0.9,2.9-1.6,3.8-2.1c0.4-0.2,0.8-0.4,1-0.6C78.6,206.5,78.7,206.4,78.9,206.4C78.8,206.4,78.9,206.4,78.9,206.4z"/>
								</g>
								<g>
									<path class="st15" d="M31,213.7c-0.8,0-1.6,0-2.2,0c-0.6,0-1.1,0-1.6-0.1l-0.4,0c-0.1,0-0.2,0-0.2,0
										c-0.1,0-0.2-0.1-0.2-0.2s0.1-0.2,0.2-0.2c0,0,0.1,0,0.2,0l0.4,0c0.4,0,0.9,0,1.5,0c1.6,0,3.5,0,5.7-0.1
										c2.6-0.2,5.5-0.5,8.4-1c0.9-0.2,1.9-0.4,2.8-0.5c2.4-0.5,4.8-0.9,7.4-1.3c2.1-0.3,4.2-0.6,6.1-0.8c1.8-0.2,3.7-0.3,5.6-0.4
										c3.7-0.1,6.9,0,8.9,0l5.1-2.8c0.1,0,0.3-0.1,0.4,0c0.1,0.2-0.1,0.3-0.2,0.4l-1.3,0.7l-3.8,2.1c0,0-0.1,0-0.1,0
										c-2.1-0.1-5.3-0.2-9,0c-1.9,0.1-3.8,0.2-5.6,0.4c-1.9,0.2-3.9,0.5-6,0.8c-2.5,0.4-4.9,0.8-7.2,1.3c-1,0.2-2,0.4-3,0.6
										c-2.9,0.5-5.8,0.9-8.4,1C33.2,213.7,32,213.7,31,213.7z"/>
								</g>
							</g>
						</g>
					</g>
				</g>
			</g>
			<g>
				<g>
					<g>
						<g>
							<path class="st22" d="M81.7,206.7c18.7-0.8,56.5-1.5,75.2-2.4c0,0,0.6-2.1-1.1-3.3c-0.6-0.5-4.5-3.4-9.1-5.1
								c-7.1-2.7-14.4-3.8-17.3-4c-3.3-0.3-9.4-0.5-9.4-0.5s-11.2,0.4-14.3,0.7c-4.6,0.4-8.4,1.7-11.3,3.1
								c-3.9,1.9-10.7,7.6-10.7,7.6l-4.8,4H81.7z"/>
						</g>
					</g>
				</g>
			</g>
			<g>
				<g>
					<g>
						<g>
							<polygon class="st16" points="116.1,190.7 112.5,206.2 119.1,206 120.4,190.7 							"/>
						</g>
					</g>
				</g>
			</g>
			<g>
				<g>
					<g>
						<g>
							<polygon class="st16" points="144.4,194.5 143.8,204.9 144.7,204.9 145.3,194.8 							"/>
						</g>
					</g>
				</g>
			</g>
			<g>
				<g>
					<g>
						<g>
							<path class="st16" d="M82.4,203.1c0.3,0.4,2,4.1,2,4.1l-6.3-0.4L82.4,203.1z"/>
						</g>
					</g>
				</g>
			</g>
			<g>
				<g>
					<g>
						<g>
							<g>
								<g>
									<g>
										<path class="st14" d="M88.3,206.9l-4.8,0.1c-0.6,0-1.1-1.1-1.1-2.5l0,0c0-1.2,0.4-2.3,1-2.5l4.6-1.5L88.3,206.9z"/>
									</g>
								</g>
							</g>
						</g>
					</g>
				</g>
			</g>
			<g>
				<g>
					<g>
						<g>
							<g>
								<path class="st22" d="M118.2,190.5c0,0-0.5,3.5-1.1,7.9c-0.7,4.3-1.3,7.8-1.3,7.8c0,0,0.5-3.5,1.1-7.9
									C117.5,194,118.1,190.5,118.2,190.5z"/>
							</g>
						</g>
					</g>
				</g>
			</g>
			<g>
				<g>
					<g>
						<g>
							<g>
								<path class="st22" d="M82.6,202.9c0,0-0.2,0.8-0.7,1.6c-0.5,0.8-1,1.4-1.1,1.4c0,0,0.4-0.6,0.9-1.5
									C82.2,203.6,82.5,202.9,82.6,202.9z"/>
							</g>
						</g>
					</g>
				</g>
			</g>
			<g>
				<g>
					<g>
						<g>
							<g>
								<path class="st23" d="M109.3,193.5c0,0,0,0-0.1,0.1c-0.1,0.1-0.1,0.2-0.2,0.3c-0.2,0.3-0.5,0.7-0.8,1.3
									c-0.7,1.1-1.7,2.5-2.8,4.2c-1.1,1.6-2,3.1-2.7,4.2c-0.3,0.5-0.6,1-0.8,1.3c-0.1,0.1-0.2,0.3-0.2,0.3
									c-0.1,0.1-0.1,0.1-0.1,0.1c0,0,0,0,0.1-0.1c0.1-0.1,0.1-0.2,0.2-0.4c0.2-0.3,0.4-0.8,0.8-1.3c0.7-1.1,1.6-2.6,2.7-4.2
									c1.1-1.6,2.1-3.1,2.8-4.2c0.4-0.5,0.7-1,0.9-1.2c0.1-0.1,0.2-0.2,0.2-0.3C109.2,193.6,109.3,193.5,109.3,193.5z"/>
							</g>
						</g>
					</g>
				</g>
			</g>
			<g>
				<g>
					<g>
						<g>
							<g>
								<path class="st23" d="M106.5,195.9c0,0-0.6,1-1.5,2.2c-0.8,1.2-1.6,2.1-1.6,2.1c0,0,0.6-1,1.5-2.2
									C105.8,196.8,106.5,195.8,106.5,195.9z"/>
							</g>
						</g>
					</g>
				</g>
			</g>
			<g>
				<g>
					<g>
						<g>
							<g>
								<g>
									<path class="st24" d="M201.5,214.9c0,0-1.6,0.1-2.7-0.4c-1.9-0.8-2.8-3-1.9-4.8c0,0,0,0,0,0c0.6-1.1,1.7-1.9,2.9-1.9l0.6,0
										c0,0,0.3,0.5,0.4,1.5C201.2,210.7,201.4,212.9,201.5,214.9z"/>
								</g>
							</g>
						</g>
					</g>
				</g>
			</g>
			<g>
				<g>
					<g>
						<g>
							<g>
								<path class="st23" d="M132.8,194c0,0-1.4,2.3-3.2,5.2c-1.8,2.8-3.3,5.1-3.3,5.1c0,0,1.4-2.3,3.2-5.2
									C131.3,196.3,132.8,194,132.8,194z"/>
							</g>
						</g>
					</g>
				</g>
			</g>
			<g>
				<g>
					<g>
						<g>
							<g>
								<path class="st23" d="M132.3,196.9c0,0-0.4,0.8-1.1,1.8c-0.6,1-1.2,1.7-1.2,1.7c0,0,0.4-0.8,1.1-1.8
									C131.7,197.7,132.3,196.9,132.3,196.9z"/>
							</g>
						</g>
					</g>
				</g>
			</g>
			<g>
				<g>
					<g>
						<g>
							<g>
								<path class="st23" d="M87.2,201.5c0,0-0.8,0.4-1.8,0.7c-1,0.3-1.9,0.4-1.9,0.4c0,0,0.8-0.2,1.9-0.5
									C86.4,201.7,87.2,201.4,87.2,201.5z"/>
							</g>
						</g>
					</g>
				</g>
			</g>
			<g>
				<g>
					<g>
						<g>
							<g>
								<path class="st20" d="M113.1,208c0,0-7.9,0.1-17.5,0.1c-9.7,0-17.5,0-17.5-0.1s7.9-0.1,17.5-0.1
									C105.3,207.9,113.1,208,113.1,208z"/>
							</g>
						</g>
					</g>
				</g>
			</g>
			<g>
				<g>
					<g>
						<g>
							<g>
								<path class="st20" d="M110.5,210.8c0,0-1.1,0.1-2.5,0.1c-1.4,0-2.5,0-2.5-0.1c0,0,1.1-0.1,2.5-0.1
									C109.4,210.8,110.5,210.8,110.5,210.8z"/>
							</g>
						</g>
					</g>
				</g>
			</g>
			<g>
				<g>
					<g>
						<g>
							<g>
								<path class="st20" d="M53.5,214.7c0,0-0.1,0-0.2,0c-0.1,0-0.3,0-0.6,0c-0.5,0-1.2,0-2,0.1c-1.7,0.2-4.1,0.8-6.3,2.2
									c-2.2,1.4-3.9,3.2-4.8,4.6c-0.5,0.7-0.8,1.3-1,1.8c-0.1,0.2-0.2,0.4-0.2,0.5c-0.1,0.1-0.1,0.2-0.1,0.2c0,0,0-0.1,0.1-0.2
									c0.1-0.1,0.1-0.3,0.2-0.5c0.2-0.4,0.5-1.1,1-1.8c0.9-1.5,2.6-3.3,4.8-4.7c2.3-1.4,4.7-2,6.4-2.2c0.9-0.1,1.6-0.1,2.1-0.1
									c0.2,0,0.4,0,0.6,0C53.4,214.7,53.5,214.7,53.5,214.7z"/>
							</g>
						</g>
					</g>
				</g>
			</g>
			<g>
				<g>
					<g>
						<g>
							<g>
								<path class="st20" d="M143.2,207.2c0,0-5.2,0.1-11.6,0.1c-6.4,0-11.6,0-11.6-0.1s5.2-0.1,11.6-0.1
									C138,207.1,143.2,207.1,143.2,207.2z"/>
							</g>
						</g>
					</g>
				</g>
			</g>
			<g>
				<g>
					<g>
						<g>
							<g>
								<path class="st20" d="M153.4,210.4c0,0-0.3,0-0.8,0c-0.5,0-1.2,0-2,0c-0.8,0-1.5,0-2,0c-0.5,0-0.8,0-0.8,0
									c0,0,0.3-0.1,0.8-0.1c0.5,0,1.2-0.1,2-0.1c0.8,0,1.5,0,2,0.1C153.1,210.3,153.4,210.4,153.4,210.4z"/>
							</g>
						</g>
					</g>
				</g>
			</g>
		</g>
	</g>
</g>
</svg>
