<?xml version="1.0" encoding="utf-8"?>
<!-- Generator: Adobe Illustrator 24.0.2, SVG Export Plug-In . SVG Version: 6.00 Build 0)  -->
<svg version="1.1" id="Capa_1" xmlns="http://www.w3.org/2000/svg" xmlns:xlink="http://www.w3.org/1999/xlink" x="0px" y="0px"
	 viewBox="0 0 40 40" style="enable-background:new 0 0 40 40;" xml:space="preserve">
<style type="text/css">
	.st0{fill:#FFFFFF;}
	.st1{fill:#82BE61;}
	.st2{fill:#8DBF26;}
	.st3{fill:#FEEB17;}
</style>
<g>
	<g>
		<g>
			<g>
				<circle class="st0" cx="19.6" cy="16.8" r="13.1"/>
				<path class="st1" d="M19.6,30.3c-7.4,0-13.5-6-13.5-13.5s6-13.5,13.5-13.5c7.4,0,13.5,6,13.5,13.5S27,30.3,19.6,30.3z M19.6,4
					C12.6,4,6.8,9.7,6.8,16.8s5.8,12.8,12.8,12.8c7.1,0,12.8-5.8,12.8-12.8S26.7,4,19.6,4z"/>
			</g>
			<g>
				<g>
					<circle class="st2" cx="12.9" cy="15.6" r="1.1"/>
				</g>
				<g>
					<circle class="st2" cx="26.3" cy="15.6" r="1.1"/>
				</g>
				<g>
					<path class="st1" d="M20.1,19.1c-1.4,0-2.6-1.1-2.6-2.6c0-0.2,0.1-0.3,0.3-0.3s0.3,0.1,0.3,0.3c0,1.1,0.9,1.9,1.9,1.9
						c1.1,0,1.9-0.9,1.9-1.9c0-0.2,0.1-0.3,0.3-0.3s0.3,0.1,0.3,0.3C22.7,18,21.5,19.1,20.1,19.1z"/>
				</g>
			</g>
		</g>
		<g>
			<polygon class="st3" points="36.8,6.3 35.9,7.9 34.2,8.2 35.4,9.5 35.2,11.2 36.8,10.4 38.5,11.3 38.1,9.5 39.3,8.2 37.6,7.9 			
				"/>
			<path class="st3" d="M38.5,11.6c-0.1,0-0.1,0-0.1,0l-1.6-0.9l-1.5,0.8c-0.1,0.1-0.2,0-0.3,0c-0.1-0.1-0.1-0.2-0.1-0.3l0.3-1.6
				L34,8.4c-0.1-0.1-0.1-0.2-0.1-0.3c0-0.1,0.1-0.2,0.2-0.2l1.6-0.3l0.8-1.4C36.6,6.1,36.7,6,36.8,6c0,0,0,0,0,0
				C36.9,6,37,6.1,37,6.2l0.8,1.4l1.6,0.3c0.1,0,0.2,0.1,0.2,0.2s0,0.2-0.1,0.3l-1.1,1.2l0.3,1.7c0,0.1,0,0.2-0.1,0.3
				C38.6,11.6,38.6,11.6,38.5,11.6z M36.8,10.1c0.1,0,0.1,0,0.1,0l1.1,0.6l-0.2-1.2c0-0.1,0-0.2,0.1-0.3l0.8-0.9l-1.1-0.2
				c-0.1,0-0.2-0.1-0.2-0.1l-0.6-1L36.2,8c0,0.1-0.1,0.1-0.2,0.2l-1.1,0.2l0.8,0.9c0.1,0.1,0.1,0.2,0.1,0.3l-0.2,1.1l1.1-0.6
				C36.7,10.1,36.7,10.1,36.8,10.1z M35.9,7.9L35.9,7.9L35.9,7.9z"/>
		</g>
		<g>
			<polygon class="st3" points="32.4,1.6 31.5,3.2 29.8,3.5 31.1,4.8 30.8,6.6 32.4,5.7 34.1,6.6 33.7,4.8 34.9,3.5 33.3,3.2 			"/>
			<path class="st3" d="M34.1,6.9c-0.1,0-0.1,0-0.1,0L32.4,6l-1.5,0.8c-0.1,0.1-0.2,0-0.3,0c-0.1-0.1-0.1-0.2-0.1-0.3l0.3-1.6
				l-1.1-1.2c-0.1-0.1-0.1-0.2-0.1-0.3c0-0.1,0.1-0.2,0.2-0.2l1.6-0.3l0.8-1.4c0.1-0.1,0.2-0.2,0.3-0.2c0,0,0,0,0,0
				c0.1,0,0.2,0.1,0.3,0.2l0.8,1.4L35,3.2c0.1,0,0.2,0.1,0.2,0.2c0,0.1,0,0.2-0.1,0.3l-1.1,1.2l0.3,1.7c0,0.1,0,0.2-0.1,0.3
				C34.2,6.9,34.2,6.9,34.1,6.9z M32.4,5.4c0.1,0,0.1,0,0.1,0L33.7,6l-0.2-1.2c0-0.1,0-0.2,0.1-0.3l0.8-0.9l-1.1-0.2
				c-0.1,0-0.2-0.1-0.2-0.1l-0.6-1l-0.6,1.1c0,0.1-0.1,0.1-0.2,0.2l-1.1,0.2l0.8,0.9c0.1,0.1,0.1,0.2,0.1,0.3L31.2,6l1.1-0.6
				C32.3,5.4,32.3,5.4,32.4,5.4z M31.5,3.2L31.5,3.2L31.5,3.2z"/>
		</g>
	</g>
	
		<image style="overflow:visible;" width="1436" height="384" xlink:href="assets/svg/sombraCarita.png"  transform="matrix(2.741141e-02 0 0 2.741141e-02 0.3186 29.474)">
	</image>
</g>
</svg>
