<?xml version="1.0" encoding="utf-8"?>
<!-- Generator: Adobe Illustrator 24.0.2, SVG Export Plug-In . SVG Version: 6.00 Build 0)  -->
<svg version="1.1" id="Capa_1" focusable="false" xmlns="http://www.w3.org/2000/svg" xmlns:xlink="http://www.w3.org/1999/xlink"
	 x="0px" y="0px" viewBox="0 0 47.7 512" style="enable-background:new 0 0 47.7 512;" xml:space="preserve">
<path d="M24,0C11.3,0,0.9,10.3,0.9,23.1S11.3,46.1,24,46.1s23.1-10.3,23.1-23.1S36.8,0,24,0z"/>
<path d="M24,66.5c-12.8,0-23.1,10.3-23.1,23.1s10.3,23.1,23.1,23.1s23.1-10.3,23.1-23.1S36.8,66.5,24,66.5z"/>
<path d="M24,133.1c-12.8,0-23.1,10.3-23.1,23.1s10.3,23.1,23.1,23.1s23.1-10.3,23.1-23.1S36.8,133.1,24,133.1z"/>
<path d="M24,199.6c-12.8,0-23.1,10.3-23.1,23.1s10.3,23.1,23.1,23.1s23.1-10.3,23.1-23.1S36.8,199.6,24,199.6z"/>
<path d="M24,266.2c-12.8,0-23.1,10.3-23.1,23.1c0,12.8,10.3,23.1,23.1,23.1s23.1-10.3,23.1-23.1C47.1,276.5,36.8,266.2,24,266.2z"/>
<path d="M24,332.7c-12.8,0-23.1,10.3-23.1,23.1c0,12.8,10.3,23.1,23.1,23.1s23.1-10.3,23.1-23.1C47.1,343.1,36.8,332.7,24,332.7z"/>
<path d="M24,399.3c-12.8,0-23.1,10.3-23.1,23.1c0,12.8,10.3,23.1,23.1,23.1s23.1-10.3,23.1-23.1C47.1,409.6,36.8,399.3,24,399.3z"/>
<path d="M24,465.8c-12.8,0-23.1,10.3-23.1,23.1C0.9,501.7,11.3,512,24,512s23.1-10.3,23.1-23.1C47.1,476.2,36.8,465.8,24,465.8z"/>
</svg>
