<svg xmlns="http://www.w3.org/2000/svg" width="29.844" height="25.775" viewBox="0 0 29.844 25.775"><defs></defs><g transform="translate(5.426 0)"><path class="a" d="M116.831,47.118h-.678V43.727a.641.641,0,0,0-.678-.678H114.8V39.657a.641.641,0,0,0-.678-.678h-.678V35.587a.641.641,0,0,0-.678-.678H93.769a.641.641,0,0,0-.678.678v3.391a.678.678,0,0,0,1.357,0V36.266h17.635v2.713H101.23a.678.678,0,0,0,0,1.357H113.44v2.713h-6.1a.678.678,0,0,0,0,1.357H114.8v2.713H109.37a.678.678,0,0,0,0,1.357h6.783v2.713h-6.1a.678.678,0,1,0,0,1.357h2.035v2.713h-3.391a.678.678,0,1,0,0,1.357h6.1v2.713h-9.5a.678.678,0,0,0,0,1.357h10.174a.641.641,0,0,0,.678-.678v-4.07a.641.641,0,0,0-.678-.678h-2.035V52.544h3.391a.641.641,0,0,0,.678-.678V47.8A.641.641,0,0,0,116.831,47.118Z" transform="translate(-93.091 -34.909)"/></g><g transform="translate(0 5.426)"><path class="a" d="M10.174,128a10.174,10.174,0,1,0,10.174,10.174A10.161,10.161,0,0,0,10.174,128Zm0,18.992a8.818,8.818,0,1,1,8.818-8.818A8.8,8.8,0,0,1,10.174,146.992Z" transform="translate(0 -128)"/></g><g transform="translate(2.713 8.139)"><g transform="translate(0 0)"><path class="a" d="M54.006,174.545a7.461,7.461,0,1,0,7.461,7.461A7.44,7.44,0,0,0,54.006,174.545Zm0,13.566a6.1,6.1,0,1,1,6.1-6.1A6.079,6.079,0,0,1,54.006,188.111Z" transform="translate(-46.545 -174.545)"/></g></g><g transform="translate(8.139 12.887)"><path class="a" d="M143.028,260.07h-.678v-3.391a.641.641,0,0,0-.678-.678h-1.357a.678.678,0,0,0,0,1.357h.678v2.713h-.678a.678.678,0,0,0,0,1.357h2.713a.678.678,0,1,0,0-1.356Z" transform="translate(-139.637 -256)"/></g></svg>