<?xml version="1.0" encoding="utf-8"?>
<!-- Generator: Adobe Illustrator 24.0.2, SVG Export Plug-In . SVG Version: 6.00 Build 0)  -->
<svg version="1.1" id="Capa_1" xmlns="http://www.w3.org/2000/svg" xmlns:xlink="http://www.w3.org/1999/xlink" x="0px" y="0px"
	 viewBox="0 0 401.9 365.3" style="enable-background:new 0 0 401.9 365.3;" xml:space="preserve">
<style type="text/css">
	.st0{fill:#E7363A;}
	.st1{fill:#373435;}
	.st2{fill:#75B952;}
	.st3{fill:#00833E;}
	.st4{fill:#CE0E2D;}
	.st5{fill:#FFFFFF;}
	.st6{font-family:'Helvetica-Bold';}
	.st7{font-size:35.7899px;}
</style>
<g>
	<g>
		<g id="XMLID_3_">
			<g>
				<path class="st0" d="M200.8,4.3c61.4,0,111.1,49.8,111.1,111.1s-49.8,111.1-111.1,111.1S89.6,176.8,89.6,115.5
					S139.4,4.3,200.8,4.3z M292.9,115.5c0-50.9-41.3-92.2-92.2-92.2s-92.2,41.3-92.2,92.2s41.3,92.2,92.2,92.2
					S292.9,166.4,292.9,115.5z"/>
				<path class="st1" d="M243.2,128.5l30.2,1.6c-2.3,10.9-6.9,20.9-13.4,29.5l-21.1-21.7C240.7,135,242.1,131.8,243.2,128.5z"/>
				<path class="st2" d="M273,98.2l-107.5,43.9c8.1,10.6,20.9,17.4,35.3,17.4c4.9,0,9.7-0.8,14.1-2.3l-18.6,31.8
					c-38.9-2.3-69.6-34.6-69.6-74c0-40.9,33.2-74.1,74.1-74.1C236,40.8,265.4,65.3,273,98.2z M156.3,113.9l75.6-30.9
					c-8-7.8-19-12.7-31.1-12.7C176.5,70.4,156.6,89.8,156.3,113.9z"/>
				<path class="st3" d="M237.9,139.5l20.9,21.6c-5.6,7-12.4,12.9-20,17.5l-7.5-31.2C233.7,145.1,236,142.4,237.9,139.5z"/>
				<path class="st4" d="M229.7,148.8l7.4,30.8c-10.7,6.1-23.1,9.5-36.4,9.5c-0.9,0-1.8,0-2.6-0.1l19.2-32.8
					C221.9,154.4,226,151.9,229.7,148.8z"/>
				<path class="st5" d="M231.9,83.1l-75.6,30.9c0.3-24.2,20.2-43.5,44.5-43.5C212.9,70.4,223.9,75.2,231.9,83.1z"/>
				<path class="st5" d="M196.3,188.9l18.6-31.8c-4.4,1.5-9.2,2.3-14.1,2.3c-14.4,0-27.1-6.8-35.3-17.4L273,98.2
					c-7.6-32.9-37.1-57.4-72.2-57.4c-40.9,0-74.1,33.2-74.1,74.1C126.7,154.3,157.4,186.6,196.3,188.9z M238.9,137.9l21.1,21.7
					c6.5-8.6,11.1-18.6,13.4-29.5l-30.2-1.6C242.1,131.8,240.7,135,238.9,137.9z M231.2,147.4l7.5,31.2c7.7-4.6,14.5-10.5,20-17.5
					l-20.9-21.6C236,142.4,233.7,145.1,231.2,147.4z M198.2,189c0.9,0,1.8,0.1,2.6,0.1c13.2,0,25.6-3.5,36.4-9.5l-7.4-30.8
					c-3.7,3.1-7.8,5.7-12.4,7.5L198.2,189z M200.8,23.3c50.9,0,92.2,41.3,92.2,92.2s-41.3,92.2-92.2,92.2s-92.2-41.3-92.2-92.2
					S149.9,23.3,200.8,23.3z"/>
			</g>
			<g>
			</g>
		</g>
	</g>
	<path class="st5" d="M16.3,287c0,2.8,0.4,5.4,1.1,7.8c0.7,2.5,1.8,4.6,3.2,6.4c1.4,1.8,3.2,3.2,5.4,4.3c2.2,1.1,4.6,1.6,7.5,1.6
		c3.9,0,7.2-1,9.9-3c2.8-2,4.6-4.9,5.5-8.6h6.6c-0.7,2.4-1.7,4.7-2.8,6.7c-1.2,2.1-2.7,3.9-4.4,5.4c-1.8,1.5-3.9,2.7-6.3,3.6
		c-2.4,0.8-5.2,1.3-8.4,1.3c-4.1,0-7.6-0.7-10.5-2.1c-2.9-1.4-5.4-3.3-7.3-5.6c-1.9-2.4-3.3-5.2-4.2-8.4c-0.9-3.2-1.4-6.7-1.4-10.5
		s0.5-7.2,1.6-10.5c1.1-3.3,2.6-6.1,4.6-8.6c2-2.5,4.4-4.4,7.3-5.8c2.9-1.4,6.2-2.1,9.8-2.1c7,0,12.5,2.4,16.5,7.2
		c4,4.8,6,11.8,5.9,21H16.3z M49.5,282c0-2.5-0.3-4.8-1-7c-0.7-2.2-1.7-4.1-3-5.7c-1.3-1.6-3-2.9-5.1-3.8c-2-0.9-4.4-1.4-7-1.4
		c-2.6,0-4.9,0.5-6.9,1.5c-2,1-3.7,2.3-5.1,3.9c-1.4,1.6-2.5,3.5-3.4,5.7c-0.9,2.2-1.4,4.5-1.7,6.9H49.5z"/>
	<path class="st5" d="M103.8,256.7h5.9l0,55.8h-5.9v-8.8c-0.8,0.9-1.7,1.9-2.7,2.8c-1,1-2.1,1.9-3.4,2.7c-1.3,0.8-2.8,1.5-4.5,2.1
		c-1.7,0.6-3.7,0.8-5.9,0.8c-3.4,0-6.3-0.5-8.5-1.4c-2.3-0.9-4.1-2.3-5.6-4c-1.4-1.7-2.4-3.7-3-5.9c-0.6-2.3-0.9-4.7-0.9-7.4l0-36.6
		h5.9l0,36.5c0,4.4,1,7.7,3,10.1c2,2.3,5.4,3.5,10,3.5c2.4,0,4.6-0.5,6.5-1.4c1.9-0.9,3.6-2.3,4.9-4c1.3-1.7,2.3-3.7,3-6.1
		c0.7-2.4,1.1-4.9,1.1-7.8L103.8,256.7z"/>
	<path class="st5" d="M157.2,277.2c-0.3-2-0.9-3.7-2-5.3c-1.5-2.1-3.9-3.2-7.2-3.2c-4.6,0-7.8,2.3-9.5,6.9c-0.9,2.4-1.3,5.6-1.3,9.7
		c0,3.8,0.4,6.9,1.3,9.2c1.6,4.4,4.7,6.5,9.2,6.5c3.2,0,5.5-0.9,6.8-2.6c1.3-1.7,2.2-4,2.5-6.7h14c-0.3,4.2-1.8,8.1-4.5,11.8
		c-4.3,6-10.6,9-19.1,9c-8.4,0-14.6-2.5-18.6-7.5c-4-5-6-11.5-6-19.4c0-9,2.2-15.9,6.6-20.9c4.4-5,10.4-7.5,18.2-7.5
		c6.6,0,11.9,1.5,16.1,4.4c4.2,2.9,6.7,8.1,7.4,15.6H157.2z"/>
	<path class="st5" d="M231.1,304.2c-4.4,5.4-11.1,8.2-20.1,8.2c-9,0-15.7-2.7-20.1-8.2c-4.4-5.4-6.6-12-6.6-19.7
		c0-7.5,2.2-14.1,6.6-19.6s11.1-8.3,20.1-8.3c9,0,15.7,2.8,20.1,8.3c4.4,5.5,6.6,12.1,6.6,19.6C237.8,292.2,235.6,298.8,231.1,304.2
		z M220.2,296.7c2.1-2.8,3.2-6.9,3.2-12.1s-1.1-9.3-3.2-12.1c-2.1-2.8-5.2-4.2-9.2-4.2c-4,0-7.1,1.4-9.2,4.2
		c-2.2,2.8-3.2,6.9-3.2,12.1s1.1,9.3,3.2,12.1s5.2,4.3,9.2,4.3C215,300.9,218.1,299.5,220.2,296.7z"/>
	<path class="st5" d="M316.5,258.5c2.2,0.9,4.3,2.5,6.1,4.7c1.5,1.8,2.5,4.1,3,6.7c0.3,1.8,0.5,4.3,0.5,7.7l-0.1,34.7h-14v-35
		c0-2-0.3-3.6-1-4.9c-1.2-2.4-3.5-3.6-6.7-3.6c-3.8,0-6.4,1.6-7.8,4.7c-0.7,1.7-1.1,3.7-1.1,6v32.9h-13.8v-32.9c0-3.1-0.3-5.4-1-6.8
		c-1.2-2.5-3.4-3.8-6.8-3.8c-3.9,0-6.5,1.3-7.9,3.8c-0.7,1.4-1.1,3.6-1.1,6.4v33.2H251v-55.7h13.3v9.4c1.7-2.7,3.3-4.7,4.8-5.8
		c2.7-2,6.1-3.1,10.3-3.1c4,0,7.2,0.9,9.7,2.6c2,1.6,3.5,3.7,4.5,6.3c1.8-3.1,4-5.3,6.7-6.8c2.8-1.4,5.9-2.2,9.4-2.2
		C312,257.2,314.2,257.6,316.5,258.5z"/>
	<path class="st5" d="M384.3,264.6c3.9,5,5.9,11.4,5.9,19.2c0,8.1-1.9,14.9-5.8,20.2c-3.9,5.3-9.2,8-16.2,8c-4.3,0-7.8-0.9-10.5-2.6
		c-1.6-1-3.3-2.8-5.1-5.4v8.3h-13.5V240h13.7v25.1c1.7-2.4,3.7-4.3,5.7-5.6c2.5-1.6,5.6-2.4,9.5-2.4
		C375,257.2,380.4,259.7,384.3,264.6z M372.9,296.5c2-2.8,3-6.6,3-11.2c0-3.7-0.5-6.8-1.5-9.2c-1.8-4.6-5.2-6.9-10.2-6.9
		c-5,0-8.4,2.3-10.3,6.8c-1,2.4-1.5,5.5-1.5,9.3c0,4.5,1,8.2,3,11.1c2,2.9,5,4.4,9.1,4.4C368.1,300.7,370.9,299.3,372.9,296.5z"/>
	<text transform="matrix(1.0334 0 0 1 182.2543 351.7751)" class="st5 st6 st7">gasolineras</text>
</g>
</svg>
