<svg xmlns="http://www.w3.org/2000/svg" width="26.627" height="25.498" viewBox="0 0 26.627 25.498"><defs></defs><g transform="translate(0.565)"><g transform="translate(0 0)"><path class="a" d="M17.714,11.339a6.375,6.375,0,1,0,6.375,6.375A6.356,6.356,0,0,0,17.714,11.339Zm0,11.59a5.216,5.216,0,1,1,5.216-5.216A5.194,5.194,0,0,1,17.714,22.929Z" transform="translate(-11.339 -11.339)"/></g></g><g transform="translate(4.621 2.318)"><path class="a" d="M95.691,61.362H94.532a.579.579,0,0,1,0-1.159h1.738a.579.579,0,1,0,0-1.159h-.579v-.58a.579.579,0,0,0-1.159,0v.579a1.739,1.739,0,0,0,0,3.477h1.159a.579.579,0,0,1,0,1.159H93.953a.579.579,0,0,0,0,1.159h.579v.579a.579.579,0,0,0,1.159,0v-.579a1.738,1.738,0,1,0,0-3.477Z" transform="translate(-92.794 -57.885)"/></g><g transform="translate(13.314 12.749)"><path class="a" d="M273.714,267.339a6.375,6.375,0,1,0,6.375,6.375A6.356,6.356,0,0,0,273.714,267.339Zm0,11.59a5.216,5.216,0,1,1,5.216-5.216A5.194,5.194,0,0,1,273.714,278.929Z" transform="translate(-267.339 -267.339)"/></g><g transform="translate(15.922 15.763)"><path class="a" d="M324.919,332.775a2.2,2.2,0,0,1-3.129,0c-.116-.116-.232-.29-.348-.406h1.449a.29.29,0,1,0,0-.579h-1.623a1.976,1.976,0,0,1,0-1.159h2.2a.29.29,0,0,0,0-.579H321.5a1.179,1.179,0,0,1,.348-.406,2.273,2.273,0,0,1,3.187,0,.574.574,0,0,0,.811-.811,3.358,3.358,0,0,0-4.752,0,3.039,3.039,0,0,0-.753,1.217h-.348a.29.29,0,0,0,0,.579h.116a3.883,3.883,0,0,0,0,1.159h-.116a.29.29,0,1,0,0,.579h.232a3.308,3.308,0,0,0,.753,1.217,3.358,3.358,0,0,0,4.752,0,.574.574,0,0,0-.811-.811Z" transform="translate(-319.703 -327.849)"/></g><g transform="translate(13.314 1.159)"><path class="a" d="M280.436,42.841a.623.623,0,0,0-.811.116l-.811,1.1a11.044,11.044,0,0,0-10.895-9.446.579.579,0,1,0,0,1.159,9.843,9.843,0,0,1,9.852,9.852.557.557,0,0,0,.406.522c.058,0,.116.058.174.058a.527.527,0,0,0,.464-.232l1.739-2.318A.623.623,0,0,0,280.436,42.841Z" transform="translate(-267.339 -34.612)"/></g><g transform="translate(0 12.785)"><path class="a" d="M12.734,278.46a9.843,9.843,0,0,1-9.852-9.852.557.557,0,0,0-.406-.522.619.619,0,0,0-.637.174L.1,270.579a.623.623,0,0,0,.116.811.623.623,0,0,0,.811-.116l.811-1.1a11.044,11.044,0,0,0,10.895,9.446.58.58,0,0,0,0-1.159Z" transform="translate(0 -268.065)"/></g></svg>