<?xml version="1.0" encoding="utf-8"?>
<!-- Generator: Adobe Illustrator 24.0.2, SVG Export Plug-In . SVG Version: 6.00 Build 0)  -->
<svg version="1.1" id="Capa_1" xmlns="http://www.w3.org/2000/svg" xmlns:xlink="http://www.w3.org/1999/xlink" x="0px" y="0px"
	 viewBox="0 0 315 400" style="enable-background:new 0 0 315 400;" xml:space="preserve">
<g>
	<g>
		<g>
			<g>
				<path style="fill:#FFEBB6;" d="M284.3,320.7c-4.5-7.1-6.3-8.9-13.2-14.3c-7.1-5.6-16-6.5-25.9-6.5c-5.5,0-11,0.5-16.2,2.1
					c-5.2,1.6-10.1,4.5-13.6,8.8c-8.8,10.8-8.6,29.9,0.7,40.3c1.8,2,3.9,3.7,6.5,4.4c2.7,0.8,5.8,0.3,8.3-1.1c2.5-1.4,4.5-3.5,5.9-6
					c-0.4,0.6,5.1,2.1,5.6,2.1c2.1,0.1,4.1-0.3,6-1.3c4.4-2.2,6.1-6.2,7.8-10.6c0,0.1,4.1,1.1,4.6,1.2c1.7,0.3,3.5,0.3,5.2-0.2
					c3.4-1,6.8-4.6,6.6-8.1C272.4,324.8,278.4,322.2,284.3,320.7z"/>
			</g>
		</g>
		<g>
			<g>
				<path style="fill:#79591A;" d="M284.3,320.7c-1.7-2.6-3.5-5.1-5.5-7.4c-2.1-2.2-4.5-4.1-7-6c-1.2-1-2.5-1.8-3.8-2.6
					c-1.3-0.8-2.7-1.4-4.1-1.9c-2.9-1-5.9-1.7-8.9-2c-3-0.4-6.1-0.4-9.2-0.4c-3.1,0-6.1,0.1-9.2,0.5c-3,0.4-6,1-8.9,2.1
					c-2.8,1-5.6,2.5-7.9,4.3c-4.8,3.6-7.9,9.2-9.2,15.1c-0.7,2.9-1,6-0.9,9c0.1,3,0.5,6,1.4,8.9c0.9,2.9,2.2,5.7,3.9,8.1
					c1.8,2.4,3.9,4.7,6.6,5.9c2.7,1.2,5.8,1,8.5-0.3c2.7-1.3,4.8-3.5,6.3-6.1l0.9,0.5c0.1-0.1,0.1-0.2,0-0.3c0-0.1,0-0.1,0-0.1
					c0,0,0,0,0,0c0.1,0,0.2,0.1,0.3,0.2c0.2,0.1,0.4,0.2,0.7,0.3c0.5,0.2,1,0.4,1.5,0.5c0.5,0.2,1,0.3,1.5,0.4
					c0.5,0.1,1,0.3,1.5,0.3c2.1,0.1,4.1-0.4,6-1.4c1.8-1,3.3-2.5,4.5-4.3c1.1-1.8,2-3.8,2.7-5.8l0.7,0.3c0-0.1,0-0.2,0-0.3
					c-0.1-0.1-0.1-0.1-0.1-0.1l0,0c0,0,0,0,0,0l0.1,0l0.1,0l0.3,0.1l0.6,0.2l1.2,0.3c0.8,0.2,1.6,0.4,2.3,0.5c1.6,0.2,3.1,0.3,4.7,0
					c1.5-0.4,2.9-1.2,4.1-2.2c1.2-1.1,2.1-2.4,2.5-3.9c0.1-0.4,0.2-0.8,0.2-1.1c0-0.4,0-0.8,0-1.2c0-0.8,0.1-1.6,0.4-2.4
					c0.5-1.6,1.4-3,2.7-4c1.2-1.1,2.7-1.8,4.2-2.4C281.2,321.5,282.8,321.1,284.3,320.7z M284.3,320.7c-1.5,0.4-3.1,0.9-4.5,1.5
					c-1.5,0.6-2.9,1.4-4.1,2.5c-1.2,1-2.1,2.4-2.5,3.9c-0.2,0.8-0.3,1.5-0.3,2.3c0,0.4,0,0.8,0,1.2c0,0.4-0.1,0.8-0.2,1.2
					c-0.4,1.6-1.4,3-2.6,4.1c-1.2,1.1-2.6,2-4.2,2.5c-1.6,0.4-3.3,0.4-4.9,0.1c-0.8-0.2-1.6-0.3-2.4-0.5l-1.2-0.3l-0.6-0.2l-0.3-0.1
					l-0.2,0l-0.1,0c0,0,0,0-0.1,0l0,0c0,0,0,0-0.1-0.1c-0.1-0.1-0.1-0.3,0-0.3l0.7,0.3c-0.8,2-1.6,4-2.7,5.9
					c-1.1,1.9-2.8,3.5-4.7,4.6c-1.9,1.1-4.2,1.7-6.4,1.6c-0.7,0-1.2-0.2-1.7-0.3c-0.5-0.1-1.1-0.3-1.6-0.4c-0.5-0.2-1-0.3-1.6-0.5
					c-0.3-0.1-0.5-0.2-0.8-0.3c-0.1-0.1-0.3-0.1-0.4-0.3c-0.1-0.1-0.2-0.1-0.3-0.2c0-0.1-0.1-0.2-0.1-0.3c0-0.1,0-0.4,0.1-0.5
					l0.9,0.5c-1.6,2.7-3.9,5.2-6.8,6.6c-1.5,0.7-3,1.1-4.7,1.2c-1.6,0.1-3.3-0.2-4.8-0.9c-1.5-0.7-2.8-1.6-4-2.7
					c-1.2-1.1-2.2-2.3-3.1-3.6c-1.8-2.6-3.2-5.5-4.1-8.5c-1.8-6-2-12.5-0.5-18.6c0.7-3.1,1.9-6,3.5-8.7c1.6-2.7,3.7-5.1,6.3-7
					c5-3.9,11.2-5.8,17.4-6.6c3.1-0.4,6.2-0.5,9.3-0.4c3.1,0,6.2,0.2,9.3,0.6c3.1,0.4,6.1,1.1,9.1,2.2c1.5,0.6,2.9,1.2,4.2,2
					c1.3,0.8,2.6,1.7,3.8,2.7c2.4,1.9,4.8,3.9,6.8,6.3C281.1,315.4,282.7,318.1,284.3,320.7z"/>
			</g>
		</g>
	</g>
	<g>
		<g>
			<path style="fill:#79591A;" d="M227.8,329.5c0.3,2.8,0.3,3.5,1.2,6.5c0.7,2.5,1.6,4.5,2.8,6.8c0.4,0.7,0.7,1.3,1.1,1.9
				c1.8,2.8,3.6,5,6.6,6.7c1.5,0.8,2.7,1.1,4.3,1.2c1.8,0,3.1-0.3,4.7-1.2c2.4-1.3,4.2-2.9,6-5c0.9-1.1,1.5-2.2,2-3.5
				c0.3-0.9,0.5-1.8,0.5-2.7c-0.4-2.8-1.7,0.5-2.5,1.8c-0.7,1-1.4,1.8-2.2,2.6c-1.4,1.4-2.7,2.4-4.3,3.5c-0.3,0.2-0.7,0.4-1.1,0.6
				c-1.1,0.6-1.9,0.8-3.2,0.9c-1.2,0-2-0.3-3.1-0.7c-2.6-1.3-4.3-3.2-6-5.4c-1.9-2.6-3.2-5-4.4-8c-0.1-0.2-0.1-0.3-0.2-0.5
				C229.4,333.4,228.5,327.8,227.8,329.5"/>
		</g>
	</g>
	<g>
		<g>
			<path style="fill:#79591A;" d="M248.9,324.9c1.2,5.2,1.4,7.2,4.7,12c0.8,0.9,1.5,1.7,2.4,2.4c0.5,0.4,1,0.7,1.5,1
				c1.5,0.8,2.8,1.2,4.5,1.4c1.7,0.1,2.9,0,4.5-0.6c1.6-0.6,2.7-1.2,3.9-2.4c1.3-1.2,2.1-2.3,2.8-4c0.8-1.8,1.1-3.3,1.1-5.2
				c0-2.9-0.3-5.8-1-8.6c-0.5-1.6-1-3-2.2-4.1c-0.6-0.6-1.2-0.9-2.1-1c-0.4,0-0.8,0-1.2,0.2c-0.1,0-0.5,0.2-0.6,0.3
				c-0.2,0.1-0.3,0.2-0.5,0.4c-0.7,0.8-0.5,1.1,0.5,0.9c0.3-0.1,0.6-0.1,0.9-0.1c0.2,0,0.4,0,0.6,0.1c0.3,0.2,0.5,0.4,0.8,0.7
				c0.6,1,0.9,2.2,1.1,3.3c0.4,2.4,0.6,4.9,0.6,7.3c0,0,0,0.5,0,0.5c0,1.5-0.3,2.7-0.8,4.1c-0.5,1.2-1.1,2.1-2,3.1
				c-0.9,0.9-1.7,1.4-2.9,1.9c-1.2,0.5-2.1,0.6-3.4,0.6c-1.4,0-2.4-0.3-3.6-0.9c-1.5-0.7-2.5-1.5-3.6-2.7c-1.2-1.3-2-2.4-2.8-4
				C250.8,329.3,248.9,321.3,248.9,324.9"/>
		</g>
	</g>
</g>
</svg>
