<?xml version="1.0" encoding="utf-8"?>
<!-- Generator: Adobe Illustrator 24.0.2, SVG Export Plug-In . SVG Version: 6.00 Build 0)  -->
<svg version="1.1" id="Capa_1" xmlns="http://www.w3.org/2000/svg" xmlns:xlink="http://www.w3.org/1999/xlink" x="0px" y="0px"
	 viewBox="0 0 46 67" style="enable-background:new 0 0 46 67;" xml:space="preserve">
<path  d="M23.1,33.7v5.9h8.2v8.3c-0.6,0.6-1.6,1.1-2.7,1.6c-1.2,0.4-2.8,0.6-4.8,0.6c-2.8,0-5-1-6.6-3
	s-2.5-4.7-2.5-7.9v-9c0-3.2,0.8-5.8,2.4-7.8c1.6-2,3.7-3,6.3-3c2.5,0,4.4,0.6,5.7,1.9c1.3,1.3,2,3,2,5.3h8.1l0.1-0.2
	c0.1-4.1-1.2-7.4-4-9.9c-1.9-1.7-4.3-2.7-7.2-3.3V5h-8v8c-3.5,0.6-6.6,2.1-9,4.6c-3.2,3.3-4.8,7.5-4.8,12.6v8.9
	c0,5.2,1.6,9.4,4.9,12.6c2.4,2.4,5.4,3.9,8.9,4.5V62h8v-5.6c2.3-0.3,4.3-0.8,6-1.7c2.6-1.3,4.6-2.8,5.9-4.5V33.7H23.1z"/>
</svg>
