<?xml version="1.0" encoding="utf-8"?>
<!-- Generator: Adobe Illustrator 24.0.2, SVG Export Plug-In . SVG Version: 6.00 Build 0)  -->
<svg version="1.1" id="Capa_1" xmlns="http://www.w3.org/2000/svg" xmlns:xlink="http://www.w3.org/1999/xlink" x="0px" y="0px"
	 viewBox="0 0 141.7 141.7" style="enable-background:new 0 0 141.7 141.7;" xml:space="preserve">

<g>
	<g>
		<path class="st0" d="M73.5,83.1c-0.2,0-0.3-0.1-0.5-0.2C71.9,81.9,45.4,59,37.2,46c-4.1-6.5-4.4-13.9-0.8-20.4
			c4-7.1,11.8-11.8,19.7-11.8c0.1,0,0.2,0,0.2,0c6.8,0.1,13.1,3.1,17.2,8.3c4.1-5,10.3-8,17.1-8.1c8-0.2,15.4,4.2,19.4,11.3
			c3.8,6.7,3.7,14.7-0.2,20.7C103.2,56.3,75.2,81.8,74,82.9C73.9,83,73.7,83.1,73.5,83.1z M56.1,15.3c-7.3,0-14.7,4.4-18.4,11.1
			c-3.4,6.1-3.1,12.8,0.7,18.8C46,57,69.7,78,73.5,81.3c3.8-3.5,29-26.7,35-36.1c3.6-5.6,3.7-12.9,0.2-19.2
			c-3.8-6.8-10.5-10.7-18.1-10.5C84,15.6,78,18.7,74.2,23.8c-0.1,0.2-0.4,0.3-0.6,0.3c0,0,0,0,0,0c-0.2,0-0.5-0.1-0.6-0.3
			c-3.9-5.3-9.9-8.4-16.6-8.5C56.3,15.3,56.2,15.3,56.1,15.3z"/>
	</g>
	<g>
		<g>
			<path class="st0" d="M108.8,128.7H79c-0.4,0-0.8-0.3-0.8-0.8V98.7c0-3.7,1.3-7.3,3.6-10.1L100,66.4c0.9-1.1,2.3-1.8,3.7-1.9
				c1.5-0.1,2.9,0.4,4,1.4c2,1.9,2.2,4.9,0.5,7.1L95.5,89.3c3.1,1.8,7,1.1,9.3-1.8l11.3-14c0.6-0.7,0.9-1.6,0.9-2.5V47.5
				c0-3.2,2.6-5.7,5.7-5.7c3,0,5.5,2.3,5.7,5.3l1.6,34.5c0.1,1.3-0.3,2.6-1.1,3.6l-19.7,27.7c-0.7,1-1,2.1-0.9,3.3l1.2,11.6
				c0,0.2,0,0.4-0.2,0.6S109,128.7,108.8,128.7z M79.7,127.2H108l-1.1-10.8c-0.2-1.5,0.3-3.1,1.1-4.3l19.7-27.7
				c0.6-0.8,0.8-1.7,0.8-2.7l-1.6-34.5c-0.2-2.2-2-3.9-4.2-3.9c-2.3,0-4.2,1.9-4.2,4.2V71c0,1.2-0.4,2.5-1.2,3.4l-11.3,14
				c-2.9,3.6-8.2,4.3-12,1.6c-0.2-0.1-0.3-0.3-0.3-0.5c0-0.2,0-0.4,0.2-0.6l13.2-17c1.2-1.5,1-3.7-0.4-5.1c-0.8-0.7-1.8-1.1-2.8-1
				c-1.1,0.1-2,0.6-2.7,1.4L83,89.6c-2.1,2.6-3.3,5.8-3.3,9.2V127.2z"/>
		</g>
	</g>
	<g>
		<path class="st0" d="M67.4,128.7H37.5c-0.2,0-0.4-0.1-0.6-0.2s-0.2-0.4-0.2-0.6l1.2-11.6c0.1-1.2-0.2-2.3-0.9-3.3l-4.4-6.2
			c-0.2-0.3-0.2-0.8,0.2-1c0.3-0.2,0.8-0.2,1,0.2l4.4,6.2c0.9,1.3,1.3,2.8,1.1,4.3l-1.1,10.8h28.3V98.7c0-3.3-1.2-6.6-3.3-9.2
			L45.2,67.4c-0.7-0.8-1.6-1.3-2.7-1.4c-1.1-0.1-2.1,0.3-2.8,1c-1.4,1.3-1.6,3.5-0.4,5.1l13.2,17c0.1,0.2,0.2,0.4,0.2,0.6
			c0,0.2-0.1,0.4-0.3,0.5c-3.8,2.7-9,2-12-1.6l-11.3-14c-0.8-1-1.2-2.2-1.2-3.4V47.5c0-2.3-1.9-4.2-4.2-4.2c-2.2,0-4.1,1.7-4.2,3.9
			l-1.6,34.4c0,1,0.2,1.9,0.8,2.7l4.9,6.8c0.2,0.3,0.2,0.8-0.2,1c-0.3,0.2-0.8,0.2-1-0.2l-4.9-6.8c-0.7-1-1.1-2.3-1.1-3.6l1.6-34.5
			c0.2-3,2.7-5.3,5.7-5.3c3.2,0,5.7,2.6,5.7,5.7V71c0,0.9,0.3,1.8,0.9,2.5l11.3,14c2.3,2.8,6.2,3.5,9.3,1.8L38.1,73
			c-1.7-2.2-1.5-5.2,0.5-7.1c1.1-1,2.5-1.5,4-1.4c1.5,0.1,2.8,0.8,3.7,1.9l18.2,22.2c2.3,2.8,3.6,6.4,3.6,10.1v29.2
			C68.1,128.3,67.8,128.7,67.4,128.7z"/>
	</g>
	<g>
		<path class="st0" d="M31.1,104c-0.2,0-0.5-0.1-0.6-0.3L24.3,95c-0.2-0.3-0.2-0.8,0.2-1c0.3-0.2,0.8-0.2,1,0.2l6.2,8.7
			c0.2,0.3,0.2,0.8-0.2,1C31.4,104,31.3,104,31.1,104z"/>
	</g>
</g>
</svg>
