<?xml version="1.0" encoding="utf-8"?>
<!-- Generator: Adobe Illustrator 24.0.2, SVG Export Plug-In . SVG Version: 6.00 Build 0)  -->
<svg version="1.1" id="Capa_1" xmlns="http://www.w3.org/2000/svg" xmlns:xlink="http://www.w3.org/1999/xlink" x="0px" y="0px"
	 viewBox="0 0 141.7 141.7" style="enable-background:new 0 0 141.7 141.7;" xml:space="preserve">

<g>
	<g>
		<path class="st0" d="M89,29.6c-0.2,0-0.4-0.1-0.5-0.2L74.1,16.2H44.5l-8,3.6c-0.1,0-0.2,0.1-0.3,0.1l-3.1,0h0
			c-0.4,0-0.8-0.3-0.8-0.7c0-0.4,0.3-0.8,0.7-0.8l3,0l8-3.6c0.1,0,0.2-0.1,0.3-0.1h30c0.2,0,0.4,0.1,0.5,0.2l14.7,13.4
			c0.3,0.3,0.3,0.8,0,1.1C89.4,29.5,89.2,29.6,89,29.6z"/>
	</g>
	<g>
		<path class="st0" d="M44.1,53.7c-1.2,0-2.6-0.2-4-0.9c-2.4-1.1-3.7-3-4.3-4.2l-2.7,0h0c-0.2,0-0.4-0.1-0.5-0.2
			c-0.1-0.1-0.2-0.3-0.2-0.5V19.1c0-0.4,0.3-0.8,0.8-0.8s0.8,0.3,0.8,0.8v28.1l2.4,0h0c0.3,0,0.6,0.2,0.7,0.4c0.5,1,1.6,2.8,3.8,3.9
			c3.2,1.5,6.3,0.3,6.9,0c0.4-0.2,0.8,0,1,0.4c0.2,0.4,0,0.8-0.4,1C47.7,53.1,46.1,53.7,44.1,53.7z"/>
	</g>
	<g>
		<path class="st0" d="M77.5,79.9H48c-0.4,0-0.8-0.3-0.8-0.8V41.4c0-0.4,0.3-0.8,0.8-0.8s0.8,0.3,0.8,0.8v37.1h28.8
			c0.4,0,0.8,0.3,0.8,0.8S77.9,79.9,77.5,79.9z"/>
	</g>
	<g>
		<path class="st0" d="M92.7,79.9H82.1c-0.4,0-0.8-0.3-0.8-0.8s0.3-0.8,0.8-0.8h10.6c0.4,0,0.8,0.3,0.8,0.8S93.1,79.9,92.7,79.9z"/>
	</g>
	<g>
		<path class="st0" d="M127.5,79.9H97.1c-0.4,0-0.8-0.3-0.8-0.8s0.3-0.8,0.8-0.8h29.6V29.6H69.2c-0.4,0-0.8-0.3-0.8-0.8
			s0.3-0.8,0.8-0.8h58.3c0.4,0,0.8,0.3,0.8,0.8v50.3C128.2,79.6,127.9,79.9,127.5,79.9z"/>
	</g>
	<g>
		<path class="st0" d="M99,128.6C99,128.6,99,128.6,99,128.6l-25.1,0c-2.1,0-4.2-0.6-6-1.8c-9.3-6.1-31.3-20.6-35.8-23.7
			c-3.3-2.2-3.4-6.1-1.9-8.6c1.5-2.5,4.9-4.1,9-1.8L59.6,104l-0.7,1.3L38.5,94.1c-3.4-1.9-5.9-0.5-7,1.3c-1.2,2-1.1,4.8,1.4,6.5
			c4.5,3.1,26.5,17.6,35.8,23.7c1.5,1,3.3,1.5,5.2,1.5l25.1,0c0,0,0,0,0,0c1.8,0,3.5-0.5,5-1.4l3.3-1.9V97.4l-4.2-2.5
			c-0.9-0.5-1.9-0.8-2.9-0.8h-9.9c-0.5,0-1.1,0.1-1.6,0.2l-24.4,6.8c-3.1,0.9-3.6,3.4-3.1,5.3c0.6,2.1,2.5,4,4.9,3.4
			c4.1-1,22.8-6.3,23-6.3c0.4-0.1,0.8,0.1,0.9,0.5c0.1,0.4-0.1,0.8-0.5,0.9c-0.2,0.1-18.8,5.3-23,6.3c-3.4,0.8-6-1.7-6.7-4.5
			c-0.7-2.8,0.2-6.1,4.1-7.1l24.4-6.8c0.6-0.2,1.3-0.3,2-0.3h9.9c1.3,0,2.6,0.3,3.7,1l4.6,2.7c0.2,0.1,0.4,0.4,0.4,0.6v27.3
			c0,0.3-0.1,0.5-0.4,0.7l-3.7,2.1C103.1,128,101.1,128.6,99,128.6z"/>
	</g>
	<g>
		<path class="st0" d="M33.1,53.1H14.2c-0.4,0-0.8-0.3-0.8-0.8V13.9c0-0.4,0.3-0.8,0.8-0.8h18.8c0.4,0,0.8,0.3,0.8,0.8v38.5
			C33.8,52.8,33.5,53.1,33.1,53.1z M15,51.6h17.3v-37H15V51.6z"/>
	</g>
	<g>
		<path class="st0" d="M108.3,70H66.8c-0.3,0-0.6-0.2-0.7-0.6c-0.4-1.7-1.4-4.1-3.7-6.2c-1.4-1.2-3-2.2-4.8-2.7
			c-0.3-0.1-0.5-0.4-0.5-0.7V48.4c0-0.3,0.2-0.6,0.5-0.7c1.6-0.4,3.9-1.4,6-3.4c0.7-0.7,1.4-1.5,2-2.3c0.2-0.3,0.7-0.4,1-0.2
			c0.3,0.2,0.4,0.7,0.2,1c-0.6,0.9-1.4,1.8-2.2,2.6c-2.1,2-4.4,3-6.1,3.6v10.3c1.8,0.6,3.5,1.6,4.9,2.9c2.3,2.1,3.4,4.5,4,6.3h40.4
			c0.6-1.6,1.7-3.8,3.8-5.7c1.6-1.6,3.6-2.7,5.7-3.5V49.1c-1.7-0.3-4.3-1-6.7-3.1c-2.5-2.1-3.6-4.7-4.1-6.3H78.9
			c-0.4,0-0.8-0.3-0.8-0.8s0.3-0.8,0.8-0.8H107c0.3,0,0.6,0.2,0.7,0.6c0.4,1.4,1.3,4,3.8,6.1c2.5,2.1,5.2,2.7,6.6,2.8
			c0.4,0,0.7,0.4,0.7,0.7v11.4c0,0.3-0.2,0.6-0.5,0.7c-1.5,0.4-3.6,1.4-5.7,3.3c-2.1,2-3.1,4.2-3.6,5.6
			C108.9,69.7,108.6,70,108.3,70z"/>
	</g>
	<g>
		<path class="st0" d="M89.3,61c-3.9,0-7.1-3.2-7.1-7.1s3.2-7.1,7.1-7.1s7.1,3.2,7.1,7.1S93.2,61,89.3,61z M89.3,48.4
			c-3.1,0-5.6,2.5-5.6,5.6s2.5,5.6,5.6,5.6s5.6-2.5,5.6-5.6S92.4,48.4,89.3,48.4z"/>
	</g>
	<g>
		<path class="st0" d="M126.9,128.6h-18.8c-0.4,0-0.8-0.3-0.8-0.8V89.4c0-0.4,0.3-0.8,0.8-0.8h18.8c0.4,0,0.8,0.3,0.8,0.8v38.5
			C127.7,128.3,127.3,128.6,126.9,128.6z M108.8,127.1h17.3v-37h-17.3V127.1z"/>
	</g>
	<g>
		<path class="st0" d="M75.4,50.8c-1.2,0-2.5-0.5-3.8-1.7c-1.6-1.6-2.8-2.8-3.8-3.8c-0.5-0.5-0.9-1-1.5-1.6
			c-1.2-1.3-2.9-3.1-5.9-6.1c-1.8,2.7-4.8,4.3-8,4.4c-3.7,0.1-7.1-1.9-8.9-5.2c-0.2-0.4-0.1-0.8,0.3-1c0.4-0.2,0.8-0.1,1,0.3
			c1.5,2.7,4.3,4.4,7.4,4.4c0.1,0,0.1,0,0.2,0c3-0.1,5.8-1.7,7.2-4.4c0.1-0.2,0.3-0.3,0.5-0.4c0.2,0,0.5,0,0.6,0.2
			c3.5,3.4,5.3,5.4,6.6,6.8c0.6,0.6,1,1.1,1.5,1.6c1,1.1,2.2,2.2,3.8,3.8c2.6,2.6,5,0.6,5.7,0c1.9-1.8,2.7-5.1,0.7-7.1L65.8,27.4
			c-0.3-0.3-0.3-0.8,0-1.1c0.3-0.3,0.8-0.3,1.1,0l13.2,13.5c2.6,2.7,1.7,6.9-0.7,9.2C78.4,50,77,50.8,75.4,50.8z"/>
	</g>
</g>
</svg>
