<?xml version="1.0" encoding="utf-8"?>
<!-- Generator: Adobe Illustrator 24.0.2, SVG Export Plug-In . SVG Version: 6.00 Build 0)  -->
<svg version="1.1" id="Capa_1" xmlns="http://www.w3.org/2000/svg" xmlns:xlink="http://www.w3.org/1999/xlink" x="0px" y="0px"
	 viewBox="0 0 141.7 141.7" style="enable-background:new 0 0 141.7 141.7;" xml:space="preserve">
<style type="text/css">
	.st0{fill:#B3B3B3;}
	.st1{fill:none;stroke:#B3B3B3;stroke-width:4;stroke-linecap:round;stroke-linejoin:round;stroke-miterlimit:10;}
</style>
<g>
	<path class="st1" d="M71.3,23c-3.9-5.3-10.1-8.7-17.2-8.8c-14.4-0.2-28.1,15.9-18.5,31c8.3,13,35.7,36.7,35.7,36.7
		s29-26.4,35.7-36.7c8.2-12.7-2.1-31.2-18.5-30.9C81.3,14.5,75.1,17.7,71.3,23L71.3,23z"/>
	<g>
		<path class="st1" d="M99.6,127.5h6.9l-1.2-11.6c-0.1-1.4,0.2-2.7,1-3.8l19.7-27.7c0.7-0.9,1-2,0.9-3.1l-1.6-34.5
			c-0.2-2.6-2.4-4.6-5-4.6h0c-2.7,0-5,2.2-5,5v23.5c0,1.1-0.4,2.1-1,3l-11.3,14c-2.7,3.3-7.5,4-11,1.5l0,0l13.2-17
			c1.4-1.8,1.2-4.5-0.5-6.1l0,0c-1.9-1.8-4.9-1.6-6.6,0.4L80.1,88.7c-2.2,2.7-3.4,6.1-3.4,9.7v29.2h9.8H99.6z"/>
	</g>
	<path class="st1" d="M30.9,105.8l4.4,6.2c0.8,1.1,1.1,2.5,1,3.8l-1.2,11.6h6.9h13.2H65V98.3c0-3.5-1.2-6.9-3.4-9.7L43.4,66.5
		c-1.7-2-4.7-2.2-6.6-0.4l0,0c-1.7,1.6-1.9,4.2-0.5,6.1l13.2,17l0,0c-3.5,2.5-8.3,1.9-11-1.5l-11.3-14c-0.7-0.8-1-1.9-1-3V47.1
		c0-2.7-2.2-5-5-5h0c-2.6,0-4.8,2-5,4.6l-1.6,34.5c-0.1,1.1,0.3,2.2,0.9,3.1l4.9,6.8l2.1,3l6.2,8.7L30.9,105.8z"/>
</g>
</svg>
