<?xml version="1.0" encoding="utf-8"?>
<!-- Generator: Adobe Illustrator 24.0.2, SVG Export Plug-In . SVG Version: 6.00 Build 0)  -->
<svg version="1.1" id="Capa_1" xmlns="http://www.w3.org/2000/svg" xmlns:xlink="http://www.w3.org/1999/xlink" x="0px" y="0px"
	 viewBox="0 0 141.7 141.7" style="enable-background:new 0 0 141.7 141.7;" xml:space="preserve">

<g>
	<path class="st0" d="M89,30.8c-0.5,0-1-0.2-1.3-0.5L73.6,17.5H44.7L37,20.9c-0.3,0.1-0.5,0.2-0.8,0.2l-3.1,0c0,0,0,0,0,0
		c-1.1,0-2-0.9-2-2c0-1.1,0.9-2,2-2l2.7,0l7.7-3.5c0.3-0.1,0.5-0.2,0.8-0.2h30c0.5,0,1,0.2,1.3,0.5l14.7,13.4c0.8,0.7,0.9,2,0.1,2.8
		C90.1,30.6,89.6,30.8,89,30.8z"/>
</g>
<g>
	<path class="st0" d="M44.1,55c-1.4,0-2.9-0.3-4.5-1c-2.3-1.1-3.7-2.7-4.5-4.1l-2,0c0,0,0,0,0,0c-0.5,0-1-0.2-1.4-0.6
		c-0.4-0.4-0.6-0.9-0.6-1.4V19.1c0-1.1,0.9-2,2-2s2,0.9,2,2v26.8l1.1,0c0,0,0,0,0,0c0.8,0,1.5,0.4,1.8,1.1c0.4,0.8,1.4,2.4,3.3,3.3
		c2.7,1.3,5.4,0.2,5.9,0c1-0.5,2.2,0,2.6,1c0.5,1,0,2.2-1,2.6C48.1,54.3,46.3,55,44.1,55z"/>
</g>
<g>
	<path class="st0" d="M127.5,81.2H47.9c-1.1,0-2-0.9-2-2V41.3c0-1.1,0.9-2,2-2s2,0.9,2,2v35.8h75.5V30.8H69.2c-1.1,0-2-0.9-2-2
		s0.9-2,2-2h58.3c1.1,0,2,0.9,2,2v50.3C129.5,80.3,128.6,81.2,127.5,81.2z"/>
</g>
<g>
	<path class="st0" d="M99,129.9C99,129.9,99,129.9,99,129.9l-25.1,0c-2.4,0-4.7-0.7-6.7-2c-7.2-4.7-31.1-20.4-35.8-23.7
		c-3.9-2.6-4.1-7.3-2.2-10.2C31,91,35.1,89,39.8,91.6L59,102.2c0.8-1.6,2.2-3,4.6-3.7l24.4-6.8c0.7-0.2,1.5-0.3,2.3-0.3h9.9
		c1.5,0,3,0.4,4.3,1.2l4.6,2.7c0.6,0.4,1,1,1,1.7v27.3c0,0.7-0.4,1.4-1,1.7l-3.7,2.1C103.5,129.2,101.3,129.9,99,129.9z M35.4,94.4
		c-1.6,0-2.5,1.1-2.8,1.6c-0.9,1.4-0.9,3.5,1.1,4.8c4.9,3.3,30.7,20.3,35.8,23.7c1.3,0.9,2.9,1.3,4.5,1.3l25.1,0c0,0,0,0,0,0
		c1.5,0,3-0.4,4.3-1.3l2.7-1.5V98.1l-3.6-2.1c-0.7-0.4-1.5-0.6-2.3-0.6h-9.9c-0.4,0-0.8,0.1-1.2,0.2l-24.4,6.8
		c-2.7,0.7-2.4,2.9-2.2,3.8c0.3,1.3,1.5,3,3.4,2.5c4.1-1,22.7-6.2,22.9-6.3c1.1-0.3,2.2,0.3,2.5,1.4c0.3,1.1-0.3,2.2-1.4,2.5
		c-0.8,0.2-18.9,5.3-23,6.3c-4.2,1-7.3-2-8.2-5.4c-0.1-0.3-0.2-0.7-0.2-1l-0.1,0.2L37.9,95.1C36.9,94.6,36.1,94.4,35.4,94.4z"/>
</g>
<g>
	<path class="st0" d="M33.1,54.3H14.2c-1.1,0-2-0.9-2-2V13.8c0-1.1,0.9-2,2-2h18.8c1.1,0,2,0.9,2,2v38.5
		C35.1,53.4,34.2,54.3,33.1,54.3z M16.2,50.3h14.8V15.8H16.2V50.3z"/>
</g>
<g>
	<path class="st0" d="M108.2,71.2H66.8c-0.9,0-1.7-0.6-1.9-1.5c-0.4-1.5-1.3-3.7-3.3-5.5c-1.2-1.1-2.7-2-4.3-2.4
		c-0.8-0.3-1.4-1-1.4-1.9V48.4c0-0.9,0.6-1.7,1.5-1.9c1.4-0.4,3.5-1.3,5.5-3.1c0.7-0.6,1.3-1.4,1.8-2.1c0.6-0.9,1.9-1.1,2.8-0.5
		c0.9,0.6,1.1,1.9,0.5,2.8c-0.7,1-1.5,2-2.4,2.8c-1.6,1.5-3.6,2.8-5.7,3.6v8.5c1.6,0.7,3.2,1.6,4.4,2.8c2.1,2,3.4,4.2,4,6h38.6
		c0.9-2,2.2-3.9,3.8-5.4c1.5-1.5,3.4-2.6,5.3-3.4v-8.3c-1.8-0.4-4.1-1.3-6.3-3.2c-2.3-2-3.5-4.3-4.2-6H78.9c-1.1,0-2-0.9-2-2
		s0.9-2,2-2H107c0.9,0,1.7,0.6,1.9,1.5c0.3,1.2,1.2,3.5,3.4,5.5c2.2,1.9,4.6,2.4,5.9,2.5c1,0.1,1.8,1,1.8,2v11.4
		c0,0.9-0.6,1.7-1.4,1.9c-1.3,0.4-3.3,1.2-5.2,3c-1.9,1.8-2.8,3.8-3.3,5.1C109.9,70.6,109.1,71.2,108.2,71.2z"/>
</g>
<g>
	<path class="st0" d="M89.3,62.2c-4.6,0-8.3-3.7-8.3-8.3s3.7-8.3,8.3-8.3s8.3,3.7,8.3,8.3S93.9,62.2,89.3,62.2z M89.3,49.6
		c-2.4,0-4.3,1.9-4.3,4.3s1.9,4.3,4.3,4.3c2.4,0,4.3-1.9,4.3-4.3S91.7,49.6,89.3,49.6z"/>
</g>
<g>
	<path class="st0" d="M126.9,129.9h-18.8c-1.1,0-2-0.9-2-2V89.4c0-1.1,0.9-2,2-2h18.8c1.1,0,2,0.9,2,2v38.5
		C128.9,129,128,129.9,126.9,129.9z M110.1,125.9h14.8V91.4h-14.8V125.9z"/>
</g>
<g>
	<path class="st0" d="M75.5,52c-1.7,0-3.3-0.7-4.7-2.1c-1.6-1.6-2.8-2.8-3.8-3.8c-0.5-0.5-1-1-1.5-1.6c-1.1-1.2-2.5-2.7-4.8-5.1
		c-2,2.3-5,3.7-8.1,3.7c-4.2,0.1-8-2.2-10-5.8c-0.5-1-0.2-2.2,0.8-2.7c1-0.5,2.2-0.2,2.7,0.8c1.3,2.4,3.8,3.8,6.4,3.8
		c2.6,0,4.9-1.5,6.1-3.8c0.3-0.6,0.8-0.9,1.5-1c0.6-0.1,1.2,0.1,1.7,0.5c3.5,3.4,5.3,5.4,6.7,6.9c0.5,0.6,1,1.1,1.5,1.6
		c1,1.1,2.2,2.2,3.8,3.8c1.6,1.6,3,0.8,3.9-0.1c1.3-1.2,2.2-3.8,0.7-5.3L64.9,28.2c-0.8-0.8-0.8-2.1,0-2.8c0.8-0.8,2.1-0.8,2.8,0
		L81,38.9c3.2,3.2,2.1,8.2-0.7,11C78.8,51.3,77.1,52,75.5,52z"/>
</g>
</svg>
