<?xml version="1.0" encoding="utf-8"?>
<!-- Generator: Adobe Illustrator 24.0.2, SVG Export Plug-In . SVG Version: 6.00 Build 0)  -->
<svg version="1.1" id="Capa_1" xmlns="http://www.w3.org/2000/svg" xmlns:xlink="http://www.w3.org/1999/xlink" x="0px" y="0px"
	 viewBox="0 0 116 117" style="enable-background:new 0 0 116 117;" xml:space="preserve">
<style type="text/css">
	.st0{fill:none;stroke:#000000;stroke-width:4;stroke-linecap:round;stroke-linejoin:round;stroke-miterlimit:10;}
</style>
<path class="st0" d="M58.4,10.2c-3.9-5.3-10.1-8.7-17.2-8.8C26.7,1.2,13,17.3,22.6,32.4c8.3,13,35.7,36.7,35.7,36.7
	s29-26.4,35.7-36.7c8.2-12.7-2.1-31.2-18.5-30.9C68.4,1.7,62.2,4.9,58.4,10.2L58.4,10.2z"/>
<g>
	<path class="st0" d="M86.7,114.7h6.9l-1.2-11.6c-0.1-1.4,0.2-2.7,1-3.8l19.7-27.7c0.7-0.9,1-2,0.9-3.1L112.5,34
		c-0.2-2.6-2.4-4.6-5-4.6h0c-2.7,0-5,2.2-5,5v23.5c0,1.1-0.4,2.1-1,3l-11.3,14c-2.7,3.3-7.5,4-11,1.5h0l13.2-17
		c1.4-1.8,1.2-4.5-0.5-6.1l0,0c-1.9-1.8-4.9-1.6-6.6,0.4L67.2,75.9c-2.2,2.7-3.4,6.1-3.4,9.7v29.2h9.8H86.7z"/>
</g>
<path class="st0" d="M42.3,114.7h9.8V85.5c0-3.5-1.2-6.9-3.4-9.7L30.5,53.7c-1.7-2-4.7-2.2-6.6-0.4l0,0c-1.7,1.6-1.9,4.2-0.5,6.1
	l13.2,17h0c-3.5,2.5-8.3,1.9-11-1.5l-11.3-14c-0.7-0.8-1-1.9-1-3V34.3c0-2.7-2.2-5-5-5h0c-2.6,0-4.8,2-5,4.6L1.8,68.4
	c-0.1,1.1,0.3,2.2,0.9,3.1l19.7,27.7c0.8,1.1,1.1,2.5,1,3.8l-1.2,11.6h6.9H42.3z"/>
</svg>
