<?xml version="1.0" encoding="utf-8"?>
<!-- Generator: Adobe Illustrator 24.0.2, SVG Export Plug-In . SVG Version: 6.00 Build 0)  -->
<svg version="1.1" id="Capa_1" xmlns="http://www.w3.org/2000/svg" xmlns:xlink="http://www.w3.org/1999/xlink" x="0px" y="0px"
	 viewBox="0 0 315 400" style="enable-background:new 0 0 315 400;" xml:space="preserve">
<g>
	<g>
		<g>
			<g>
				<path style="fill-rule:evenodd;clip-rule:evenodd;fill:#FFEBB6;" d="M209,300c-14.5,36.1-17.3,63.1-14.3,92.4
					c0.6,5.6-25.1,6.5-26.3,5.3c-2.7-2.8,7.8-25.6,7.8-25.6l-79.7,25.6C81,358.1,70.7,312,68.1,271.1l0.3,5.5
					c-17.6,0.9-25.6,35.3-9.8,46.2c17.4,5.2,24.2,22.6,13.7,30.3C56,364.7,49.1,340.1,48,339.8c-16.5-5.1-40-16.5-44-34.7
					c-8-36.9,24.9-70.9,59-65.6l0-0.3c-5.5-42.7,67.6,13.6,79.9,14.2c11.7,0.5,98.9-34.1,87.6-2.5c0,0,51.3-2.7,52.9,69.3L220.2,345
					l-13.3-39.7"/>
			</g>
		</g>
		<g>
			<g>
				<g>
					<path style="fill:#79591A;" d="M68.1,271.1c1.1,10.6,2.6,21.2,4.5,31.7c1.9,10.5,4,20.9,6.5,31.3c2.5,10.4,5.3,20.6,8.5,30.8
						C90.7,375,94.2,385,98,394.9l-3.1-1.5c18.5-5.8,36.9-11.6,55.6-16.9c4.7-1.3,9.3-2.6,14-3.9c2.3-0.6,4.7-1.3,7-1.9l3.5-0.9
						l0.5-0.1c0.2-0.1,0.5-0.1,0.7-0.1c0.3,0,0.6-0.1,1,0c0.4,0,0.9,0.1,1.4,0.4c0.5,0.3,1,0.7,1.2,1.2c0.3,0.5,0.4,0.9,0.5,1.2
						c0.1,0.7,0.1,1.2,0,1.7c-0.1,0.9-0.3,1.6-0.5,2.2c-0.2,0.7-0.5,1.3-0.7,1.9c-0.5,1.2-1,2.3-1.6,3.4l-3.2,6.5
						c-0.5,1.1-1,2.1-1.5,3.2c-0.4,1-0.9,2.1-1.1,3c-0.1,0.2-0.1,0.4-0.1,0.6c0,0.2,0,0.3,0,0.2c0,0-0.1-0.2-0.1-0.3c0,0,0,0,0,0
						c0,0,0,0,0.1,0.1c0.2,0.1,0.6,0.3,1,0.3c0.4,0.1,0.9,0.1,1.5,0.2c2.1,0.1,4.4-0.2,6.7-0.6c2.3-0.4,4.6-1,6.8-1.6
						c1.1-0.3,2.2-0.7,3.3-1.1c0.5-0.2,1-0.4,1.5-0.6c0.2-0.1,0.4-0.2,0.5-0.3c0,0,0.1-0.1,0,0c-0.1,0.1-0.2,0.2-0.4,0.7
						c-0.1,0.2-0.1,0.3-0.1,0.5c0,0.3,0,0.2,0,0.2l0-0.1c-0.2-2.4-0.4-4.9-0.5-7.3c-0.3-4.9-0.2-9.8-0.1-14.7
						c0.2-4.9,0.5-9.8,1.1-14.6c1.1-9.7,3.2-19.3,5.9-28.6c2.7-9.3,6.1-18.4,10.1-27.3c-6.5,18.2-11.2,37.1-12.7,56.2l-0.3,3.6
						l-0.2,3.6c-0.1,2.4-0.1,4.8-0.2,7.2c0,4.8,0.1,9.6,0.5,14.3c0.1,2.4,0.4,4.8,0.6,7.1l0,0.1c0,0,0,0,0,0.3c0,0.3,0,0.4-0.1,0.7
						c-0.2,0.7-0.5,0.9-0.6,1.1c-0.3,0.3-0.5,0.5-0.7,0.6c-0.4,0.3-0.7,0.4-1,0.6c-0.6,0.3-1.2,0.6-1.8,0.8
						c-1.2,0.5-2.4,0.9-3.6,1.2c-2.4,0.7-4.8,1.3-7.3,1.8c-2.5,0.5-5,0.8-7.7,0.7c-0.7,0-1.4-0.1-2.1-0.2c-0.7-0.1-1.5-0.4-2.4-0.8
						c-0.4-0.2-0.9-0.6-1.3-1c-0.2-0.2-0.4-0.5-0.6-0.7c-0.2-0.3-0.4-0.8-0.4-1.1c-0.1-0.7-0.1-1.2-0.1-1.6c0-0.4,0.1-0.8,0.2-1.2
						c0.3-1.5,0.8-2.6,1.3-3.8c0.5-1.2,1-2.3,1.5-3.4l3.1-6.5c0.5-1.1,1-2.1,1.4-3.2c0.2-0.5,0.4-1,0.6-1.5c0.2-0.5,0.3-1,0.3-1.3
						c0-0.2,0-0.3,0-0.2c0,0.1,0,0.2,0.2,0.4c0.1,0.2,0.4,0.5,0.6,0.6c0.5,0.2,0.6,0.1,0.6,0.2l-0.1,0l-0.4,0.1l-3.5,0.9
						c-2.3,0.6-4.6,1.3-7,1.9c-4.6,1.3-9.3,2.6-13.9,4c-18.5,5.5-37.1,11-55.5,16.8l-2.3,0.7l-0.8-2.2c-3.8-10.1-7.1-20.3-10.1-30.6
						c-2.9-10.3-5.5-20.8-7.6-31.3c-2.1-10.5-3.9-21.1-5.2-31.7c-0.3-2.7-0.6-5.3-0.9-8c-0.3-2.7-0.5-5.3-0.7-8
						c-0.2-2.7-0.4-5.3-0.5-8L68.1,271.1z"/>
				</g>
			</g>
			<g>
				<g>
					<path style="fill:#79591A;" d="M142.8,253.4c-1,0-2-0.3-3-0.6c-1-0.3-2-0.7-2.9-1.1c-1.9-0.8-3.8-1.7-5.6-2.6
						c-3.7-1.8-7.4-3.7-11-5.7c-7.3-3.8-14.6-7.7-22.1-11.1c-3.7-1.7-7.5-3.3-11.3-4.6c-3.8-1.3-7.7-2.4-11.6-2.7
						c-1.9-0.2-3.8,0-5.5,0.5c-0.8,0.3-1.6,0.6-2.2,1.1c-0.6,0.5-1.1,1.1-1.6,1.8c-0.8,1.4-1.2,3.2-1.3,5.1
						c-0.1,1.9,0.1,3.8,0.3,5.8l0.4,2.7l-2.7-0.4c-4.6-0.6-9.4-0.5-14,0.3c-1.2,0.1-2.3,0.5-3.4,0.7c-1.1,0.3-2.3,0.6-3.4,1
						c-1.1,0.4-2.2,0.8-3.3,1.2c-1.1,0.5-2.2,0.9-3.2,1.5c-4.2,2.1-8.1,4.7-11.6,7.9c-3.5,3.1-6.6,6.7-9.2,10.6
						c-5.3,7.7-8.5,16.9-9,26.2c-0.3,4.7,0.1,9.4,1.1,13.9c0.9,4.3,3.2,8.3,6.2,11.8c3,3.5,6.6,6.5,10.6,9.2
						c3.9,2.6,8.2,4.9,12.5,6.9c2.2,1,4.4,1.9,6.6,2.8c1.1,0.4,2.3,0.8,3.4,1.2l1.7,0.6l0.9,0.3l0.2,0.1l0.1,0
						c0.3,0.1,0.6,0.2,0.8,0.4c0.2,0.1,0.2,0.2,0.3,0.3c0.2,0.2,0.2,0.3,0.3,0.3c0.1,0.1,0.1,0.2,0.1,0.2c0.1,0.1,0.1,0.2,0.2,0.3
						c0.4,0.7,0.6,1.2,0.9,1.8l0.8,1.6c0.5,1.1,1,2.1,1.6,3.1c1.1,2,2.4,3.9,4,5.4c1.5,1.5,3.3,2.5,5.2,2.8c1.9,0.3,3.9-0.1,5.8-1.1
						c1-0.5,2-1.1,2.8-1.7c0.8-0.6,1.6-1.4,2.2-2.2c0.6-0.8,1-1.7,1.4-2.7c0.3-1,0.4-2,0.4-3.1c0-2.1-0.6-4.3-1.5-6.3
						c-1-2-2.3-3.9-3.9-5.5c-3.2-3.3-7.3-5.7-11.8-7.2l-0.2-0.1l-0.2-0.1c-2.1-1.5-3.9-3.5-5.2-5.6c-1.3-2.2-2.2-4.6-2.8-7
						c-1.1-4.9-0.9-9.9,0.1-14.7c1.1-4.8,3-9.4,6.1-13.2c1.5-1.9,3.4-3.6,5.4-4.8c2.1-1.2,4.5-1.9,6.9-2c-2.4,0.2-4.7,1.1-6.6,2.4
						c-2,1.3-3.6,3-5,5c-2.7,3.8-4.4,8.4-5.2,13c-0.8,4.6-0.8,9.4,0.5,13.8c1.2,4.4,3.7,8.5,7.4,10.9l-0.4-0.2
						c2.5,0.7,4.9,1.7,7.1,2.9c2.3,1.2,4.4,2.8,6.2,4.6c1.9,1.8,3.5,3.9,4.7,6.3c1.2,2.4,2,5,2.1,7.8c0,1.4-0.1,2.8-0.5,4.2
						c-0.4,1.4-1,2.7-1.8,3.9c-0.8,1.2-1.8,2.2-2.9,3.1c-0.3,0.2-0.6,0.4-0.8,0.6c-0.3,0.2-0.5,0.4-0.8,0.6c-0.6,0.4-1.1,0.7-1.7,1
						c-1.2,0.6-2.5,1.2-3.9,1.5c-1.4,0.3-2.9,0.4-4.4,0.2c-1.5-0.2-2.9-0.7-4.2-1.4c-1.3-0.7-2.4-1.6-3.4-2.5
						c-2-1.9-3.5-4.1-4.9-6.3c-0.7-1.1-1.3-2.3-1.8-3.4l-0.8-1.7c-0.3-0.5-0.5-1.1-0.7-1.5c0,0,0-0.1,0-0.1c0,0,0,0,0,0
						c0,0,0,0,0.1,0.2c0.1,0.1,0.1,0.1,0.2,0.2c0.2,0.2,0.5,0.3,0.7,0.4l-0.1,0l-0.2-0.1l-0.9-0.3l-1.8-0.6
						c-1.2-0.4-2.4-0.8-3.5-1.2c-2.3-0.9-4.7-1.8-7-2.8c-4.6-2-9.1-4.4-13.3-7.2c-4.2-2.8-8.2-6.1-11.6-10c-3.4-3.9-6.1-8.7-7.3-14
						c-1.1-5-1.5-10.2-1.2-15.3c0.7-10.3,4.2-20.3,10-28.7c2.9-4.2,6.3-8.1,10.2-11.4c3.9-3.3,8.2-6.2,12.8-8.4
						c9.2-4.5,19.8-6.2,29.9-4.5l-2.3,2.3c-0.2-2.2-0.4-4.3-0.2-6.6c0.2-2.2,0.7-4.6,2-6.7c0.7-1.1,1.6-2,2.6-2.8
						c1-0.7,2.2-1.3,3.3-1.6c2.3-0.6,4.6-0.7,6.8-0.4c4.4,0.5,8.4,1.8,12.3,3.3c3.9,1.5,7.7,3.3,11.4,5.1
						c7.4,3.8,14.6,7.9,21.7,12.1c3.6,2.1,7.1,4.2,10.7,6.2c1.8,1,3.6,2,5.4,2.9C138.9,252.2,140.8,253.1,142.8,253.4z"/>
				</g>
			</g>
			<g>
				<g>
					<path style="fill:#79591A;" d="M142.8,253.4c1,0,2.1-0.2,3.1-0.4c1-0.2,2-0.4,3.1-0.7c2-0.5,4-1.1,6.1-1.6l12.1-3.5
						c4-1.1,8.1-2.3,12.1-3.4c4.1-1.1,8.1-2.1,12.2-3.1c4.1-1,8.2-1.9,12.4-2.6c4.2-0.7,8.4-1.4,12.7-1.6c2.2-0.1,4.3-0.2,6.6,0
						c1.1,0.1,2.2,0.2,3.4,0.5c1.1,0.2,2.3,0.6,3.5,1.2c1.2,0.6,2.4,1.4,3.3,2.7c0.9,1.2,1.3,2.8,1.3,4.2c0,1.4-0.3,2.7-0.6,3.8
						c-0.4,1.2-0.8,2.2-1.4,3.3l-2.2-3.5c0.7,0,1.1,0,1.7,0c0.5,0,1.1,0,1.6,0.1c1.1,0.1,2.1,0.2,3.2,0.3c2.1,0.3,4.2,0.7,6.3,1.2
						c4.1,1.1,8.2,2.6,12,4.6c7.6,4,14.1,10,18.8,17.2c4.7,7.2,7.7,15.2,9.4,23.4c1.7,8.2,2.3,16.6,2.2,24.8l0,1.5l-1.4,0.5
						l-21.3,7.8c-7.1,2.6-14.2,5.1-21.3,7.7c-7.1,2.6-14.2,5.1-21.3,7.6c-0.2-0.4-0.2-1.4-0.6-1.5c7-2.9,13.9-5.8,20.9-8.7
						c7-2.9,14-5.8,21-8.6l21-8.5l-1.4,2c-0.1-8-0.8-16-2.7-23.8c-1.8-7.7-4.6-15.2-8.9-21.7c-2.1-3.2-4.7-6.2-7.5-8.8
						c-2.8-2.6-6-4.9-9.4-6.7c-3.4-1.8-7-3.3-10.8-4.3c-1.9-0.5-3.8-0.9-5.7-1.2c-1-0.1-1.9-0.3-2.9-0.3c-0.5,0-1-0.1-1.4-0.1
						c-0.5,0-1,0-1.3,0l-4.1,0.1l1.9-3.5c0.9-1.7,1.6-3.4,1.6-4.8c0-0.7-0.2-1.2-0.5-1.7c-0.3-0.5-0.8-0.9-1.5-1.3
						c-1.4-0.7-3.3-1.1-5.3-1.3c-1.9-0.2-4-0.2-6-0.2c-4.1,0.1-8.2,0.6-12.3,1.2c-4.1,0.6-8.2,1.3-12.3,2.1
						c-4.1,0.8-8.2,1.6-12.3,2.5c-4.1,0.9-8.2,1.8-12.3,2.7c-4.1,0.9-8.2,1.8-12.3,2.6c-2.1,0.4-4.1,0.8-6.2,1.2
						c-1,0.2-2.1,0.3-3.1,0.4C144.9,253.4,143.9,253.5,142.8,253.4z"/>
				</g>
			</g>
		</g>
		<g>
			<g>
				<g>
					<path style="fill-rule:evenodd;clip-rule:evenodd;fill:#E6C987;" d="M205,91.6c-13.7,8.7,4,45,19.1,36.5l12.9-21.3
						c6-11.1-3.7-24.2-16.1-21.6C211.4,87.2,205,91.6,205,91.6"/>
				</g>
			</g>
			<g>
				<g>
					<g>
						<path style="fill-rule:evenodd;clip-rule:evenodd;fill:#E6C987;" d="M135.8,339.9c7.6-18.9,39.2-37.6,64.8-50.8
							c10.8-5.6,13.5-48.7,19.9-51.8c15.6-7.7,24.8-0.1,21.5-17.2c-5.5-29.1-8.9-42.4-19.4-65.1c-6.5-14-13.1-26.3-19.1-36.5
							c-0.2-0.4-0.5-0.8-0.7-1.3c-10.5-17.7-31.8-25.8-51.3-19.5l-15.6,5l-15.6-5c-19.5-6.3-40.8,1.8-51.3,19.5
							c-0.1,0.2-0.3,0.4-0.4,0.6c-6.1,10.3-12.9,22.8-19.5,37.1c-10.5,22.7-3.6,36.7-9.1,65.9c-2.2,11.4,6.5,14.8,12.6,24.8
							c1,1.7-24.4-9.5-23.5-7.3c0.3,0.7,12.5,13.3,15.5,23.8c3,10.8-3.4,21.2-2.7,20.8c3.3-2.5,16.1-14.2,16.1-9.5
							C89,288.7,125.4,318.5,135.8,339.9"/>
					</g>
				</g>
			</g>
			<g>
				<g>
					<g>
						<path style="fill-rule:evenodd;clip-rule:evenodd;fill:#F7B426;" d="M24.6,206.9c-3.3,17.1,5.4,34.3,21,42
							c31.1,15.3,81.4,42.8,91.8,64.1c10.4-21.3,60.7-48.8,91.8-64.1c15.6-7.7,24.2-24.9,21-42c-5.5-29.1-15.5-56.1-26-78.8
							c-6.5-14-13.1-26.3-19.1-36.5c-0.3-0.4-0.5-0.8-0.7-1.3c-10.5-17.7-31.8-25.8-51.3-19.5L137.3,76l-15.6-5.1
							c-19.5-6.3-40.8,1.8-51.3,19.5c-0.1,0.2-0.3,0.4-0.4,0.6c-6.1,10.3-12.9,22.8-19.5,37.1C40.1,150.8,30.1,177.8,24.6,206.9"/>
					</g>
				</g>
				<g>
					<g>
						<path style="fill-rule:evenodd;clip-rule:evenodd;fill:#E09B11;" d="M137.3,76L137.3,76L137.3,76z"/>
					</g>
				</g>
				<g>
					<g>
						<path style="fill-rule:evenodd;clip-rule:evenodd;fill:#E09B11;" d="M194.8,248.9c9.8-7.7,15.2-24.9,13.1-42
							c-3.5-29.1-9.7-56.1-16.3-78.8c-4-14-8.2-26.3-11.9-36.5c-0.2-0.4-0.3-0.8-0.5-1.3c-4.3-11.6-11.5-19.1-19.5-21.1
							c17.5-2.7,35.2,5.4,44.5,21.1c0.2,0.4,0.5,0.8,0.7,1.3c6,10.2,12.6,22.5,19.1,36.5c10.5,22.7,20.4,49.7,26,78.8
							c3.3,17.1-5.4,34.3-21,42c-31.1,15.3-81.4,42.8-91.8,64.1C143.9,291.7,175.3,264.3,194.8,248.9"/>
					</g>
				</g>
				<g>
					<g>
						<path style="fill-rule:evenodd;clip-rule:evenodd;fill:#FFEBB6;" d="M203.4,224.8c0.1-1.2,0.9-1.8,4.7-5.3
							c7.4-6.8,8.8-24.6,0.1-30.6c-0.5-0.5-1.2-1-2.1-1.6c-1.7-1.1-3.2-1.7-4.9-2.3c1.6-1,2.9-2.4,3.8-4.3c1.8-3.6,2.7-7.5,2.7-11.4
							c0-3.5-0.7-7.1-2.2-10.5l-10-22.4c-1.8-4.1-5.4-7.2-9.7-8.5c-1.4-0.4-2.9-0.6-4.3-0.6c-5,0-9.7,2.4-12.7,6.7l-2.2,3.2
							c-3.8,5.5-10,8.8-16.7,8.8c-7.6,0-23.4-2.8-27.5-8.8l-2.2-3.2c-3.8-5.5-10.6-7.9-17-6c-2.2,0.6-4.1,1.7-5.8,3.2
							c-1.7,1.4-3,3.3-3.9,5.3l-10,22.4c-3.2,7.1-2.9,15,0.3,21.7c2.7,5.7,9.8,7.8,15.2,4.6l8.3-4.9l-2.4,12.4
							c-2.5,13.1,3,25.4,11.6,35.5c8.5,9.9,21.4-5.3,38.7,16.1c6.9,8.6,21.3,14.3,30.1,13.2C204.4,255,202,243.7,203.4,224.8"/>
					</g>
				</g>
				<g>
					<g>
						<path style="fill-rule:evenodd;clip-rule:evenodd;fill:#E6C987;" d="M202.1,224.1l1.7-0.9c0,0-0.7,9.3-0.4,9.7
							c0.2,0.4-0.6,11.3-2.5,14.8c-1.9,3.5-4.1,7.6-15.7,9C185.2,256.7,203.4,246,202.1,224.1z"/>
					</g>
				</g>
				<g>
					<g>
						<path style="fill-rule:evenodd;clip-rule:evenodd;fill:#E6C987;" d="M192.1,134.7c3.8,5.8,9.8,20.7,12,25.2
							c2.4,5.1-1.2,21.9-7.2,23.4c-6,1.5,4.4,1.4,4.4,1.4s3.6-1.4,4.6-7.4c1-6,2.2-11.9-1.4-19.1c-3.6-7.2-9.1-20.7-9.9-23.1
							c-0.8-2.4-5.5-5.1-8.8-6.3C185.9,128.9,191.4,133.6,192.1,134.7z"/>
					</g>
				</g>
				<g>
					<g>
						<path style="fill-rule:evenodd;clip-rule:evenodd;fill:#2D2C2C;" d="M200.4,192.9c4.4,0,6.6,5.4,3.4,8.4l-12.2,11.7
							l-12.2-11.7c-3.2-3.1-1-8.4,3.4-8.4H200.4z"/>
					</g>
				</g>
				<g>
					<g>
						<path style="fill:#79591A;" d="M210.6,191.4c-1.6-1.9-2.2-2.6-4.4-4.1c-2.1-1.3-3.9-2-6.3-2.7c-2.9-0.7-5.5-1-8.5-1.1
							c-1.9-0.1-3.8-0.1-5.7-0.2c-4.3-0.1-8.4-0.2-12.5-1.8c-1.8-0.8-3-1.6-4.3-3.1c-1.5-1.8-2.2-3.5-2.8-5.8
							c-1.7-6.7-2.3-12.1-3.5-18.7c-1.9-8,0.2,15.4,1,19c0,0,0.1,0.3,0.1,0.4c0.7,2.7,1.6,4.6,3.4,6.7c1.6,1.8,3.1,2.7,5.3,3.6
							c4.4,1.6,8.7,1.6,13.3,1.5c4.8-0.1,9.1-0.2,13.8,0.7c1.2,0.2,2.2,0.5,3.3,0.9c1,0.4,1.9,0.8,2.8,1.3
							C208.7,189.8,212.3,194.5,210.6,191.4"/>
					</g>
				</g>
				<g>
					<g>
						<path style="fill:#79591A;" d="M191.3,214.4c0.2,2.3-0.6,4.4-1.6,6.3c-1.4,2.2-2.9,3.4-5.2,4.6c-1.3,0.6-2.4,1-3.8,1.3
							c-1.1,0.2-2.1,0.3-3.2,0.4c-2.7,0-4.7-0.3-7.2-1.3c-6.8-3-12.2-6.9-18-11.4c-2.2-1.7-4.4-3.6-6.6-5.3c-0.6-0.5-1.2-1-1.8-1.4
							c-0.1,0-0.2-0.1-0.2-0.1c-0.2-0.1-0.4-0.3-0.6-0.4c-0.1,0-0.1-0.1-0.2-0.1c0,0-0.2,0.1-0.2,0.2c0,0,0.1,0.2,0.1,0.2
							c0.1,0.2,0.2,0.5,0.4,0.7c0.4,0.7,1.1,1.5,1.6,2.1c1.8,2.2,4,4.2,6.2,6c1.3,1.1,2.7,2.2,4.1,3.3c4.8,3.5,9.1,6.1,14.7,8.3
							c2.8,1,5.1,1.3,8.1,1.1c2.9-0.3,5.1-0.9,7.6-2.2c2.1-1.2,3.4-2.4,4.8-4.3c0.2-0.3,0.4-0.7,0.6-1
							C192.7,216.7,191.6,210.9,191.3,214.4"/>
					</g>
				</g>
				<g>
					<g>
						<path style="fill:#79591A;" d="M157.8,221c0.8,0.2,1.3,1.2,2,1.7c1,0.7,1.6,1.5,2.3,2.5c1.6,2.3,2.7,4.9,4,7.4
							c0.8,1.6,1.6,3,2.5,4.5c0.8,1.3,1.6,2.3,2.7,3.5c2.8,2.8,5.3,4.2,9.2,5c2.8,0.4,5,0.4,7.8-0.1c2.8-0.6,4.9-1.5,7.2-3.4
							c2.4-2.1,3.7-4.1,4.6-7.1c0.7-3,0.8-5.9-0.1-8.9c-1.7-4.7-0.6,3.5-2,8.3c-0.9,2.5-2,4.1-4,5.8c0,0-0.1,0.1-0.2,0.1
							c-1.9,1.5-3.7,2.2-6,2.8c-2.4,0.5-4.4,0.6-6.9,0.3c-3.5-0.6-5.6-1.7-8.2-4c-2.3-2.3-3.7-4.5-5.3-7.3c-1-1.8-1.9-3.5-3-5.2
							c-0.5-0.7-0.9-1.4-1.5-2.1c-0.8-1-1.6-1.8-2.7-2.5c-1.6-0.9-4.3-2.8-1.6-1.8"/>
					</g>
				</g>
				<g>
					<g>
						<path style="fill:#79591A;" d="M191.9,217.5c1,1.9,1.6,3.4,3.2,5c1.3,1.2,2.5,2.1,4.3,2.5c1.7,0.3,3.2-0.4,4.8-1
							c0,0,0.3-0.1,0.3-0.1c1.7-0.8,2.8-1.7,4.1-2.9c1.6-1.7,2.6-3.7,3.6-5.8c1.3-2.9,2.1-5.6,2.6-8.7c0.5-3.3,0.6-6.1-0.2-9.4
							c-0.4-1.6-1-2.7-1.9-4.1c-0.7-0.9-1.4-1.6-2.4-2.2c-2.9-1.4,0,1.5,0.9,3.2c0.6,1.2,0.9,2.3,1.2,3.6c0.4,2,0.4,3.7,0.3,5.7
							c-0.1,0.9-0.1,1.8-0.3,2.7c-0.5,3-1.1,5.5-2.2,8.3c-0.8,1.9-1.6,3.8-2.9,5.4c-1.1,1.3-2.2,2.1-3.7,2.9
							c-1.3,0.6-2.4,0.9-3.8,0.8c-1.2-0.1-2.1-0.5-3.1-1.2c-0.3-0.2-0.5-0.4-0.8-0.6c-2.1-1.8-5-7-4.1-4.2"/>
					</g>
				</g>
				<g>
					<g>
						<path style="fill-rule:evenodd;clip-rule:evenodd;fill:#2D2C2C;" d="M197.8,234.2c0.9-3.2,0.8-7.9,1.1-9.3
							c0-0.2-0.1-0.3-0.1-0.5c-1.6-0.6-2.7-1.3-3.9-2.5c-1.5-1.8-1.8-2.6-2.9-4.4c-0.1-0.2-0.3-0.4-0.3-0.5
							c-0.2,1.5-0.5,2.7-1.2,4.2c-0.2,0.3-0.4,0.7-0.6,1c-1.4,1.9-2.8,3.1-4.8,4.3c-2.6,1.4-4.7,2-7.6,2.2c-3,0.2-5.3-0.1-8.1-1.1
							c-2.4-1-4.6-2-6.6-3.1c0,0,0.1,0.1,0.1,0.1c0.5,0.7,1,1.4,1.5,2.1c1,1.7,2,3.5,3,5.2c1.6,2.8,3,5,5.3,7.3
							c2.6,2.4,4.8,3.5,8.2,4c2.5,0.3,4.5,0.2,6.9-0.3c2.3-0.6,4.1-1.3,6-2.8l0.2-0.1C195.8,238.3,196.9,236.7,197.8,234.2"/>
					</g>
				</g>
			</g>
			<g>
				<defs>
					<path id="SVGID_1_" d="M190.5,221.2c-0.2,0.3-0.4,0.7-0.6,1c-1.4,1.9-2.8,3.1-4.8,4.3c-2.6,1.4-4.7,2-7.6,2.2
						c-3,0.2-5.3-0.1-8.1-1.1c-2.4-1-4.6-2-6.6-3.1c0,0,0.1,0.1,0.1,0.1c0.5,0.7,1,1.4,1.5,2.1c1,1.7,2,3.5,3,5.2
						c1.6,2.8,3,5,5.3,7.3c2.6,2.4,4.8,3.5,8.2,4c2.5,0.3,4.5,0.2,6.9-0.3c2.3-0.6,4.1-1.3,6-2.8l0.2-0.1c2-1.7,3.1-3.3,4-5.8
						c0.9-3.2,0.8-7.9,1.1-9.3c0-0.2-0.1-0.3-0.1-0.5c-1.6-0.6-2.7-1.3-3.9-2.5c-1.5-1.8-1.8-2.6-2.9-4.4c-0.1-0.2-0.2-0.1-0.2-0.2
						c0-0.1,0-0.1-0.1-0.2C191.6,218.5,191.3,219.7,190.5,221.2"/>
				</defs>
				<clipPath id="SVGID_2_">
					<use xlink:href="#SVGID_1_"  style="overflow:visible;"/>
				</clipPath>
				<g style="clip-path:url(#SVGID_2_);">
					<g>
						<path style="fill-rule:evenodd;clip-rule:evenodd;fill:#931E1B;" d="M189.4,243.1c0.3-8.6-18.4-14.5-24.1-4.3
							c2.8,1.7,6.6,3,10.9,3.8l0.1,0.9C180.6,244.2,185.1,243.6,189.4,243.1"/>
					</g>
				</g>
				<g style="clip-path:url(#SVGID_2_);">
					<g>
						<path style="fill:#671410;" d="M176.2,245.2c-3.3-0.6-6.2-2.8-8.6-4.5c-0.9-0.6-1.7-1.2-2.4-1.7l-0.3-0.2l0.2-0.3
							c3.3-5.8,10.4-6.3,15.4-4.9c6.6,1.9,9.4,6,9.3,9.3l0,0.2l-0.2,0.1C185.3,245.2,176.5,245.2,176.2,245.2z M165.7,238.7
							c0.7,0.4,1.4,1,2.2,1.5c2.3,1.7,5.2,3.8,8.3,4.4c0,0,8.7,0,12.9-1.7c0-3.5-3.6-7-8.9-8.5C175.5,233.1,168.9,233.4,165.7,238.7
							z"/>
					</g>
				</g>
				<g style="clip-path:url(#SVGID_2_);">
					<g>
						<path style="fill-rule:evenodd;clip-rule:evenodd;fill:#931E1B;" d="M180,234c3.8,2.2,9.2,4.1,9.5,9.1
							c4.3-0.5,8.3-1.6,11.2-3.6C197.2,232,188,231.4,180,234"/>
					</g>
				</g>
				<g style="clip-path:url(#SVGID_2_);">
					<g>
						<path style="fill:#671410;" d="M189.1,243.4l0-0.3c-0.2-4-4.1-6.1-7.5-7.9c-0.6-0.3-1.2-0.7-1.8-1l-0.6-0.4l0.7-0.2
							c7.4-2.4,17.3-2.4,21,5.6l0.1,0.2l-0.2,0.2c-2.7,1.9-6.6,3.2-11.3,3.7L189.1,243.4z M180.8,234.1c0.4,0.2,0.7,0.4,1.1,0.6
							c3.5,1.8,7.4,3.9,7.8,8.1c4.3-0.5,7.9-1.7,10.4-3.4C196.7,232.2,187.8,232,180.8,234.1z"/>
					</g>
				</g>
				<g style="opacity:0.6;clip-path:url(#SVGID_2_);">
					<g>
						<path style="fill-rule:evenodd;clip-rule:evenodd;fill:#671410;" d="M194.1,233.5c0,0-2.1,6.8-4.3,8.6
							c-2.2,1.9,0.5,1.3,0.5,1.3l3.4-2.7l3.5-3.6l0.3-1.8C197.4,235.3,195.7,234.2,194.1,233.5z"/>
					</g>
				</g>
			</g>
			<g>
				<g>
					<g>
						<path style="fill-rule:evenodd;clip-rule:evenodd;fill:#2D2C2C;" d="M140.6,156.8c1.3-1,2.1-2.7,1.7-4.4
							c-0.5-2.3-2.8-3.8-5.1-3.3l-7.8,1.7c-2.3,0.5-3.8,2.8-3.3,5.1c0.5,2.3,2.8,3.8,5.1,3.3l7.8-1.7
							C139.6,157.4,140.1,157.2,140.6,156.8"/>
					</g>
				</g>
				<g>
					<g>
						<path style="fill-rule:evenodd;clip-rule:evenodd;fill:#2D2C2C;" d="M173.1,151.1c-1.5-0.7-2.5-2.3-2.4-4.1
							c0.1-2.4,2.1-4.2,4.5-4l7.9,0.4c2.4,0.1,4.2,2.1,4,4.5c-0.1,2.4-2.1,4.2-4.5,4l-7.9-0.4C174.2,151.5,173.6,151.4,173.1,151.1"
							/>
					</g>
				</g>
				<g>
					<g>
						<path style="fill:#79591A;" d="M208.3,219.5c2.1-2.1,3.1-4,4.3-6.7c1.1-3,1.6-5.6,1.8-8.8c0.1-3.2-0.2-5.7-1.3-8.7
							c-1.1-2.8-2.3-4.7-4.7-6.5c0,0,0,0,0,0c-0.7-0.6-1.3-1.1-2.1-1.6l0,0c-1.5-0.9-2.7-1.5-4.3-2.1c0,0,0,0-0.1,0c0,0,0,0,0-0.1
							c0,0,0-0.1,0-0.1c0,0,0,0,0,0c1.5-1.1,2.5-2.3,3.4-4c1.9-3.9,2.6-7.2,2.7-11.5c0-4-0.7-7-2.2-10.6c-3.3-7.5-6.6-15-9.9-22.4
							c-1-2.3-2.2-3.8-4-5.5c-1.9-1.6-3.6-2.6-6-3.3c-1.6-0.4-2.8-0.6-4.4-0.7c-2.8,0-4.9,0.5-7.4,1.8c-2.5,1.3-4.1,2.8-5.8,5.1
							c-0.8,1.1-1.5,2.1-2.2,3.2c-0.6,0.8-1.2,1.6-1.9,2.3c-1.6,1.7-3.1,2.8-5.2,3.9c-3.1,1.5-5.7,2.2-9.1,2.2
							c-5.1-0.1-10-0.9-14.8-2.2c-2.6-0.7-4.9-1.5-7.3-2.7c-1.8-1-3.4-2-4.6-3.6c-0.7-1.1-1.5-2.2-2.2-3.2c-2.2-3-4.4-4.8-7.9-6.1
							c-3.5-1.2-6.4-1.3-10-0.3c-2.5,0.8-4.2,1.7-6.2,3.4c-1.9,1.7-3.1,3.3-4.2,5.6c-3.4,7.5-6.7,14.9-10.1,22.4
							c-1.7,4-2.4,7.2-2.4,11.5c0.1,4.2,0.9,7.3,2.6,11.2c0.8,1.6,1.7,2.8,3.1,4c1.4,1.1,2.6,1.8,4.2,2.3c1.7,0.5,3,0.6,4.8,0.5
							c1.8-0.2,3.2-0.7,4.8-1.6c2.6-1.5,5.1-3,7.7-4.5c-0.2,0.1-0.3,0.1-0.5,0.1c-0.2,0-0.3-0.1-0.5-0.2c-0.1-0.1-0.2-0.2-0.3-0.4
							c-0.1-0.2-0.1-0.3-0.1-0.5c0,0-1.6,8.4-2.3,11.7c-1.2,7.2-0.7,12.6,1.7,19.5c2.5,6.7,5.6,11.5,10.2,17c1.2,1.3,2.2,2.2,3.8,3
							c1.5,0.7,2.6,1,4.2,1.1c3,0.3,6,0,9,0.1c3.8,0.1,6.5,0.5,10,2.1c5,2.4,8.2,5.5,11.7,9.8c4.3,5,8.9,7.9,14.8,10.5
							c5.3,2.2,10.5,3.6,16.3,3c4.1-0.6,7.6-1.4,11.2-3.7c2.8-2,4.2-4,5.3-7.2c1.2-3.9,1.5-7.4,1.6-11.4c0.8-30.1-1.3,3.4-3.1,10.9
							c-0.7,3-2.4,4.5-4.9,6.3c-3.3,2.1-6.6,2.7-10.4,3.3c-5.4,0.5-10.3-1-15.2-3c-5.5-2.5-9.9-5.3-13.9-10
							c-3.8-4.6-7.2-7.9-12.5-10.5c-3.9-1.7-6.8-2.2-11-2.3c-2.9,0-5.9,0.2-8.7-0.1c-1.3-0.2-2.2-0.4-3.4-0.9
							c-1.3-0.6-2.1-1.3-3-2.4c-1.4-1.7-2.7-3.3-4-5.2c-2.5-3.7-4.2-6.9-5.8-11.1c-2.2-6.4-2.7-11.5-1.6-18.2
							c0.7-3.9,1.5-7.8,2.2-11.7c0.1-0.3,0-0.6-0.1-0.9c-0.1-0.3-0.3-0.5-0.6-0.7c-0.3-0.2-0.5-0.3-0.8-0.3c-0.3,0-0.6,0.1-0.9,0.2
							c-2.6,1.5-5.1,3-7.7,4.5c-1.3,0.7-2.3,1.1-3.8,1.3c-1.4,0.1-2.5,0-3.8-0.4c-1.3-0.4-2.3-0.9-3.4-1.8c-1.1-1-1.8-1.9-2.5-3.2
							c-1.6-3.5-2.3-6.4-2.4-10.2c0-3.9,0.6-6.9,2.1-10.5c3.3-7.5,6.6-14.9,9.9-22.4c0.9-2,2-3.4,3.6-4.9c1.7-1.5,3.2-2.3,5.4-3
							c3.2-0.8,5.7-0.8,8.8,0.2c3.1,1.2,5.1,2.7,7,5.3c0.1,0.1,2,2.9,2.2,3.2c1.5,2,3.2,3.1,5.4,4.2c2.6,1.3,4.9,2.1,7.7,2.8
							c5.1,1.3,10.1,2.1,15.3,2.2c3.7-0.1,6.5-0.8,9.9-2.5c3.3-1.8,5.4-3.7,7.6-6.8c0.7-1.1,1.5-2.2,2.2-3.2c1.5-2.1,3-3.4,5.2-4.6
							c2.3-1.1,4.1-1.6,6.7-1.7c1.5,0,2.6,0.2,4.1,0.6c2.2,0.7,3.7,1.5,5.5,3c1.7,1.5,2.8,2.9,3.7,5c3.4,7.5,6.7,14.9,10.1,22.4
							c1.5,3.5,2.1,6.4,2.2,10.2c0,0.1,0,0.7,0,0.8c-0.1,3.8-1,6.8-2.5,10.3c-0.8,1.6-1.7,2.6-3.1,3.7c-0.2,0.1-0.3,0.2-0.3,0.4
							c-0.1,0.2-0.1,0.3-0.1,0.5c0,0.2,0.1,0.3,0.2,0.5c0.1,0.2,0.3,0.2,0.4,0.3c1.6,0.5,2.7,1.1,4.1,2c0,0,0,0,0,0
							c0-0.1,1.8,1.4,2,1.5c0,0,0.1,0.1,0.1,0.1c2.3,1.7,3.5,3.5,4.5,6.1c1,2.9,1.3,5.4,1.3,8.4c-0.1,3.1-0.6,5.7-1.6,8.6
							c-1,2.6-2.1,4.7-4.2,6.7c-1.2,1.1-2.6,2.4-3.6,3.5c-0.3,0.3-0.7,0.6-1.1,0.8c-1.8,0.9-0.3,0.9,0.5,0.3
							c0.2-0.1,0.6-0.7,0.8-0.9c1.2-1.1,2.5-2.3,3.8-3.4C208.2,219.6,208.2,219.6,208.3,219.5"/>
					</g>
				</g>
				<g>
					<g>
						<path style="fill:#79591A;" d="M142.8,303.5c3.4-4.2,6.7-7.3,10.7-10.9c8.3-7,16.7-12.6,25.9-18.3c16.4-9.8,32.4-17.5,49.4-26
							c8-4.2,12.9-9.2,17.1-17.2c3.8-8.2,4.7-15,3.2-23.9c-4-19.6-9.1-36.3-16.3-54.9c-3.2-8-6.5-15.6-10.1-23.4
							c-6-12.5-12.2-24.2-19.3-36.2c-0.2-0.4-0.5-0.8-0.7-1.3c-5.6-8.7-11.7-13.9-21.3-17.7c-9.7-3.4-17.7-3.5-27.6-0.5
							c-5.2,1.7-10.4,3.4-15.5,5.1c-0.6,0.2-1.1,0.2-1.6,0c-5.2-1.6-10.4-3.3-15.6-5c-9.8-2.8-17.7-2.6-27.4,0.8
							c-9.4,3.9-15.4,9-20.8,17.7c0,0-0.3,0.6-0.4,0.6c-7.1,12.2-13.3,24.1-19.2,36.9c-12,26.5-19.9,49.6-25.7,78.2
							c-1.4,8.4-0.5,14.9,3.1,22.6c4,7.5,8.7,12.2,16.2,16.2c18.5,9.3,35.9,18.8,53.3,30c8.4,5.6,16.2,11.1,23.7,17.9
							c2.1,1.9,4.1,3.9,6.1,6c2.8,3.1,6.7,7.8,8,11.9c-0.1-0.1-0.1-0.2-0.3-0.2c-0.1-0.1-0.2-0.1-0.3-0.1c-0.1,0-0.2,0.1-0.3,0.1
							c-0.4,0.5-0.1,0.4,0.2,0.3c0,0,0.1,0,0.1,0c0,0,0.1,0,0.1,0.1c0,0,0,0.1,0,0.1c-5.7-7-8.3-9.8-15.5-15.9
							c-7.8-6.2-15.6-11.4-24-16.6c-17.5-10.6-35-19.8-53.4-28.7c-8.8-4.5-14.2-9.8-18.9-18.5c-4.3-8.9-5.4-16.5-3.8-26.3
							c2.3-12,5.1-23.1,8.7-34.8c4.9-15.5,10.7-29.9,17.4-44.7c6.1-12.9,12.4-25,19.6-37.3c0.1-0.2,0.3-0.4,0.4-0.6
							c6.1-9.8,13-15.6,23.7-19.9c10.9-3.8,19.9-4,30.9-0.7c5.2,1.7,10.4,3.4,15.5,5.1c-0.5-0.2-1-0.2-1.5,0c0,0,11.1-3.5,15.6-5
							c11.1-3.2,20-3,30.8,0.9c10.6,4.4,17.4,10.1,23.5,19.9c0,0,0.7,1.2,0.7,1.3c7,12.1,13.2,24,19.1,36.7
							c12.1,27,20,50.3,25.8,79.5c1.5,9.6,0.5,17-3.7,25.8c-4.6,8.5-9.9,13.8-18.5,18.2c-2.5,1.2-5.1,2.4-7.6,3.7
							c-14.4,6.9-28,13.7-41.9,21.7c-9.3,5.5-17.6,10.9-26,17.7C147.4,299.7,127.7,325.6,142.8,303.5"/>
					</g>
				</g>
			</g>
			<g>
				<g>
					<g>
						<path style="fill-rule:evenodd;clip-rule:evenodd;fill:#FFFFFF;" d="M177.3,152.5c-3.9,0.6-9.6,7.9-11,14.8
							c-1.5,6.9,4.9,14.8,11,14.8c6.1,0,13.2-7.4,11-14.8c-0.3-0.9-0.6-1.8-0.9-2.7C185,158.1,180.7,152,177.3,152.5"/>
					</g>
				</g>
				<g style="opacity:0.4;">
					<g>
						<path style="fill-rule:evenodd;clip-rule:evenodd;fill:#565250;" d="M175.7,161c3.7,0,6.7,3.8,6.7,8.4c0,4.7-3,8.4-6.7,8.4
							c-3.7,0-6.7-3.8-6.7-8.4C169.1,164.8,172,161,175.7,161"/>
					</g>
				</g>
				<g>
					<g>
						<path style="fill-rule:evenodd;clip-rule:evenodd;fill:#2D2C2C;" d="M175.7,162.4c3.1,0,5.6,3.2,5.6,7.1
							c0,3.9-2.5,7.1-5.6,7.1c-3.1,0-5.6-3.2-5.6-7.1C170.1,165.6,172.6,162.4,175.7,162.4"/>
					</g>
				</g>
				<g style="opacity:0.7;">
					<g>
						<path style="fill-rule:evenodd;clip-rule:evenodd;fill:#FFFFFF;" d="M182.1,163.4c0,1.3-1.1,2.4-2.4,2.4
							c-1.3,0-2.4-1.1-2.4-2.4c0-1.3,1.1-2.4,2.4-2.4C181.1,161,182.1,162.1,182.1,163.4z"/>
					</g>
				</g>
				<g style="opacity:6.000000e-02;">
					<g>
						<path style="fill-rule:evenodd;clip-rule:evenodd;fill:#565250;" d="M166.4,166.8c-1.7,7.3,4.8,15.3,10.9,15.3
							c6.1,0,13.3-7.6,10.9-15c0-0.1-0.3-1.5-0.7-2.1c-0.1-0.2-0.4-0.9-0.4-0.9s0.6,4.9,0,7.3c-2,7.1-9.2,11.6-14.9,8.2
							C165.6,175.4,166.7,165.6,166.4,166.8z"/>
					</g>
				</g>
			</g>
			<g>
				<g>
					<g>
						<path style="fill-rule:evenodd;clip-rule:evenodd;fill:#FFFFFF;" d="M138,160c-4,1.1-9.2,9.4-10.1,16.8
							c-0.8,7.4,6.8,15.1,13.2,14.5c6.4-0.6,13.1-9.2,10.1-16.8c-0.4-0.9-0.8-1.9-1.3-2.8C146.7,165.1,141.5,159.1,138,160"/>
					</g>
				</g>
				<g style="opacity:0.4;">
					<g>
						<path style="fill-rule:evenodd;clip-rule:evenodd;fill:#565250;" d="M137.2,169.2c3.9-0.4,7.4,3.3,7.9,8.2
							c0.5,4.9-2.3,9.2-6.1,9.6c-3.9,0.4-7.4-3.3-7.9-8.2C130.6,173.8,133.3,169.5,137.2,169.2"/>
					</g>
				</g>
				<g>
					<g>
						<path style="fill-rule:evenodd;clip-rule:evenodd;fill:#2D2C2C;" d="M137.4,170.6c3.3-0.3,6.3,2.8,6.7,6.9
							c0.4,4.2-1.9,7.8-5.2,8.1c-3.3,0.3-6.3-2.8-6.7-6.9C131.7,174.6,134.1,171,137.4,170.6"/>
					</g>
				</g>
				<g style="opacity:0.7;">
					<g>
						<path style="fill-rule:evenodd;clip-rule:evenodd;fill:#FFFFFF;" d="M144.2,171c0.1,1.4-0.9,2.7-2.3,2.8
							c-1.4,0.1-2.7-0.9-2.8-2.3c-0.1-1.4,0.9-2.7,2.3-2.8C142.8,168.6,144.1,169.6,144.2,171z"/>
					</g>
				</g>
				<g style="opacity:6.000000e-02;">
					<g>
						<path style="fill-rule:evenodd;clip-rule:evenodd;fill:#565250;" d="M128,176.3c-1,7.9,6.7,15.6,13.1,15
							c6.4-0.6,13.2-9.4,9.9-17c0-0.1-0.5-1.5-0.9-2.1c-0.2-0.2-0.5-1-0.5-1s1.2,5.1,0.7,7.7c-1.3,7.7-8.5,13.2-14.8,10.2
							C128,185.4,128.2,174.9,128,176.3z"/>
					</g>
				</g>
			</g>
			<g>
				<g>
					<path style="fill:#FFFFFF;" d="M200.5,195.2c0,0,4.5,1,3.1,3.1c-1.4,2.1-5.2,5.7-7.3,6.4C195.3,204.9,202.7,197.5,200.5,195.2z
						"/>
				</g>
			</g>
			<g style="opacity:0.3;">
				<g>
					<g>
						<path style="fill:#79591A;" d="M72.3,138.5c-2.6,2.2-4.8,4.7-6.8,7.4c-2,2.7-3.6,5.6-4.7,8.7c-1.2,3.1-1.9,6.3-2,9.6
							c-0.1,3.2,0.3,6.7,0.2,10c-0.1,3.4-0.3,6.8-1,10.1c-0.2,0.8-0.4,1.7-0.7,2.5c-0.3,0.8-0.6,1.6-1,2.4c-0.8,1.5-2,3-3.8,3.7
							c-0.4,0.1-0.9,0.3-1.3,0.3l-0.7,0.1c-0.2,0-0.4,0-0.6,0c-0.1,0-0.2,0-0.1,0c0,0,0,0,0.1,0c0,0,0,0,0.1-0.1
							c0.1-0.2,0-0.3,0-0.4c-0.1-0.1-0.1-0.1,0,0c0.1,0.1,0.3,0.1,0.5,0.2c0.4,0.1,0.8,0.2,1.2,0.3c1.6,0.3,3.3,0.6,4.9,0.7
							c1.7,0.1,3.3,0.2,5,0.1c0.8-0.1,1.7-0.2,2.5-0.4c0.8-0.2,1.6-0.6,2-1.3c-0.4,0.8-1.2,1.2-2,1.5c-0.8,0.3-1.6,0.4-2.5,0.5
							c-1.7,0.2-3.4,0.2-5.1,0.2c-1.7-0.1-3.4-0.2-5-0.5c-0.4-0.1-0.8-0.2-1.3-0.3c-0.2-0.1-0.4-0.1-0.7-0.3c-0.1,0-0.2-0.1-0.3-0.2
							c-0.1-0.1-0.1-0.3,0-0.5c0.1-0.1,0.1-0.1,0.1-0.2c0,0,0.1-0.1,0.1-0.1c0.2-0.1,0.3-0.1,0.5-0.1c0.2,0,0.5-0.1,0.7-0.1l0.6-0.1
							c0.4,0,0.7-0.2,1.1-0.3c1.4-0.6,2.4-1.9,3.1-3.3c0.4-0.7,0.6-1.5,0.9-2.2c0.2-0.8,0.5-1.6,0.6-2.4c0.7-3.2,0.9-6.5,0.9-9.9
							c0-0.8,0-1.7,0-2.5c0-0.8,0-1.7-0.1-2.5c-0.1-1.6-0.1-3.4-0.1-5.1c0.2-3.4,1-6.8,2.3-9.9c1.3-3.2,3.1-6.1,5.2-8.7
							C67.2,142.9,69.6,140.5,72.3,138.5z"/>
					</g>
				</g>
			</g>
			<g style="opacity:0.3;">
				<g>
					<g>
						<path style="fill:#79591A;" d="M212.4,133.3c0.9,2.8,1.8,5.6,2.9,8.3c1,2.7,2.1,5.5,3.3,8.1c1.2,2.7,2.6,5.2,4.1,7.7
							c0.8,1.2,1.6,2.4,2.6,3.4c1,1.1,2,2,3.2,2.7l1.3,0.7l-1.4,0.4c-1.6,0.5-3.3,0.8-4.9,0.8c-1.7,0.1-3.4-0.1-5-0.6
							c-1.6-0.5-3.1-1.5-4.1-2.8c-1.1-1.3-1.7-2.9-2-4.5c0.5,1.5,1.3,3,2.4,4.1c1.1,1.1,2.5,1.9,4,2.3c1.5,0.4,3.1,0.5,4.6,0.4
							c1.6-0.1,3.1-0.4,4.6-0.9l-0.1,1.1c-2.8-1.5-4.7-4-6.3-6.5c-1.6-2.5-2.9-5.2-4.1-7.9c-1.1-2.7-2.1-5.5-3-8.3
							c-0.4-1.4-0.8-2.8-1.2-4.3C213,136.2,212.6,134.8,212.4,133.3z"/>
					</g>
				</g>
			</g>
			<g>
				<g>
					<path style="fill-rule:evenodd;clip-rule:evenodd;fill:#E6C987;" d="M176.5,208.3c0,0,0,3.4,0.7,2.4
						C178,209.7,177.7,208.7,176.5,208.3z"/>
				</g>
			</g>
			<g>
				<g>
					<path style="fill-rule:evenodd;clip-rule:evenodd;fill:#E6C987;" d="M179,212.2c0,0-2,0.2-1.2,0.8
						C178.7,213.7,179.1,213.7,179,212.2z"/>
				</g>
			</g>
			<g>
				<g>
					<path style="fill-rule:evenodd;clip-rule:evenodd;fill:#E6C987;" d="M173.1,209.6c0,0-1,1.1,0,1.3
						C174.1,211,174.3,210,173.1,209.6z"/>
				</g>
			</g>
			<g>
				<g>
					<path style="fill-rule:evenodd;clip-rule:evenodd;fill:#E6C987;" d="M173.9,213.5c0,0-1.4,1.4,0,1.8c1.4,0.3,2.5,0.1,1.8-0.9
						C175,213.4,173.9,213.5,173.9,213.5z"/>
				</g>
			</g>
			<g>
				<g>
					<path style="fill-rule:evenodd;clip-rule:evenodd;fill:#E6C987;" d="M173.9,204.6c0,0-0.9,3.1,0,2.3
						C174.8,206.1,175.1,204.5,173.9,204.6z"/>
				</g>
			</g>
			<g>
				<g>
					<path style="fill-rule:evenodd;clip-rule:evenodd;fill:#E6C987;" d="M169.1,204.6c0,0-1.7,0.9-0.7,1.2c1,0.3,2.7-1.2,1.7-1.2"
						/>
				</g>
			</g>
			<g>
				<g>
					<path style="fill-rule:evenodd;clip-rule:evenodd;fill:#E6C987;" d="M177.8,203.9c0,0-1.5,0.6-0.4,1.3
						C178.5,206,178.7,204.8,177.8,203.9z"/>
				</g>
			</g>
			<g>
				<g>
					<path style="fill-rule:evenodd;clip-rule:evenodd;fill:#E6C987;" d="M207.6,204.7c0,0-1.4,0.1-0.6,1.1
						C207.9,206.9,207.6,204.7,207.6,204.7z"/>
				</g>
			</g>
			<g>
				<g>
					<path style="fill-rule:evenodd;clip-rule:evenodd;fill:#E6C987;" d="M208.5,200.7c0,0-2,0.7-0.9,1.5
						C208.9,202.9,209,201.8,208.5,200.7z"/>
				</g>
			</g>
			<g>
				<g>
					<path style="fill-rule:evenodd;clip-rule:evenodd;fill:#E6C987;" d="M209.9,203c0,0-1.5,0.5-1.1,1.6
						C209.2,205.8,209.9,203,209.9,203z"/>
				</g>
			</g>
			<g>
				<g>
					<path style="fill-rule:evenodd;clip-rule:evenodd;fill:#E6C987;" d="M206.8,203c0,0-2.3,0.5-1.6,1
						C205.8,204.5,206.9,204.2,206.8,203z"/>
				</g>
			</g>
			<g>
				<g>
					<path style="fill-rule:evenodd;clip-rule:evenodd;fill:#E6C987;" d="M208,198.3c0,0-2.1-0.9-0.8,0.8
						C208.5,200.7,208,198.3,208,198.3z"/>
				</g>
			</g>
			<g>
				<g>
					<path style="fill-rule:evenodd;clip-rule:evenodd;fill:#E6C987;" d="M171.9,198c0,0-1.9-0.1-1.5,0.8
						C170.8,199.7,172.1,200.2,171.9,198z"/>
				</g>
			</g>
			<g>
				<g>
					<path style="fill-rule:evenodd;clip-rule:evenodd;fill:#E6C987;" d="M174.7,199.9c0,0-0.8-0.3-0.8,0.8
						C174,201.9,174.8,201.1,174.7,199.9z"/>
				</g>
			</g>
			<g style="opacity:0.3;">
				<g>
					<g>
						<path style="fill:#79591A;" d="M91.6,226.2c0.6,1.1,1,2.3,1.4,3.5c0.4,1.2,0.7,2.4,0.9,3.6c0.4,2.5,0.6,5,0.4,7.5
							c-0.1,1.3-0.3,2.5-0.6,3.7c-0.3,1.2-0.7,2.4-1.2,3.6c-0.9,2.3-2.3,4.5-3.8,6.5l-0.6-1c1.3-0.3,2.7-0.7,4-1.1
							c1.3-0.4,2.7-0.8,4-1.3c1.3-0.5,2.6-1.1,3.7-1.8c0.6-0.4,1.1-0.8,1.6-1.3c0.4-0.5,0.8-1.1,0.7-1.9c0.2,0.7-0.1,1.5-0.5,2
							c-0.4,0.6-1,1.1-1.5,1.5c-1.1,0.9-2.4,1.6-3.7,2.2c-1.3,0.6-2.6,1.1-4,1.6c-1.4,0.4-2.7,0.9-4.1,1.2l-1.7,0.4l1.1-1.4
							c1.5-1.9,2.7-4,3.7-6.2c0.5-1.1,0.8-2.3,1.2-3.4c0.3-1.2,0.5-2.4,0.7-3.6c0.3-2.4,0.3-4.9,0-7.3
							C93,230.9,92.5,228.5,91.6,226.2z"/>
					</g>
				</g>
			</g>
			<g>
				<g>
					<g>
						<path style="fill-rule:evenodd;clip-rule:evenodd;fill:#F7B426;" d="M44,170.6c0,0-11.9,27.6-22.6,25.1
							c0,0,16.2,11.1,21.6,5.9"/>
					</g>
				</g>
				<g>
					<g>
						<path style="fill:#79591A;" d="M44,170.6c-0.5,1.4-1.1,2.8-1.7,4.1c-0.6,1.4-1.2,2.7-1.9,4c-1.4,2.7-2.9,5.2-4.6,7.7
							c-1.7,2.5-3.6,4.8-5.9,6.8c-1.2,1-2.4,1.9-3.9,2.5c-1.4,0.6-3.1,0.9-4.7,0.5l0.5-1.1c1.6,1.1,3.3,2.1,5,3.1
							c1.7,1,3.4,1.9,5.2,2.6c1.8,0.8,3.6,1.4,5.5,1.8c1,0.2,1.9,0.2,2.9,0.1c0.9-0.1,1.9-0.5,2.6-1.1c-0.7,0.7-1.6,1.2-2.6,1.4
							c-1,0.2-2,0.2-3,0.1c-2-0.2-3.9-0.8-5.8-1.4c-1.9-0.7-3.7-1.5-5.4-2.5c-1.8-0.9-3.5-1.9-5.1-3l-2.9-1.9l3.4,0.8
							c1.3,0.3,2.7,0.1,4-0.5c1.3-0.5,2.5-1.4,3.6-2.3c2.2-1.9,4.1-4.2,5.8-6.5c1.7-2.4,3.3-4.9,4.8-7.4
							C41.2,175.9,42.6,173.3,44,170.6z"/>
					</g>
				</g>
			</g>
			<g>
				<g>
					<g>
						<path style="fill-rule:evenodd;clip-rule:evenodd;fill:#E09B11;" d="M238.8,191.3c0,0,3.2,28.7,17.1,25.9
							c0,0-10.9,10.2-17.9-0.2"/>
					</g>
				</g>
				<g>
					<g>
						<path style="fill:#79591A;" d="M238.8,191.3c0.5,2.8,1.2,5.6,2,8.3c0.8,2.7,1.7,5.4,2.9,8c0.6,1.3,1.3,2.5,2,3.7
							c0.8,1.2,1.6,2.2,2.7,3.1c1,0.9,2.2,1.6,3.4,2c1.3,0.4,2.6,0.4,3.9,0.1l2.3-0.5l-1.8,1.5c-1.4,1.2-2.8,2.1-4.4,2.9
							c-1.6,0.8-3.3,1.3-5.1,1.5c-1.8,0.1-3.7-0.3-5.2-1.2c-1.5-0.9-2.7-2.3-3.6-3.8c1.1,1.4,2.3,2.6,3.8,3.3c1.5,0.8,3.2,1,4.8,0.8
							c1.6-0.2,3.2-0.8,4.7-1.6c1.5-0.8,2.9-1.8,4.1-2.9l0.6,1.1c-1.5,0.3-3.1,0.3-4.6-0.1c-1.5-0.4-2.8-1.3-3.9-2.3
							c-2.2-2-3.7-4.7-4.9-7.3c-1.1-2.7-2-5.4-2.6-8.3c-0.3-1.4-0.6-2.8-0.8-4.2C239.1,194.1,238.9,192.7,238.8,191.3z"/>
					</g>
				</g>
			</g>
			<g>
				<g>
					<g>
						<path style="fill-rule:evenodd;clip-rule:evenodd;fill:#FFEBB6;" d="M54.5,85.2c-12.4-2.6-22.1,10.5-16.1,21.6l12.9,21.3
							c25,1.9,41.9-19.9,19.5-37.1C67.3,88.4,64,87.2,54.5,85.2"/>
					</g>
				</g>
				<g>
					<g>
						<path style="fill:#79591A;" d="M54.5,85.2c-2.4-0.3-4.9-0.1-7.2,0.7c-2.3,0.8-4.4,2.1-6.1,3.8c-1.7,1.7-3,3.8-3.7,6
							c-0.7,2.3-0.8,4.7-0.3,7c0.2,1.1,0.7,2.3,1.2,3.3c0.2,0.5,0.6,1,0.9,1.6l1,1.6l3.8,6.2l7.6,12.5l-0.5-0.3
							c3.2,0.2,6.3,0.1,9.4-0.4c3.1-0.5,6.2-1.4,8.9-2.9c2.8-1.4,5.3-3.4,7.1-5.9c1.8-2.5,2.8-5.6,2.8-8.7c0-3.1-0.9-6.2-2.4-9
							c-1.5-2.8-3.5-5.3-5.7-7.6c-1.1-1.1-2.3-2.3-3.6-3.1c-1.3-0.9-2.7-1.6-4.2-2.1C60.7,86.7,57.6,85.9,54.5,85.2
							c3.2,0.6,6.3,1.2,9.4,2.2c1.5,0.5,3,1.2,4.4,2c1.4,0.9,2.6,2,3.7,3.1c2.3,2.3,4.4,4.8,6,7.6c1.6,2.8,2.7,6.1,2.7,9.4
							c0,3.3-1,6.6-3,9.4c-1.9,2.7-4.6,4.8-7.5,6.4c-2.9,1.5-6.1,2.5-9.3,3c-3.2,0.5-6.5,0.6-9.7,0.3l-0.3,0l-0.2-0.3l-7.5-12.5
							l-3.7-6.3l-0.9-1.6c-0.3-0.5-0.6-1-0.9-1.6c-0.5-1.1-1-2.3-1.2-3.6c-0.5-2.5-0.4-5,0.4-7.4c0.8-2.4,2.2-4.5,4-6.2
							c1.8-1.7,4-3,6.4-3.7C49.6,84.8,52.1,84.8,54.5,85.2z"/>
					</g>
				</g>
			</g>
		</g>
	</g>
	<g>
		<g>
			<path style="fill-rule:evenodd;clip-rule:evenodd;fill:#1B7733;" d="M127.8-1c0,0,31.1,0.2,52.5,57.2
				c-27.2,1.2-60.9,4.7-60.9,4.7S91.7,76.6,87.8,78.6c-3.9,1.9-11.8,6.5-11.8,6.5s-4.8-19.9-2.7-35.2C75.6,34.7,87.7,1.4,127.8-1"/>
		</g>
		<g>
			<path style="fill-rule:evenodd;clip-rule:evenodd;fill:#1B7733;" d="M190.7,70.3c7.1,10.8,12.6,20.6,10.5,24.5
				c0,0,0.6-2.8-3.1-5.8c-3.4-2.7-10.4-5.1-23.7-4.5c-20.1,0.9-46.5,18.4-57.7,22.8c-8.5,3.3-10.4,1.1-15.4-3.9
				C95.9,98.1,86.7,79,86.7,79s26.5-16.1,42.2-22.7c15.7-6.6,19.2-6,24.3-6.2c11.1-0.3,19.4,1.6,27.1,6.1
				C180.3,56.2,186.1,63.4,190.7,70.3"/>
		</g>
		<g>
			<path style="fill-rule:evenodd;clip-rule:evenodd;fill:#82BA26;" d="M89.5,24.4c1.7-12.6,13.8-19.1,13.8-19.1
				c6.7-3.5,14.9-5.9,24.7-6.5c0,0,44.3-2.3,52.3,57.4c0,0-9.4-3.6-28.9-1.6c-26.5,2.8-51.7,17.3-57.3,20.1
				C90.6,64.7,87.5,39.3,89.5,24.4"/>
		</g>
		<g>
			<path style="fill:#E20613;" d="M151.7,22c1.4,7.3-3.4,14.3-10.7,15.7c-7.3,1.4-14.3-3.4-15.7-10.7c-1.4-7.3,3.4-14.3,10.7-15.7
				C143.3,9.9,150.3,14.7,151.7,22"/>
		</g>
		<g>
			<path style="fill:#FFFFFF;" d="M149.4,22.4c1.1,6-2.8,11.8-8.9,12.9c-6,1.1-11.8-2.8-13-8.8c-1.1-6,2.8-11.8,8.9-12.9
				C142.4,12.5,148.2,16.4,149.4,22.4"/>
		</g>
		<g>
			<path style="fill:#82BA26;" d="M133.2,24.9L133.2,24.9c0.1,0.4,0.1,0.5,0.5,0.2c2.4-1.5,4.8-3.1,7.1-4.6c0.3-0.2,0.3-0.3,0-0.5
				c-1.4-1-3.6-1.1-5.3,0C133.7,21.1,132.9,22.7,133.2,24.9 M146.3,20.6c-0.8,0.5-1.6,1-2.3,1.5c-2.9,1.9-5.9,3.8-8.8,5.7
				c-0.3,0.2-0.3,0.3-0.1,0.5c1,1,2.2,1.5,3.4,1.5c0.5,0,1.1-0.1,1.6-0.3c0.2-0.1,0.3-0.1,0.5-0.2c0.1-0.1,0.2-0.1,0.4-0.2
				c-0.1,0.3-0.2,0.6-0.3,0.8c-0.3,1-0.7,2-1,3c-0.1,0.3-0.2,0.4-0.6,0.5c-2.3,0.2-4.4-0.3-6.2-1.8c-1.9-1.6-3.2-3.7-3.5-6.2
				c-0.4-3,0.6-5.5,2.9-7.5c1.4-1.2,3-2,4.8-2.3c2.3-0.4,4.5,0.2,6.3,1.6c1.1,0.8,1.9,1.9,2.6,3.1C146.2,20.5,146.2,20.5,146.3,20.6
				z"/>
		</g>
		<g>
			<path style="fill:#1B1515;" d="M143.8,46.6l0.6,0c0,0.1,0.1,0.1,0.1,0.1c0.1,0,0.1,0,0.2,0c0.1,0,0.2-0.1,0.3-0.1
				c0,0,0.1-0.1,0.1-0.1c0,0,0-0.1,0-0.2L145,46c-0.1,0.2-0.3,0.4-0.5,0.4c-0.3,0-0.5,0-0.7-0.2c-0.1-0.1-0.2-0.3-0.3-0.6
				c-0.1-0.3,0-0.6,0.1-0.8c0.1-0.2,0.3-0.3,0.5-0.4c0.2,0,0.4,0,0.6,0.2l0-0.3l0.5-0.1l0.3,1.7c0,0.2,0.1,0.4,0,0.5
				c0,0.1-0.1,0.2-0.1,0.3c-0.1,0.1-0.1,0.1-0.2,0.2c-0.1,0.1-0.2,0.1-0.4,0.1c-0.3,0.1-0.6,0.1-0.7,0
				C143.9,47,143.8,46.8,143.8,46.6C143.8,46.7,143.8,46.6,143.8,46.6z M144,45.4c0,0.2,0.1,0.3,0.2,0.4c0.1,0.1,0.2,0.1,0.3,0.1
				c0.1,0,0.2-0.1,0.3-0.2c0.1-0.1,0.1-0.3,0-0.4c0-0.2-0.1-0.3-0.2-0.4c-0.1-0.1-0.2-0.1-0.3-0.1c-0.1,0-0.2,0.1-0.3,0.2
				C144,45.1,144,45.3,144,45.4z"/>
			<path style="fill:#1B1515;" d="M146.2,44.7l-0.5,0c0-0.2,0.1-0.3,0.2-0.4c0.1-0.1,0.3-0.2,0.5-0.2c0.2,0,0.4,0,0.5,0
				c0.1,0,0.2,0.1,0.3,0.2c0.1,0.1,0.1,0.2,0.1,0.4l0.1,0.6c0,0.2,0.1,0.3,0.1,0.4c0,0.1,0.1,0.2,0.1,0.2l-0.5,0.1
				c0,0,0-0.1-0.1-0.1c0,0,0,0,0-0.1c-0.1,0.1-0.2,0.2-0.2,0.2c-0.1,0.1-0.2,0.1-0.3,0.1c-0.2,0-0.4,0-0.5-0.1
				c-0.1-0.1-0.2-0.2-0.2-0.4c0-0.1,0-0.2,0-0.3c0-0.1,0.1-0.2,0.2-0.2c0.1-0.1,0.2-0.1,0.4-0.2c0.2-0.1,0.4-0.2,0.5-0.2l0,0
				c0-0.1-0.1-0.2-0.1-0.2c-0.1,0-0.1,0-0.3,0c-0.1,0-0.2,0-0.2,0.1C146.2,44.6,146.2,44.6,146.2,44.7z M146.9,45
				c-0.1,0-0.2,0.1-0.3,0.1c-0.1,0.1-0.2,0.1-0.3,0.1c-0.1,0.1-0.1,0.1-0.1,0.2c0,0.1,0.1,0.1,0.1,0.2c0.1,0,0.1,0.1,0.2,0
				c0.1,0,0.2-0.1,0.2-0.1c0.1-0.1,0.1-0.1,0.1-0.2C147,45.3,147,45.2,146.9,45L146.9,45z"/>
			<path style="fill:#1B1515;" d="M147.8,45.2l0.5-0.2c0,0.1,0.1,0.2,0.2,0.2s0.2,0,0.3,0c0.1,0,0.2-0.1,0.3-0.1c0,0,0.1-0.1,0-0.1
				c0,0,0-0.1-0.1-0.1c0,0-0.1,0-0.2,0c-0.4,0-0.7,0-0.8-0.1c-0.2-0.1-0.3-0.2-0.3-0.4c0-0.2,0-0.3,0.1-0.4c0.1-0.1,0.3-0.2,0.6-0.3
				c0.3,0,0.5,0,0.6,0c0.1,0.1,0.3,0.2,0.3,0.3l-0.5,0.2c0-0.1-0.1-0.1-0.1-0.1c-0.1,0-0.1,0-0.3,0c-0.1,0-0.2,0.1-0.3,0.1
				c0,0,0,0.1,0,0.1c0,0,0,0.1,0.1,0.1c0.1,0,0.2,0,0.5,0c0.3,0,0.5,0,0.6,0.1c0.1,0.1,0.2,0.2,0.2,0.3c0,0.2,0,0.3-0.1,0.5
				c-0.1,0.1-0.3,0.3-0.6,0.3c-0.3,0-0.5,0-0.6,0C148,45.5,147.9,45.3,147.8,45.2z"/>
			<path style="fill:#1B1515;" d="M149.8,44.4c0-0.2,0-0.3,0-0.5c0.1-0.2,0.1-0.3,0.3-0.4c0.1-0.1,0.3-0.2,0.5-0.2
				c0.3-0.1,0.5,0,0.8,0.1c0.2,0.1,0.4,0.4,0.4,0.6c0.1,0.3,0,0.5-0.1,0.7c-0.2,0.2-0.4,0.4-0.6,0.4c-0.2,0-0.3,0-0.5,0
				c-0.2,0-0.3-0.1-0.4-0.3C149.9,44.7,149.9,44.6,149.8,44.4z M150.4,44.3c0,0.2,0.1,0.3,0.2,0.4c0.1,0.1,0.2,0.1,0.4,0.1
				c0.1,0,0.2-0.1,0.3-0.2c0.1-0.1,0.1-0.3,0.1-0.4c0-0.2-0.1-0.3-0.2-0.4c-0.1-0.1-0.2-0.1-0.4-0.1c-0.1,0-0.2,0.1-0.3,0.2
				C150.3,44,150.3,44.1,150.4,44.3z"/>
			<path style="fill:#1B1515;" d="M152.4,44.9l-0.5-2.5l0.5-0.1l0.5,2.5L152.4,44.9z"/>
			<path style="fill:#1B1515;" d="M153,42.6l-0.1-0.5l0.5-0.1l0.1,0.5L153,42.6z M153.4,44.7l-0.3-1.8l0.5-0.1l0.3,1.8L153.4,44.7z"
				/>
			<path style="fill:#1B1515;" d="M156.1,44.2l-0.5,0.1l-0.2-0.9c0-0.2-0.1-0.3-0.1-0.4c0-0.1-0.1-0.1-0.1-0.1c-0.1,0-0.1,0-0.2,0
				c-0.1,0-0.2,0.1-0.2,0.1c-0.1,0.1-0.1,0.1-0.1,0.2c0,0.1,0,0.2,0,0.4l0.2,0.8l-0.5,0.1l-0.3-1.8l0.5-0.1l0.1,0.3
				c0.1-0.2,0.3-0.4,0.6-0.4c0.1,0,0.2,0,0.3,0c0.1,0,0.2,0.1,0.2,0.1c0.1,0.1,0.1,0.1,0.1,0.2c0,0.1,0.1,0.2,0.1,0.3L156.1,44.2z"
				/>
			<path style="fill:#1B1515;" d="M157.6,43.3l0.5,0c0,0.2-0.1,0.3-0.2,0.5c-0.1,0.1-0.3,0.2-0.5,0.2c-0.3,0.1-0.6,0-0.8-0.2
				c-0.2-0.1-0.3-0.3-0.3-0.6c-0.1-0.3,0-0.6,0.1-0.8c0.1-0.2,0.3-0.3,0.6-0.4c0.3-0.1,0.5,0,0.7,0.1s0.3,0.4,0.4,0.8l-1.3,0.2
				c0,0.1,0.1,0.3,0.2,0.3c0.1,0.1,0.2,0.1,0.3,0.1c0.1,0,0.1,0,0.2-0.1C157.6,43.4,157.6,43.4,157.6,43.3z M157.6,42.8
				c0-0.1-0.1-0.2-0.2-0.3c-0.1-0.1-0.2-0.1-0.3-0.1c-0.1,0-0.2,0.1-0.3,0.2c-0.1,0.1-0.1,0.2,0,0.3L157.6,42.8z"/>
			<path style="fill:#1B1515;" d="M159.2,43.6l-0.5,0.1l-0.3-1.8l0.5-0.1l0,0.3c0.1-0.1,0.1-0.2,0.2-0.3c0.1-0.1,0.1-0.1,0.2-0.1
				c0.1,0,0.2,0,0.3,0l-0.1,0.5c-0.1,0-0.2,0-0.3,0c-0.1,0-0.1,0-0.2,0.1s-0.1,0.1-0.1,0.2c0,0.1,0,0.3,0.1,0.6L159.2,43.6z"/>
			<path style="fill:#1B1515;" d="M160.2,42.1l-0.5,0c0-0.2,0.1-0.3,0.2-0.4c0.1-0.1,0.3-0.2,0.5-0.2c0.2,0,0.4,0,0.5,0
				c0.1,0,0.2,0.1,0.3,0.2c0.1,0.1,0.1,0.2,0.1,0.4l0.1,0.6c0,0.2,0.1,0.3,0.1,0.4c0,0.1,0.1,0.2,0.1,0.2l-0.5,0.1
				c0,0,0-0.1-0.1-0.1c0,0,0,0,0-0.1c-0.1,0.1-0.2,0.2-0.2,0.2c-0.1,0.1-0.2,0.1-0.3,0.1c-0.2,0-0.4,0-0.5-0.1
				c-0.1-0.1-0.2-0.2-0.2-0.4c0-0.1,0-0.2,0-0.3c0-0.1,0.1-0.2,0.2-0.2c0.1-0.1,0.2-0.1,0.4-0.2c0.2-0.1,0.4-0.2,0.5-0.2l0,0
				c0-0.1-0.1-0.2-0.1-0.2c-0.1,0-0.1,0-0.3,0c-0.1,0-0.2,0-0.2,0.1C160.3,41.9,160.3,42,160.2,42.1z M161,42.3
				c-0.1,0-0.2,0.1-0.3,0.1c-0.1,0.1-0.2,0.1-0.3,0.1c-0.1,0.1-0.1,0.1-0.1,0.2c0,0.1,0.1,0.1,0.1,0.2c0.1,0,0.1,0.1,0.2,0
				c0.1,0,0.2-0.1,0.2-0.1c0.1-0.1,0.1-0.1,0.1-0.2C161,42.6,161,42.5,161,42.3L161,42.3z"/>
			<path style="fill:#1B1515;" d="M161.9,42.5l0.5-0.2c0,0.1,0.1,0.2,0.2,0.2c0.1,0,0.2,0,0.3,0c0.1,0,0.2-0.1,0.3-0.1
				c0,0,0.1-0.1,0-0.1c0,0,0-0.1-0.1-0.1c0,0-0.1,0-0.2,0c-0.4,0-0.7,0-0.8-0.1c-0.2-0.1-0.3-0.2-0.3-0.4c0-0.2,0-0.3,0.1-0.4
				c0.1-0.1,0.3-0.2,0.6-0.3c0.3,0,0.5,0,0.6,0c0.1,0.1,0.3,0.2,0.3,0.3l-0.5,0.2c0-0.1-0.1-0.1-0.1-0.1c-0.1,0-0.1,0-0.3,0
				c-0.1,0-0.2,0.1-0.3,0.1c0,0,0,0.1,0,0.1c0,0,0,0.1,0.1,0.1c0.1,0,0.2,0,0.5,0s0.5,0,0.6,0.1c0.1,0.1,0.2,0.2,0.2,0.3
				c0,0.2,0,0.3-0.1,0.5c-0.1,0.1-0.3,0.3-0.6,0.3c-0.3,0-0.5,0-0.6,0C162.1,42.8,162,42.7,161.9,42.5z"/>
		</g>
		<g>
			<path style="fill:#1A1414;" d="M121.7,44.8L121.7,44.8l3.3-0.6c-0.1-0.5-0.3-0.8-0.6-1.1c-0.4-0.3-0.8-0.4-1.3-0.4
				c-0.5,0.1-0.8,0.3-1.1,0.7C121.7,43.8,121.6,44.3,121.7,44.8 M125.3,45.8l1-0.1c0,0.6-0.3,1.2-0.6,1.6c-0.4,0.4-0.9,0.7-1.6,0.8
				c-0.9,0.2-1.6,0-2.2-0.4c-0.6-0.4-1-1.1-1.2-2.1c-0.2-1-0.1-1.8,0.3-2.5c0.4-0.6,1-1.1,1.8-1.2c0.8-0.1,1.5,0,2.1,0.5
				c0.6,0.4,1,1.2,1.2,2.1c0,0.1,0,0.1,0,0.3l-4.4,0.8c0.2,0.6,0.4,1.1,0.8,1.4c0.4,0.3,0.8,0.4,1.3,0.3c0.4-0.1,0.7-0.2,0.9-0.5
				C125,46.6,125.2,46.3,125.3,45.8z"/>
		</g>
		<g>
			<path style="fill:#1A1414;" d="M131.7,46.5l-0.2-0.9c-0.4,0.8-0.9,1.2-1.8,1.4c-0.4,0.1-0.7,0.1-1.1,0c-0.3-0.1-0.6-0.2-0.8-0.4
				c-0.2-0.2-0.3-0.4-0.5-0.7c-0.1-0.2-0.2-0.5-0.2-0.9l-0.7-3.6l1-0.2l0.6,3.2c0.1,0.5,0.2,0.9,0.3,1c0.1,0.2,0.3,0.4,0.5,0.5
				c0.2,0.1,0.5,0.1,0.8,0.1c0.3-0.1,0.6-0.2,0.8-0.4c0.2-0.2,0.4-0.4,0.5-0.7c0.1-0.3,0.1-0.7,0-1.2l-0.6-3.1l1-0.2l1.1,5.9
				L131.7,46.5z"/>
		</g>
		<g>
			<path style="fill:#1A1414;" d="M138.5,41l-1.5,0.6c-0.1-0.3-0.3-0.5-0.5-0.6c-0.2-0.1-0.5-0.2-0.8-0.1c-0.4,0.1-0.7,0.3-0.9,0.6
				c-0.2,0.3-0.2,0.8-0.1,1.4c0.1,0.7,0.3,1.2,0.6,1.4c0.3,0.2,0.6,0.3,1,0.2c0.3-0.1,0.5-0.2,0.7-0.4c0.2-0.2,0.2-0.5,0.2-0.9
				l1.6,0c0,0.7-0.2,1.3-0.6,1.8c-0.4,0.4-1,0.7-1.7,0.9c-0.9,0.2-1.6,0-2.2-0.4c-0.6-0.4-1-1.1-1.2-2.1c-0.2-1-0.1-1.8,0.3-2.4
				c0.4-0.6,1.1-1,1.9-1.2c0.7-0.1,1.3-0.1,1.8,0.1C137.8,40,138.2,40.4,138.5,41"/>
		</g>
		<g>
			<path style="fill:#1A1414;" d="M141.1,41.7L141.1,41.7c0.1,0.6,0.3,1,0.7,1.3c0.3,0.3,0.7,0.3,1.1,0.3c0.4-0.1,0.7-0.3,0.9-0.7
				c0.2-0.4,0.3-0.8,0.2-1.4c-0.1-0.6-0.3-1-0.7-1.2c-0.3-0.3-0.7-0.3-1.1-0.3c-0.4,0.1-0.7,0.3-0.9,0.7
				C141.1,40.7,141,41.1,141.1,41.7 M139.5,41.9c-0.1-0.5-0.1-1,0.1-1.6c0.2-0.5,0.5-1,0.9-1.3c0.4-0.3,0.9-0.6,1.5-0.7
				c0.9-0.2,1.7,0,2.4,0.4c0.7,0.5,1.1,1.1,1.3,2c0.2,0.9,0,1.7-0.5,2.4c-0.5,0.7-1.1,1.1-2,1.3c-0.5,0.1-1.1,0.1-1.6-0.1
				c-0.5-0.1-1-0.4-1.3-0.9C139.9,43.2,139.6,42.6,139.5,41.9z"/>
		</g>
		<g>
			<path style="fill:#1A1414;" d="M146.2,37.7l1.4-0.3l0.2,0.8c0.4-0.7,1-1.1,1.7-1.3c0.4-0.1,0.7-0.1,1,0c0.3,0.1,0.6,0.3,0.8,0.6
				c0.2-0.4,0.4-0.6,0.7-0.9c0.3-0.2,0.6-0.3,0.9-0.4c0.4-0.1,0.8-0.1,1.2,0.1c0.3,0.1,0.6,0.3,0.8,0.6c0.2,0.2,0.3,0.6,0.4,1.2
				l0.7,3.7l-1.6,0.3l-0.6-3.3c-0.1-0.6-0.2-0.9-0.4-1.1c-0.2-0.2-0.4-0.3-0.7-0.2c-0.2,0-0.4,0.1-0.6,0.3c-0.2,0.2-0.3,0.4-0.3,0.7
				c0,0.3,0,0.7,0.1,1.2l0.5,2.8l-1.6,0.3l-0.6-3.2c-0.1-0.6-0.2-0.9-0.3-1.1c-0.1-0.2-0.2-0.3-0.3-0.3c-0.1-0.1-0.3-0.1-0.5,0
				c-0.2,0-0.4,0.2-0.6,0.3c-0.2,0.2-0.3,0.4-0.3,0.6c0,0.3,0,0.7,0.1,1.2l0.5,2.8l-1.6,0.3L146.2,37.7z"/>
		</g>
		<g>
			<path style="fill:#1A1414;" d="M158.5,38.3L158.5,38.3c0.1,0.6,0.3,1,0.5,1.3c0.3,0.4,0.7,0.5,1.2,0.4c0.3-0.1,0.6-0.3,0.8-0.6
				c0.2-0.3,0.2-0.8,0.1-1.5c-0.1-0.7-0.3-1.1-0.6-1.4c-0.3-0.2-0.6-0.3-1-0.3c-0.4,0.1-0.7,0.3-0.9,0.6
				C158.5,37.2,158.4,37.7,158.5,38.3 M157.5,41.6l-1.5-8.1l1.6-0.3l0.6,2.9c0.4-0.6,0.9-1,1.6-1.1c0.7-0.1,1.4,0,1.9,0.4
				c0.6,0.4,0.9,1.1,1.1,2.1c0.2,1,0.1,1.8-0.3,2.4c-0.4,0.6-0.9,1-1.6,1.1c-0.3,0.1-0.7,0-1.1-0.1c-0.4-0.1-0.7-0.3-1-0.6l0.2,0.9
				L157.5,41.6z"/>
		</g>
		<g>
			<path style="fill:#E20D13;" d="M139.8,33.3c0,0,2.7-0.5,4.3-2.1c0,0-1.1-2.6-1.5-3.4c-0.3,0.4-0.7,0.8-1.3,1.1L139.8,33.3z"/>
		</g>
		<g>
			<path style="fill:#1B7733;" d="M142.7,27.7c0.3,0.6,1.5,3.5,1.6,3.5c0.8-0.5,2.2-2.4,2.2-2.4l-3.1-2.2
				C143.2,26.9,143,27.3,142.7,27.7"/>
		</g>
		<g>
			<path style="fill:#1D1D1B;" d="M143.8,25.2c0,0,0,0.1-0.1,0.2c0,0.2-0.1,0.6-0.3,1c0.4,0.3,3.1,2.2,3.1,2.2
				c1-1.4,1.1-3.9,1.1-3.9L143.8,25.2z"/>
		</g>
	</g>
</g>
<g>
	<path style="fill:#FFEC00;" d="M298.7,94h-16.1v-1.5c0-2.5,0.3-4.6,0.9-6.2c0.6-1.6,1.6-3,2.8-4.4c1.2-1.3,4-3.6,8.3-6.9
		c2.3-1.7,3.4-3.3,3.4-4.8c0-1.4-0.5-2.6-1.4-3.4c-0.9-0.8-2.3-1.2-4.2-1.2c-2,0-3.7,0.6-5,1.9c-1.3,1.2-2.2,3.4-2.5,6.5l-16.5-1.9
		c0.6-5.6,2.8-10.1,6.6-13.6c3.8-3.4,9.7-5.1,17.7-5.1c6.2,0,11.2,1.2,15,3.6c5.2,3.2,7.7,7.5,7.7,12.9c0,2.2-0.7,4.4-2,6.5
		c-1.3,2.1-4,4.6-8.2,7.6c-2.9,2.1-4.7,3.8-5.4,5.1C299,90.3,298.7,91.9,298.7,94z M282,98h17.3v14.1H282V98z"/>
</g>
</svg>
