<?xml version="1.0" encoding="utf-8"?>
<!-- Generator: Adobe Illustrator 24.0.2, SVG Export Plug-In . SVG Version: 6.00 Build 0)  -->
<svg version="1.1" id="Capa_1" xmlns="http://www.w3.org/2000/svg" xmlns:xlink="http://www.w3.org/1999/xlink" x="0px" y="0px"
	 viewBox="0 0 273.2 194.3" style="enable-background:new 0 0 273.2 194.3;" xml:space="preserve">
<style type="text/css">
	.st0{fill:#FFFFFF;}
	.st1{fill:#EBF3E5;}
	.st2{fill:#81BD5F;}
	.st3{fill:#BAD9A7;}
	.st4{fill:#E2EED9;}
	.st5{fill:#EB6F71;}
</style>
<g>
	<g>
		<polygon class="st0" points="4.9,93.4 63.1,40.2 116.4,47.8 159.7,1.4 270.4,93.5 220.4,143.2 167.9,140.8 104.4,192.9 		"/>
	</g>
	<g>
		<polyline class="st1" points="168,140.8 104.5,192.9 5,93.4 63.2,40.2 		"/>
		<path class="st2" d="M104.5,194.3c-0.4,0-0.7-0.1-1-0.4L4,94.4c-0.3-0.3-0.4-0.6-0.4-1s0.2-0.7,0.5-1l58.2-53.1
			c0.6-0.5,1.5-0.5,2,0.1c0.5,0.6,0.5,1.5-0.1,2L7,93.4l97.5,97.6l62.5-51.3c0.6-0.5,1.5-0.4,2,0.2c0.5,0.6,0.4,1.5-0.2,2L105.3,194
			C105.1,194.2,104.8,194.3,104.5,194.3z"/>
	</g>
	<g>
		<polyline class="st1" points="116.4,47.8 159.7,1.4 270.4,93.5 220.4,143.2 		"/>
		<path class="st2" d="M220.4,144.6c-0.4,0-0.7-0.1-1-0.4c-0.5-0.6-0.5-1.4,0-2l48.9-48.6L159.9,3.3l-42.5,45.4
			c-0.5,0.6-1.4,0.6-2,0.1s-0.6-1.4-0.1-2l43.4-46.4c0.5-0.5,1.4-0.6,1.9-0.1l110.7,92.1c0.3,0.3,0.5,0.6,0.5,1s-0.1,0.8-0.4,1.1
			l-50,49.7C221.1,144.4,220.8,144.6,220.4,144.6z"/>
	</g>
	<g>
		<polygon class="st3" points="72.5,159.6 120,94.8 126.1,100.6 78.3,165.4 		"/>
	</g>
	<g>
		<polygon class="st4" points="120,94.8 126.1,100.6 169.5,96.6 163.2,90.8 		"/>
	</g>
	<g>
		<polygon class="st3" points="169.5,96.7 186.2,75.2 268.7,93.9 269,93.5 250.6,78.3 192.4,64.2 203.4,39 196.7,33.4 183.2,62.3 
			117.1,48.4 128.9,59.2 177.9,72.8 163.1,90.8 		"/>
	</g>
	<g>
		<g>
			<path class="st2" d="M24.8,76.7c-0.4,0-0.8-0.2-1-0.5c-0.5-0.6-0.5-1.5,0.1-2L40,59.5c0.6-0.5,1.5-0.5,2,0.1s0.5,1.5-0.1,2
				L25.8,76.3C25.4,76.6,25.1,76.7,24.8,76.7z"/>
		</g>
		<g>
			<path class="st2" d="M104.4,194.3c-0.4,0-0.7-0.1-1-0.4L3.9,94.4c-0.3-0.3-0.4-0.6-0.4-1s0.2-0.7,0.5-1l14-12.8
				c0.6-0.5,1.5-0.5,2,0.1s0.5,1.5-0.1,2l-13,11.7l97.5,97.6l62.5-51.3c0.3-0.2,0.6-0.3,1-0.3l51.9,2.3l48.5-48.1L159.9,3.3
				l-42.5,45.4c-0.3,0.3-0.8,0.5-1.2,0.4l-52.6-7.4L47.5,56.4c-0.6,0.5-1.5,0.5-2-0.1s-0.5-1.5,0.1-2l16.6-15.1
				c0.3-0.3,0.7-0.4,1.1-0.4l52.5,7.4l42.9-45.8c0.5-0.5,1.4-0.6,1.9-0.1l110.7,92.1c0.3,0.3,0.5,0.6,0.5,1s-0.1,0.8-0.4,1.1
				l-50,49.7c-0.3,0.3-0.7,0.4-1.1,0.4l-52-2.3l-63.1,51.8C105,194.2,104.7,194.3,104.4,194.3z"/>
		</g>
	</g>
	<g>
		<path class="st5" d="M138.7,18.4c15.7,0,28.5,12.8,28.5,28.5c0,19.3-22.9,38.8-28.5,43.2c-5.6-4.5-28.5-24.3-28.5-43.2
			C110.2,31.2,123,18.4,138.7,18.4z M138.7,64.2c9.5,0,17.3-7.8,17.3-17.3s-7.8-17.3-17.3-17.3s-17.3,7.8-17.3,17.3
			S129.1,64.2,138.7,64.2z"/>
		<path class="st5" d="M138.7,31.6c8.4,0,15.3,6.8,15.3,15.3c0,8.4-6.8,15.3-15.3,15.3c-8.4,0-15.3-6.8-15.3-15.3
			C123.4,38.5,130.3,31.6,138.7,31.6z M151.9,46.9c0-7.3-5.9-13.2-13.2-13.2s-13.2,5.9-13.2,13.2c0,7.3,5.9,13.2,13.2,13.2
			S151.9,54.2,151.9,46.9z"/>
		<path class="st5" d="M138.7,64.2c-9.5,0-17.3-7.8-17.3-17.3s7.8-17.3,17.3-17.3S156,37.3,156,46.9S148.2,64.2,138.7,64.2z
			 M138.7,31.6c-8.4,0-15.3,6.8-15.3,15.3c0,8.4,6.8,15.3,15.3,15.3c8.4,0,15.3-6.8,15.3-15.3C154,38.5,147.1,31.6,138.7,31.6z"/>
		<path class="st5" d="M110.2,46.9c0,18.9,22.9,38.7,28.5,43.2c5.6-4.5,28.5-23.9,28.5-43.2c0-15.7-12.8-28.5-28.5-28.5
			S110.2,31.2,110.2,46.9z M169.2,46.9c0,23.2-30.5,45.8-30.5,45.8s-30.5-23.1-30.5-45.8c0-16.6,13.7-30.5,30.5-30.5
			S169.2,30,169.2,46.9z"/>
		<path class="st5" d="M138.7,16.4c-16.9,0-30.5,13.9-30.5,30.5c0,22.7,30.5,45.8,30.5,45.8s30.5-22.6,30.5-45.8
			C169.2,30,155.6,16.4,138.7,16.4z M138.7,94.8c-0.4,0-0.9-0.1-1.2-0.4c-1.3-1-31.3-24-31.3-47.5c0-18,14.6-32.6,32.6-32.6
			s32.5,14.6,32.5,32.6c0,24-30.1,46.5-31.4,47.5C139.5,94.6,139.1,94.8,138.7,94.8z"/>
	</g>
</g>
</svg>
