<?xml version="1.0" encoding="utf-8"?>
<!-- Generator: Adobe Illustrator 24.0.2, SVG Export Plug-In . SVG Version: 6.00 Build 0)  -->
<svg version="1.1" id="Capa_1" xmlns="http://www.w3.org/2000/svg" xmlns:xlink="http://www.w3.org/1999/xlink" x="0px" y="0px"
	 viewBox="0 0 283.5 283.5" style="enable-background:new 0 0 283.5 283.5;" xml:space="preserve">
<style type="text/css">
	.st0{opacity:0.3;fill:url(#SVGID_1_);}
	.st1{fill:url(#SVGID_2_);}
	.st2{fill:url(#SVGID_3_);}
	.st3{fill:#01612D;}
	.st4{fill:url(#SVGID_4_);}
	.st5{fill:#75B851;}
	.st6{fill:#4FA533;}
	.st7{fill:#00833E;}
	.st8{fill:#B2DFF5;}
	.st9{fill:#EAF5FB;}
	.st10{opacity:0.63;}
	.st11{fill:#FFFFFF;}
	.st12{fill:#BFD787;}
	.st13{fill:#E6353A;}
	.st14{fill:url(#SVGID_5_);}
	.st15{fill:#A91917;}
	.st16{fill:#545454;}
	.st17{fill:#404040;}
	.st18{fill:#EEEDED;}
	.st19{fill:#484747;}
	.st20{fill:#D9D9D9;}
	.st21{fill:#E95561;}
	.st22{fill:#EBF3E5;}
	.st23{fill:#81BD5F;}
	.st24{fill:#BAD9A7;}
	.st25{fill:#E2EED9;}
	.st26{fill:#EB6F71;}
	.st27{fill:#C4DEB5;}
	.st28{fill:#CEE3C0;}
	.st29{fill:#ECECEC;}
	.st30{fill:#E54345;}
	.st31{clip-path:url(#SVGID_19_);fill:#EE8B8C;}
	.st32{clip-path:url(#SVGID_19_);fill:#EE8A8B;}
	.st33{clip-path:url(#SVGID_19_);fill:#EE898A;}
	.st34{clip-path:url(#SVGID_19_);fill:#EE8889;}
	.st35{clip-path:url(#SVGID_19_);fill:#EE8788;}
	.st36{clip-path:url(#SVGID_19_);fill:#EE8687;}
	.st37{clip-path:url(#SVGID_19_);fill:#EE8586;}
	.st38{clip-path:url(#SVGID_19_);fill:#ED8485;}
	.st39{clip-path:url(#SVGID_19_);fill:#ED8384;}
	.st40{clip-path:url(#SVGID_19_);fill:#ED8283;}
	.st41{clip-path:url(#SVGID_19_);fill:#ED8182;}
	.st42{clip-path:url(#SVGID_19_);fill:#ED8081;}
	.st43{clip-path:url(#SVGID_19_);fill:#ED7F80;}
	.st44{clip-path:url(#SVGID_19_);fill:#ED7E7F;}
	.st45{clip-path:url(#SVGID_19_);fill:#ED7C7F;}
	.st46{clip-path:url(#SVGID_19_);fill:#ED7B7E;}
	.st47{clip-path:url(#SVGID_19_);fill:#ED7A7D;}
	.st48{clip-path:url(#SVGID_19_);fill:#ED797C;}
	.st49{clip-path:url(#SVGID_19_);fill:#ED787B;}
	.st50{clip-path:url(#SVGID_19_);fill:#ED777A;}
	.st51{clip-path:url(#SVGID_19_);fill:#ED7679;}
	.st52{clip-path:url(#SVGID_19_);fill:#EC7578;}
	.st53{clip-path:url(#SVGID_19_);fill:#EC7477;}
	.st54{clip-path:url(#SVGID_19_);fill:#EC7376;}
	.st55{clip-path:url(#SVGID_19_);fill:#EC7275;}
	.st56{clip-path:url(#SVGID_19_);fill:#EC7174;}
	.st57{clip-path:url(#SVGID_19_);fill:#EC7073;}
	.st58{clip-path:url(#SVGID_19_);fill:#EC6F72;}
	.st59{clip-path:url(#SVGID_19_);fill:#EC6E71;}
	.st60{clip-path:url(#SVGID_19_);fill:#EC6D70;}
	.st61{clip-path:url(#SVGID_19_);fill:#EC6C6F;}
	.st62{clip-path:url(#SVGID_19_);fill:#EB6B6E;}
	.st63{clip-path:url(#SVGID_19_);fill:#EB6A6D;}
	.st64{clip-path:url(#SVGID_19_);fill:#EB696C;}
	.st65{clip-path:url(#SVGID_19_);fill:#EB686B;}
	.st66{clip-path:url(#SVGID_19_);fill:#EB676A;}
	.st67{clip-path:url(#SVGID_19_);fill:#EB6669;}
	.st68{clip-path:url(#SVGID_19_);fill:#EB6568;}
	.st69{clip-path:url(#SVGID_19_);fill:#EA6467;}
	.st70{clip-path:url(#SVGID_19_);fill:#EA6366;}
	.st71{clip-path:url(#SVGID_19_);fill:#EA6265;}
	.st72{clip-path:url(#SVGID_19_);fill:#EA6164;}
	.st73{clip-path:url(#SVGID_19_);fill:#EA6063;}
	.st74{clip-path:url(#SVGID_19_);fill:#EA5F62;}
	.st75{clip-path:url(#SVGID_19_);fill:#EA5E61;}
	.st76{clip-path:url(#SVGID_19_);fill:#E95D60;}
	.st77{clip-path:url(#SVGID_19_);fill:#E95C5F;}
	.st78{clip-path:url(#SVGID_19_);fill:#E95B5E;}
	.st79{clip-path:url(#SVGID_19_);fill:#E95A5D;}
	.st80{clip-path:url(#SVGID_19_);fill:#E9595C;}
	.st81{clip-path:url(#SVGID_19_);fill:#E9585B;}
	.st82{clip-path:url(#SVGID_19_);fill:#E9575A;}
	.st83{clip-path:url(#SVGID_19_);fill:#E85659;}
	.st84{clip-path:url(#SVGID_19_);fill:#E85558;}
	.st85{clip-path:url(#SVGID_19_);fill:#E85457;}
	.st86{clip-path:url(#SVGID_19_);fill:#E85357;}
	.st87{clip-path:url(#SVGID_19_);fill:#E85156;}
	.st88{clip-path:url(#SVGID_19_);fill:#E85055;}
	.st89{clip-path:url(#SVGID_19_);fill:#E84F54;}
	.st90{clip-path:url(#SVGID_19_);fill:#E74E53;}
	.st91{clip-path:url(#SVGID_19_);fill:#E74D52;}
	.st92{clip-path:url(#SVGID_19_);fill:#E74C51;}
	.st93{clip-path:url(#SVGID_19_);fill:#E74B50;}
	.st94{clip-path:url(#SVGID_19_);fill:#E74A4F;}
	.st95{clip-path:url(#SVGID_19_);fill:#E7494E;}
	.st96{clip-path:url(#SVGID_19_);fill:#E7484D;}
	.st97{clip-path:url(#SVGID_19_);fill:#E6474C;}
	.st98{clip-path:url(#SVGID_19_);fill:#E6464B;}
	.st99{clip-path:url(#SVGID_19_);fill:#E6454A;}
	.st100{clip-path:url(#SVGID_19_);fill:#E64449;}
	.st101{clip-path:url(#SVGID_19_);fill:#E64348;}
	.st102{clip-path:url(#SVGID_19_);fill:#E64247;}
	.st103{clip-path:url(#SVGID_19_);fill:#E64146;}
	.st104{clip-path:url(#SVGID_19_);fill:#E54045;}
	.st105{clip-path:url(#SVGID_19_);fill:#E53F44;}
	.st106{clip-path:url(#SVGID_19_);fill:#E53E43;}
	.st107{clip-path:url(#SVGID_19_);fill:#E53D42;}
	.st108{clip-path:url(#SVGID_19_);fill:#E53C41;}
	.st109{clip-path:url(#SVGID_19_);fill:#E53B40;}
	.st110{clip-path:url(#SVGID_19_);fill:#E53A3F;}
	.st111{clip-path:url(#SVGID_19_);fill:#E4393E;}
	.st112{clip-path:url(#SVGID_19_);fill:#E4383D;}
	.st113{clip-path:url(#SVGID_19_);fill:#E4373C;}
	.st114{clip-path:url(#SVGID_19_);fill:#E4363B;}
	.st115{clip-path:url(#SVGID_21_);fill:#EE8B8C;}
	.st116{clip-path:url(#SVGID_21_);fill:#EE8A8B;}
	.st117{clip-path:url(#SVGID_21_);fill:#EE898A;}
	.st118{clip-path:url(#SVGID_21_);fill:#EE8889;}
	.st119{clip-path:url(#SVGID_21_);fill:#EE8788;}
	.st120{clip-path:url(#SVGID_21_);fill:#EE8687;}
	.st121{clip-path:url(#SVGID_21_);fill:#EE8586;}
	.st122{clip-path:url(#SVGID_21_);fill:#ED8485;}
	.st123{clip-path:url(#SVGID_21_);fill:#ED8384;}
	.st124{clip-path:url(#SVGID_21_);fill:#ED8283;}
	.st125{clip-path:url(#SVGID_21_);fill:#ED8182;}
	.st126{clip-path:url(#SVGID_21_);fill:#ED8081;}
	.st127{clip-path:url(#SVGID_21_);fill:#ED7F80;}
	.st128{clip-path:url(#SVGID_21_);fill:#ED7E7F;}
	.st129{clip-path:url(#SVGID_21_);fill:#ED7C7F;}
	.st130{clip-path:url(#SVGID_21_);fill:#ED7B7E;}
	.st131{clip-path:url(#SVGID_21_);fill:#ED7A7D;}
	.st132{clip-path:url(#SVGID_21_);fill:#ED797C;}
	.st133{clip-path:url(#SVGID_21_);fill:#ED787B;}
	.st134{clip-path:url(#SVGID_21_);fill:#ED777A;}
	.st135{clip-path:url(#SVGID_21_);fill:#ED7679;}
	.st136{clip-path:url(#SVGID_21_);fill:#EC7578;}
	.st137{clip-path:url(#SVGID_21_);fill:#EC7477;}
	.st138{clip-path:url(#SVGID_21_);fill:#EC7376;}
	.st139{clip-path:url(#SVGID_21_);fill:#EC7275;}
	.st140{clip-path:url(#SVGID_21_);fill:#EC7174;}
	.st141{clip-path:url(#SVGID_21_);fill:#EC7073;}
	.st142{clip-path:url(#SVGID_21_);fill:#EC6F72;}
	.st143{clip-path:url(#SVGID_21_);fill:#EC6E71;}
	.st144{clip-path:url(#SVGID_21_);fill:#EC6D70;}
	.st145{clip-path:url(#SVGID_21_);fill:#EC6C6F;}
	.st146{clip-path:url(#SVGID_21_);fill:#EB6B6E;}
	.st147{clip-path:url(#SVGID_21_);fill:#EB6A6D;}
	.st148{clip-path:url(#SVGID_21_);fill:#EB696C;}
	.st149{clip-path:url(#SVGID_21_);fill:#EB686B;}
	.st150{clip-path:url(#SVGID_21_);fill:#EB676A;}
	.st151{clip-path:url(#SVGID_21_);fill:#EB6669;}
	.st152{clip-path:url(#SVGID_21_);fill:#EB6568;}
	.st153{clip-path:url(#SVGID_21_);fill:#EA6467;}
	.st154{clip-path:url(#SVGID_21_);fill:#EA6366;}
	.st155{clip-path:url(#SVGID_21_);fill:#EA6265;}
	.st156{clip-path:url(#SVGID_21_);fill:#EA6164;}
	.st157{clip-path:url(#SVGID_21_);fill:#EA6063;}
	.st158{clip-path:url(#SVGID_21_);fill:#EA5F62;}
	.st159{clip-path:url(#SVGID_21_);fill:#EA5E61;}
	.st160{clip-path:url(#SVGID_21_);fill:#E95D60;}
	.st161{clip-path:url(#SVGID_21_);fill:#E95C5F;}
	.st162{clip-path:url(#SVGID_21_);fill:#E95B5E;}
	.st163{clip-path:url(#SVGID_21_);fill:#E95A5D;}
	.st164{clip-path:url(#SVGID_21_);fill:#E9595C;}
	.st165{clip-path:url(#SVGID_21_);fill:#E9585B;}
	.st166{clip-path:url(#SVGID_21_);fill:#E9575A;}
	.st167{clip-path:url(#SVGID_21_);fill:#E85659;}
	.st168{clip-path:url(#SVGID_21_);fill:#E85558;}
	.st169{clip-path:url(#SVGID_21_);fill:#E85457;}
	.st170{clip-path:url(#SVGID_21_);fill:#E85357;}
	.st171{clip-path:url(#SVGID_21_);fill:#E85156;}
	.st172{clip-path:url(#SVGID_21_);fill:#E85055;}
	.st173{clip-path:url(#SVGID_21_);fill:#E84F54;}
	.st174{clip-path:url(#SVGID_21_);fill:#E74E53;}
	.st175{clip-path:url(#SVGID_21_);fill:#E74D52;}
	.st176{clip-path:url(#SVGID_21_);fill:#E74C51;}
	.st177{clip-path:url(#SVGID_21_);fill:#E74B50;}
	.st178{clip-path:url(#SVGID_21_);fill:#E74A4F;}
	.st179{clip-path:url(#SVGID_21_);fill:#E7494E;}
	.st180{clip-path:url(#SVGID_21_);fill:#E7484D;}
	.st181{clip-path:url(#SVGID_21_);fill:#E6474C;}
	.st182{clip-path:url(#SVGID_21_);fill:#E6464B;}
	.st183{clip-path:url(#SVGID_21_);fill:#E6454A;}
	.st184{clip-path:url(#SVGID_21_);fill:#E64449;}
	.st185{clip-path:url(#SVGID_21_);fill:#E64348;}
	.st186{clip-path:url(#SVGID_21_);fill:#E64247;}
	.st187{clip-path:url(#SVGID_21_);fill:#E64146;}
	.st188{clip-path:url(#SVGID_21_);fill:#E54045;}
	.st189{clip-path:url(#SVGID_21_);fill:#E53F44;}
	.st190{clip-path:url(#SVGID_21_);fill:#E53E43;}
	.st191{clip-path:url(#SVGID_21_);fill:#E53D42;}
	.st192{clip-path:url(#SVGID_21_);fill:#E53C41;}
	.st193{clip-path:url(#SVGID_21_);fill:#E53B40;}
	.st194{clip-path:url(#SVGID_21_);fill:#E53A3F;}
	.st195{clip-path:url(#SVGID_21_);fill:#E4393E;}
	.st196{clip-path:url(#SVGID_21_);fill:#E4383D;}
	.st197{clip-path:url(#SVGID_21_);fill:#E4373C;}
	.st198{clip-path:url(#SVGID_21_);fill:#E4363B;}
	.st199{fill:#82BD60;}
	.st200{clip-path:url(#SVGID_23_);fill:#EE8B8C;}
	.st201{clip-path:url(#SVGID_23_);fill:#EE8A8B;}
	.st202{clip-path:url(#SVGID_23_);fill:#EE898A;}
	.st203{clip-path:url(#SVGID_23_);fill:#EE8889;}
	.st204{clip-path:url(#SVGID_23_);fill:#EE8788;}
	.st205{clip-path:url(#SVGID_23_);fill:#EE8687;}
	.st206{clip-path:url(#SVGID_23_);fill:#EE8586;}
	.st207{clip-path:url(#SVGID_23_);fill:#ED8485;}
	.st208{clip-path:url(#SVGID_23_);fill:#ED8384;}
	.st209{clip-path:url(#SVGID_23_);fill:#ED8283;}
	.st210{clip-path:url(#SVGID_23_);fill:#ED8182;}
	.st211{clip-path:url(#SVGID_23_);fill:#ED8081;}
	.st212{clip-path:url(#SVGID_23_);fill:#ED7F80;}
	.st213{clip-path:url(#SVGID_23_);fill:#ED7E7F;}
	.st214{clip-path:url(#SVGID_23_);fill:#ED7C7F;}
	.st215{clip-path:url(#SVGID_23_);fill:#ED7B7E;}
	.st216{clip-path:url(#SVGID_23_);fill:#ED7A7D;}
	.st217{clip-path:url(#SVGID_23_);fill:#ED797C;}
	.st218{clip-path:url(#SVGID_23_);fill:#ED787B;}
	.st219{clip-path:url(#SVGID_23_);fill:#ED777A;}
	.st220{clip-path:url(#SVGID_23_);fill:#ED7679;}
	.st221{clip-path:url(#SVGID_23_);fill:#EC7578;}
	.st222{clip-path:url(#SVGID_23_);fill:#EC7477;}
	.st223{clip-path:url(#SVGID_23_);fill:#EC7376;}
	.st224{clip-path:url(#SVGID_23_);fill:#EC7275;}
	.st225{clip-path:url(#SVGID_23_);fill:#EC7174;}
	.st226{clip-path:url(#SVGID_23_);fill:#EC7073;}
	.st227{clip-path:url(#SVGID_23_);fill:#EC6F72;}
	.st228{clip-path:url(#SVGID_23_);fill:#EC6E71;}
	.st229{clip-path:url(#SVGID_23_);fill:#EB6D70;}
	.st230{clip-path:url(#SVGID_23_);fill:#EB6C6F;}
	.st231{clip-path:url(#SVGID_23_);fill:#EB6B6E;}
	.st232{clip-path:url(#SVGID_23_);fill:#EB6A6D;}
	.st233{clip-path:url(#SVGID_23_);fill:#EA696C;}
	.st234{clip-path:url(#SVGID_23_);fill:#EA686B;}
	.st235{clip-path:url(#SVGID_23_);fill:#EA6669;}
	.st236{clip-path:url(#SVGID_23_);fill:#E96568;}
	.st237{clip-path:url(#SVGID_23_);fill:#E96467;}
	.st238{clip-path:url(#SVGID_23_);fill:#E96366;}
	.st239{clip-path:url(#SVGID_23_);fill:#E96265;}
	.st240{clip-path:url(#SVGID_23_);fill:#E86164;}
	.st241{clip-path:url(#SVGID_23_);fill:#E86063;}
	.st242{fill:#EE8B8C;}
	.st243{clip-path:url(#SVGID_25_);fill:#EE8B8C;}
	.st244{clip-path:url(#SVGID_25_);fill:#EE8A8B;}
	.st245{clip-path:url(#SVGID_25_);fill:#EE898A;}
	.st246{clip-path:url(#SVGID_25_);fill:#EE8889;}
	.st247{clip-path:url(#SVGID_25_);fill:#EE8788;}
	.st248{clip-path:url(#SVGID_25_);fill:#EE8687;}
	.st249{clip-path:url(#SVGID_25_);fill:#EE8586;}
	.st250{clip-path:url(#SVGID_25_);fill:#ED8485;}
	.st251{clip-path:url(#SVGID_25_);fill:#ED8384;}
	.st252{clip-path:url(#SVGID_25_);fill:#ED8283;}
	.st253{clip-path:url(#SVGID_25_);fill:#ED8182;}
	.st254{clip-path:url(#SVGID_25_);fill:#ED8081;}
	.st255{clip-path:url(#SVGID_25_);fill:#ED7F80;}
	.st256{clip-path:url(#SVGID_25_);fill:#ED7E7F;}
	.st257{clip-path:url(#SVGID_25_);fill:#ED7C7F;}
	.st258{clip-path:url(#SVGID_25_);fill:#ED7B7E;}
	.st259{clip-path:url(#SVGID_25_);fill:#ED7A7D;}
	.st260{clip-path:url(#SVGID_25_);fill:#ED797C;}
	.st261{clip-path:url(#SVGID_25_);fill:#ED787B;}
	.st262{clip-path:url(#SVGID_25_);fill:#ED777A;}
	.st263{clip-path:url(#SVGID_25_);fill:#ED7679;}
	.st264{clip-path:url(#SVGID_25_);fill:#EC7578;}
	.st265{clip-path:url(#SVGID_25_);fill:#EC7477;}
	.st266{clip-path:url(#SVGID_25_);fill:#EC7376;}
	.st267{clip-path:url(#SVGID_25_);fill:#EC7275;}
	.st268{clip-path:url(#SVGID_25_);fill:#EC7174;}
	.st269{clip-path:url(#SVGID_25_);fill:#EC7073;}
	.st270{clip-path:url(#SVGID_25_);fill:#EC6F72;}
	.st271{clip-path:url(#SVGID_25_);fill:#EC6E71;}
	.st272{clip-path:url(#SVGID_25_);fill:#EB6D70;}
	.st273{clip-path:url(#SVGID_25_);fill:#EB6C6F;}
	.st274{clip-path:url(#SVGID_25_);fill:#EB6B6E;}
	.st275{clip-path:url(#SVGID_25_);fill:#EB6A6D;}
	.st276{clip-path:url(#SVGID_25_);fill:#EA696C;}
	.st277{clip-path:url(#SVGID_25_);fill:#EA686B;}
	.st278{clip-path:url(#SVGID_25_);fill:#EA6669;}
	.st279{clip-path:url(#SVGID_25_);fill:#E96568;}
	.st280{clip-path:url(#SVGID_25_);fill:#E96467;}
	.st281{clip-path:url(#SVGID_25_);fill:#E96366;}
	.st282{clip-path:url(#SVGID_25_);fill:#E96265;}
	.st283{clip-path:url(#SVGID_25_);fill:#E86164;}
	.st284{clip-path:url(#SVGID_25_);fill:#E86063;}
	.st285{clip-path:url(#SVGID_27_);fill:#EE8B8C;}
	.st286{clip-path:url(#SVGID_27_);fill:#EE8A8B;}
	.st287{clip-path:url(#SVGID_27_);fill:#EE898A;}
	.st288{clip-path:url(#SVGID_27_);fill:#EE8889;}
	.st289{clip-path:url(#SVGID_27_);fill:#EE8788;}
	.st290{clip-path:url(#SVGID_27_);fill:#EE8687;}
	.st291{clip-path:url(#SVGID_27_);fill:#EE8586;}
	.st292{clip-path:url(#SVGID_27_);fill:#ED8485;}
	.st293{clip-path:url(#SVGID_27_);fill:#ED8384;}
	.st294{clip-path:url(#SVGID_27_);fill:#ED8283;}
	.st295{clip-path:url(#SVGID_27_);fill:#ED8182;}
	.st296{clip-path:url(#SVGID_27_);fill:#ED8081;}
	.st297{clip-path:url(#SVGID_27_);fill:#ED7F80;}
	.st298{clip-path:url(#SVGID_27_);fill:#ED7E7F;}
	.st299{clip-path:url(#SVGID_27_);fill:#ED7C7F;}
	.st300{clip-path:url(#SVGID_27_);fill:#ED7B7E;}
	.st301{clip-path:url(#SVGID_27_);fill:#ED7A7D;}
	.st302{clip-path:url(#SVGID_27_);fill:#ED797C;}
	.st303{clip-path:url(#SVGID_27_);fill:#ED787B;}
	.st304{clip-path:url(#SVGID_27_);fill:#ED777A;}
	.st305{clip-path:url(#SVGID_27_);fill:#ED7679;}
	.st306{clip-path:url(#SVGID_27_);fill:#EC7578;}
	.st307{clip-path:url(#SVGID_27_);fill:#EC7477;}
	.st308{clip-path:url(#SVGID_27_);fill:#EC7376;}
	.st309{clip-path:url(#SVGID_27_);fill:#EC7275;}
	.st310{clip-path:url(#SVGID_27_);fill:#EC7174;}
	.st311{clip-path:url(#SVGID_27_);fill:#EC7073;}
	.st312{clip-path:url(#SVGID_27_);fill:#EC6F72;}
	.st313{clip-path:url(#SVGID_27_);fill:#EC6E71;}
	.st314{clip-path:url(#SVGID_27_);fill:#EB6D70;}
	.st315{clip-path:url(#SVGID_27_);fill:#EB6C6F;}
	.st316{clip-path:url(#SVGID_27_);fill:#EB6B6E;}
	.st317{clip-path:url(#SVGID_27_);fill:#EB6A6D;}
	.st318{clip-path:url(#SVGID_27_);fill:#EA696C;}
	.st319{clip-path:url(#SVGID_27_);fill:#EA686B;}
	.st320{clip-path:url(#SVGID_27_);fill:#EA6669;}
	.st321{clip-path:url(#SVGID_27_);fill:#E96568;}
	.st322{clip-path:url(#SVGID_27_);fill:#E96467;}
	.st323{clip-path:url(#SVGID_27_);fill:#E96366;}
	.st324{clip-path:url(#SVGID_27_);fill:#E96265;}
	.st325{clip-path:url(#SVGID_27_);fill:#E86164;}
	.st326{clip-path:url(#SVGID_27_);fill:#E86063;}
	.st327{clip-path:url(#SVGID_29_);fill:#EE8B8C;}
	.st328{clip-path:url(#SVGID_29_);fill:#EE8A8B;}
	.st329{clip-path:url(#SVGID_29_);fill:#EE898A;}
	.st330{clip-path:url(#SVGID_29_);fill:#EE8889;}
	.st331{clip-path:url(#SVGID_29_);fill:#EE8788;}
	.st332{clip-path:url(#SVGID_29_);fill:#EE8687;}
	.st333{clip-path:url(#SVGID_29_);fill:#EE8586;}
	.st334{clip-path:url(#SVGID_29_);fill:#ED8485;}
	.st335{clip-path:url(#SVGID_29_);fill:#ED8384;}
	.st336{clip-path:url(#SVGID_29_);fill:#ED8283;}
	.st337{clip-path:url(#SVGID_29_);fill:#ED8182;}
	.st338{clip-path:url(#SVGID_29_);fill:#ED8081;}
	.st339{clip-path:url(#SVGID_29_);fill:#ED7F80;}
	.st340{clip-path:url(#SVGID_29_);fill:#ED7E7F;}
	.st341{clip-path:url(#SVGID_29_);fill:#ED7C7F;}
	.st342{clip-path:url(#SVGID_29_);fill:#ED7B7E;}
	.st343{clip-path:url(#SVGID_29_);fill:#ED7A7D;}
	.st344{clip-path:url(#SVGID_29_);fill:#ED797C;}
	.st345{clip-path:url(#SVGID_29_);fill:#ED787B;}
	.st346{clip-path:url(#SVGID_29_);fill:#ED777A;}
	.st347{clip-path:url(#SVGID_29_);fill:#ED7679;}
	.st348{clip-path:url(#SVGID_29_);fill:#EC7578;}
	.st349{clip-path:url(#SVGID_29_);fill:#EC7477;}
	.st350{clip-path:url(#SVGID_29_);fill:#EC7376;}
	.st351{clip-path:url(#SVGID_29_);fill:#EC7275;}
	.st352{clip-path:url(#SVGID_29_);fill:#EC7174;}
	.st353{clip-path:url(#SVGID_29_);fill:#EC7073;}
	.st354{clip-path:url(#SVGID_29_);fill:#EC6F72;}
	.st355{clip-path:url(#SVGID_29_);fill:#EC6E71;}
	.st356{clip-path:url(#SVGID_29_);fill:#EB6D70;}
	.st357{clip-path:url(#SVGID_29_);fill:#EB6C6F;}
	.st358{clip-path:url(#SVGID_29_);fill:#EB6B6E;}
	.st359{clip-path:url(#SVGID_29_);fill:#EB6A6D;}
	.st360{clip-path:url(#SVGID_29_);fill:#EA696C;}
	.st361{clip-path:url(#SVGID_29_);fill:#EA686B;}
	.st362{clip-path:url(#SVGID_29_);fill:#EA6669;}
	.st363{clip-path:url(#SVGID_29_);fill:#E96568;}
	.st364{clip-path:url(#SVGID_29_);fill:#E96467;}
	.st365{clip-path:url(#SVGID_29_);fill:#E96366;}
	.st366{clip-path:url(#SVGID_29_);fill:#E96265;}
	.st367{clip-path:url(#SVGID_29_);fill:#E86164;}
	.st368{clip-path:url(#SVGID_29_);fill:#E86063;}
	.st369{fill:#EEF4E6;}
	.st370{fill:#7CB147;}
</style>
<g>
	<g>
		<g>
			<path class="st11" d="M10.5,231.9l179.7,46.9c2.8,0.7,5.7-0.9,6.4-3.8l59.3-227.2c0.7-2.8-0.9-5.7-3.8-6.4L117,6.1
				c-1.3-0.4-2.8-0.2-4,0.6L56.9,39.5c-1.2,0.7-2.1,1.9-2.4,3.2L6.8,225.5C6.1,228.3,7.7,231.2,10.5,231.9z"/>
			<path class="st23" d="M191.6,281.2c-0.6,0-1.3-0.1-1.9-0.2L10,234l0,0c-4-1-6.4-5.1-5.3-9.1L52.3,42.2c0.5-1.9,1.8-3.6,3.5-4.6
				l56.1-32.9c1.7-1,3.7-1.3,5.7-0.8l135.2,35.3c4,1,6.4,5.1,5.3,9.1l-59.3,227.2c-0.5,1.9-1.7,3.6-3.5,4.6
				C194.2,280.8,192.9,281.2,191.6,281.2z M11.1,229.7l179.7,46.9c0.8,0.2,1.6,0.1,2.3-0.3c0.7-0.4,1.2-1.1,1.4-1.8l59.3-227.2
				c0.4-1.6-0.5-3.3-2.2-3.7L116.4,8.3c-0.8-0.2-1.6-0.1-2.3,0.3L58,41.5c-0.7,0.4-1.2,1.1-1.4,1.8L8.9,226
				C8.5,227.7,9.5,229.3,11.1,229.7L11.1,229.7z"/>
		</g>
		<g>
			<path class="st369" d="M114.9,5.6l-11.1,42.5c-0.7,2.7-3.5,4.4-6.3,3.7L55,40.6L114.9,5.6z"/>
			<path class="st23" d="M98.8,54.2c-0.6,0-1.3-0.1-1.9-0.2L54.5,42.8c-0.9-0.2-1.5-1-1.6-1.9c-0.1-0.9,0.3-1.8,1.1-2.2l59.9-35.1
				c0.8-0.5,1.7-0.4,2.5,0.1c0.7,0.5,1,1.5,0.8,2.3l-11.1,42.5c-0.5,1.9-1.7,3.5-3.4,4.5C101.4,53.8,100.1,54.2,98.8,54.2z
				 M60.8,39.9l37.3,9.8c0.7,0.2,1.5,0.1,2.2-0.3s1.2-1,1.3-1.8l9.7-37.3L60.8,39.9z"/>
		</g>
		<g>
			<path class="st369" d="M129.5,88.9c-6.1,23.2,7.8,46.9,31.1,53c23.2,6.1,46.9-7.8,53-31.1c6.1-23.2-7.8-46.9-31.1-53l-11,42
				L129.5,88.9z"/>
			<path class="st23" d="M171.5,145.5c-3.8,0-7.7-0.5-11.5-1.5c-24.4-6.4-39-31.4-32.7-55.7c0.1-0.6,0.5-1.1,1-1.4
				c0.5-0.3,1.1-0.4,1.7-0.2L170,97.1l10.4-39.9c0.1-0.6,0.5-1.1,1-1.4c0.5-0.3,1.1-0.4,1.7-0.2c24.4,6.4,39,31.4,32.7,55.7
				C210.4,131.9,191.8,145.5,171.5,145.5z M131.2,91.6c-4.4,21.3,8.7,42.6,30,48.1c22,5.7,44.5-7.5,50.3-29.5
				c5.5-21.3-6.6-43.1-27.3-49.7l-10.4,39.8c-0.3,1.2-1.5,1.9-2.7,1.6L131.2,91.6z"/>
		</g>
		<g>
			<path class="st369" d="M123.8,78.9c6.1-23.2,29.8-37.1,53-31.1l-11.1,42.4L123.8,78.9z"/>
			<path class="st23" d="M165.8,92.5c-0.2,0-0.4,0-0.6-0.1L123.3,81c-1.2-0.3-1.9-1.5-1.6-2.7c6.4-24.4,31.4-39,55.7-32.7
				c0.6,0.1,1.1,0.5,1.4,1c0.3,0.5,0.4,1.1,0.2,1.7l-11.1,42.4c-0.2,0.6-0.5,1.1-1,1.4C166.5,92.4,166.2,92.5,165.8,92.5z
				 M126.6,77.3l37.6,10.2l9.9-38C153.5,45.3,133,57.3,126.6,77.3z"/>
		</g>
		<g>
			<line class="st369" x1="110.8" y1="106" x2="67.7" y2="94.7"/>
			<path class="st23" d="M110.8,108.2c-0.2,0-0.4,0-0.6-0.1L67.1,96.8c-1.2-0.3-1.9-1.5-1.6-2.7c0.3-1.2,1.5-1.9,2.7-1.6l43.1,11.3
				c1.2,0.3,1.9,1.5,1.6,2.7C112.7,107.5,111.8,108.2,110.8,108.2z"/>
		</g>
		<g>
			<line class="st369" x1="104.6" y1="129.7" x2="61.5" y2="118.4"/>
			<path class="st23" d="M104.7,131.9c-0.2,0-0.4,0-0.6-0.1L61,120.5c-1.2-0.3-1.9-1.5-1.6-2.7c0.3-1.2,1.5-1.9,2.7-1.6l43.1,11.3
				c1.2,0.3,1.9,1.5,1.6,2.7C106.5,131.2,105.6,131.9,104.7,131.9z"/>
		</g>
		<g>
			<line class="st369" x1="194.1" y1="178.5" x2="54" y2="141.9"/>
			<path class="st23" d="M194.1,180.7c-0.2,0-0.4,0-0.6-0.1L53.4,144.1c-1.2-0.3-1.9-1.5-1.6-2.7c0.3-1.2,1.5-1.9,2.7-1.6
				l140.1,36.6c1.2,0.3,1.9,1.5,1.6,2.7C196,180.1,195.1,180.7,194.1,180.7z"/>
		</g>
		<g>
			<line class="st369" x1="187.9" y1="202.1" x2="47.8" y2="165.5"/>
			<path class="st23" d="M187.9,204.3c-0.2,0-0.4,0-0.6-0.1L47.3,167.6c-1.2-0.3-1.9-1.5-1.6-2.7c0.3-1.2,1.5-1.9,2.7-1.6L188.5,200
				c1.2,0.3,1.9,1.5,1.6,2.7C189.8,203.7,188.9,204.3,187.9,204.3z"/>
		</g>
		<g>
			<line class="st369" x1="181.7" y1="225.8" x2="41.6" y2="189.2"/>
			<path class="st23" d="M181.7,228.1c-0.2,0-0.4,0-0.6-0.1L41.1,191.4c-1.2-0.3-1.9-1.5-1.6-2.7c0.3-1.2,1.5-1.9,2.7-1.6
				l140.1,36.6c1.2,0.3,1.9,1.5,1.6,2.7C183.6,227.4,182.7,228.1,181.7,228.1z"/>
		</g>
	</g>
	<g>
		<g>
			<path class="st11" d="M273,230.1L93.6,278.2c-2.8,0.8-5.7-0.9-6.4-3.7L26.4,47.7c-0.8-2.8,0.9-5.7,3.7-6.4L165,5.1
				c1.3-0.4,2.8-0.2,4,0.5l56.3,32.5c1.2,0.7,2.1,1.8,2.4,3.2l48.9,182.4C277.4,226.5,275.8,229.4,273,230.1z"/>
			<path class="st23" d="M92.2,280.6c-3.3,0-6.3-2.2-7.2-5.5L24.2,48.2c-0.5-1.9-0.3-3.9,0.7-5.7c1-1.7,2.6-3,4.5-3.5l135-36.2
				c1.9-0.5,4-0.3,5.7,0.7l56.3,32.5c1.7,1,3,2.6,3.5,4.5l48.9,182.4c0.5,1.9,0.3,3.9-0.7,5.7c-1,1.7-2.6,3-4.5,3.5L94.1,280.4
				C93.5,280.5,92.8,280.6,92.2,280.6z M166.4,7.1c-0.3,0-0.5,0-0.8,0.1l-135,36.2c-0.8,0.2-1.4,0.7-1.8,1.4
				c-0.4,0.7-0.5,1.5-0.3,2.3l60.8,226.8c0.4,1.6,2.1,2.6,3.7,2.1L272.4,228l0,0c0.8-0.2,1.4-0.7,1.8-1.4c0.4-0.7,0.5-1.5,0.3-2.3
				L225.6,41.9c-0.2-0.8-0.7-1.4-1.4-1.8L167.9,7.5C167.5,7.3,166.9,7.1,166.4,7.1z"/>
		</g>
		<g>
			<path class="st369" d="M167.1,4.5L178.5,47c0.7,2.7,3.6,4.4,6.3,3.6l42.4-11.4L167.1,4.5z"/>
			<path class="st23" d="M183.5,53c-1.3,0-2.5-0.3-3.7-1c-1.7-1-2.9-2.6-3.4-4.5L165,5.1c-0.2-0.9,0.1-1.8,0.8-2.3
				c0.7-0.5,1.7-0.6,2.5-0.2l60.1,34.7c0.8,0.4,1.2,1.3,1.1,2.2c-0.1,0.9-0.8,1.6-1.6,1.9l-42.4,11.4C184.8,52.9,184.1,53,183.5,53z
				 M170.7,9.1l10,37.3c0.2,0.8,0.7,1.4,1.4,1.8c0.7,0.4,1.5,0.5,2.2,0.3l37.2-10L170.7,9.1z"/>
		</g>
		<g>
			<path class="st369" d="M153.1,87.9c6.2,23.2-7.5,47-30.7,53.2s-47-7.5-53.2-30.7c-6.2-23.2,7.5-47,30.7-53.2l11.2,42L153.1,87.9z
				"/>
			<path class="st23" d="M111.1,144.8c-20.2,0-38.7-13.5-44.1-33.9C60.5,86.6,75,61.5,99.3,55c1.2-0.3,2.4,0.4,2.7,1.6l10.7,39.8
				l39.8-10.7c1.2-0.3,2.4,0.4,2.7,1.6c3.2,11.8,1.5,24.1-4.6,34.7c-6.1,10.6-15.9,18.1-27.7,21.3C119,144.3,115,144.8,111.1,144.8z
				 M98.3,60c-20.7,6.7-32.7,28.6-27,49.8c5.9,21.9,28.5,35,50.5,29.1c10.6-2.8,19.5-9.7,25-19.2c5.1-8.9,6.7-19.1,4.6-29.1
				l-39.7,10.7c-1.2,0.3-2.4-0.4-2.7-1.6L98.3,60z"/>
		</g>
		<g>
			<path class="st369" d="M158.7,77.9c-6.2-23.2-30-36.9-53.2-30.7l11.4,42.4L158.7,77.9z"/>
			<path class="st23" d="M116.8,91.8c-0.4,0-0.8-0.1-1.1-0.3c-0.5-0.3-0.9-0.8-1-1.4l-11.4-42.4c-0.3-1.2,0.4-2.4,1.6-2.7
				c24.3-6.5,49.4,8,55.9,32.3c0.3,1.2-0.4,2.4-1.6,2.7l-41.9,11.6C117.2,91.7,117,91.8,116.8,91.8z M108.2,48.8l10.2,38l37.5-10.4
				C149.4,56.4,128.8,44.5,108.2,48.8z"/>
		</g>
		<g>
			<line class="st369" x1="171.8" y1="104.9" x2="214.9" y2="93.3"/>
			<path class="st23" d="M171.8,107.1c-1,0-1.9-0.7-2.2-1.7c-0.3-1.2,0.4-2.4,1.6-2.7l43.1-11.6c1.2-0.3,2.4,0.4,2.7,1.6
				c0.3,1.2-0.4,2.4-1.6,2.7L172.4,107C172.2,107.1,172,107.1,171.8,107.1z"/>
		</g>
		<g>
			<line class="st369" x1="178.2" y1="128.5" x2="221.2" y2="117"/>
			<path class="st23" d="M178.2,130.8c-1,0-1.9-0.7-2.2-1.7c-0.3-1.2,0.4-2.4,1.6-2.7l43.1-11.6c1.2-0.3,2.4,0.4,2.7,1.6
				c0.3,1.2-0.4,2.4-1.6,2.7l-43.1,11.6C178.6,130.7,178.4,130.8,178.2,130.8z"/>
		</g>
		<g>
			<line class="st369" x1="89.1" y1="178" x2="228.9" y2="140.4"/>
			<path class="st23" d="M89.1,180.2c-1,0-1.9-0.7-2.2-1.7c-0.3-1.2,0.4-2.4,1.6-2.7l139.9-37.5c1.2-0.3,2.4,0.4,2.7,1.6
				c0.3,1.2-0.4,2.4-1.6,2.7L89.6,180.1C89.5,180.2,89.3,180.2,89.1,180.2z"/>
		</g>
		<g>
			<line class="st369" x1="95.4" y1="201.5" x2="235.2" y2="164"/>
			<path class="st23" d="M95.4,203.7c-1,0-1.9-0.7-2.2-1.7c-0.3-1.2,0.4-2.4,1.6-2.7l139.9-37.5c1.2-0.3,2.4,0.4,2.7,1.6
				c0.3,1.2-0.4,2.4-1.6,2.7L96,203.7C95.8,203.7,95.6,203.7,95.4,203.7z"/>
		</g>
		<g>
			<line class="st369" x1="101.7" y1="225.2" x2="241.6" y2="187.7"/>
			<path class="st23" d="M101.7,227.4c-1,0-1.9-0.7-2.2-1.7c-0.3-1.2,0.4-2.4,1.6-2.7L241,185.5c1.2-0.3,2.4,0.4,2.7,1.6
				c0.3,1.2-0.4,2.4-1.6,2.7l-139.9,37.5C102.1,227.4,101.9,227.4,101.7,227.4z"/>
		</g>
	</g>
	<g>
		<path class="st11" d="M44.6,142.6V21.3c0-2.9,2.4-5.3,5.3-5.3h139.7c1.4,0,2.7,0.6,3.7,1.5l46,46c1,1,1.5,2.3,1.5,3.7v188.8
			c0,2.9-2.4,5.3-5.3,5.3H49.8c-2.9,0-5.3-2.4-5.3-5.3v-29.5"/>
	</g>
	<g>
		<path class="st370" d="M44.6,207.9c-1.2,0-2.2-1-2.2-2.2v-42.3c0-1.2,1-2.2,2.2-2.2s2.2,1,2.2,2.2v42.3
			C46.8,206.9,45.8,207.9,44.6,207.9z"/>
	</g>
	<g>
		<path class="st23" d="M235.5,263.6H49.8c-4.1,0-7.5-3.4-7.5-7.5v-29.5c0-1.2,1-2.2,2.2-2.2s2.2,1,2.2,2.2v29.5c0,1.7,1.4,3,3,3
			h185.7c1.7,0,3-1.4,3-3V67.3c0-0.8-0.3-1.6-0.9-2.1l-46-46c-0.6-0.6-1.3-0.9-2.1-0.9H49.8c-1.7,0-3,1.4-3,3v121.3
			c0,1.2-1,2.2-2.2,2.2s-2.2-1-2.2-2.2V21.3c0-4.1,3.4-7.5,7.5-7.5h139.7c2,0,3.9,0.8,5.3,2.2l46,46c1.4,1.4,2.2,3.3,2.2,5.3v188.8
			C243,260.2,239.7,263.6,235.5,263.6z"/>
	</g>
	<g>
		<g>
			<path class="st22" d="M191.7,16l0,44c0,2.8,2.3,5.1,5.1,5.1l43.9,0L191.7,16z"/>
			<path class="st23" d="M196.9,67.4c-2,0-3.8-0.8-5.2-2.2c-1.4-1.4-2.2-3.2-2.2-5.2V16c0-0.9,0.5-1.7,1.4-2.1
				c0.8-0.3,1.8-0.2,2.4,0.5l49.1,49.1c0.6,0.6,0.8,1.6,0.5,2.4c-0.3,0.8-1.2,1.4-2.1,1.4L196.9,67.4
				C196.9,67.4,196.9,67.4,196.9,67.4z M194,21.4V60c0,0.8,0.3,1.5,0.9,2.1c0.6,0.6,1.3,0.9,2.1,0.9c0,0,0,0,0,0l38.5,0L194,21.4z"
				/>
		</g>
		<g>
			<path class="st242" d="M156.5,92.9c0,24-19.4,43.4-43.4,43.4s-43.4-19.4-43.4-43.4s19.4-43.4,43.4-43.4v43.4H156.5z"/>
		</g>
		<g>
			<path class="st242" d="M164.5,84.7c0-24-19.4-43.4-43.4-43.4v43.9L164.5,84.7z"/>
		</g>
		<g>
			<line class="st369" x1="170.3" y1="114.2" x2="214.9" y2="114.1"/>
			<path class="st23" d="M170.3,116.4c-1.2,0-2.2-1-2.2-2.2c0-1.2,1-2.2,2.2-2.2l44.6,0h0c1.2,0,2.2,1,2.2,2.2c0,1.2-1,2.2-2.2,2.2
				L170.3,116.4L170.3,116.4z"/>
		</g>
		<g>
			<line class="st369" x1="170.3" y1="138.7" x2="214.9" y2="138.6"/>
			<path class="st23" d="M170.3,140.9c-1.2,0-2.2-1-2.2-2.2c0-1.2,1-2.2,2.2-2.2l44.6,0h0c1.2,0,2.2,1,2.2,2.2c0,1.2-1,2.2-2.2,2.2
				L170.3,140.9L170.3,140.9z"/>
		</g>
		<g>
			<line class="st369" x1="71.4" y1="163.4" x2="216.2" y2="163.3"/>
			<path class="st23" d="M71.4,165.6c-1.2,0-2.2-1-2.2-2.2c0-1.2,1-2.2,2.2-2.2l144.8,0l0,0c1.2,0,2.2,1,2.2,2.2
				c0,1.2-1,2.2-2.2,2.2L71.4,165.6L71.4,165.6z"/>
		</g>
		<g>
			<line class="st369" x1="71.4" y1="187.7" x2="216.2" y2="187.7"/>
			<path class="st23" d="M71.4,190c-1.2,0-2.2-1-2.2-2.2c0-1.2,1-2.2,2.2-2.2l144.8,0l0,0c1.2,0,2.2,1,2.2,2.2c0,1.2-1,2.2-2.2,2.2
				L71.4,190L71.4,190z"/>
		</g>
		<g>
			<line class="st369" x1="71.4" y1="212.3" x2="216.2" y2="212.2"/>
			<path class="st23" d="M71.4,214.5c-1.2,0-2.2-1-2.2-2.2c0-1.2,1-2.2,2.2-2.2l144.8,0l0,0c1.2,0,2.2,1,2.2,2.2
				c0,1.2-1,2.2-2.2,2.2L71.4,214.5L71.4,214.5z"/>
		</g>
	</g>
</g>
</svg>
