<?xml version="1.0" encoding="utf-8"?>
<!-- Generator: Adobe Illustrator 24.0.2, SVG Export Plug-In . SVG Version: 6.00 Build 0)  -->
<svg version="1.1" id="Capa_1" xmlns="http://www.w3.org/2000/svg" xmlns:xlink="http://www.w3.org/1999/xlink" x="0px" y="0px"
	 viewBox="0 0 283.5 283.5" style="enable-background:new 0 0 283.5 283.5;" xml:space="preserve">
<style type="text/css">
	.st0{opacity:0.3;fill:url(#SVGID_1_);}
	.st1{fill:url(#SVGID_2_);}
	.st2{fill:url(#SVGID_3_);}
	.st3{fill:#01612D;}
	.st4{fill:url(#SVGID_4_);}
	.st5{fill:#75B851;}
	.st6{fill:#4FA533;}
	.st7{fill:#00833E;}
	.st8{fill:#B2DFF5;}
	.st9{fill:#EAF5FB;}
	.st10{opacity:0.63;}
	.st11{fill:#FFFFFF;}
	.st12{fill:#BFD787;}
	.st13{fill:#E6353A;}
	.st14{fill:url(#SVGID_5_);}
	.st15{fill:#A91917;}
	.st16{fill:#545454;}
	.st17{fill:#404040;}
	.st18{fill:#EEEDED;}
	.st19{fill:#484747;}
	.st20{fill:#D9D9D9;}
	.st21{fill:#E95561;}
	.st22{fill:#EBF3E5;}
	.st23{fill:#81BD5F;}
	.st24{fill:#BAD9A7;}
	.st25{fill:#E2EED9;}
	.st26{fill:#EB6F71;}
	.st27{fill:#C4DEB5;}
	.st28{fill:#CEE3C0;}
	.st29{fill:#ECECEC;}
	.st30{fill:#E54345;}
	.st31{clip-path:url(#SVGID_19_);fill:#EE8B8C;}
	.st32{clip-path:url(#SVGID_19_);fill:#EE8A8B;}
	.st33{clip-path:url(#SVGID_19_);fill:#EE898A;}
	.st34{clip-path:url(#SVGID_19_);fill:#EE8889;}
	.st35{clip-path:url(#SVGID_19_);fill:#EE8788;}
	.st36{clip-path:url(#SVGID_19_);fill:#EE8687;}
	.st37{clip-path:url(#SVGID_19_);fill:#EE8586;}
	.st38{clip-path:url(#SVGID_19_);fill:#ED8485;}
	.st39{clip-path:url(#SVGID_19_);fill:#ED8384;}
	.st40{clip-path:url(#SVGID_19_);fill:#ED8283;}
	.st41{clip-path:url(#SVGID_19_);fill:#ED8182;}
	.st42{clip-path:url(#SVGID_19_);fill:#ED8081;}
	.st43{clip-path:url(#SVGID_19_);fill:#ED7F80;}
	.st44{clip-path:url(#SVGID_19_);fill:#ED7E7F;}
	.st45{clip-path:url(#SVGID_19_);fill:#ED7C7F;}
	.st46{clip-path:url(#SVGID_19_);fill:#ED7B7E;}
	.st47{clip-path:url(#SVGID_19_);fill:#ED7A7D;}
	.st48{clip-path:url(#SVGID_19_);fill:#ED797C;}
	.st49{clip-path:url(#SVGID_19_);fill:#ED787B;}
	.st50{clip-path:url(#SVGID_19_);fill:#ED777A;}
	.st51{clip-path:url(#SVGID_19_);fill:#ED7679;}
	.st52{clip-path:url(#SVGID_19_);fill:#EC7578;}
	.st53{clip-path:url(#SVGID_19_);fill:#EC7477;}
	.st54{clip-path:url(#SVGID_19_);fill:#EC7376;}
	.st55{clip-path:url(#SVGID_19_);fill:#EC7275;}
	.st56{clip-path:url(#SVGID_19_);fill:#EC7174;}
	.st57{clip-path:url(#SVGID_19_);fill:#EC7073;}
	.st58{clip-path:url(#SVGID_19_);fill:#EC6F72;}
	.st59{clip-path:url(#SVGID_19_);fill:#EC6E71;}
	.st60{clip-path:url(#SVGID_19_);fill:#EC6D70;}
	.st61{clip-path:url(#SVGID_19_);fill:#EC6C6F;}
	.st62{clip-path:url(#SVGID_19_);fill:#EB6B6E;}
	.st63{clip-path:url(#SVGID_19_);fill:#EB6A6D;}
	.st64{clip-path:url(#SVGID_19_);fill:#EB696C;}
	.st65{clip-path:url(#SVGID_19_);fill:#EB686B;}
	.st66{clip-path:url(#SVGID_19_);fill:#EB676A;}
	.st67{clip-path:url(#SVGID_19_);fill:#EB6669;}
	.st68{clip-path:url(#SVGID_19_);fill:#EB6568;}
	.st69{clip-path:url(#SVGID_19_);fill:#EA6467;}
	.st70{clip-path:url(#SVGID_19_);fill:#EA6366;}
	.st71{clip-path:url(#SVGID_19_);fill:#EA6265;}
	.st72{clip-path:url(#SVGID_19_);fill:#EA6164;}
	.st73{clip-path:url(#SVGID_19_);fill:#EA6063;}
	.st74{clip-path:url(#SVGID_19_);fill:#EA5F62;}
	.st75{clip-path:url(#SVGID_19_);fill:#EA5E61;}
	.st76{clip-path:url(#SVGID_19_);fill:#E95D60;}
	.st77{clip-path:url(#SVGID_19_);fill:#E95C5F;}
	.st78{clip-path:url(#SVGID_19_);fill:#E95B5E;}
	.st79{clip-path:url(#SVGID_19_);fill:#E95A5D;}
	.st80{clip-path:url(#SVGID_19_);fill:#E9595C;}
	.st81{clip-path:url(#SVGID_19_);fill:#E9585B;}
	.st82{clip-path:url(#SVGID_19_);fill:#E9575A;}
	.st83{clip-path:url(#SVGID_19_);fill:#E85659;}
	.st84{clip-path:url(#SVGID_19_);fill:#E85558;}
	.st85{clip-path:url(#SVGID_19_);fill:#E85457;}
	.st86{clip-path:url(#SVGID_19_);fill:#E85357;}
	.st87{clip-path:url(#SVGID_19_);fill:#E85156;}
	.st88{clip-path:url(#SVGID_19_);fill:#E85055;}
	.st89{clip-path:url(#SVGID_19_);fill:#E84F54;}
	.st90{clip-path:url(#SVGID_19_);fill:#E74E53;}
	.st91{clip-path:url(#SVGID_19_);fill:#E74D52;}
	.st92{clip-path:url(#SVGID_19_);fill:#E74C51;}
	.st93{clip-path:url(#SVGID_19_);fill:#E74B50;}
	.st94{clip-path:url(#SVGID_19_);fill:#E74A4F;}
	.st95{clip-path:url(#SVGID_19_);fill:#E7494E;}
	.st96{clip-path:url(#SVGID_19_);fill:#E7484D;}
	.st97{clip-path:url(#SVGID_19_);fill:#E6474C;}
	.st98{clip-path:url(#SVGID_19_);fill:#E6464B;}
	.st99{clip-path:url(#SVGID_19_);fill:#E6454A;}
	.st100{clip-path:url(#SVGID_19_);fill:#E64449;}
	.st101{clip-path:url(#SVGID_19_);fill:#E64348;}
	.st102{clip-path:url(#SVGID_19_);fill:#E64247;}
	.st103{clip-path:url(#SVGID_19_);fill:#E64146;}
	.st104{clip-path:url(#SVGID_19_);fill:#E54045;}
	.st105{clip-path:url(#SVGID_19_);fill:#E53F44;}
	.st106{clip-path:url(#SVGID_19_);fill:#E53E43;}
	.st107{clip-path:url(#SVGID_19_);fill:#E53D42;}
	.st108{clip-path:url(#SVGID_19_);fill:#E53C41;}
	.st109{clip-path:url(#SVGID_19_);fill:#E53B40;}
	.st110{clip-path:url(#SVGID_19_);fill:#E53A3F;}
	.st111{clip-path:url(#SVGID_19_);fill:#E4393E;}
	.st112{clip-path:url(#SVGID_19_);fill:#E4383D;}
	.st113{clip-path:url(#SVGID_19_);fill:#E4373C;}
	.st114{clip-path:url(#SVGID_19_);fill:#E4363B;}
	.st115{clip-path:url(#SVGID_21_);fill:#EE8B8C;}
	.st116{clip-path:url(#SVGID_21_);fill:#EE8A8B;}
	.st117{clip-path:url(#SVGID_21_);fill:#EE898A;}
	.st118{clip-path:url(#SVGID_21_);fill:#EE8889;}
	.st119{clip-path:url(#SVGID_21_);fill:#EE8788;}
	.st120{clip-path:url(#SVGID_21_);fill:#EE8687;}
	.st121{clip-path:url(#SVGID_21_);fill:#EE8586;}
	.st122{clip-path:url(#SVGID_21_);fill:#ED8485;}
	.st123{clip-path:url(#SVGID_21_);fill:#ED8384;}
	.st124{clip-path:url(#SVGID_21_);fill:#ED8283;}
	.st125{clip-path:url(#SVGID_21_);fill:#ED8182;}
	.st126{clip-path:url(#SVGID_21_);fill:#ED8081;}
	.st127{clip-path:url(#SVGID_21_);fill:#ED7F80;}
	.st128{clip-path:url(#SVGID_21_);fill:#ED7E7F;}
	.st129{clip-path:url(#SVGID_21_);fill:#ED7C7F;}
	.st130{clip-path:url(#SVGID_21_);fill:#ED7B7E;}
	.st131{clip-path:url(#SVGID_21_);fill:#ED7A7D;}
	.st132{clip-path:url(#SVGID_21_);fill:#ED797C;}
	.st133{clip-path:url(#SVGID_21_);fill:#ED787B;}
	.st134{clip-path:url(#SVGID_21_);fill:#ED777A;}
	.st135{clip-path:url(#SVGID_21_);fill:#ED7679;}
	.st136{clip-path:url(#SVGID_21_);fill:#EC7578;}
	.st137{clip-path:url(#SVGID_21_);fill:#EC7477;}
	.st138{clip-path:url(#SVGID_21_);fill:#EC7376;}
	.st139{clip-path:url(#SVGID_21_);fill:#EC7275;}
	.st140{clip-path:url(#SVGID_21_);fill:#EC7174;}
	.st141{clip-path:url(#SVGID_21_);fill:#EC7073;}
	.st142{clip-path:url(#SVGID_21_);fill:#EC6F72;}
	.st143{clip-path:url(#SVGID_21_);fill:#EC6E71;}
	.st144{clip-path:url(#SVGID_21_);fill:#EC6D70;}
	.st145{clip-path:url(#SVGID_21_);fill:#EC6C6F;}
	.st146{clip-path:url(#SVGID_21_);fill:#EB6B6E;}
	.st147{clip-path:url(#SVGID_21_);fill:#EB6A6D;}
	.st148{clip-path:url(#SVGID_21_);fill:#EB696C;}
	.st149{clip-path:url(#SVGID_21_);fill:#EB686B;}
	.st150{clip-path:url(#SVGID_21_);fill:#EB676A;}
	.st151{clip-path:url(#SVGID_21_);fill:#EB6669;}
	.st152{clip-path:url(#SVGID_21_);fill:#EB6568;}
	.st153{clip-path:url(#SVGID_21_);fill:#EA6467;}
	.st154{clip-path:url(#SVGID_21_);fill:#EA6366;}
	.st155{clip-path:url(#SVGID_21_);fill:#EA6265;}
	.st156{clip-path:url(#SVGID_21_);fill:#EA6164;}
	.st157{clip-path:url(#SVGID_21_);fill:#EA6063;}
	.st158{clip-path:url(#SVGID_21_);fill:#EA5F62;}
	.st159{clip-path:url(#SVGID_21_);fill:#EA5E61;}
	.st160{clip-path:url(#SVGID_21_);fill:#E95D60;}
	.st161{clip-path:url(#SVGID_21_);fill:#E95C5F;}
	.st162{clip-path:url(#SVGID_21_);fill:#E95B5E;}
	.st163{clip-path:url(#SVGID_21_);fill:#E95A5D;}
	.st164{clip-path:url(#SVGID_21_);fill:#E9595C;}
	.st165{clip-path:url(#SVGID_21_);fill:#E9585B;}
	.st166{clip-path:url(#SVGID_21_);fill:#E9575A;}
	.st167{clip-path:url(#SVGID_21_);fill:#E85659;}
	.st168{clip-path:url(#SVGID_21_);fill:#E85558;}
	.st169{clip-path:url(#SVGID_21_);fill:#E85457;}
	.st170{clip-path:url(#SVGID_21_);fill:#E85357;}
	.st171{clip-path:url(#SVGID_21_);fill:#E85156;}
	.st172{clip-path:url(#SVGID_21_);fill:#E85055;}
	.st173{clip-path:url(#SVGID_21_);fill:#E84F54;}
	.st174{clip-path:url(#SVGID_21_);fill:#E74E53;}
	.st175{clip-path:url(#SVGID_21_);fill:#E74D52;}
	.st176{clip-path:url(#SVGID_21_);fill:#E74C51;}
	.st177{clip-path:url(#SVGID_21_);fill:#E74B50;}
	.st178{clip-path:url(#SVGID_21_);fill:#E74A4F;}
	.st179{clip-path:url(#SVGID_21_);fill:#E7494E;}
	.st180{clip-path:url(#SVGID_21_);fill:#E7484D;}
	.st181{clip-path:url(#SVGID_21_);fill:#E6474C;}
	.st182{clip-path:url(#SVGID_21_);fill:#E6464B;}
	.st183{clip-path:url(#SVGID_21_);fill:#E6454A;}
	.st184{clip-path:url(#SVGID_21_);fill:#E64449;}
	.st185{clip-path:url(#SVGID_21_);fill:#E64348;}
	.st186{clip-path:url(#SVGID_21_);fill:#E64247;}
	.st187{clip-path:url(#SVGID_21_);fill:#E64146;}
	.st188{clip-path:url(#SVGID_21_);fill:#E54045;}
	.st189{clip-path:url(#SVGID_21_);fill:#E53F44;}
	.st190{clip-path:url(#SVGID_21_);fill:#E53E43;}
	.st191{clip-path:url(#SVGID_21_);fill:#E53D42;}
	.st192{clip-path:url(#SVGID_21_);fill:#E53C41;}
	.st193{clip-path:url(#SVGID_21_);fill:#E53B40;}
	.st194{clip-path:url(#SVGID_21_);fill:#E53A3F;}
	.st195{clip-path:url(#SVGID_21_);fill:#E4393E;}
	.st196{clip-path:url(#SVGID_21_);fill:#E4383D;}
	.st197{clip-path:url(#SVGID_21_);fill:#E4373C;}
	.st198{clip-path:url(#SVGID_21_);fill:#E4363B;}
	.st199{fill:#82BD60;}
	.st200{clip-path:url(#SVGID_23_);fill:#EE8B8C;}
	.st201{clip-path:url(#SVGID_23_);fill:#EE8A8B;}
	.st202{clip-path:url(#SVGID_23_);fill:#EE898A;}
	.st203{clip-path:url(#SVGID_23_);fill:#EE8889;}
	.st204{clip-path:url(#SVGID_23_);fill:#EE8788;}
	.st205{clip-path:url(#SVGID_23_);fill:#EE8687;}
	.st206{clip-path:url(#SVGID_23_);fill:#EE8586;}
	.st207{clip-path:url(#SVGID_23_);fill:#ED8485;}
	.st208{clip-path:url(#SVGID_23_);fill:#ED8384;}
	.st209{clip-path:url(#SVGID_23_);fill:#ED8283;}
	.st210{clip-path:url(#SVGID_23_);fill:#ED8182;}
	.st211{clip-path:url(#SVGID_23_);fill:#ED8081;}
	.st212{clip-path:url(#SVGID_23_);fill:#ED7F80;}
	.st213{clip-path:url(#SVGID_23_);fill:#ED7E7F;}
	.st214{clip-path:url(#SVGID_23_);fill:#ED7C7F;}
	.st215{clip-path:url(#SVGID_23_);fill:#ED7B7E;}
	.st216{clip-path:url(#SVGID_23_);fill:#ED7A7D;}
	.st217{clip-path:url(#SVGID_23_);fill:#ED797C;}
	.st218{clip-path:url(#SVGID_23_);fill:#ED787B;}
	.st219{clip-path:url(#SVGID_23_);fill:#ED777A;}
	.st220{clip-path:url(#SVGID_23_);fill:#ED7679;}
	.st221{clip-path:url(#SVGID_23_);fill:#EC7578;}
	.st222{clip-path:url(#SVGID_23_);fill:#EC7477;}
	.st223{clip-path:url(#SVGID_23_);fill:#EC7376;}
	.st224{clip-path:url(#SVGID_23_);fill:#EC7275;}
	.st225{clip-path:url(#SVGID_23_);fill:#EC7174;}
	.st226{clip-path:url(#SVGID_23_);fill:#EC7073;}
	.st227{clip-path:url(#SVGID_23_);fill:#EC6F72;}
	.st228{clip-path:url(#SVGID_23_);fill:#EC6E71;}
	.st229{clip-path:url(#SVGID_23_);fill:#EB6D70;}
	.st230{clip-path:url(#SVGID_23_);fill:#EB6C6F;}
	.st231{clip-path:url(#SVGID_23_);fill:#EB6B6E;}
	.st232{clip-path:url(#SVGID_23_);fill:#EB6A6D;}
	.st233{clip-path:url(#SVGID_23_);fill:#EA696C;}
	.st234{clip-path:url(#SVGID_23_);fill:#EA686B;}
	.st235{clip-path:url(#SVGID_23_);fill:#EA6669;}
	.st236{clip-path:url(#SVGID_23_);fill:#E96568;}
	.st237{clip-path:url(#SVGID_23_);fill:#E96467;}
	.st238{clip-path:url(#SVGID_23_);fill:#E96366;}
	.st239{clip-path:url(#SVGID_23_);fill:#E96265;}
	.st240{clip-path:url(#SVGID_23_);fill:#E86164;}
	.st241{clip-path:url(#SVGID_23_);fill:#E86063;}
	.st242{fill:#EE8B8C;}
	.st243{clip-path:url(#SVGID_25_);fill:#EE8B8C;}
	.st244{clip-path:url(#SVGID_25_);fill:#EE8A8B;}
	.st245{clip-path:url(#SVGID_25_);fill:#EE898A;}
	.st246{clip-path:url(#SVGID_25_);fill:#EE8889;}
	.st247{clip-path:url(#SVGID_25_);fill:#EE8788;}
	.st248{clip-path:url(#SVGID_25_);fill:#EE8687;}
	.st249{clip-path:url(#SVGID_25_);fill:#EE8586;}
	.st250{clip-path:url(#SVGID_25_);fill:#ED8485;}
	.st251{clip-path:url(#SVGID_25_);fill:#ED8384;}
	.st252{clip-path:url(#SVGID_25_);fill:#ED8283;}
	.st253{clip-path:url(#SVGID_25_);fill:#ED8182;}
	.st254{clip-path:url(#SVGID_25_);fill:#ED8081;}
	.st255{clip-path:url(#SVGID_25_);fill:#ED7F80;}
	.st256{clip-path:url(#SVGID_25_);fill:#ED7E7F;}
	.st257{clip-path:url(#SVGID_25_);fill:#ED7C7F;}
	.st258{clip-path:url(#SVGID_25_);fill:#ED7B7E;}
	.st259{clip-path:url(#SVGID_25_);fill:#ED7A7D;}
	.st260{clip-path:url(#SVGID_25_);fill:#ED797C;}
	.st261{clip-path:url(#SVGID_25_);fill:#ED787B;}
	.st262{clip-path:url(#SVGID_25_);fill:#ED777A;}
	.st263{clip-path:url(#SVGID_25_);fill:#ED7679;}
	.st264{clip-path:url(#SVGID_25_);fill:#EC7578;}
	.st265{clip-path:url(#SVGID_25_);fill:#EC7477;}
	.st266{clip-path:url(#SVGID_25_);fill:#EC7376;}
	.st267{clip-path:url(#SVGID_25_);fill:#EC7275;}
	.st268{clip-path:url(#SVGID_25_);fill:#EC7174;}
	.st269{clip-path:url(#SVGID_25_);fill:#EC7073;}
	.st270{clip-path:url(#SVGID_25_);fill:#EC6F72;}
	.st271{clip-path:url(#SVGID_25_);fill:#EC6E71;}
	.st272{clip-path:url(#SVGID_25_);fill:#EB6D70;}
	.st273{clip-path:url(#SVGID_25_);fill:#EB6C6F;}
	.st274{clip-path:url(#SVGID_25_);fill:#EB6B6E;}
	.st275{clip-path:url(#SVGID_25_);fill:#EB6A6D;}
	.st276{clip-path:url(#SVGID_25_);fill:#EA696C;}
	.st277{clip-path:url(#SVGID_25_);fill:#EA686B;}
	.st278{clip-path:url(#SVGID_25_);fill:#EA6669;}
	.st279{clip-path:url(#SVGID_25_);fill:#E96568;}
	.st280{clip-path:url(#SVGID_25_);fill:#E96467;}
	.st281{clip-path:url(#SVGID_25_);fill:#E96366;}
	.st282{clip-path:url(#SVGID_25_);fill:#E96265;}
	.st283{clip-path:url(#SVGID_25_);fill:#E86164;}
	.st284{clip-path:url(#SVGID_25_);fill:#E86063;}
	.st285{clip-path:url(#SVGID_27_);fill:#EE8B8C;}
	.st286{clip-path:url(#SVGID_27_);fill:#EE8A8B;}
	.st287{clip-path:url(#SVGID_27_);fill:#EE898A;}
	.st288{clip-path:url(#SVGID_27_);fill:#EE8889;}
	.st289{clip-path:url(#SVGID_27_);fill:#EE8788;}
	.st290{clip-path:url(#SVGID_27_);fill:#EE8687;}
	.st291{clip-path:url(#SVGID_27_);fill:#EE8586;}
	.st292{clip-path:url(#SVGID_27_);fill:#ED8485;}
	.st293{clip-path:url(#SVGID_27_);fill:#ED8384;}
	.st294{clip-path:url(#SVGID_27_);fill:#ED8283;}
	.st295{clip-path:url(#SVGID_27_);fill:#ED8182;}
	.st296{clip-path:url(#SVGID_27_);fill:#ED8081;}
	.st297{clip-path:url(#SVGID_27_);fill:#ED7F80;}
	.st298{clip-path:url(#SVGID_27_);fill:#ED7E7F;}
	.st299{clip-path:url(#SVGID_27_);fill:#ED7C7F;}
	.st300{clip-path:url(#SVGID_27_);fill:#ED7B7E;}
	.st301{clip-path:url(#SVGID_27_);fill:#ED7A7D;}
	.st302{clip-path:url(#SVGID_27_);fill:#ED797C;}
	.st303{clip-path:url(#SVGID_27_);fill:#ED787B;}
	.st304{clip-path:url(#SVGID_27_);fill:#ED777A;}
	.st305{clip-path:url(#SVGID_27_);fill:#ED7679;}
	.st306{clip-path:url(#SVGID_27_);fill:#EC7578;}
	.st307{clip-path:url(#SVGID_27_);fill:#EC7477;}
	.st308{clip-path:url(#SVGID_27_);fill:#EC7376;}
	.st309{clip-path:url(#SVGID_27_);fill:#EC7275;}
	.st310{clip-path:url(#SVGID_27_);fill:#EC7174;}
	.st311{clip-path:url(#SVGID_27_);fill:#EC7073;}
	.st312{clip-path:url(#SVGID_27_);fill:#EC6F72;}
	.st313{clip-path:url(#SVGID_27_);fill:#EC6E71;}
	.st314{clip-path:url(#SVGID_27_);fill:#EB6D70;}
	.st315{clip-path:url(#SVGID_27_);fill:#EB6C6F;}
	.st316{clip-path:url(#SVGID_27_);fill:#EB6B6E;}
	.st317{clip-path:url(#SVGID_27_);fill:#EB6A6D;}
	.st318{clip-path:url(#SVGID_27_);fill:#EA696C;}
	.st319{clip-path:url(#SVGID_27_);fill:#EA686B;}
	.st320{clip-path:url(#SVGID_27_);fill:#EA6669;}
	.st321{clip-path:url(#SVGID_27_);fill:#E96568;}
	.st322{clip-path:url(#SVGID_27_);fill:#E96467;}
	.st323{clip-path:url(#SVGID_27_);fill:#E96366;}
	.st324{clip-path:url(#SVGID_27_);fill:#E96265;}
	.st325{clip-path:url(#SVGID_27_);fill:#E86164;}
	.st326{clip-path:url(#SVGID_27_);fill:#E86063;}
	.st327{clip-path:url(#SVGID_29_);fill:#EE8B8C;}
	.st328{clip-path:url(#SVGID_29_);fill:#EE8A8B;}
	.st329{clip-path:url(#SVGID_29_);fill:#EE898A;}
	.st330{clip-path:url(#SVGID_29_);fill:#EE8889;}
	.st331{clip-path:url(#SVGID_29_);fill:#EE8788;}
	.st332{clip-path:url(#SVGID_29_);fill:#EE8687;}
	.st333{clip-path:url(#SVGID_29_);fill:#EE8586;}
	.st334{clip-path:url(#SVGID_29_);fill:#ED8485;}
	.st335{clip-path:url(#SVGID_29_);fill:#ED8384;}
	.st336{clip-path:url(#SVGID_29_);fill:#ED8283;}
	.st337{clip-path:url(#SVGID_29_);fill:#ED8182;}
	.st338{clip-path:url(#SVGID_29_);fill:#ED8081;}
	.st339{clip-path:url(#SVGID_29_);fill:#ED7F80;}
	.st340{clip-path:url(#SVGID_29_);fill:#ED7E7F;}
	.st341{clip-path:url(#SVGID_29_);fill:#ED7C7F;}
	.st342{clip-path:url(#SVGID_29_);fill:#ED7B7E;}
	.st343{clip-path:url(#SVGID_29_);fill:#ED7A7D;}
	.st344{clip-path:url(#SVGID_29_);fill:#ED797C;}
	.st345{clip-path:url(#SVGID_29_);fill:#ED787B;}
	.st346{clip-path:url(#SVGID_29_);fill:#ED777A;}
	.st347{clip-path:url(#SVGID_29_);fill:#ED7679;}
	.st348{clip-path:url(#SVGID_29_);fill:#EC7578;}
	.st349{clip-path:url(#SVGID_29_);fill:#EC7477;}
	.st350{clip-path:url(#SVGID_29_);fill:#EC7376;}
	.st351{clip-path:url(#SVGID_29_);fill:#EC7275;}
	.st352{clip-path:url(#SVGID_29_);fill:#EC7174;}
	.st353{clip-path:url(#SVGID_29_);fill:#EC7073;}
	.st354{clip-path:url(#SVGID_29_);fill:#EC6F72;}
	.st355{clip-path:url(#SVGID_29_);fill:#EC6E71;}
	.st356{clip-path:url(#SVGID_29_);fill:#EB6D70;}
	.st357{clip-path:url(#SVGID_29_);fill:#EB6C6F;}
	.st358{clip-path:url(#SVGID_29_);fill:#EB6B6E;}
	.st359{clip-path:url(#SVGID_29_);fill:#EB6A6D;}
	.st360{clip-path:url(#SVGID_29_);fill:#EA696C;}
	.st361{clip-path:url(#SVGID_29_);fill:#EA686B;}
	.st362{clip-path:url(#SVGID_29_);fill:#EA6669;}
	.st363{clip-path:url(#SVGID_29_);fill:#E96568;}
	.st364{clip-path:url(#SVGID_29_);fill:#E96467;}
	.st365{clip-path:url(#SVGID_29_);fill:#E96366;}
	.st366{clip-path:url(#SVGID_29_);fill:#E96265;}
	.st367{clip-path:url(#SVGID_29_);fill:#E86164;}
	.st368{clip-path:url(#SVGID_29_);fill:#E86063;}
	.st369{fill:#EEF4E6;}
	.st370{fill:#7CB147;}
</style>
<linearGradient id="SVGID_1_" gradientUnits="userSpaceOnUse" x1="141.7323" y1="-1085.147" x2="141.7323" y2="-949.9705" gradientTransform="matrix(1 0 0 -1 0 -938.7737)">
	<stop  offset="0" style="stop-color:#FFFFFF"/>
	<stop  offset="7.639766e-02" style="stop-color:#F5FBF1"/>
	<stop  offset="0.3802" style="stop-color:#D2EDBF"/>
	<stop  offset="0.6463" style="stop-color:#B8E39B"/>
	<stop  offset="0.8619" style="stop-color:#A8DD85"/>
	<stop  offset="1" style="stop-color:#A2DB7D"/>
</linearGradient>
<rect x="0" class="st0" width="283.5" height="152.4"/>
<g>
	<g>
		<linearGradient id="SVGID_2_" gradientUnits="userSpaceOnUse" x1="26.8398" y1="151.3029" x2="73.1449" y2="151.3029">
			<stop  offset="0" style="stop-color:#FFDD00"/>
			<stop  offset="1" style="stop-color:#F29100"/>
		</linearGradient>
		<path class="st1" d="M71,161.8H30.7c-1.4-1.1-2.7-2.6-3.4-4.2c-0.7-1.6-0.7-3.6,0.4-5c0.8-1,2-1.6,3-2.4c1.3-1.2,2.1-2.9,3.1-4.4
			c1-1.5,2.5-2.9,4.3-2.9c1.4,0,2.7,1,4.1,1.1c2.1,0.2,3.9-1.4,5.8-2.3c3.2-1.5,7.1-1,10.5-0.1c5.4,1.5,10.7,4.5,13.5,9.3
			C73.9,154.4,73.3,158.7,71,161.8z"/>
	</g>
	<g>
		<linearGradient id="SVGID_3_" gradientUnits="userSpaceOnUse" x1="234.2017" y1="128.9142" x2="271.1841" y2="128.9142">
			<stop  offset="0" style="stop-color:#FFDD00"/>
			<stop  offset="1" style="stop-color:#F29100"/>
		</linearGradient>
		<path class="st2" d="M245.5,150.3c-2.6-0.8-4.9-2.8-5.4-5.5c-0.3-2,0.3-4.1-0.4-5.9c-0.7-1.7-2.3-2.7-3.5-4.1
			c-3.3-3.7-2.3-10.2,1.9-12.8c2.3-1.4,5.2-1.7,7-3.6c1.7-1.8,2-4.4,3-6.6c1.3-2.9,4.2-5.3,7.4-5.5c3.2-0.2,6.6,2.1,7.1,5.3
			c0.3,1.6-0.1,3.3,0.1,4.9c0.4,3,2.9,5.1,5,7.3c2.1,2.1,4.1,5.1,3.3,7.9c-0.6,2-2.5,3.6-2.6,5.7c-0.1,1.8,1.1,3.3,1.5,5
			c0.8,3.6-2.2,7.2-5.7,8.5c-3.3,1.2-6.7,0.7-10.1,0.3C251.3,150.8,248.3,151.1,245.5,150.3z"/>
		<polygon class="st3" points="259.9,129.1 259.1,128.2 254,133.2 254,122.7 252.8,122.7 252.8,144.3 246.6,135.6 245.7,136.3 
			252.8,146.3 252.8,161.8 254,161.8 254,134.8 		"/>
	</g>
	<g>
		<linearGradient id="SVGID_4_" gradientUnits="userSpaceOnUse" x1="12.783" y1="138.5486" x2="40.4003" y2="138.5486">
			<stop  offset="0" style="stop-color:#FFDD00"/>
			<stop  offset="1" style="stop-color:#F29100"/>
		</linearGradient>
		<path class="st4" d="M24.6,151.7c-2.9,0.7-6.2,0.4-8.3-1.6c-1.9-1.8-2.7-4.5-3.1-7.1c-0.9-5.4-0.6-11.6,3.4-15.3
			c2.8-2.5,6.9-3.2,10.5-2.3c3.6,0.9,6.8,3.2,9.3,6c2.4,2.7,4.3,6.3,3.9,9.9c-0.5,4-3.3,5.1-6.5,6.2
			C30.7,148.6,27.9,150.9,24.6,151.7z"/>
		<g>
			<path class="st3" d="M38.2,161.8c-2.7-9-7.4-17.5-13.5-24.7l1-0.8c6.2,7.3,11,16,13.7,25.1L38.2,161.8z"/>
		</g>
	</g>
	<g>
		<polygon class="st5" points="134.6,124 134.6,161.8 223.3,161.8 223.3,128 		"/>
		<polygon class="st6" points="223.3,120.7 134.6,120.7 134.6,124 223.3,128 		"/>
		<polygon class="st3" points="223.3,120.7 223.3,128 246.5,139 246.5,120.7 		"/>
		<polygon class="st7" points="223.3,161.8 246.5,161.8 246.5,139 223.3,128 		"/>
	</g>
	<g>
		<rect x="69.6" y="119.5" class="st7" width="1.1" height="8.8"/>
		<rect x="72" y="119.5" class="st7" width="1.1" height="8.8"/>
		<rect x="74.4" y="119.5" class="st7" width="1.1" height="8.8"/>
		<rect x="105.6" y="119.5" class="st7" width="1.1" height="8.8"/>
		<rect x="108.1" y="119.5" class="st7" width="1.1" height="8.8"/>
		<rect x="110.5" y="119.5" class="st7" width="1.1" height="8.8"/>
	</g>
	<g>
		<rect x="139.4" y="121.3" class="st8" width="18.9" height="37.5"/>
		<rect x="159.6" y="121.3" class="st8" width="18.9" height="37.5"/>
		<rect x="179.7" y="121.3" class="st8" width="18.9" height="37.5"/>
		<rect x="199.8" y="121.3" class="st8" width="18.9" height="37.5"/>
		<path class="st9" d="M199.8,120.1h-1.3h-18.9h-1.3h-18.9h-1.3h-20.1v40.1h20.1h1.3h18.9h1.3h18.9h1.3H220v-40.1H199.8z
			 M218.7,158.9h-18.9v-37.5h18.9V158.9z M198.6,158.9h-18.9v-37.5h18.9V158.9z M178.4,158.9h-18.9v-37.5h18.9V158.9z M158.3,158.9
			h-18.9v-37.5h18.9V158.9z"/>
	</g>
	<g class="st10">
		<polygon class="st11" points="158.3,124 159.6,122.3 160.2,121.3 161.2,120.1 159.6,120.1 158.3,120.1 150.3,120.1 149.3,121.3 
			139.4,134.9 138.1,136.6 138.1,151.5 139.4,149.7 		"/>
		<polygon class="st11" points="159.6,129.1 165.2,121.3 166.2,120.1 164.1,120.1 163.2,121.3 159.6,126.3 158.3,128.1 139.4,153.8 
			138.1,155.5 138.1,158.3 139.4,156.5 158.3,130.8 		"/>
		<polygon class="st11" points="159.6,138.6 172.2,121.3 173.2,120.1 171.6,120.1 170.7,121.3 159.6,136.5 158.3,138.3 143.2,158.9 
			142.2,160.2 143.8,160.2 144.7,158.9 158.3,140.4 		"/>
		<polygon class="st11" points="179.7,149.1 198.6,123.7 199.8,122 200.3,121.3 201.3,120.1 199.8,120.1 198.6,120.1 187.8,120.1 
			186.9,121.3 179.7,131 178.4,132.7 159.6,158.1 158.1,160.2 158.3,160.2 159.6,160.2 171.5,160.2 172.5,158.9 178.4,150.9 		"/>
		<polygon class="st11" points="218.7,128.5 199.8,153.9 198.6,155.6 196.2,158.9 195.2,160.2 198.6,160.2 199.8,160.2 208.7,160.2 
			209.6,158.9 218.7,146.6 220,144.9 220,126.8 		"/>
		<polygon class="st11" points="199.8,129.1 205.6,121.3 206.6,120.1 205.3,120.1 204.4,121.3 199.8,127.4 198.6,129.1 179.7,154.5 
			178.4,156.2 176.4,158.9 175.5,160.2 176.7,160.2 177.7,158.9 178.4,157.9 179.7,156.2 198.6,130.9 		"/>
		<polygon class="st11" points="199.8,136.1 210.8,121.3 211.7,120.1 210.1,120.1 209.2,121.3 199.8,133.9 198.6,135.6 181.3,158.9 
			180.3,160.2 181.9,160.2 182.9,158.9 198.6,137.8 		"/>
	</g>
	<rect x="65.1" y="112.7" class="st12" width="15" height="7"/>
	<rect x="65.1" y="128" class="st12" width="15" height="33.8"/>
	<rect x="80.1" y="112.7" class="st5" width="6.4" height="7"/>
	<rect x="80.1" y="128" class="st5" width="6.4" height="33.8"/>
	<rect x="67.6" y="131.5" class="st9" width="9.9" height="4.6"/>
	<rect x="66.3" y="119.8" class="st5" width="1.3" height="8.2"/>
	<rect x="83.7" y="119.8" class="st5" width="1.3" height="8.2"/>
	<rect x="101.1" y="112.7" class="st12" width="15" height="7"/>
	<rect x="101.1" y="128" class="st12" width="15" height="33.8"/>
	<rect x="116.2" y="112.7" class="st5" width="6.4" height="7"/>
	<rect x="116.2" y="128" class="st5" width="6.4" height="33.8"/>
	<rect x="103.7" y="131.5" class="st9" width="9.9" height="4.6"/>
	<rect x="102.4" y="119.8" class="st5" width="1.3" height="8.2"/>
	<rect x="119.8" y="119.8" class="st5" width="1.3" height="8.2"/>
	<rect x="128.1" y="107.7" class="st5" width="124.9" height="14.4"/>
	<rect x="226.7" y="107.7" class="st6" width="26.4" height="14.4"/>
	<g>
		<rect x="91.6" y="96.4" class="st3" width="4.4" height="65.4"/>
		<rect x="211.6" y="96.4" class="st3" width="4.4" height="65.4"/>
	</g>
	<g>
		<rect x="77.6" y="88" class="st5" width="124.4" height="8.4"/>
		<rect x="202" y="88" class="st6" width="28" height="8.4"/>
	</g>
</g>
<g>
	<path class="st13" d="M110.8,142.7c0,0,11.4,1.4,15,2.5c3.6,1.1,9.2,2.7,10,9.6c0,0,1.1,0.6,1.1,1.6c0,1-0.1,4.3-1.2,6.8H44
		l-4.7-4.3c0,0-0.4-0.9-0.5-1.8c0-0.9,0.1-3.1,0.2-3.3c0.1-0.2,1-1.1,2.1-1.7c0,0-0.4-2.3,0.3-4.6s1.4-4.7,3.6-4.7H110.8z"/>
	<linearGradient id="SVGID_5_" gradientUnits="userSpaceOnUse" x1="87.8506" y1="151.9236" x2="87.8506" y2="161.2959">
		<stop  offset="0" style="stop-color:#E84B50"/>
		<stop  offset="0.1643" style="stop-color:#E74449"/>
		<stop  offset="0.5692" style="stop-color:#E6393E"/>
		<stop  offset="1" style="stop-color:#E6353A"/>
	</linearGradient>
	<path class="st14" d="M134.4,150.5c0.7,1.1,1.2,2.5,1.3,4.2c0,0,1.1,0.6,1.1,1.6c0,1-0.1,4.3-1.2,6.8H44l-4.7-4.3
		c0,0-0.4-0.9-0.5-1.8c0-0.9,0.1-3.1,0.2-3.3c0.1-0.2,1-1.1,2.1-1.7c0,0-0.1-0.6-0.1-1.4H134.4z"/>
	<g>
		<path class="st15" d="M134.3,150.4c0.1,0.1,0.1,0.2,0.2,0.3h-5.4c-0.5,0-2.2-0.5-3.6-1.2c-1.4-0.6-10.2-3.6-12.6-4.2
			c-1.9-0.5-3.5-1.6-4.3-2.6h0.3c0.8,0.9,2.3,1.9,4,2.3c2.4,0.6,11.2,3.6,12.6,4.2c1.4,0.7,3,1.1,3.4,1.1H134.3z"/>
		<path class="st15" d="M73.1,163.1c-0.5-2-2-7.8-1.9-11.8c0-4.5,0.5-7.2,2.7-8.7h0.5c-2.4,1.4-2.9,4-2.9,8.7c0,4,1.4,9.8,1.9,11.8
			H73.1z"/>
		<path class="st15" d="M107.2,147c-0.4-2.5-2.7-3.8-4.1-4.3h0.7c1.5,0.7,3.4,2,3.7,4.3c0.3,2.2,1.3,9.8-0.2,16.2H107
			C108.5,156.7,107.6,149.2,107.2,147z"/>
	</g>
	<path class="st16" d="M40.2,158.2c0.4,0,1.2,0,1.9-1.2l0,0c1.9-3.3,5.4-5.5,9.5-5.5c5.5,0,10,4,10.8,9.3l0,0c0.2,1,1.1,2.2,2,2.2
		c0.9,0,43.5,0,45.5,0c2,0,2.2-2.2,2.2-2.2l0,0c0.8-5.3,5.3-9.3,10.8-9.3c6.1,0,11,4.9,11,11c0,0.1,0,0.3,0,0.4c0.5,0,0.9,0,1.1,0
		c0.3,0,1-0.4,1-0.4s0,1.3,0,1.8c0,0.5-1.4,1.8-2.6,1.8h-0.4h-19.3h-1H61.9H60H45.9c0,0-2.6-0.6-4.2-1.8v0c0,0-1.6-1.1-1.9-1.6
		c-0.3-0.6-0.6-1.6-0.6-2s-0.2-2.4-0.2-2.4S39.8,158.2,40.2,158.2z"/>
	<g>
		<circle class="st17" cx="122.9" cy="162.5" r="8.5"/>
		
			<ellipse transform="matrix(0.7071 -0.7071 0.7071 0.7071 -78.9112 134.4933)" class="st18" cx="122.9" cy="162.5" rx="5.8" ry="5.8"/>
		<circle class="st17" cx="51.6" cy="162.5" r="8.5"/>
		
			<ellipse transform="matrix(0.7071 -0.7071 0.7071 0.7071 -99.7954 84.0743)" class="st18" cx="51.6" cy="162.5" rx="5.8" ry="5.8"/>
	</g>
	<path class="st11" d="M130.2,151c1,1.8,2.8,3.3,3.9,3.3c1.1,0,1.2-1.5,0.2-3.3c-1-1.8-2.8-3.3-3.9-3.3
		C129.2,147.7,129.1,149.2,130.2,151z"/>
	<path class="st16" d="M110.8,142.7c0,0,0,1.5-1.5,1.5S45,142.7,45,142.7s0.1-0.6,0.7-1.3c0.6-0.8,5.8-8.8,6.9-9.1
		c1.1-0.3,18.2-0.8,22.5-0.8s21.6,0.5,22.7,0.9C99,132.7,106.7,138.3,110.8,142.7z"/>
	<g>
		<path class="st19" d="M71.4,143.3l1.5-11.4l2,0.3l1.2,11.3C74.5,143.4,72.9,143.3,71.4,143.3z"/>
		<path class="st19" d="M102.9,144c-1.7-2.5-6.6-9.5-9.9-11.7l3.6,0.3c0,0,6.8,6.7,10.7,11.5C106.4,144.1,104.8,144.1,102.9,144z"/>
		<path class="st19" d="M45.7,141.3c0.6-0.8,5.8-8.8,6.9-9.1c0.3-0.1,1.9-0.2,4.2-0.3l1,0.1l-6.5,10.8c-3.8-0.1-6.2-0.1-6.2-0.1
			S45.1,142.1,45.7,141.3z"/>
	</g>
	<path class="st20" d="M99.4,133.2c0,0-1.1-1.6-4.6-1.8c-3.4-0.2-17.6-1.1-27.3-0.9c-9.7,0.1-12.5,0.5-13.5,0.5s-4.8,0.2-4.8,0.4
		c0,0.2,2.3,1,2.9,1.2C52.7,132.8,70.8,132.2,99.4,133.2z"/>
	<circle class="st15" cx="78.2" cy="147" r="1.9"/>
	<ellipse class="st21" cx="78.2" cy="147" rx="3.4" ry="0.6"/>
	<path class="st15" d="M41.7,150.5c-0.1,0.9,0.5,1.6,1.3,1.6l0,0c0.9,0,1.7-0.7,1.8-1.6l0.6-4.1c0.1-0.9-0.5-1.6-1.3-1.6l0,0
		c-0.9,0-1.7,0.7-1.8,1.6L41.7,150.5z"/>
</g>
</svg>
