<svg xmlns="http://www.w3.org/2000/svg" width="39.511" height="53.675" viewBox="0 0 39.511 53.675"><defs><style>.a{fill:#f8f8f8;}</style></defs><path class="a" d="M14.473,47.841v.895H10.895A.9.9,0,0,0,10,49.63v8.051a.9.9,0,0,0,.895.895h3.578v.895a.9.9,0,0,0,.895.895h3.578a.9.9,0,0,0,.895-.895v-.758l11.5,1.643a.873.873,0,0,0,.127.009.894.894,0,0,0,.4-.089L47.815,52.3A3.094,3.094,0,0,0,49.3,48.408a2.924,2.924,0,0,0-1.672-1.73,3.8,3.8,0,0,0-3.087.338l-8.875,3.228a2.684,2.684,0,0,0-2.4-1.508H19.84v-.895a.9.9,0,0,0-.895-.895H15.367A.9.9,0,0,0,14.473,47.841Zm0,8.946H11.789V50.525h2.684Zm5.367-6.262H33.259a.895.895,0,0,1,0,1.789H24.313V54.1h8.946a2.684,2.684,0,0,0,2.594-2.024l9.344-3.4a.864.864,0,0,0,.094-.039,2.265,2.265,0,0,1,1.7-.291,1.178,1.178,0,0,1,.647.716,1.294,1.294,0,0,1-.62,1.63l-15.7,7.851L19.84,56.906Zm-3.578-1.789h1.789v9.84H16.262Z" transform="translate(-10 -6.691)"/><path class="a" d="M19.385,15.866a2.773,2.773,0,0,0,.819,1.968h0a2.755,2.755,0,0,0,1.133.675,2.745,2.745,0,0,0,.649,2.9h0a2.773,2.773,0,0,0,1.879.805,2.755,2.755,0,0,0,1.652,2.45L23.777,26.4a3.424,3.424,0,0,0,2.428,5.845h.005c0,.052-.011.1-.011.155a6.262,6.262,0,1,0,9.84-5.119V25.629l5.105-5.105a3.742,3.742,0,0,0,.126-4.685L36.932,8.9V7.367h1.789V2H19.935V7.367h1.236L20.029,9.651a.9.9,0,0,0-.067.616l.773,3.092-.532.532A2.773,2.773,0,0,0,19.385,15.866Zm5.285,4.289a1.025,1.025,0,0,1-1.417,0h0a1,1,0,0,1,0-1.417l2.952-2.943.895.895v1.048Zm3.316-.787.895.895V21.31l-1.527,1.527a1.024,1.024,0,0,1-1.419,0,1,1,0,0,1,0-1.417ZM25.041,29.994a1.655,1.655,0,0,1,0-2.313l3.84-3.84V27.3A6.253,6.253,0,0,0,26.54,30.42a1.63,1.63,0,0,1-1.5-.426Zm11.892,2.422a4.473,4.473,0,1,1-8.051-2.674v1.779a3.578,3.578,0,1,0,7.157,0V29.742A4.473,4.473,0,0,1,36.932,32.416Zm2.846-15.59a2.032,2.032,0,0,1,.1,2.433l-3.84,3.84V18.473l1.527-1.527L36.3,15.681,34.511,17.47a.9.9,0,0,0-.262.632V31.521a1.789,1.789,0,0,1-3.578,0V19.892a.894.894,0,0,0-.262-.632l-1.527-1.527v-5H27.092v1.419l-2.94-2.946a.9.9,0,0,0-1.265,0l-.676.676-.432-1.729,1.394-2.788H35.143V9.157a.9.9,0,0,0,.136.474ZM21.724,3.789H36.932V5.578H21.724Zm-.257,11.367,2.051-2.051,1.416,1.419L22.87,16.589a1.022,1.022,0,0,1-1.4-.011h0a1,1,0,0,1,0-1.417Z" transform="translate(-10.989 -2)"/></svg>