<svg xmlns="http://www.w3.org/2000/svg" width="50.932" height="50.932" viewBox="0 0 50.932 50.932"><defs><style>.a{fill:#fff;}</style></defs><path class="a" d="M52.083,29.164h-7.64V7.093A5.093,5.093,0,0,0,39.35,2H21.524A4.244,4.244,0,0,0,17.28,6.244v6.027a4.259,4.259,0,0,0-3.4,4.159v5.942H2.849A.849.849,0,0,0,2,23.222V46.99a.849.849,0,0,0,.849.849H13.884v.849a4.244,4.244,0,0,0,4.244,4.244H35.106a4.244,4.244,0,0,0,4.244-4.244V37.652h8.489a5.093,5.093,0,0,0,5.093-5.093V30.012A.849.849,0,0,0,52.083,29.164ZM7.093,46.141H3.7V24.07h3.4Zm3.4,0h-1.7V24.07h1.7Zm3.4,0h-1.7V24.07h1.7Zm5.093-39.9A2.554,2.554,0,0,1,21.524,3.7H35.556a5.069,5.069,0,0,0-1.3,3.4V18.977H18.977ZM37.652,48.687a2.554,2.554,0,0,1-2.547,2.547H18.128a2.554,2.554,0,0,1-2.547-2.547V16.431a2.555,2.555,0,0,1,1.7-2.394v5.789a.849.849,0,0,0,.849.849H35.106a.849.849,0,0,0,.849-.849V14.037a2.555,2.555,0,0,1,1.7,2.394Zm1.7-12.733V16.431a4.259,4.259,0,0,0-3.4-4.159V7.093a3.4,3.4,0,0,1,6.791,0V32.559a5.075,5.075,0,0,0,1.307,3.4Zm11.884-3.4a3.4,3.4,0,1,1-6.791,0v-1.7h6.791Z" transform="translate(-2 -2)"/><path class="a" d="M24.244,36h-3.4a.849.849,0,0,0-.849.849v3.4a.849.849,0,0,0,.849.849h3.4a.849.849,0,0,0,.849-.849v-3.4A.849.849,0,0,0,24.244,36ZM23.4,39.4H21.7V37.7h1.7Z" transform="translate(-4.72 -7.139)"/><path class="a" d="M32.244,36h-3.4a.849.849,0,0,0-.849.849v3.4a.849.849,0,0,0,.849.849h3.4a.849.849,0,0,0,.849-.849v-3.4A.849.849,0,0,0,32.244,36ZM31.4,39.4H29.7V37.7h1.7Z" transform="translate(-5.93 -7.139)"/><path class="a" d="M40.244,36h-3.4a.849.849,0,0,0-.849.849v3.4a.849.849,0,0,0,.849.849h3.4a.849.849,0,0,0,.849-.849v-3.4A.849.849,0,0,0,40.244,36ZM39.4,39.4H37.7V37.7h1.7Z" transform="translate(-7.139 -7.139)"/><path class="a" d="M24.244,44h-3.4a.849.849,0,0,0-.849.849v3.4a.849.849,0,0,0,.849.849h3.4a.849.849,0,0,0,.849-.849v-3.4A.849.849,0,0,0,24.244,44ZM23.4,47.4H21.7V45.7h1.7Z" transform="translate(-4.72 -8.348)"/><path class="a" d="M32.244,44h-3.4a.849.849,0,0,0-.849.849v3.4a.849.849,0,0,0,.849.849h3.4a.849.849,0,0,0,.849-.849v-3.4A.849.849,0,0,0,32.244,44ZM31.4,47.4H29.7V45.7h1.7Z" transform="translate(-5.93 -8.348)"/><path class="a" d="M40.244,44h-3.4a.849.849,0,0,0-.849.849v3.4a.849.849,0,0,0,.849.849h3.4a.849.849,0,0,0,.849-.849v-3.4A.849.849,0,0,0,40.244,44ZM39.4,47.4H37.7V45.7h1.7Z" transform="translate(-7.139 -8.348)"/><path class="a" d="M24.244,52h-3.4a.849.849,0,0,0-.849.849v3.4a.849.849,0,0,0,.849.849h3.4a.849.849,0,0,0,.849-.849v-3.4A.849.849,0,0,0,24.244,52ZM23.4,55.4H21.7V53.7h1.7Z" transform="translate(-4.72 -9.557)"/><path class="a" d="M32.244,52h-3.4a.849.849,0,0,0-.849.849v3.4a.849.849,0,0,0,.849.849h3.4a.849.849,0,0,0,.849-.849v-3.4A.849.849,0,0,0,32.244,52ZM31.4,55.4H29.7V53.7h1.7Z" transform="translate(-5.93 -9.557)"/><path class="a" d="M40.244,52h-3.4a.849.849,0,0,0-.849.849v3.4a.849.849,0,0,0,.849.849h3.4a.849.849,0,0,0,.849-.849v-3.4A.849.849,0,0,0,40.244,52ZM39.4,55.4H37.7V53.7h1.7Z" transform="translate(-7.139 -9.557)"/><path class="a" d="M37.826,28H20.849a.849.849,0,0,0-.849.849v3.4a.849.849,0,0,0,.849.849H37.826a.849.849,0,0,0,.849-.849v-3.4A.849.849,0,0,0,37.826,28Zm-.849,3.4H21.7V29.7h15.28Z" transform="translate(-4.72 -5.93)"/><path class="a" d="M33.093,13.791a2.555,2.555,0,0,1-1.7,2.394v1H29.7v-1A2.555,2.555,0,0,1,28,13.791h1.7a.849.849,0,1,0,.849-.849A2.547,2.547,0,0,1,29.7,8V7h1.7V8a2.555,2.555,0,0,1,1.7,2.394H31.4a.849.849,0,1,0-.849.849A2.554,2.554,0,0,1,33.093,13.791Z" transform="translate(-5.93 -2.756)"/><path class="a" d="M2,2H3.7V3.7H2Z" transform="translate(-2 -2)"/><path class="a" d="M6,2h6.791V3.7H6Z" transform="translate(-2.605 -2)"/><path class="a" d="M2,8H3.7V9.7H2Z" transform="translate(-2 -2.907)"/><path class="a" d="M6,8h6.791V9.7H6Z" transform="translate(-2.605 -2.907)"/><path class="a" d="M2,14H3.7v1.7H2Z" transform="translate(-2 -3.814)"/><path class="a" d="M6,14h6.791v1.7H6Z" transform="translate(-2.605 -3.814)"/><path class="a" d="M60,48h1.7v1.7H60Z" transform="translate(-10.766 -8.952)"/><path class="a" d="M50,48h6.791v1.7H50Z" transform="translate(-9.255 -8.952)"/><path class="a" d="M60,54h1.7v1.7H60Z" transform="translate(-10.766 -9.859)"/><path class="a" d="M50,54h6.791v1.7H50Z" transform="translate(-9.255 -9.859)"/><path class="a" d="M60,60h1.7v1.7H60Z" transform="translate(-10.766 -10.766)"/><path class="a" d="M50,60h6.791v1.7H50Z" transform="translate(-9.255 -10.766)"/></svg>