<?xml version="1.0" encoding="utf-8"?>
<!-- Generator: Adobe Illustrator 24.0.2, SVG Export Plug-In . SVG Version: 6.00 Build 0)  -->
<svg version="1.1" id="Capa_1" xmlns="http://www.w3.org/2000/svg" xmlns:xlink="http://www.w3.org/1999/xlink" x="0px" y="0px"
	 viewBox="0 0 141.7 141.7" style="enable-background:new 0 0 141.7 141.7;" xml:space="preserve">

<g>
	<g>
		<path class="st0" d="M71.3,83.9c-0.5,0-0.9-0.2-1.3-0.5c-1.1-1-27.7-24-36.1-37.1c-4.4-6.9-4.7-14.8-0.8-21.7
			c4.2-7.5,12.6-12.5,21-12.4c6.7,0.1,12.8,2.8,17.2,7.6c4.2-4.6,10.3-7.3,17.2-7.5c8.5-0.2,16.3,4.4,20.5,12c4,7.2,3.9,15.6-0.3,22
			c-6.8,10.4-34.8,36-36,37.1C72.3,83.7,71.8,83.9,71.3,83.9z M53.8,16.2c-6.9,0-13.8,4.1-17.2,10.4c-3.2,5.7-2.9,11.9,0.7,17.6
			c7,11,28.4,30.2,34,35.1c5.7-5.3,28.4-26.4,34.1-35.1c3.4-5.2,3.4-11.9,0.1-17.9c-3.5-6.3-9.9-10-16.9-9.9
			c-6.5,0.2-12.2,3-15.6,7.9c-0.4,0.5-1,0.8-1.6,0.8c0,0,0,0,0,0c-0.6,0-1.2-0.3-1.6-0.8c-3.7-5-9.4-7.9-15.6-8
			C54,16.2,53.9,16.2,53.8,16.2z"/>
	</g>
	<g>
		<g>
			<path class="st0" d="M99.6,129.6H76.7c-1.1,0-2-0.9-2-2V98.4c0-4,1.4-7.9,3.8-11l18-22.2c1.2-1.4,2.9-2.3,4.7-2.4
				c1.8-0.1,3.5,0.5,4.8,1.8c2.4,2.3,2.7,6.2,0.7,8.8L95.1,88.5c2.3,0.6,4.8-0.1,6.4-2.1l11.2-13.9c0.4-0.6,0.6-1.2,0.6-1.8V47.2
				c0-3.9,3.1-7,7-7c3.6,0,6.7,2.8,7,6.4l1.6,34.6c0.1,1.5-0.3,3.1-1.3,4.4l-19.6,27.6c-0.5,0.7-0.7,1.5-0.6,2.5l1.2,11.5
				c0.1,0.6-0.1,1.1-0.5,1.5c-0.4,0.4-0.9,0.7-1.5,0.7h-6.3C100,129.6,99.8,129.6,99.6,129.6z M78.7,125.6H99
				c0.2-0.1,0.4-0.1,0.6-0.1h4.7l-1-9.4c-0.1-2,0.3-3.7,1.4-5.2l19.7-27.7c0.4-0.6,0.6-1.1,0.5-1.8l-1.6-34.6
				c-0.1-1.5-1.4-2.7-3-2.7c-1.7,0-3,1.3-3,3v23.5c0,1.4-0.4,2.8-1.3,4.1c0,0.1-0.1,0.1-0.1,0.1l-11.3,14c-3.4,4.1-9.4,5-13.7,1.9
				c-0.4-0.3-0.7-0.8-0.8-1.3c-0.1-0.5,0.1-1.1,0.4-1.5l13.2-17c0.8-1,0.6-2.5-0.3-3.4c-0.5-0.5-1.2-0.7-1.9-0.7
				c-0.7,0-1.4,0.4-1.8,0.9L81.7,90c-1.9,2.4-3,5.3-3,8.4V125.6z"/>
		</g>
	</g>
	<g>
		<path class="st0" d="M65,129.4H35.1c-0.6,0-1.1-0.2-1.5-0.7c-0.4-0.4-0.6-1-0.5-1.5l1.2-11.6c0.1-0.9-0.2-1.8-0.6-2.4l-4.4-6.2
			l-2.2-3L13.9,85.5c-1-1.4-1.4-3-1.3-4.5l1.6-34.4c0.3-3.7,3.4-6.5,7-6.5c3.9,0,7,3.1,7,7v23.6c0,0.7,0.2,1.3,0.5,1.7l11.4,14.1
			c1.6,2,4.1,2.7,6.4,2.1L34.7,73.4c-2-2.7-1.7-6.5,0.7-8.8c1.3-1.2,3-1.9,4.8-1.8c1.8,0.1,3.5,0.9,4.7,2.3l18.2,22.1
			c2.5,3.2,3.9,7.1,3.9,11v29.1C67,128.5,66.1,129.4,65,129.4z M37.3,125.4H63V98.3c0-3-1.1-6-3-8.5L41.9,67.8
			c-0.5-0.5-1.1-0.9-1.8-0.9c-0.7,0-1.3,0.2-1.9,0.7c-1,0.9-1.1,2.4-0.3,3.5l13.2,17c0.3,0.4,0.5,1,0.4,1.5c-0.1,0.5-0.4,1-0.8,1.3
			c-4.4,3.1-10.4,2.3-13.7-1.9L25.6,75c-0.9-1-1.4-2.6-1.4-4.3V47.1c0-1.7-1.3-3-3-3c-1.6,0-2.9,1.2-3,2.8l-1.6,34.4
			c-0.1,0.6,0.2,1.3,0.6,1.9l4.9,6.7l2.1,3l8.4,11.7c0,0,0,0,0,0l4.4,6.2c1,1.4,1.5,3.2,1.4,5.1L37.3,125.4z"/>
	</g>
</g>
</svg>
