<?xml version="1.0" encoding="utf-8"?>
<!-- Generator: Adobe Illustrator 24.0.2, SVG Export Plug-In . SVG Version: 6.00 Build 0)  -->
<svg version="1.1" id="Capa_1" xmlns="http://www.w3.org/2000/svg" xmlns:xlink="http://www.w3.org/1999/xlink" x="0px" y="0px"
	 viewBox="0 0 170.1 170.1" style="enable-background:new 0 0 170.1 170.1;" xml:space="preserve">
<style type="text/css">
	.st0{fill:#FFFFFF;}
	.st1{fill:#81BD5F;}
	.st2{fill:#C4DEB5;}
	.st3{fill:#8DBE22;}
	.st4{fill:#FFCE00;}
</style>
<g>
	<g>
		<g>
			<polyline class="st0" points="61.4,69.3 30.8,69.3 30.8,83.3 30.8,108.7 30.8,123.7 115.8,123.7 115.8,111.9 115.8,69.3 			"/>
			<path class="st1" d="M115.8,124.7h-85c-0.5,0-1-0.4-1-1V69.3c0-0.5,0.4-1,1-1h30.6c0.5,0,1,0.4,1,1s-0.4,1-1,1H31.8v52.5h83.1
				V69.3c0-0.5,0.4-1,1-1c0.5,0,1,0.4,1,1v54.4C116.8,124.3,116.4,124.7,115.8,124.7z"/>
		</g>
		<g>
			<polyline class="st0" points="62.6,69.3 25.3,69.3 25.3,47.9 120.7,47.9 120.7,69.3 84,69.3 			"/>
			<path class="st1" d="M120.7,70.3H84c-0.5,0-1-0.4-1-1s0.4-1,1-1h35.7V48.9H26.2v19.5h36.4c0.5,0,1,0.4,1,1s-0.4,1-1,1H25.3
				c-0.5,0-1-0.4-1-1V47.9c0-0.5,0.4-1,1-1h95.5c0.5,0,1,0.4,1,1v21.4C121.7,69.9,121.3,70.3,120.7,70.3z"/>
		</g>
		<g>
			
				<rect x="35.4" y="75.1" transform="matrix(5.649709e-11 -1 1 5.649709e-11 -12.5055 159.1508)" class="st2" width="75.8" height="21.4"/>
		</g>
		<g>
			<path class="st1" d="M73,48.9H49c-6.1,0-11.1-5-11.1-11.1c0-4.6,2.7-8.6,6.9-10.3c4.3-1.7,8.9-0.8,12.1,2.5l16.7,17.2
				c0.3,0.3,0.3,0.7,0.2,1.1C73.7,48.7,73.4,48.9,73,48.9z M49.1,28.6c-1.2,0-2.4,0.2-3.5,0.7c-3.5,1.4-5.7,4.7-5.7,8.5
				c0,5.1,4.1,9.2,9.2,9.2h21.7L55.6,31.4C53.8,29.6,51.5,28.6,49.1,28.6z"/>
		</g>
		<g>
			<path class="st1" d="M97,48.9H73c-0.4,0-0.7-0.2-0.9-0.6C72,48,72,47.6,72.3,47.3L89,30.1c3.2-3.3,7.9-4.3,12.1-2.5
				c4.3,1.7,6.9,5.7,6.9,10.3C108.1,44,103.1,48.9,97,48.9z M75.3,47H97c5.1,0,9.2-4.1,9.2-9.2c0-3.8-2.2-7.1-5.7-8.5
				c-3.5-1.4-7.4-0.6-10,2.1L75.3,47z"/>
		</g>
	</g>
	<g>
		<circle class="st3" cx="54.6" cy="81.8" r="3"/>
	</g>
	<g>
		<circle class="st3" cx="90.8" cy="81.8" r="3"/>
	</g>
	<g>
		<ellipse class="st0" cx="73" cy="89" rx="3" ry="4.5"/>
		<path class="st1" d="M73,94.5c-2.2,0-4-2.4-4-5.4c0-3.1,1.7-5.4,4-5.4c2.2,0,4,2.4,4,5.4C77,92.1,75.2,94.5,73,94.5z M73,85.5
			c-1,0-2,1.4-2,3.5s1.1,3.5,2,3.5c1,0,2-1.4,2-3.5S74,85.5,73,85.5z"/>
	</g>
	<g>
		<path class="st4" d="M155.8,17.2c0,8.5-8.3,15.6-19.1,16.9c-1.2,0.2-3.2,2.9-6,5c1.3-3.6-0.2-4.9-1.4-5c-11-1.3-19.4-8.4-19.4-17
			C110,7.7,120.2,0,132.9,0C145.5,0,155.8,7.7,155.8,17.2z"/>
	</g>
	<g>
		<g>
			<circle class="st0" cx="132.9" cy="24.7" r="0.4"/>
			<path class="st0" d="M132.9,26.1c-0.8,0-1.4-0.6-1.4-1.4s0.6-1.4,1.4-1.4c0.8,0,1.4,0.6,1.4,1.4S133.6,26.1,132.9,26.1z
				 M132.9,24.2c-0.3,0-0.6,0.2-0.6,0.6s0.2,0.6,0.6,0.6c0.3,0,0.6-0.2,0.6-0.6S133.2,24.2,132.9,24.2z"/>
		</g>
		<g>
			<path class="st0" d="M132.9,22c-0.5,0-1-0.4-1-1l0-2.4c0-0.3,0.1-0.5,0.3-0.7c0.2-0.2,0.4-0.3,0.7-0.3c2.1,0,3.7-1.7,3.7-3.7
				s-1.7-3.7-3.7-3.7c-2.1,0-3.7,1.7-3.7,3.7c0,0.5-0.4,1-1,1c-0.5,0-1-0.4-1-1c0-3.1,2.5-5.7,5.7-5.7c3.1,0,5.7,2.5,5.7,5.7
				c0,2.8-2,5.1-4.7,5.6l0,1.5C133.9,21.6,133.5,22,132.9,22C132.9,22,132.9,22,132.9,22z"/>
		</g>
	</g>
</g>
<g>
	
		<image style="overflow:visible;" width="784" height="336" xlink:href="assets/svg/379ABBA310BCCB30.png"  transform="matrix(0.24 0 0 0.24 -20.1166 110.16)">
	</image>
</g>
</svg>
