<?xml version="1.0" encoding="utf-8"?>
<!-- Generator: Adobe Illustrator 24.0.2, SVG Export Plug-In . SVG Version: 6.00 Build 0)  -->
<svg version="1.1" id="Capa_1" xmlns="http://www.w3.org/2000/svg" xmlns:xlink="http://www.w3.org/1999/xlink" x="0px" y="0px"
	 viewBox="0 0 40 40" style="enable-background:new 0 0 40 40;" xml:space="preserve">
<style type="text/css">
	.st0{fill:#FFFFFF;}
	.st1{fill:#DA2B34;}
	.st2{fill:#EF8C8C;}
	.st3{fill:#6FC7DA;}
	.st4{opacity:0.5;}
	.st5{fill:#DB2C35;}
</style>
<g>
	
		<image style="overflow:visible;" width="1436" height="384" xlink:href="assets/svg/7CD37DE5B7DABA77.png"  transform="matrix(2.812293e-02 0 0 2.812293e-02 -0.1923 29.5849)">
	</image>
	<g>
		<g>
			<polyline class="st0" points="16.8,12.2 8.3,12.2 8.3,16.1 8.3,23.2 8.3,27.3 31.9,27.3 31.9,24 31.9,12.2 			"/>
			<path class="st1" d="M31.9,27.6H8.3c-0.1,0-0.3-0.1-0.3-0.3V12.2c0-0.1,0.1-0.3,0.3-0.3h8.5c0.1,0,0.3,0.1,0.3,0.3
				s-0.1,0.3-0.3,0.3H8.6v14.6h23.1V12.2c0-0.1,0.1-0.3,0.3-0.3c0.1,0,0.3,0.1,0.3,0.3v15.1C32.2,27.5,32,27.6,31.9,27.6z"/>
		</g>
		<g>
			<polyline class="st0" points="17.1,12.2 6.8,12.2 6.8,6.3 33.2,6.3 33.2,12.2 23.1,12.2 			"/>
			<path class="st1" d="M33.2,12.5H23.1c-0.1,0-0.3-0.1-0.3-0.3s0.1-0.3,0.3-0.3H33V6.5H7v5.4h10.1c0.1,0,0.3,0.1,0.3,0.3
				s-0.1,0.3-0.3,0.3H6.8c-0.1,0-0.3-0.1-0.3-0.3V6.3C6.5,6.1,6.6,6,6.8,6h26.5c0.1,0,0.3,0.1,0.3,0.3v5.9
				C33.5,12.4,33.4,12.5,33.2,12.5z"/>
		</g>
		<g>
			
				<rect x="9.6" y="13.8" transform="matrix(5.644025e-11 -1 1 5.644025e-11 3.2918 36.8878)" class="st2" width="21" height="5.9"/>
		</g>
		<g>
			<path class="st1" d="M20,6.6h-6.7c-1.7,0-3.1-1.4-3.1-3.1c0-1.3,0.7-2.4,1.9-2.9c1.2-0.5,2.5-0.2,3.4,0.7l4.6,4.8
				c0.1,0.1,0.1,0.2,0.1,0.3C20.2,6.5,20.1,6.6,20,6.6z M13.4,0.9c-0.3,0-0.7,0.1-1,0.2c-1,0.4-1.6,1.3-1.6,2.4
				c0,1.4,1.1,2.5,2.5,2.5h6l-4.2-4.3C14.7,1.2,14,0.9,13.4,0.9z"/>
		</g>
		<g>
			<path class="st1" d="M26.7,6.6H20c-0.1,0-0.2-0.1-0.2-0.2c0-0.1,0-0.2,0.1-0.3l4.6-4.8c0.9-0.9,2.2-1.2,3.4-0.7
				c1.2,0.5,1.9,1.6,1.9,2.9C29.7,5.2,28.4,6.6,26.7,6.6z M20.6,6h6c1.4,0,2.5-1.1,2.5-2.5c0-1.1-0.6-2-1.6-2.4s-2-0.2-2.8,0.6
				L20.6,6z"/>
		</g>
		<g>
			<path class="st1" d="M21.7,18.4c-0.1,0-0.3-0.1-0.3-0.3c0-0.8-0.6-1.4-1.4-1.4s-1.4,0.6-1.4,1.4c0,0.1-0.1,0.3-0.3,0.3
				S18,18.3,18,18.1c0-1.1,0.9-2,2-2s2,0.9,2,2C22,18.3,21.8,18.4,21.7,18.4z"/>
		</g>
		<g>
			<g>
				<path class="st3" d="M15.7,15.6l0,10.1c0,0,3.2-0.1,2.6,1.4c-0.6,1.4-5.6,2.1-6.2-0.4c-1.2-0.5-0.7-1.6,2-1.9c0-1.3,0-9.1,0-9.1
					L15.7,15.6z"/>
			</g>
			<g class="st4">
				<path class="st0" d="M14.5,15c0,0,0,9.6,0,10s-2.3-0.1-2.3,1c0,0.6,1.4,0,1.5,0.3s-0.9,0.4-0.8,0.8c0.1,0.4,1.3,0.6,1.4,0.5
					c0.1-0.2-0.4-0.2-0.2-0.6c0.2-0.4,1.1-0.1,1.4-0.6c0.3-0.4-0.7-0.8-0.7-1.4s0-10,0-10H14.5z"/>
			</g>
		</g>
		<g>
			<g>
				<path class="st3" d="M25.9,15.6c0,0,0,8.7,0,9.3c2-0.1,4.1,0.8,2.2,1.7c-0.2,2.3-4.6,2-5.8,0.9c-1.1-1,0.6-1.7,2-1.9
					c0-1.3,0-10.1,0-10.1H25.9z"/>
			</g>
			<g class="st4">
				<path class="st0" d="M24.7,15.1c0,0,0.1,10.3-0.1,10.7c-0.2,0.4-0.7,0.6-1.2,0.8c-0.4,0.1-0.7,0.2-0.7,0.5
					c0,0.6,1.6,0.7,1.7,0.5c0.1-0.2-0.3-0.3-0.2-0.7c0.1-0.3,0.9,0.1,0.9-1s0-10.7,0-10.7L24.7,15.1z"/>
			</g>
		</g>
		<g>
			<circle class="st5" cx="14.9" cy="15.7" r="0.8"/>
		</g>
		<g>
			<circle class="st5" cx="25.1" cy="15.7" r="0.8"/>
		</g>
	</g>
</g>
</svg>
