<?xml version="1.0" encoding="utf-8"?>
<!-- Generator: Adobe Illustrator 24.0.2, SVG Export Plug-In . SVG Version: 6.00 Build 0)  -->
<svg version="1.1" id="Capa_1" xmlns="http://www.w3.org/2000/svg" xmlns:xlink="http://www.w3.org/1999/xlink" x="0px" y="0px"
	 viewBox="0 0 40 40" style="enable-background:new 0 0 40 40;" xml:space="preserve">
<style type="text/css">
	.st0{fill:#FFFFFF;}
	.st1{fill:#D92B34;}
	.st2{fill:#6FC7DA;}
	.st3{opacity:0.8;}
</style>
<image style="overflow:visible;" width="1437" height="385" xlink:href="assets/svg/7CD37DE5B7DABA77.png"  transform="matrix(2.993010e-02 0 0 2.993010e-02 -1.5048 28.647)">
</image>
<g>
	<g>
		<circle class="st0" cx="19.9" cy="14.8" r="14.2"/>
		<path class="st1" d="M19.9,29.3c-8,0-14.6-6.5-14.6-14.6c0-8,6.5-14.6,14.6-14.6c8,0,14.6,6.5,14.6,14.6
			C34.5,22.8,28,29.3,19.9,29.3z M19.9,0.8C12.3,0.8,6,7.1,6,14.8c0,7.7,6.2,13.9,13.9,13.9c7.7,0,13.9-6.2,13.9-13.9
			C33.8,7.1,27.6,0.8,19.9,0.8z"/>
	</g>
	<g>
		<path class="st2" d="M13.9,13.4l0,14.5c0,0,4.5-0.1,3.7,1.9c-0.8,2-8,3-8.9-0.6c-1.7-0.7-1-2.3,2.8-2.7c0-1.8,0-13,0-13L13.9,13.4
			z"/>
	</g>
	<g class="st3">
		<path class="st0" d="M12.2,12.5c0,0,0,13.7,0,14.3c0,0.6-3.3-0.1-3.3,1.4c0,0.9,2,0.1,2.2,0.4s-1.4,0.5-1.2,1.1
			c0.2,0.6,1.8,0.9,1.9,0.7c0.1-0.3-0.5-0.3-0.3-0.9c0.3-0.6,1.6-0.2,2-0.8c0.4-0.6-1-1.1-1-2s0-14.3,0-14.3H12.2z"/>
	</g>
	<g>
		<path class="st2" d="M28.4,13.4c0,0,0,12.4,0,13.3c2.8-0.2,5.9,1.2,3.1,2.5c-0.3,3.3-6.6,2.8-8.3,1.3C21.7,29,24,28,26,27.8
			c0-1.9,0-14.4,0-14.4H28.4z"/>
	</g>
	<g class="st3">
		<path class="st0" d="M26.6,12.5c0,0,0.1,14.7-0.2,15.3c-0.3,0.6-0.9,0.9-1.7,1.1c-0.6,0.2-1,0.3-1,0.6c0,0.8,2.3,1,2.5,0.7
			c0.2-0.3-0.5-0.5-0.3-1c0.2-0.5,1.2,0.1,1.2-1.4c0-1.6,0-15.2,0-15.2L26.6,12.5z"/>
	</g>
	<g>
		<path class="st1" d="M22.4,16.3c-0.2,0-0.3-0.2-0.3-0.3c0-1.2-0.9-2.1-2.1-2.1c-1.2,0-2.1,0.9-2.1,2.1c0,0.2-0.2,0.3-0.3,0.3
			s-0.3-0.2-0.3-0.3c0-1.5,1.2-2.8,2.8-2.8c1.5,0,2.8,1.2,2.8,2.8C22.7,16.2,22.5,16.3,22.4,16.3z"/>
	</g>
	<g>
		<circle class="st1" cx="12.7" cy="13.4" r="1.2"/>
	</g>
	<g>
		<circle class="st1" cx="27.2" cy="13.4" r="1.2"/>
	</g>
</g>
</svg>
