<?xml version="1.0" encoding="utf-8"?>
<!-- Generator: Adobe Illustrator 24.0.2, SVG Export Plug-In . SVG Version: 6.00 Build 0)  -->
<svg version="1.1" id="Capa_1" xmlns="http://www.w3.org/2000/svg" xmlns:xlink="http://www.w3.org/1999/xlink" x="0px" y="0px"
	 viewBox="0 0 40 40" style="enable-background:new 0 0 40 40;" xml:space="preserve">
<style type="text/css">
	.st0{fill:#FFFFFF;}
	.st1{fill:#C5DFB5;}
	.st2{fill:#EBF4E6;}
	.st3{fill:#82BE5F;}
	.st4{fill:#EF8C8D;}
	.st5{fill:#83BE60;}
	.st6{fill:none;stroke:#82BE5F;stroke-width:1.5;stroke-linecap:round;stroke-linejoin:round;stroke-miterlimit:10;}
	.st7{fill:#E54346;}
	.st8{clip-path:url(#SVGID_2_);fill:#EF8C8D;}
	.st9{clip-path:url(#SVGID_2_);fill:#EF8B8C;}
	.st10{clip-path:url(#SVGID_2_);fill:#EF8A8B;}
	.st11{clip-path:url(#SVGID_2_);fill:#EF898A;}
	.st12{clip-path:url(#SVGID_2_);fill:#EF8889;}
	.st13{clip-path:url(#SVGID_2_);fill:#EF8788;}
	.st14{clip-path:url(#SVGID_2_);fill:#EF8687;}
	.st15{clip-path:url(#SVGID_2_);fill:#EE8586;}
	.st16{clip-path:url(#SVGID_2_);fill:#EE8485;}
	.st17{clip-path:url(#SVGID_2_);fill:#EE8384;}
	.st18{clip-path:url(#SVGID_2_);fill:#EE8283;}
	.st19{clip-path:url(#SVGID_2_);fill:#EE8182;}
	.st20{clip-path:url(#SVGID_2_);fill:#EE8081;}
	.st21{clip-path:url(#SVGID_2_);fill:#EE7F80;}
	.st22{clip-path:url(#SVGID_2_);fill:#EE7E7F;}
	.st23{clip-path:url(#SVGID_2_);fill:#EE7D7E;}
	.st24{clip-path:url(#SVGID_2_);fill:#EE7C7D;}
	.st25{clip-path:url(#SVGID_2_);fill:#EE7B7C;}
	.st26{clip-path:url(#SVGID_2_);fill:#ED7A7B;}
	.st27{clip-path:url(#SVGID_2_);fill:#ED797A;}
	.st28{clip-path:url(#SVGID_2_);fill:#ED7879;}
	.st29{clip-path:url(#SVGID_2_);fill:#ED7778;}
	.st30{clip-path:url(#SVGID_2_);fill:#ED7577;}
	.st31{clip-path:url(#SVGID_2_);fill:#ED7476;}
	.st32{clip-path:url(#SVGID_2_);fill:#ED7375;}
	.st33{clip-path:url(#SVGID_2_);fill:#ED7274;}
	.st34{clip-path:url(#SVGID_2_);fill:#ED7173;}
	.st35{clip-path:url(#SVGID_2_);fill:#ED7073;}
	.st36{clip-path:url(#SVGID_2_);fill:#EC6F72;}
	.st37{clip-path:url(#SVGID_2_);fill:#EC6E71;}
	.st38{clip-path:url(#SVGID_2_);fill:#EC6E70;}
	.st39{clip-path:url(#SVGID_2_);fill:#EC6D6F;}
	.st40{clip-path:url(#SVGID_2_);fill:#EC6C6E;}
	.st41{clip-path:url(#SVGID_2_);fill:#EC6B6E;}
	.st42{clip-path:url(#SVGID_2_);fill:#EC6B6D;}
	.st43{clip-path:url(#SVGID_2_);fill:#EC6A6C;}
	.st44{clip-path:url(#SVGID_2_);fill:#EC696B;}
	.st45{clip-path:url(#SVGID_2_);fill:#EB696A;}
	.st46{clip-path:url(#SVGID_2_);fill:#EB6869;}
	.st47{clip-path:url(#SVGID_2_);fill:#EB6769;}
	.st48{clip-path:url(#SVGID_2_);fill:#EB6668;}
	.st49{clip-path:url(#SVGID_2_);fill:#EB6667;}
	.st50{clip-path:url(#SVGID_2_);fill:#EB6566;}
	.st51{clip-path:url(#SVGID_2_);fill:#EB6465;}
	.st52{clip-path:url(#SVGID_2_);fill:#EB6365;}
	.st53{clip-path:url(#SVGID_2_);fill:#EB6364;}
	.st54{clip-path:url(#SVGID_2_);fill:#EB6263;}
	.st55{clip-path:url(#SVGID_2_);fill:#EA6162;}
	.st56{clip-path:url(#SVGID_2_);fill:#EA6061;}
	.st57{clip-path:url(#SVGID_2_);fill:#EA5F60;}
	.st58{clip-path:url(#SVGID_2_);fill:#EA5E5F;}
	.st59{clip-path:url(#SVGID_2_);fill:#EA5D5E;}
	.st60{clip-path:url(#SVGID_2_);fill:#EA5C5D;}
	.st61{clip-path:url(#SVGID_2_);fill:#EA5B5C;}
	.st62{clip-path:url(#SVGID_2_);fill:#E95A5B;}
	.st63{clip-path:url(#SVGID_2_);fill:#E9595A;}
	.st64{clip-path:url(#SVGID_2_);fill:#E95859;}
	.st65{clip-path:url(#SVGID_2_);fill:#E95758;}
	.st66{clip-path:url(#SVGID_2_);fill:#E95657;}
	.st67{clip-path:url(#SVGID_2_);fill:#E95556;}
	.st68{clip-path:url(#SVGID_2_);fill:#E95455;}
	.st69{clip-path:url(#SVGID_2_);fill:#E85355;}
	.st70{clip-path:url(#SVGID_2_);fill:#E85354;}
	.st71{clip-path:url(#SVGID_2_);fill:#E85253;}
	.st72{clip-path:url(#SVGID_2_);fill:#E85152;}
	.st73{clip-path:url(#SVGID_2_);fill:#E85052;}
	.st74{clip-path:url(#SVGID_2_);fill:#E84F51;}
	.st75{clip-path:url(#SVGID_2_);fill:#E84F50;}
	.st76{clip-path:url(#SVGID_2_);fill:#E84E4F;}
	.st77{clip-path:url(#SVGID_2_);fill:#E84D4F;}
	.st78{clip-path:url(#SVGID_2_);fill:#E84C4E;}
	.st79{clip-path:url(#SVGID_2_);fill:#E74B4D;}
	.st80{clip-path:url(#SVGID_2_);fill:#E74A4C;}
	.st81{clip-path:url(#SVGID_2_);fill:#E7494B;}
	.st82{clip-path:url(#SVGID_2_);fill:#E7484A;}
	.st83{clip-path:url(#SVGID_2_);fill:#E74749;}
	.st84{clip-path:url(#SVGID_2_);fill:#E74649;}
	.st85{clip-path:url(#SVGID_2_);fill:#E74548;}
	.st86{clip-path:url(#SVGID_2_);fill:#E74547;}
	.st87{clip-path:url(#SVGID_2_);fill:#E64446;}
	.st88{clip-path:url(#SVGID_2_);fill:#E64346;}
	.st89{clip-path:url(#SVGID_2_);fill:#E64245;}
	.st90{clip-path:url(#SVGID_2_);fill:#E64144;}
	.st91{clip-path:url(#SVGID_2_);fill:#E64044;}
	.st92{clip-path:url(#SVGID_2_);fill:#E63F43;}
	.st93{clip-path:url(#SVGID_2_);fill:#E63F42;}
	.st94{clip-path:url(#SVGID_2_);fill:#E63E41;}
	.st95{clip-path:url(#SVGID_2_);fill:#E63D41;}
	.st96{clip-path:url(#SVGID_2_);fill:#E53C40;}
	.st97{clip-path:url(#SVGID_2_);fill:#E53B3F;}
	.st98{clip-path:url(#SVGID_2_);fill:#E53A3E;}
	.st99{clip-path:url(#SVGID_2_);fill:#E5393D;}
	.st100{clip-path:url(#SVGID_2_);fill:#E5383D;}
	.st101{clip-path:url(#SVGID_2_);fill:#E5373C;}
	.st102{clip-path:url(#SVGID_2_);fill:#E5373B;}
	.st103{clip-path:url(#SVGID_4_);fill:#EF8C8D;}
	.st104{clip-path:url(#SVGID_4_);fill:#EF8B8C;}
	.st105{clip-path:url(#SVGID_4_);fill:#EF8A8B;}
	.st106{clip-path:url(#SVGID_4_);fill:#EF898A;}
	.st107{clip-path:url(#SVGID_4_);fill:#EF8889;}
	.st108{clip-path:url(#SVGID_4_);fill:#EF8788;}
	.st109{clip-path:url(#SVGID_4_);fill:#EF8687;}
	.st110{clip-path:url(#SVGID_4_);fill:#EE8586;}
	.st111{clip-path:url(#SVGID_4_);fill:#EE8485;}
	.st112{clip-path:url(#SVGID_4_);fill:#EE8384;}
	.st113{clip-path:url(#SVGID_4_);fill:#EE8283;}
	.st114{clip-path:url(#SVGID_4_);fill:#EE8182;}
	.st115{clip-path:url(#SVGID_4_);fill:#EE8081;}
	.st116{clip-path:url(#SVGID_4_);fill:#EE7F80;}
	.st117{clip-path:url(#SVGID_4_);fill:#EE7E7F;}
	.st118{clip-path:url(#SVGID_4_);fill:#EE7D7E;}
	.st119{clip-path:url(#SVGID_4_);fill:#EE7C7D;}
	.st120{clip-path:url(#SVGID_4_);fill:#EE7B7C;}
	.st121{clip-path:url(#SVGID_4_);fill:#ED7A7B;}
	.st122{clip-path:url(#SVGID_4_);fill:#ED797A;}
	.st123{clip-path:url(#SVGID_4_);fill:#ED7879;}
	.st124{clip-path:url(#SVGID_4_);fill:#ED7778;}
	.st125{clip-path:url(#SVGID_4_);fill:#ED7577;}
	.st126{clip-path:url(#SVGID_4_);fill:#ED7476;}
	.st127{clip-path:url(#SVGID_4_);fill:#ED7375;}
	.st128{clip-path:url(#SVGID_4_);fill:#ED7274;}
	.st129{clip-path:url(#SVGID_4_);fill:#ED7173;}
	.st130{clip-path:url(#SVGID_4_);fill:#ED7073;}
	.st131{clip-path:url(#SVGID_4_);fill:#EC6F72;}
	.st132{clip-path:url(#SVGID_4_);fill:#EC6E71;}
	.st133{clip-path:url(#SVGID_4_);fill:#EC6D70;}
	.st134{clip-path:url(#SVGID_4_);fill:#EC6C6F;}
	.st135{clip-path:url(#SVGID_4_);fill:#EC6C6E;}
	.st136{clip-path:url(#SVGID_4_);fill:#EB6B6D;}
	.st137{clip-path:url(#SVGID_4_);fill:#EB6A6C;}
	.st138{clip-path:url(#SVGID_4_);fill:#EB696C;}
	.st139{clip-path:url(#SVGID_4_);fill:#EB686B;}
	.st140{clip-path:url(#SVGID_4_);fill:#EB676A;}
	.st141{clip-path:url(#SVGID_4_);fill:#EA6669;}
	.st142{clip-path:url(#SVGID_4_);fill:#EA6668;}
	.st143{clip-path:url(#SVGID_4_);fill:#EA6567;}
	.st144{clip-path:url(#SVGID_4_);fill:#EA6466;}
	.st145{clip-path:url(#SVGID_4_);fill:#EA6365;}
	.st146{clip-path:url(#SVGID_4_);fill:#E96265;}
	.st147{clip-path:url(#SVGID_4_);fill:#E96164;}
	.st148{clip-path:url(#SVGID_4_);fill:#E96063;}
	.st149{clip-path:url(#SVGID_6_);fill:#EF8C8D;}
	.st150{clip-path:url(#SVGID_6_);fill:#EF8B8C;}
	.st151{clip-path:url(#SVGID_6_);fill:#EF8A8B;}
	.st152{clip-path:url(#SVGID_6_);fill:#EF898A;}
	.st153{clip-path:url(#SVGID_6_);fill:#EF8889;}
	.st154{clip-path:url(#SVGID_6_);fill:#EF8788;}
	.st155{clip-path:url(#SVGID_6_);fill:#EF8687;}
	.st156{clip-path:url(#SVGID_6_);fill:#EE8586;}
	.st157{clip-path:url(#SVGID_6_);fill:#EE8485;}
	.st158{clip-path:url(#SVGID_6_);fill:#EE8384;}
	.st159{clip-path:url(#SVGID_6_);fill:#EE8283;}
	.st160{clip-path:url(#SVGID_6_);fill:#EE8182;}
	.st161{clip-path:url(#SVGID_6_);fill:#EE8081;}
	.st162{clip-path:url(#SVGID_6_);fill:#EE7F80;}
	.st163{clip-path:url(#SVGID_6_);fill:#EE7E7F;}
	.st164{clip-path:url(#SVGID_6_);fill:#EE7D7E;}
	.st165{clip-path:url(#SVGID_6_);fill:#EE7C7D;}
	.st166{clip-path:url(#SVGID_6_);fill:#EE7B7C;}
	.st167{clip-path:url(#SVGID_6_);fill:#ED7A7B;}
	.st168{clip-path:url(#SVGID_6_);fill:#ED797A;}
	.st169{clip-path:url(#SVGID_6_);fill:#ED7879;}
	.st170{clip-path:url(#SVGID_6_);fill:#ED7778;}
	.st171{clip-path:url(#SVGID_6_);fill:#ED7577;}
	.st172{clip-path:url(#SVGID_6_);fill:#ED7476;}
	.st173{clip-path:url(#SVGID_6_);fill:#ED7375;}
	.st174{clip-path:url(#SVGID_6_);fill:#ED7274;}
	.st175{clip-path:url(#SVGID_6_);fill:#ED7173;}
	.st176{clip-path:url(#SVGID_6_);fill:#ED7073;}
	.st177{clip-path:url(#SVGID_6_);fill:#EC6F72;}
	.st178{clip-path:url(#SVGID_6_);fill:#EC6E71;}
	.st179{clip-path:url(#SVGID_6_);fill:#EC6D70;}
	.st180{clip-path:url(#SVGID_6_);fill:#EC6C6F;}
	.st181{clip-path:url(#SVGID_6_);fill:#EC6C6E;}
	.st182{clip-path:url(#SVGID_6_);fill:#EB6B6D;}
	.st183{clip-path:url(#SVGID_6_);fill:#EB6A6C;}
	.st184{clip-path:url(#SVGID_6_);fill:#EB696C;}
	.st185{clip-path:url(#SVGID_6_);fill:#EB686B;}
	.st186{clip-path:url(#SVGID_6_);fill:#EB676A;}
	.st187{clip-path:url(#SVGID_6_);fill:#EA6669;}
	.st188{clip-path:url(#SVGID_6_);fill:#EA6668;}
	.st189{clip-path:url(#SVGID_6_);fill:#EA6567;}
	.st190{clip-path:url(#SVGID_6_);fill:#EA6466;}
	.st191{clip-path:url(#SVGID_6_);fill:#EA6365;}
	.st192{clip-path:url(#SVGID_6_);fill:#E96265;}
	.st193{clip-path:url(#SVGID_6_);fill:#E96164;}
	.st194{clip-path:url(#SVGID_6_);fill:#E96063;}
	.st195{clip-path:url(#SVGID_8_);fill:#EF8C8D;}
	.st196{clip-path:url(#SVGID_8_);fill:#EF8B8C;}
	.st197{clip-path:url(#SVGID_8_);fill:#EF8A8B;}
	.st198{clip-path:url(#SVGID_8_);fill:#EF898A;}
	.st199{clip-path:url(#SVGID_8_);fill:#EF8889;}
	.st200{clip-path:url(#SVGID_8_);fill:#EF8788;}
	.st201{clip-path:url(#SVGID_8_);fill:#EF8687;}
	.st202{clip-path:url(#SVGID_8_);fill:#EE8586;}
	.st203{clip-path:url(#SVGID_8_);fill:#EE8485;}
	.st204{clip-path:url(#SVGID_8_);fill:#EE8384;}
	.st205{clip-path:url(#SVGID_8_);fill:#EE8283;}
	.st206{clip-path:url(#SVGID_8_);fill:#EE8182;}
	.st207{clip-path:url(#SVGID_8_);fill:#EE8081;}
	.st208{clip-path:url(#SVGID_8_);fill:#EE7F80;}
	.st209{clip-path:url(#SVGID_8_);fill:#EE7E7F;}
	.st210{clip-path:url(#SVGID_8_);fill:#EE7D7E;}
	.st211{clip-path:url(#SVGID_8_);fill:#EE7C7D;}
	.st212{clip-path:url(#SVGID_8_);fill:#EE7B7C;}
	.st213{clip-path:url(#SVGID_8_);fill:#ED7A7B;}
	.st214{clip-path:url(#SVGID_8_);fill:#ED797A;}
	.st215{clip-path:url(#SVGID_8_);fill:#ED7879;}
	.st216{clip-path:url(#SVGID_8_);fill:#ED7778;}
	.st217{clip-path:url(#SVGID_8_);fill:#ED7577;}
	.st218{clip-path:url(#SVGID_8_);fill:#ED7476;}
	.st219{clip-path:url(#SVGID_8_);fill:#ED7375;}
	.st220{clip-path:url(#SVGID_8_);fill:#ED7274;}
	.st221{clip-path:url(#SVGID_8_);fill:#ED7173;}
	.st222{clip-path:url(#SVGID_8_);fill:#ED7073;}
	.st223{clip-path:url(#SVGID_8_);fill:#EC6F72;}
	.st224{clip-path:url(#SVGID_8_);fill:#EC6E71;}
	.st225{clip-path:url(#SVGID_8_);fill:#EC6E70;}
	.st226{clip-path:url(#SVGID_8_);fill:#EC6D6F;}
	.st227{clip-path:url(#SVGID_8_);fill:#EC6C6E;}
	.st228{clip-path:url(#SVGID_8_);fill:#EC6B6E;}
	.st229{clip-path:url(#SVGID_8_);fill:#EC6B6D;}
	.st230{clip-path:url(#SVGID_8_);fill:#EC6A6C;}
	.st231{clip-path:url(#SVGID_8_);fill:#EC696B;}
	.st232{clip-path:url(#SVGID_8_);fill:#EB696A;}
	.st233{clip-path:url(#SVGID_8_);fill:#EB6869;}
	.st234{clip-path:url(#SVGID_8_);fill:#EB6769;}
	.st235{clip-path:url(#SVGID_8_);fill:#EB6668;}
	.st236{clip-path:url(#SVGID_8_);fill:#EB6667;}
	.st237{clip-path:url(#SVGID_8_);fill:#EB6566;}
	.st238{clip-path:url(#SVGID_8_);fill:#EB6465;}
	.st239{clip-path:url(#SVGID_8_);fill:#EB6365;}
	.st240{clip-path:url(#SVGID_8_);fill:#EB6364;}
	.st241{clip-path:url(#SVGID_8_);fill:#EB6263;}
	.st242{clip-path:url(#SVGID_8_);fill:#EA6162;}
	.st243{clip-path:url(#SVGID_8_);fill:#EA6061;}
	.st244{clip-path:url(#SVGID_8_);fill:#EA5F60;}
	.st245{clip-path:url(#SVGID_8_);fill:#EA5E5F;}
	.st246{clip-path:url(#SVGID_8_);fill:#EA5D5E;}
	.st247{clip-path:url(#SVGID_8_);fill:#EA5C5D;}
	.st248{clip-path:url(#SVGID_8_);fill:#EA5B5C;}
	.st249{clip-path:url(#SVGID_8_);fill:#E95A5B;}
	.st250{clip-path:url(#SVGID_8_);fill:#E9595A;}
	.st251{clip-path:url(#SVGID_8_);fill:#E95859;}
	.st252{clip-path:url(#SVGID_8_);fill:#E95758;}
	.st253{clip-path:url(#SVGID_8_);fill:#E95657;}
	.st254{clip-path:url(#SVGID_8_);fill:#E95556;}
	.st255{clip-path:url(#SVGID_8_);fill:#E95455;}
	.st256{clip-path:url(#SVGID_8_);fill:#E85355;}
	.st257{clip-path:url(#SVGID_8_);fill:#E85354;}
	.st258{clip-path:url(#SVGID_8_);fill:#E85253;}
	.st259{clip-path:url(#SVGID_8_);fill:#E85152;}
	.st260{clip-path:url(#SVGID_8_);fill:#E85052;}
	.st261{clip-path:url(#SVGID_8_);fill:#E84F51;}
	.st262{clip-path:url(#SVGID_8_);fill:#E84F50;}
	.st263{clip-path:url(#SVGID_8_);fill:#E84E4F;}
	.st264{clip-path:url(#SVGID_8_);fill:#E84D4F;}
	.st265{clip-path:url(#SVGID_8_);fill:#E84C4E;}
	.st266{clip-path:url(#SVGID_8_);fill:#E74B4D;}
	.st267{clip-path:url(#SVGID_8_);fill:#E74A4C;}
	.st268{clip-path:url(#SVGID_8_);fill:#E7494B;}
	.st269{clip-path:url(#SVGID_8_);fill:#E7484A;}
	.st270{clip-path:url(#SVGID_8_);fill:#E74749;}
	.st271{clip-path:url(#SVGID_8_);fill:#E74649;}
	.st272{clip-path:url(#SVGID_8_);fill:#E74548;}
	.st273{clip-path:url(#SVGID_8_);fill:#E74547;}
	.st274{clip-path:url(#SVGID_8_);fill:#E64446;}
	.st275{clip-path:url(#SVGID_8_);fill:#E64346;}
	.st276{clip-path:url(#SVGID_8_);fill:#E64245;}
	.st277{clip-path:url(#SVGID_8_);fill:#E64144;}
	.st278{clip-path:url(#SVGID_8_);fill:#E64044;}
	.st279{clip-path:url(#SVGID_8_);fill:#E63F43;}
	.st280{clip-path:url(#SVGID_8_);fill:#E63F42;}
	.st281{clip-path:url(#SVGID_8_);fill:#E63E41;}
	.st282{clip-path:url(#SVGID_8_);fill:#E63D41;}
	.st283{clip-path:url(#SVGID_8_);fill:#E53C40;}
	.st284{clip-path:url(#SVGID_8_);fill:#E53B3F;}
	.st285{clip-path:url(#SVGID_8_);fill:#E53A3E;}
	.st286{clip-path:url(#SVGID_8_);fill:#E5393D;}
	.st287{clip-path:url(#SVGID_8_);fill:#E5383D;}
	.st288{clip-path:url(#SVGID_8_);fill:#E5373C;}
	.st289{clip-path:url(#SVGID_8_);fill:#E5373B;}
	.st290{clip-path:url(#SVGID_10_);fill:#EF8C8D;}
	.st291{clip-path:url(#SVGID_10_);fill:#EF8B8C;}
	.st292{clip-path:url(#SVGID_10_);fill:#EF8A8B;}
	.st293{clip-path:url(#SVGID_10_);fill:#EF898A;}
	.st294{clip-path:url(#SVGID_10_);fill:#EF8889;}
	.st295{clip-path:url(#SVGID_10_);fill:#EF8788;}
	.st296{clip-path:url(#SVGID_10_);fill:#EF8687;}
	.st297{clip-path:url(#SVGID_10_);fill:#EE8586;}
	.st298{clip-path:url(#SVGID_10_);fill:#EE8485;}
	.st299{clip-path:url(#SVGID_10_);fill:#EE8384;}
	.st300{clip-path:url(#SVGID_10_);fill:#EE8283;}
	.st301{clip-path:url(#SVGID_10_);fill:#EE8182;}
	.st302{clip-path:url(#SVGID_10_);fill:#EE8081;}
	.st303{clip-path:url(#SVGID_10_);fill:#EE7F80;}
	.st304{clip-path:url(#SVGID_10_);fill:#EE7E7F;}
	.st305{clip-path:url(#SVGID_10_);fill:#EE7D7E;}
	.st306{clip-path:url(#SVGID_10_);fill:#EE7C7D;}
	.st307{clip-path:url(#SVGID_10_);fill:#EE7B7C;}
	.st308{clip-path:url(#SVGID_10_);fill:#ED7A7B;}
	.st309{clip-path:url(#SVGID_10_);fill:#ED797A;}
	.st310{clip-path:url(#SVGID_10_);fill:#ED7879;}
	.st311{clip-path:url(#SVGID_10_);fill:#ED7778;}
	.st312{clip-path:url(#SVGID_10_);fill:#ED7577;}
	.st313{clip-path:url(#SVGID_10_);fill:#ED7476;}
	.st314{clip-path:url(#SVGID_10_);fill:#ED7375;}
	.st315{clip-path:url(#SVGID_10_);fill:#ED7274;}
	.st316{clip-path:url(#SVGID_10_);fill:#ED7173;}
	.st317{clip-path:url(#SVGID_10_);fill:#ED7073;}
	.st318{clip-path:url(#SVGID_10_);fill:#EC6F72;}
	.st319{clip-path:url(#SVGID_10_);fill:#EC6E71;}
	.st320{clip-path:url(#SVGID_10_);fill:#EC6D70;}
	.st321{clip-path:url(#SVGID_10_);fill:#EC6C6F;}
	.st322{clip-path:url(#SVGID_10_);fill:#EC6C6E;}
	.st323{clip-path:url(#SVGID_10_);fill:#EB6B6D;}
	.st324{clip-path:url(#SVGID_10_);fill:#EB6A6C;}
	.st325{clip-path:url(#SVGID_10_);fill:#EB696C;}
	.st326{clip-path:url(#SVGID_10_);fill:#EB686B;}
	.st327{clip-path:url(#SVGID_10_);fill:#EB676A;}
	.st328{clip-path:url(#SVGID_10_);fill:#EA6669;}
	.st329{clip-path:url(#SVGID_10_);fill:#EA6668;}
	.st330{clip-path:url(#SVGID_10_);fill:#EA6567;}
	.st331{clip-path:url(#SVGID_10_);fill:#EA6466;}
	.st332{clip-path:url(#SVGID_10_);fill:#EA6365;}
	.st333{clip-path:url(#SVGID_10_);fill:#E96265;}
	.st334{clip-path:url(#SVGID_10_);fill:#E96164;}
	.st335{clip-path:url(#SVGID_10_);fill:#E96063;}
	.st336{clip-path:url(#SVGID_12_);fill:#EF8C8D;}
	.st337{clip-path:url(#SVGID_12_);fill:#EF8B8C;}
	.st338{clip-path:url(#SVGID_12_);fill:#EF8A8B;}
	.st339{clip-path:url(#SVGID_12_);fill:#EF898A;}
	.st340{clip-path:url(#SVGID_12_);fill:#EF8889;}
	.st341{clip-path:url(#SVGID_12_);fill:#EF8788;}
	.st342{clip-path:url(#SVGID_12_);fill:#EF8687;}
	.st343{clip-path:url(#SVGID_12_);fill:#EE8586;}
	.st344{clip-path:url(#SVGID_12_);fill:#EE8485;}
	.st345{clip-path:url(#SVGID_12_);fill:#EE8384;}
	.st346{clip-path:url(#SVGID_12_);fill:#EE8283;}
	.st347{clip-path:url(#SVGID_12_);fill:#EE8182;}
	.st348{clip-path:url(#SVGID_12_);fill:#EE8081;}
	.st349{clip-path:url(#SVGID_12_);fill:#EE7F80;}
	.st350{clip-path:url(#SVGID_12_);fill:#EE7E7F;}
	.st351{clip-path:url(#SVGID_12_);fill:#EE7D7E;}
	.st352{clip-path:url(#SVGID_12_);fill:#EE7C7D;}
	.st353{clip-path:url(#SVGID_12_);fill:#EE7B7C;}
	.st354{clip-path:url(#SVGID_12_);fill:#ED7A7B;}
	.st355{clip-path:url(#SVGID_12_);fill:#ED797A;}
	.st356{clip-path:url(#SVGID_12_);fill:#ED7879;}
	.st357{clip-path:url(#SVGID_12_);fill:#ED7778;}
	.st358{clip-path:url(#SVGID_12_);fill:#ED7577;}
	.st359{clip-path:url(#SVGID_12_);fill:#ED7476;}
	.st360{clip-path:url(#SVGID_12_);fill:#ED7375;}
	.st361{clip-path:url(#SVGID_12_);fill:#ED7274;}
	.st362{clip-path:url(#SVGID_12_);fill:#ED7173;}
	.st363{clip-path:url(#SVGID_12_);fill:#ED7073;}
	.st364{clip-path:url(#SVGID_12_);fill:#EC6F72;}
	.st365{clip-path:url(#SVGID_12_);fill:#EC6E71;}
	.st366{clip-path:url(#SVGID_12_);fill:#EC6D70;}
	.st367{clip-path:url(#SVGID_12_);fill:#EC6C6F;}
	.st368{clip-path:url(#SVGID_12_);fill:#EC6C6E;}
	.st369{clip-path:url(#SVGID_12_);fill:#EB6B6D;}
	.st370{clip-path:url(#SVGID_12_);fill:#EB6A6C;}
	.st371{clip-path:url(#SVGID_12_);fill:#EB696C;}
	.st372{clip-path:url(#SVGID_12_);fill:#EB686B;}
	.st373{clip-path:url(#SVGID_12_);fill:#EB676A;}
	.st374{clip-path:url(#SVGID_12_);fill:#EA6669;}
	.st375{clip-path:url(#SVGID_12_);fill:#EA6668;}
	.st376{clip-path:url(#SVGID_12_);fill:#EA6567;}
	.st377{clip-path:url(#SVGID_12_);fill:#EA6466;}
	.st378{clip-path:url(#SVGID_12_);fill:#EA6365;}
	.st379{clip-path:url(#SVGID_12_);fill:#E96265;}
	.st380{clip-path:url(#SVGID_12_);fill:#E96164;}
	.st381{clip-path:url(#SVGID_12_);fill:#E96063;}
</style>
<g>
	<g>
		
			
		<g>
			<g>
				<polygon class="st0" points="-37.4,26.3 -37.4,38.7 -24.1,42.5 -10.8,38.7 -10.8,26.3 -24,23.5 				"/>
			</g>
		</g>
	</g>
	<g>
		
		<g>
			<g>
				<path class="st0" d="M-24.1,19.4L-37.5,17v-3.7c0,0,4.2-1.2,4.3-1.2c-0.1-0.4-0.1-1,0.2-1.3c0.3-0.3,0.9-0.4,1.3-0.5
					c-0.4-0.2-0.8-0.8-0.7-1.6c0.1-0.6,0.5-1,0.9-1.1c0-1.1,0.7-1.9,1.1-2.1c0.5-0.2,3.2-0.9,3.2-0.9s0.7-0.1,1.1,0.6
					c0.2,0.4,0.3,1.1,0.5,1.6c0.2,0.6,0.3,1.2,0.6,1.6c0.5,0.6,0.8,0.9,0.9,0.9c0.3-0.3,0.8-0.7,1.2-1.3c0.1-0.2,0.1-0.4,0.2-0.6
					c0.3-0.7,0.3-1.5,0.7-2.2c0.2-0.4,0.7-0.6,0.9-0.6c0.4,0,2.8,0.7,3.4,0.9c0.8,0.4,1.2,1.8,1.1,2.1c1,0.2,1.4,1.9,0.2,2.7
					c0.9,0.1,1.9,0.4,1.5,1.8c0.4,0.1,4.3,1.1,4.3,1.1v3.8L-24.1,19.4z"/>
			</g>
		</g>
	</g>
	<g>
		<polygon class="st1" points="-37.5,17 -24.1,13.2 -10.7,17 -24.1,19.4 		"/>
	</g>
	<g>
		<polygon class="st2" points="-37.4,26.3 -37.4,38.7 -24.1,42.5 -24.1,29.2 		"/>
	</g>
	<g>
		<polygon class="st0" points="-10.8,26.3 -10.8,38.7 -24.1,42.5 -24.1,29.2 		"/>
	</g>
	<g>
		<polygon class="st2" points="-10.8,13.3 -10.8,17.1 -24.1,19.4 -24.1,15.2 		"/>
		<path class="st3" d="M-24.1,19.7c-0.1,0-0.1,0-0.2-0.1c-0.1-0.1-0.1-0.1-0.1-0.2v-4.2c0-0.1,0.1-0.3,0.3-0.3l13.3-1.9
			c0.1,0,0.2,0,0.2,0.1c0.1,0.1,0.1,0.1,0.1,0.2v3.8c0,0.1-0.1,0.3-0.2,0.3L-24.1,19.7C-24.1,19.7-24.1,19.7-24.1,19.7z M-23.8,15.4
			V19l12.7-2.1v-3.2L-23.8,15.4z"/>
	</g>
	<g>
		<polygon class="st0" points="-37.5,13.4 -37.5,17 -24.1,19.4 -24.1,15.2 		"/>
		<path class="st3" d="M-24.1,19.6C-24.1,19.6-24.1,19.6-24.1,19.6l-13.4-2.3c-0.1,0-0.2-0.1-0.2-0.2v-3.7c0-0.1,0-0.1,0.1-0.2
			c0,0,0.1-0.1,0.2-0.1l13.4,1.8c0.1,0,0.2,0.1,0.2,0.2v4.2c0,0.1,0,0.1-0.1,0.2C-24,19.6-24,19.6-24.1,19.6z M-37.2,16.9l12.9,2.2
			v-3.7l-12.9-1.7V16.9z"/>
	</g>
	<g>
		<polygon class="st1" points="-37.4,26.3 -24,23.5 -10.8,26.3 -24,29.2 		"/>
	</g>
	<g>
		<polygon class="st4" points="-32.7,27.3 -32.7,40 -28.8,41.2 -28.8,28.1 		"/>
	</g>
	<g>
		<polygon class="st4" points="-19.4,28.1 -19.4,41.2 -15.6,40.1 -15.6,27.3 		"/>
	</g>
	<g>
		<path class="st5" d="M-24.1,29.5C-24.1,29.5-24.1,29.5-24.1,29.5l-13.4-2.9c-0.1,0-0.2-0.2-0.2-0.3c0-0.1,0.1-0.3,0.2-0.3
			l13.3-2.9c0,0,0.1,0,0.1,0l13.3,2.9c0.1,0,0.2,0.2,0.2,0.3s-0.1,0.3-0.2,0.3L-24.1,29.5C-24.1,29.5-24.1,29.5-24.1,29.5z
			 M-36,26.3l11.9,2.6l11.8-2.6l-11.8-2.6L-36,26.3z"/>
	</g>
	<g>
		<path class="st6" d="M-38.9,36.1"/>
	</g>
	<g>
		<path class="st5" d="M-24.1,42.8C-24.1,42.8-24.2,42.8-24.1,42.8l-2.2-0.6c-0.2,0-0.3-0.2-0.2-0.4c0-0.2,0.2-0.2,0.4-0.2l1.7,0.5
			V29.4l-12.7-2.7l0,11.8l8.9,2.6c0.2,0,0.3,0.2,0.2,0.4c0,0.2-0.2,0.2-0.4,0.2l-9.1-2.6c-0.1,0-0.2-0.2-0.2-0.3l0-12.4
			c0-0.1,0-0.2,0.1-0.2c0.1-0.1,0.2-0.1,0.3-0.1l13.3,2.9c0.1,0,0.2,0.2,0.2,0.3v13.3c0,0.1,0,0.2-0.1,0.2
			C-24,42.8-24,42.8-24.1,42.8z"/>
	</g>
	<g>
		<path class="st5" d="M-24.1,42.8c-0.1,0-0.1,0-0.2-0.1c-0.1-0.1-0.1-0.1-0.1-0.2V29.2c0-0.1,0.1-0.3,0.2-0.3l13.3-2.9
			c0.1,0,0.2,0,0.3,0.1c0.1,0.1,0.1,0.1,0.1,0.2v12.4c0,0.1-0.1,0.3-0.2,0.3l-9,2.6c-0.2,0-0.3,0-0.4-0.2c0-0.2,0-0.3,0.2-0.4
			l8.8-2.5V26.7l-12.7,2.7v12.7l1.7-0.5c0.2,0,0.3,0,0.4,0.2c0,0.2,0,0.3-0.2,0.4L-24.1,42.8C-24,42.8-24.1,42.8-24.1,42.8z"/>
	</g>
	<g>
		<polygon class="st2" points="-24.1,9.7 -24.1,13.2 -37.5,17 -37.5,13.4 		"/>
		<path class="st3" d="M-37.5,17.3c-0.1,0-0.1,0-0.2-0.1c-0.1-0.1-0.1-0.1-0.1-0.2v-3.7c0-0.1,0.1-0.3,0.2-0.3l13.4-3.7
			c0.1,0,0.2,0,0.3,0c0.1,0.1,0.1,0.1,0.1,0.2v3.6c0,0.1-0.1,0.3-0.2,0.3L-37.5,17.3C-37.4,17.3-37.4,17.3-37.5,17.3z M-37.2,13.6v3
			l12.8-3.6v-2.9L-37.2,13.6z"/>
	</g>
	<g>
		<polygon class="st0" points="-24.1,9.7 -24.1,13.2 -10.8,17.1 -10.8,13.3 		"/>
		<path class="st3" d="M-10.8,17.3C-10.8,17.3-10.8,17.3-10.8,17.3l-13.4-3.9c-0.1,0-0.2-0.1-0.2-0.2V9.7c0-0.1,0-0.1,0.1-0.2
			c0.1,0,0.1-0.1,0.2,0l13.4,3.6c0.1,0,0.2,0.1,0.2,0.2v3.8c0,0.1,0,0.1-0.1,0.2C-10.7,17.3-10.7,17.3-10.8,17.3z M-23.9,13.1
			l12.9,3.8v-3.3L-23.9,10V13.1z"/>
	</g>
	<g>
		<g>
			<g>
				<path class="st7" d="M-16.9,18.3c0,0-1.4-2.6-1.3-4.2c0-0.6,0.4-1.8,0.3-2.4c-0.1-0.4-1.6-0.9-2.4-1.2c-1.5-0.5-2.5-0.9-2.5-0.9
					s1.2,0.2,2.4,0.6c1.2,0.3,1.8,0.4,2.4,0.5c0.7,0.1,2.4,0.1,2.8,0.6c0.5,0.7-0.7,1.6-0.5,2.9c0.1,0.9,1.7,3.5,1.7,3.5l-0.1,0.2
					l-2.1-1.6l-0.3,2.1L-16.9,18.3z"/>
			</g>
			<g>
				<g>
					<defs>
						<path id="SVGID_1_" d="M-16.7,18.2c0,0-1.3-2.6-1.2-4.3c0-0.6,0.4-1.8,0.2-2.4c-0.2-1.1-2.9-1.5-2.1-1.2c1.5,0.4,2.3,0,2.4,0
							c0.7,0.1,1.7,0.1,2.2,0.7c0.5,0.7-0.2,1.7-0.1,3c0.1,1.1,1.1,3.6,1.1,3.6L-16,16L-16.7,18.2z"/>
					</defs>
					<clipPath id="SVGID_2_">
						<use xlink:href="#SVGID_1_"  style="overflow:visible;"/>
					</clipPath>
					<polygon class="st8" points="-19.4,18.2 -19.5,18 -14.1,16.8 -14.1,18.2 					"/>
					<polygon class="st8" points="-19.5,18 -19.5,17.8 -14.1,16.7 -14.1,16.8 					"/>
					<polygon class="st9" points="-19.5,17.8 -19.5,17.7 -14.1,16.5 -14.1,16.7 					"/>
					<polygon class="st10" points="-19.5,17.7 -19.6,17.6 -14.1,16.4 -14.1,16.5 					"/>
					<polygon class="st11" points="-19.6,17.6 -19.6,17.5 -14.1,16.3 -14.1,16.4 					"/>
					<polygon class="st12" points="-19.6,17.5 -19.6,17.3 -14.1,16.2 -14.1,16.3 					"/>
					<polygon class="st13" points="-19.6,17.3 -19.6,17.2 -14.1,16 -14.1,16.2 					"/>
					<polygon class="st14" points="-19.6,17.2 -19.7,17.1 -14.1,15.9 -14.1,16 					"/>
					<polygon class="st15" points="-19.7,17.1 -19.7,17 -14.1,15.8 -14.1,15.9 					"/>
					<polygon class="st16" points="-19.7,17 -19.7,16.9 -14.1,15.6 -14.1,15.8 					"/>
					<polygon class="st17" points="-19.7,16.9 -19.7,16.7 -14.1,15.5 -14.1,15.6 					"/>
					<polygon class="st18" points="-19.7,16.7 -19.8,16.6 -14.1,15.4 -14.1,15.5 					"/>
					<polygon class="st19" points="-19.8,16.6 -19.8,16.5 -14.1,15.3 -14.1,15.4 					"/>
					<polygon class="st20" points="-19.8,16.5 -19.8,16.4 -14.1,15.1 -14.1,15.3 					"/>
					<polygon class="st21" points="-19.8,16.4 -19.9,16.2 -14.1,15 -14.1,15.1 					"/>
					<polygon class="st22" points="-19.9,16.2 -19.9,16.1 -14.1,14.9 -14.1,15 					"/>
					<polygon class="st22" points="-19.9,16.1 -19.9,16 -14.1,14.7 -14.1,14.9 					"/>
					<polygon class="st23" points="-19.9,16 -19.9,15.9 -14.1,14.6 -14.1,14.7 					"/>
					<polygon class="st24" points="-19.9,15.9 -20,15.8 -14.1,14.5 -14.1,14.6 					"/>
					<polygon class="st25" points="-20,15.8 -20,15.6 -14.1,14.4 -14.1,14.5 					"/>
					<polygon class="st26" points="-20,15.6 -20,15.5 -14.1,14.2 -14.1,14.4 					"/>
					<polygon class="st27" points="-20,15.5 -20,15.4 -14.1,14.1 -14.1,14.2 					"/>
					<polygon class="st28" points="-20,15.4 -20.1,15.3 -14.1,14 -14.1,14.1 					"/>
					<polygon class="st29" points="-20.1,15.3 -20.1,15.1 -14.1,13.8 -14.1,14 					"/>
					<polygon class="st30" points="-20.1,15.1 -20.1,15 -14.1,13.7 -14.1,13.8 					"/>
					<polygon class="st31" points="-20.1,15 -20.1,14.9 -14.1,13.6 -14.1,13.7 					"/>
					<polygon class="st32" points="-20.1,14.9 -20.2,14.8 -14.1,13.5 -14.1,13.6 					"/>
					<polygon class="st33" points="-20.2,14.8 -20.2,14.6 -14.1,13.3 -14.1,13.5 					"/>
					<polygon class="st34" points="-20.2,14.6 -20.2,14.5 -14.1,13.2 -14.1,13.3 					"/>
					<polygon class="st35" points="-20.2,14.5 -20.3,14.4 -14.1,13.1 -14.1,13.2 					"/>
					<polygon class="st36" points="-20.3,14.4 -20.3,14.3 -14.1,12.9 -14.1,13.1 					"/>
					<polygon class="st36" points="-20.3,14.3 -20.3,14.2 -14.1,12.9 -14.1,12.9 					"/>
					<polygon class="st37" points="-20.3,14.2 -20.3,14.2 -14.1,12.8 -14.1,12.9 					"/>
					<polygon class="st38" points="-20.3,14.2 -20.3,14.1 -14.1,12.8 -14.1,12.8 					"/>
					<polygon class="st39" points="-20.3,14.1 -20.3,14.1 -14.1,12.7 -14.1,12.8 					"/>
					<polygon class="st40" points="-20.3,14.1 -20.3,14 -14.1,12.7 -14.1,12.7 					"/>
					<polygon class="st41" points="-20.3,14 -20.3,14 -14.1,12.6 -14.1,12.7 					"/>
					<polygon class="st42" points="-20.3,14 -20.3,14 -14.1,12.6 -14.1,12.6 					"/>
					<polygon class="st43" points="-20.3,14 -20.4,13.9 -14.1,12.6 -14.1,12.6 					"/>
					<polygon class="st44" points="-20.4,13.9 -20.4,13.9 -14.1,12.5 -14.1,12.6 					"/>
					<polygon class="st45" points="-20.4,13.9 -20.4,13.8 -14.1,12.5 -14.1,12.5 					"/>
					<polygon class="st46" points="-20.4,13.8 -20.4,13.8 -14.1,12.4 -14.1,12.5 					"/>
					<polygon class="st47" points="-20.4,13.8 -20.4,13.7 -14.1,12.4 -14.1,12.4 					"/>
					<polygon class="st48" points="-20.4,13.7 -20.4,13.7 -14.1,12.3 -14.1,12.4 					"/>
					<polygon class="st49" points="-20.4,13.7 -20.4,13.6 -14.1,12.3 -14.1,12.3 					"/>
					<polygon class="st50" points="-20.4,13.6 -20.4,13.6 -14.1,12.2 -14.1,12.3 					"/>
					<polygon class="st51" points="-20.4,13.6 -20.4,13.5 -14.1,12.2 -14.1,12.2 					"/>
					<polygon class="st52" points="-20.4,13.5 -20.4,13.5 -14.1,12.1 -14.1,12.2 					"/>
					<polygon class="st53" points="-20.4,13.5 -20.5,13.5 -14.1,12.1 -14.1,12.1 					"/>
					<polygon class="st54" points="-20.5,13.5 -20.5,13.4 -14.1,12 -14.1,12.1 					"/>
					<polygon class="st55" points="-20.5,13.4 -20.5,13.4 -14.1,12 -14.1,12 					"/>
					<polygon class="st56" points="-20.5,13.4 -20.5,13.3 -14.1,11.9 -14.1,12 					"/>
					<polygon class="st56" points="-20.5,13.3 -20.5,13.3 -14.1,11.9 -14.1,11.9 					"/>
					<polygon class="st57" points="-20.5,13.3 -20.5,13.2 -14.1,11.8 -14.1,11.9 					"/>
					<polygon class="st58" points="-20.5,13.2 -20.5,13.2 -14.1,11.8 -14.1,11.8 					"/>
					<polygon class="st59" points="-20.5,13.2 -20.5,13.1 -14.1,11.7 -14.1,11.8 					"/>
					<polygon class="st60" points="-20.5,13.1 -20.5,13.1 -14.1,11.7 -14.1,11.7 					"/>
					<polygon class="st60" points="-20.5,13.1 -20.5,13 -14.1,11.6 -14.1,11.7 					"/>
					<polygon class="st61" points="-20.5,13 -20.6,13 -14.1,11.6 -14.1,11.6 					"/>
					<polygon class="st62" points="-20.6,13 -20.6,12.9 -14.1,11.5 -14.1,11.6 					"/>
					<polygon class="st63" points="-20.6,12.9 -20.6,12.9 -20.6,12.9 -14.1,11.5 -14.1,11.5 					"/>
					<polygon class="st64" points="-20.6,12.9 -14.1,11.4 -14.1,11.5 -20.6,12.9 					"/>
					<polygon class="st64" points="-20.6,12.8 -14.1,11.4 -14.1,11.4 -20.6,12.9 					"/>
					<polygon class="st65" points="-20.6,12.8 -14.1,11.4 -14.1,11.4 -14.1,11.4 -20.6,12.8 					"/>
					<polygon class="st66" points="-20.6,12.7 -14.1,11.3 -14.1,11.4 -20.6,12.8 					"/>
					<polygon class="st67" points="-20.6,12.7 -14.1,11.3 -14.1,11.3 -20.6,12.7 					"/>
					<polygon class="st68" points="-20.6,12.6 -14.1,11.2 -14.1,11.3 -20.6,12.7 					"/>
					<polygon class="st69" points="-20.6,12.6 -14.1,11.2 -14.1,11.2 -20.6,12.6 					"/>
					<polygon class="st70" points="-20.6,12.5 -14.1,11.1 -14.1,11.2 -20.6,12.6 					"/>
					<polygon class="st71" points="-20.6,12.5 -14.2,11.1 -14.1,11.1 -20.6,12.5 					"/>
					<polygon class="st72" points="-20.6,12.4 -14.2,11 -14.2,11.1 -20.6,12.5 					"/>
					<polygon class="st73" points="-20.6,12.4 -14.2,11 -14.2,11 -20.6,12.4 					"/>
					<polygon class="st74" points="-20.6,12.3 -14.2,10.9 -14.2,11 -20.6,12.4 					"/>
					<polygon class="st75" points="-20.6,12.3 -14.2,10.9 -14.2,10.9 -20.6,12.3 					"/>
					<polygon class="st76" points="-20.6,12.2 -14.2,10.8 -14.2,10.9 -20.6,12.3 					"/>
					<polygon class="st77" points="-20.6,12.2 -14.2,10.8 -14.2,10.8 -20.6,12.2 					"/>
					<polygon class="st78" points="-20.6,12.1 -14.2,10.8 -14.2,10.8 -20.6,12.2 					"/>
					<polygon class="st79" points="-20.6,12.1 -14.2,10.7 -14.2,10.8 -20.6,12.1 					"/>
					<polygon class="st80" points="-20.6,12 -14.2,10.7 -14.2,10.7 -20.6,12.1 					"/>
					<polygon class="st80" points="-20.6,12 -14.3,10.6 -14.2,10.7 -20.6,12 					"/>
					<polygon class="st81" points="-20.6,11.9 -14.3,10.6 -14.3,10.6 -20.6,12 					"/>
					<polygon class="st82" points="-20.6,11.9 -14.3,10.5 -14.3,10.6 -20.6,11.9 					"/>
					<polygon class="st83" points="-20.6,11.8 -14.3,10.5 -14.3,10.5 -20.6,11.9 					"/>
					<polygon class="st84" points="-20.6,11.8 -14.3,10.4 -14.3,10.5 -20.6,11.8 					"/>
					<polygon class="st85" points="-20.6,11.7 -14.3,10.4 -14.3,10.4 -20.6,11.8 					"/>
					<polygon class="st86" points="-20.6,11.7 -14.3,10.3 -14.3,10.4 -20.6,11.7 					"/>
					<polygon class="st87" points="-20.6,11.7 -14.3,10.3 -14.3,10.3 -20.6,11.7 					"/>
					<polygon class="st88" points="-20.6,11.6 -14.3,10.3 -14.3,10.3 -20.6,11.7 					"/>
					<polygon class="st89" points="-20.6,11.6 -14.3,10.2 -14.3,10.3 -20.6,11.6 					"/>
					<polygon class="st90" points="-20.6,11.5 -14.4,10.2 -14.3,10.2 -20.6,11.6 					"/>
					<polygon class="st91" points="-20.6,11.5 -14.4,10.1 -14.4,10.2 -20.6,11.5 					"/>
					<polygon class="st92" points="-20.6,11.4 -14.6,10.1 -14.4,10.1 -14.4,10.1 -20.6,11.5 					"/>
					<polygon class="st93" points="-20.6,11.4 -14.8,10.1 -14.6,10.1 -20.6,11.4 					"/>
					<polygon class="st94" points="-20.6,11.3 -15,10.1 -14.8,10.1 -20.6,11.4 					"/>
					<polygon class="st95" points="-20.6,11.3 -15.2,10.1 -15,10.1 -20.6,11.3 					"/>
					<polygon class="st96" points="-20.6,11.2 -15.5,10.1 -15.2,10.1 -20.6,11.3 					"/>
					<polygon class="st97" points="-20.6,11.2 -15.7,10.1 -15.5,10.1 -20.6,11.2 					"/>
					<polygon class="st97" points="-20.6,11.1 -15.9,10.1 -15.7,10.1 -20.6,11.2 					"/>
					<polygon class="st98" points="-20.6,11.1 -16.1,10.1 -15.9,10.1 -20.6,11.1 					"/>
					<polygon class="st99" points="-20.6,11 -16.3,10.1 -16.1,10.1 -20.6,11.1 					"/>
					<polygon class="st100" points="-20.6,11 -16.6,10.1 -16.3,10.1 -20.6,11 					"/>
					<polygon class="st101" points="-20.6,10.9 -16.8,10.1 -16.6,10.1 -20.6,11 					"/>
					<polygon class="st102" points="-20.6,10.9 -17,10.1 -16.8,10.1 -20.6,10.9 					"/>
					<polygon class="st102" points="-17,10.1 -20.6,10.9 -20.6,10.1 					"/>
				</g>
			</g>
		</g>
		<g>
			<g>
				<g>
					<defs>
						<path id="SVGID_3_" d="M-24.1,9.4c0,0,0.8-0.7,1.1-1.3c0.3-0.6,0.5-2,0.8-2.7c0.1-0.3,0.6-0.9,1.4-0.7c1,0.3,2.2,0.6,2.9,0.9
							c0.6,0.2,1.4,1.7,1,2.7c-0.5,1.5-1.9,1.5-2.7,1.7C-20.6,10.3-24.1,9.4-24.1,9.4z"/>
					</defs>
					<clipPath id="SVGID_4_">
						<use xlink:href="#SVGID_3_"  style="overflow:visible;"/>
					</clipPath>
					<polygon class="st103" points="-16.4,5.2 -24.1,5 -24.1,4.5 -16.4,4.5 					"/>
					<polygon class="st103" points="-16.4,5.3 -24.1,5.1 -24.1,5 -16.4,5.2 					"/>
					<polygon class="st104" points="-16.4,5.4 -24.1,5.2 -24.1,5.1 -16.4,5.3 					"/>
					<polygon class="st105" points="-16.4,5.5 -24.1,5.2 -24.1,5.2 -16.4,5.4 					"/>
					<polygon class="st106" points="-16.4,5.6 -24.1,5.3 -24.1,5.2 -16.4,5.5 					"/>
					<polygon class="st107" points="-16.4,5.6 -24.1,5.4 -24.1,5.3 -16.4,5.6 					"/>
					<polygon class="st108" points="-16.4,5.7 -24.1,5.5 -24.1,5.4 -16.4,5.6 					"/>
					<polygon class="st109" points="-16.4,5.8 -24.1,5.5 -24.1,5.5 -16.4,5.7 					"/>
					<polygon class="st110" points="-16.4,5.9 -24.1,5.6 -24.1,5.5 -16.4,5.8 					"/>
					<polygon class="st111" points="-16.4,5.9 -24.1,5.7 -24.1,5.6 -16.4,5.9 					"/>
					<polygon class="st112" points="-16.4,6 -24.1,5.8 -24.1,5.7 -16.4,5.9 					"/>
					<polygon class="st113" points="-16.4,6.1 -24.1,5.9 -24.1,5.8 -16.4,6 					"/>
					<polygon class="st114" points="-16.4,6.2 -24.1,5.9 -24.1,5.9 -16.4,6.1 					"/>
					<polygon class="st115" points="-16.4,6.3 -24.1,6 -24.1,5.9 -16.4,6.2 					"/>
					<polygon class="st116" points="-16.4,6.3 -24.1,6.1 -24.1,6 -16.4,6.3 					"/>
					<polygon class="st117" points="-16.4,6.4 -24.1,6.2 -24.1,6.1 -16.4,6.3 					"/>
					<polygon class="st117" points="-16.4,6.5 -24.1,6.2 -24.1,6.2 -16.4,6.4 					"/>
					<polygon class="st118" points="-16.4,6.6 -24.1,6.3 -24.1,6.2 -16.4,6.5 					"/>
					<polygon class="st119" points="-16.4,6.6 -24.1,6.4 -24.1,6.3 -16.4,6.6 					"/>
					<polygon class="st120" points="-16.4,6.7 -24.1,6.5 -24.1,6.4 -16.4,6.6 					"/>
					<polygon class="st121" points="-16.4,6.8 -24.1,6.6 -24.1,6.5 -16.4,6.7 					"/>
					<polygon class="st122" points="-16.4,6.9 -24.1,6.6 -24.1,6.6 -16.4,6.8 					"/>
					<polygon class="st123" points="-16.4,7 -24.1,6.7 -24.1,6.6 -16.4,6.9 					"/>
					<polygon class="st124" points="-16.4,7 -24.1,6.8 -24.1,6.7 -16.4,7 					"/>
					<polygon class="st125" points="-16.4,7.1 -24.1,6.9 -24.1,6.8 -16.4,7 					"/>
					<polygon class="st126" points="-16.4,7.2 -24.1,7 -24.1,6.9 -16.4,7.1 					"/>
					<polygon class="st127" points="-16.4,7.3 -24.1,7 -24.1,7 -16.4,7.2 					"/>
					<polygon class="st128" points="-16.4,7.4 -24.1,7.1 -24.1,7 -16.4,7.3 					"/>
					<polygon class="st129" points="-16.4,7.4 -24.1,7.2 -24.1,7.1 -16.4,7.4 					"/>
					<polygon class="st130" points="-16.4,7.5 -24.1,7.3 -24.1,7.2 -16.4,7.4 					"/>
					<polygon class="st131" points="-16.4,7.6 -24.1,7.3 -24.1,7.3 -16.4,7.5 					"/>
					<polygon class="st131" points="-16.4,7.7 -24.1,7.5 -24.1,7.3 -16.4,7.6 					"/>
					<polygon class="st132" points="-16.4,7.8 -24.1,7.6 -24.1,7.5 -16.4,7.7 					"/>
					<polygon class="st133" points="-16.4,7.9 -24.1,7.7 -24.1,7.6 -16.4,7.8 					"/>
					<polygon class="st134" points="-16.4,8.1 -24.1,7.8 -24.1,7.7 -16.4,7.9 					"/>
					<polygon class="st135" points="-16.4,8.2 -24.1,7.9 -24.1,7.8 -16.4,8.1 					"/>
					<polygon class="st136" points="-16.4,8.3 -24.1,8 -24.1,7.9 -16.4,8.2 					"/>
					<polygon class="st137" points="-16.4,8.4 -24.1,8.2 -24.1,8 -16.4,8.3 					"/>
					<polygon class="st138" points="-16.4,8.5 -24.1,8.3 -24.1,8.2 -16.4,8.4 					"/>
					<polygon class="st139" points="-16.4,8.6 -24.1,8.4 -24.1,8.3 -16.4,8.5 					"/>
					<polygon class="st140" points="-16.4,8.8 -24.1,8.5 -24.1,8.4 -16.4,8.6 					"/>
					<polygon class="st141" points="-16.4,8.9 -24.1,8.6 -24.1,8.5 -16.4,8.8 					"/>
					<polygon class="st142" points="-16.4,9 -24.1,8.7 -24.1,8.6 -16.4,8.9 					"/>
					<polygon class="st143" points="-16.4,9.1 -24.1,8.9 -24.1,8.7 -16.4,9 					"/>
					<polygon class="st144" points="-16.4,9.2 -24.1,9 -24.1,8.9 -16.4,9.1 					"/>
					<polygon class="st145" points="-16.4,9.3 -24.1,9.1 -24.1,9 -16.4,9.2 					"/>
					<polygon class="st146" points="-16.4,9.4 -24.1,9.2 -24.1,9.1 -16.4,9.3 					"/>
					<polygon class="st147" points="-16.4,9.6 -24.1,9.3 -24.1,9.2 -16.4,9.4 					"/>
					<polygon class="st148" points="-16.4,9.7 -24.1,9.4 -24.1,9.3 -16.4,9.6 					"/>
					<polygon class="st148" points="-24.1,9.4 -16.4,9.7 -16.4,10.3 -24.1,10.3 					"/>
				</g>
			</g>
			<g>
				<path class="st7" d="M-23.7,9.3c0,0,0.7-0.4,1.1-1.2c0.4-0.7,0.5-2.6,1.2-2.9c0.4-0.2,1-0.1,1.4,0.5c0.4,0.6,0.4,1.4,0.1,2.1
					c-0.4,0.7-1,1.3-1.5,1.5C-22.6,9.7-23.7,9.3-23.7,9.3z"/>
			</g>
		</g>
		<g>
			<g>
				<g>
					<defs>
						<path id="SVGID_5_" d="M-16.4,7.9c0.4,0.2,0.8,0.8,0.6,1.7c-0.2,0.8-1.2,1.2-1.7,1.3c-1.1,0.2-4.2-0.8-4.2-0.8l-1.6-0.5
							c0,0,1.4-0.3,2.1-0.8c0.6-0.4,0.6-1.3,1.3-1.5c0.4-0.1,1.3,0.1,2,0.2C-17.3,7.6-16.7,7.7-16.4,7.9z"/>
					</defs>
					<clipPath id="SVGID_6_">
						<use xlink:href="#SVGID_5_"  style="overflow:visible;"/>
					</clipPath>
					<polygon class="st149" points="-15.7,7.5 -19.8,7.2 -15.7,7.2 					"/>
					<polygon class="st149" points="-15.7,7.6 -20.6,7.2 -19.8,7.2 -15.7,7.5 					"/>
					<polygon class="st150" points="-15.7,7.6 -21.5,7.2 -20.6,7.2 -15.7,7.6 					"/>
					<polygon class="st151" points="-15.7,7.7 -22.4,7.2 -21.5,7.2 -15.7,7.6 					"/>
					<polygon class="st152" points="-15.7,7.7 -23.2,7.2 -22.4,7.2 -15.7,7.7 					"/>
					<polygon class="st153" points="-15.7,7.8 -23.4,7.3 -23.4,7.2 -23.2,7.2 -15.7,7.7 					"/>
					<polygon class="st154" points="-15.7,7.8 -23.4,7.3 -23.4,7.3 -15.7,7.8 					"/>
					<polygon class="st155" points="-15.7,7.9 -23.4,7.4 -23.4,7.3 -15.7,7.8 					"/>
					<polygon class="st156" points="-15.7,8 -23.4,7.4 -23.4,7.4 -15.7,7.9 					"/>
					<polygon class="st157" points="-15.7,8 -23.4,7.5 -23.4,7.4 -15.7,8 					"/>
					<polygon class="st158" points="-15.7,8.1 -23.4,7.6 -23.4,7.5 -15.7,8 					"/>
					<polygon class="st159" points="-15.7,8.1 -23.4,7.6 -23.4,7.6 -15.7,8.1 					"/>
					<polygon class="st160" points="-15.7,8.2 -23.4,7.7 -23.4,7.6 -15.7,8.1 					"/>
					<polygon class="st161" points="-15.7,8.2 -23.4,7.7 -23.4,7.7 -15.7,8.2 					"/>
					<polygon class="st162" points="-15.7,8.3 -23.4,7.8 -23.4,7.7 -15.7,8.2 					"/>
					<polygon class="st163" points="-15.7,8.4 -23.4,7.8 -23.4,7.8 -15.7,8.3 					"/>
					<polygon class="st163" points="-15.7,8.4 -23.4,7.9 -23.4,7.8 -15.7,8.4 					"/>
					<polygon class="st164" points="-15.7,8.5 -23.4,8 -23.4,7.9 -15.7,8.4 					"/>
					<polygon class="st165" points="-15.7,8.5 -23.4,8 -23.4,8 -15.7,8.5 					"/>
					<polygon class="st166" points="-15.7,8.6 -23.4,8.1 -23.4,8 -15.7,8.5 					"/>
					<polygon class="st167" points="-15.7,8.6 -23.4,8.1 -23.4,8.1 -15.7,8.6 					"/>
					<polygon class="st168" points="-15.7,8.7 -23.4,8.2 -23.4,8.1 -15.7,8.6 					"/>
					<polygon class="st169" points="-15.7,8.8 -23.4,8.2 -23.4,8.2 -15.7,8.7 					"/>
					<polygon class="st170" points="-15.7,8.8 -23.4,8.3 -23.4,8.2 -15.7,8.8 					"/>
					<polygon class="st171" points="-15.7,8.9 -23.4,8.4 -23.4,8.3 -15.7,8.8 					"/>
					<polygon class="st172" points="-15.7,8.9 -23.4,8.4 -23.4,8.4 -15.7,8.9 					"/>
					<polygon class="st173" points="-15.7,9 -23.4,8.5 -23.4,8.4 -15.7,8.9 					"/>
					<polygon class="st174" points="-15.7,9 -23.4,8.5 -23.4,8.5 -15.7,9 					"/>
					<polygon class="st175" points="-15.7,9.1 -23.4,8.6 -23.4,8.5 -15.7,9 					"/>
					<polygon class="st176" points="-15.7,9.2 -23.4,8.7 -23.4,8.6 -15.7,9.1 					"/>
					<polygon class="st177" points="-15.7,9.2 -23.4,8.7 -23.4,8.7 -15.7,9.2 					"/>
					<polygon class="st177" points="-15.7,9.3 -23.4,8.8 -23.4,8.7 -15.7,9.2 					"/>
					<polygon class="st178" points="-15.7,9.4 -23.4,8.9 -23.4,8.8 -15.7,9.3 					"/>
					<polygon class="st179" points="-15.7,9.5 -23.4,9 -23.4,8.9 -15.7,9.4 					"/>
					<polygon class="st180" points="-15.7,9.6 -23.4,9.1 -23.4,9 -15.7,9.5 					"/>
					<polygon class="st181" points="-15.7,9.6 -23.4,9.1 -23.4,9.1 -15.7,9.6 					"/>
					<polygon class="st182" points="-15.7,9.7 -23.4,9.2 -23.4,9.1 -15.7,9.6 					"/>
					<polygon class="st183" points="-15.7,9.8 -23.4,9.3 -23.4,9.2 -15.7,9.7 					"/>
					<polygon class="st184" points="-15.7,9.9 -23.4,9.4 -23.4,9.3 -15.7,9.8 					"/>
					<polygon class="st185" points="-15.7,10 -23.4,9.5 -23.4,9.4 -15.7,9.9 					"/>
					<polygon class="st186" points="-15.7,10.1 -23.4,9.6 -23.4,9.5 -15.7,10 					"/>
					<polygon class="st187" points="-15.7,10.2 -23.4,9.7 -23.4,9.6 -15.7,10.1 					"/>
					<polygon class="st188" points="-15.7,10.2 -23.4,9.7 -23.4,9.7 -15.7,10.2 					"/>
					<polygon class="st189" points="-15.7,10.3 -23.4,9.8 -23.4,9.7 -15.7,10.2 					"/>
					<polygon class="st190" points="-15.7,10.4 -23.4,9.9 -23.4,9.8 -15.7,10.3 					"/>
					<polygon class="st191" points="-15.7,10.5 -23.4,10 -23.4,9.9 -15.7,10.4 					"/>
					<polygon class="st192" points="-15.7,10.6 -23.4,10.1 -23.4,10 -15.7,10.5 					"/>
					<polygon class="st193" points="-15.7,10.7 -23.4,10.2 -23.4,10.1 -15.7,10.6 					"/>
					<polygon class="st194" points="-15.7,10.8 -23.4,10.3 -23.4,10.2 -15.7,10.7 					"/>
					<polygon class="st194" points="-23.4,10.3 -15.7,10.8 -15.7,11 -23.4,11 					"/>
				</g>
			</g>
			<g>
				<path class="st7" d="M-23.6,9.5c0,0,1.8,0,2.6-0.6c0.5-0.4,0.6-1.4,1.3-1.4c0.6,0,1.2,1.2,0.6,2.1c-0.4,0.6-1,0.8-1.7,0.7
					C-21.5,10-23.6,9.5-23.6,9.5z"/>
			</g>
		</g>
	</g>
	<g>
		<g>
			<g>
				<path class="st7" d="M-31.2,18.3c0,0,1.4-2.6,1.3-4.2c0-0.6-0.4-1.8-0.3-2.4c0.1-0.4,1.6-0.9,2.4-1.2c1.5-0.5,2.5-0.9,2.5-0.9
					s-1.2,0.2-2.4,0.6c-1.2,0.3-1.8,0.4-2.4,0.5c-0.7,0.1-2.4,0.1-2.8,0.6c-0.5,0.7,0.7,1.6,0.5,2.9c-0.1,0.9-1.7,3.5-1.7,3.5
					l0.1,0.2l2.1-1.6l0.3,2.1L-31.2,18.3z"/>
			</g>
			<g>
				<g>
					<defs>
						<path id="SVGID_7_" d="M-31.5,18.2c0,0,1.3-2.6,1.2-4.3c0-0.6-0.4-1.8-0.2-2.4c0.2-1.1,2.9-1.5,2.1-1.2c-1.5,0.4-2.3,0-2.4,0
							c-0.7,0.1-1.7,0.1-2.2,0.7c-0.5,0.7,0.2,1.7,0.1,3c-0.1,1.1-1.1,3.6-1.1,3.6l1.9-1.6L-31.5,18.2z"/>
					</defs>
					<clipPath id="SVGID_8_">
						<use xlink:href="#SVGID_7_"  style="overflow:visible;"/>
					</clipPath>
					<polygon class="st195" points="-34.1,16.8 -28.7,17.9 -28.7,18.2 -34.1,18.2 					"/>
					<polygon class="st195" points="-34.1,16.6 -28.6,17.8 -28.7,17.9 -34.1,16.8 					"/>
					<polygon class="st196" points="-34.1,16.5 -28.6,17.7 -28.6,17.8 -34.1,16.6 					"/>
					<polygon class="st197" points="-34.1,16.4 -28.6,17.6 -28.6,17.7 -34.1,16.5 					"/>
					<polygon class="st198" points="-34.1,16.2 -28.6,17.4 -28.6,17.6 -34.1,16.4 					"/>
					<polygon class="st199" points="-34.1,16.1 -28.5,17.3 -28.6,17.4 -34.1,16.2 					"/>
					<polygon class="st200" points="-34.1,16 -28.5,17.2 -28.5,17.3 -34.1,16.1 					"/>
					<polygon class="st201" points="-34.1,15.9 -28.5,17.1 -28.5,17.2 -34.1,16 					"/>
					<polygon class="st202" points="-34.1,15.7 -28.5,16.9 -28.5,17.1 -34.1,15.9 					"/>
					<polygon class="st203" points="-34.1,15.6 -28.4,16.8 -28.5,16.9 -34.1,15.7 					"/>
					<polygon class="st204" points="-34.1,15.5 -28.4,16.7 -28.4,16.8 -34.1,15.6 					"/>
					<polygon class="st205" points="-34.1,15.3 -28.4,16.6 -28.4,16.7 -34.1,15.5 					"/>
					<polygon class="st206" points="-34.1,15.2 -28.4,16.5 -28.4,16.6 -34.1,15.3 					"/>
					<polygon class="st207" points="-34.1,15.1 -28.3,16.3 -28.4,16.5 -34.1,15.2 					"/>
					<polygon class="st208" points="-34.1,15 -28.3,16.2 -28.3,16.3 -34.1,15.1 					"/>
					<polygon class="st209" points="-34.1,14.8 -28.3,16.1 -28.3,16.2 -34.1,15 					"/>
					<polygon class="st209" points="-34.1,14.7 -28.3,16 -28.3,16.1 -34.1,14.8 					"/>
					<polygon class="st210" points="-34.1,14.6 -28.2,15.8 -28.3,16 -34.1,14.7 					"/>
					<polygon class="st211" points="-34.1,14.4 -28.2,15.7 -28.2,15.8 -34.1,14.6 					"/>
					<polygon class="st212" points="-34.1,14.3 -28.2,15.6 -28.2,15.7 -34.1,14.4 					"/>
					<polygon class="st213" points="-34.1,14.2 -28.1,15.5 -28.2,15.6 -34.1,14.3 					"/>
					<polygon class="st214" points="-34.1,14.1 -28.1,15.3 -28.1,15.5 -34.1,14.2 					"/>
					<polygon class="st215" points="-34.1,13.9 -28.1,15.2 -28.1,15.3 -34.1,14.1 					"/>
					<polygon class="st216" points="-34.1,13.8 -28.1,15.1 -28.1,15.2 -34.1,13.9 					"/>
					<polygon class="st217" points="-34.1,13.7 -28,15 -28.1,15.1 -34.1,13.8 					"/>
					<polygon class="st218" points="-34.1,13.5 -28,14.9 -28,15 -34.1,13.7 					"/>
					<polygon class="st219" points="-34.1,13.4 -28,14.7 -28,14.9 -34.1,13.5 					"/>
					<polygon class="st220" points="-34.1,13.3 -28,14.6 -28,14.7 -34.1,13.4 					"/>
					<polygon class="st221" points="-34.1,13.2 -27.9,14.5 -28,14.6 -34.1,13.3 					"/>
					<polygon class="st222" points="-34.1,13 -27.9,14.4 -27.9,14.5 -34.1,13.2 					"/>
					<polygon class="st223" points="-34.1,12.9 -27.9,14.2 -27.9,14.4 -34.1,13 					"/>
					<polygon class="st223" points="-34.1,12.9 -27.9,14.2 -27.9,14.2 -34.1,12.9 					"/>
					<polygon class="st224" points="-34.1,12.8 -27.9,14.2 -27.9,14.2 -34.1,12.9 					"/>
					<polygon class="st225" points="-34.1,12.8 -27.8,14.1 -27.9,14.2 -34.1,12.8 					"/>
					<polygon class="st226" points="-34.1,12.7 -27.8,14.1 -27.8,14.1 -34.1,12.8 					"/>
					<polygon class="st227" points="-34.1,12.7 -27.8,14 -27.8,14.1 -34.1,12.7 					"/>
					<polygon class="st228" points="-34.1,12.6 -27.8,14 -27.8,14 -34.1,12.7 					"/>
					<polygon class="st229" points="-34.1,12.6 -27.8,13.9 -27.8,14 -34.1,12.6 					"/>
					<polygon class="st230" points="-34.1,12.5 -27.8,13.9 -27.8,13.9 -34.1,12.6 					"/>
					<polygon class="st231" points="-34.1,12.5 -27.8,13.8 -27.8,13.9 -34.1,12.5 					"/>
					<polygon class="st232" points="-34.1,12.4 -27.8,13.8 -27.8,13.8 -34.1,12.5 					"/>
					<polygon class="st233" points="-34.1,12.4 -27.8,13.7 -27.8,13.8 -34.1,12.4 					"/>
					<polygon class="st234" points="-34.1,12.3 -27.8,13.7 -27.8,13.7 -34.1,12.4 					"/>
					<polygon class="st235" points="-34.1,12.3 -27.7,13.6 -27.8,13.7 -34.1,12.3 					"/>
					<polygon class="st236" points="-34.1,12.2 -27.7,13.6 -27.7,13.6 -34.1,12.3 					"/>
					<polygon class="st237" points="-34.1,12.2 -27.7,13.6 -27.7,13.6 -34.1,12.2 					"/>
					<polygon class="st238" points="-34.1,12.1 -27.7,13.5 -27.7,13.6 -34.1,12.2 					"/>
					<polygon class="st239" points="-34.1,12.1 -27.7,13.5 -27.7,13.5 -34.1,12.1 					"/>
					<polygon class="st240" points="-34.1,12 -27.7,13.4 -27.7,13.5 -34.1,12.1 					"/>
					<polygon class="st241" points="-34.1,12 -27.7,13.4 -27.7,13.4 -34.1,12 					"/>
					<polygon class="st242" points="-34.1,11.9 -27.7,13.3 -27.7,13.4 -34.1,12 					"/>
					<polygon class="st243" points="-34.1,11.9 -27.7,13.3 -27.7,13.3 -34.1,11.9 					"/>
					<polygon class="st243" points="-34.1,11.8 -27.7,13.2 -27.7,13.3 -34.1,11.9 					"/>
					<polygon class="st244" points="-34.1,11.8 -27.6,13.2 -27.7,13.2 -34.1,11.8 					"/>
					<polygon class="st245" points="-34.1,11.8 -27.6,13.1 -27.6,13.2 -34.1,11.8 					"/>
					<polygon class="st246" points="-34.1,11.7 -27.6,13.1 -27.6,13.1 -34.1,11.8 					"/>
					<polygon class="st247" points="-34.1,11.7 -27.6,13.1 -27.6,13.1 -34.1,11.7 					"/>
					<polygon class="st247" points="-34.1,11.6 -27.6,13 -27.6,13.1 -34.1,11.7 					"/>
					<polygon class="st248" points="-34.1,11.6 -27.6,13 -27.6,13 -34.1,11.6 					"/>
					<polygon class="st249" points="-34.1,11.5 -27.6,12.9 -27.6,13 -34.1,11.6 					"/>
					<polygon class="st250" points="-34.1,11.5 -27.6,12.9 -27.6,12.9 -27.6,12.9 -34.1,11.5 					"/>
					<polygon class="st251" points="-34.1,11.4 -27.6,12.8 -27.6,12.9 -34.1,11.5 					"/>
					<polygon class="st251" points="-34.1,11.4 -27.6,12.8 -27.6,12.8 -34.1,11.4 					"/>
					<polygon class="st252" points="-34.1,11.3 -34.1,11.3 -27.6,12.7 -27.6,12.8 -34.1,11.4 					"/>
					<polygon class="st253" points="-34.1,11.3 -34,11.3 -27.6,12.7 -27.6,12.7 					"/>
					<polygon class="st254" points="-34,11.3 -34,11.2 -27.6,12.6 -27.6,12.7 					"/>
					<polygon class="st255" points="-34,11.2 -34,11.2 -27.6,12.6 -27.6,12.6 					"/>
					<polygon class="st256" points="-34,11.2 -34,11.1 -27.6,12.5 -27.6,12.6 					"/>
					<polygon class="st257" points="-34,11.1 -34,11.1 -27.6,12.5 -27.6,12.5 					"/>
					<polygon class="st258" points="-34,11.1 -34,11 -27.6,12.4 -27.6,12.5 					"/>
					<polygon class="st259" points="-34,11 -34,11 -27.6,12.4 -27.6,12.4 					"/>
					<polygon class="st260" points="-34,11 -34,11 -27.6,12.3 -27.6,12.4 					"/>
					<polygon class="st261" points="-34,11 -34,10.9 -27.6,12.3 -27.6,12.3 					"/>
					<polygon class="st262" points="-34,10.9 -34,10.9 -27.6,12.2 -27.6,12.3 					"/>
					<polygon class="st263" points="-34,10.9 -33.9,10.8 -27.6,12.2 -27.6,12.2 					"/>
					<polygon class="st264" points="-33.9,10.8 -33.9,10.8 -27.6,12.1 -27.6,12.2 					"/>
					<polygon class="st265" points="-33.9,10.8 -33.9,10.7 -27.6,12.1 -27.6,12.1 					"/>
					<polygon class="st266" points="-33.9,10.7 -33.9,10.7 -27.6,12 -27.6,12.1 					"/>
					<polygon class="st267" points="-33.9,10.7 -33.9,10.6 -27.6,12 -27.6,12 					"/>
					<polygon class="st267" points="-33.9,10.6 -33.9,10.6 -27.6,12 -27.6,12 					"/>
					<polygon class="st268" points="-33.9,10.6 -33.9,10.5 -27.6,11.9 -27.6,12 					"/>
					<polygon class="st269" points="-33.9,10.5 -33.9,10.5 -27.6,11.9 -27.6,11.9 					"/>
					<polygon class="st270" points="-33.9,10.5 -33.9,10.4 -27.6,11.8 -27.6,11.9 					"/>
					<polygon class="st271" points="-33.9,10.4 -33.9,10.4 -27.6,11.8 -27.6,11.8 					"/>
					<polygon class="st272" points="-33.9,10.4 -33.8,10.4 -27.6,11.7 -27.6,11.8 					"/>
					<polygon class="st273" points="-33.8,10.4 -33.8,10.3 -27.6,11.7 -27.6,11.7 					"/>
					<polygon class="st274" points="-33.8,10.3 -33.8,10.3 -27.6,11.6 -27.6,11.7 					"/>
					<polygon class="st275" points="-33.8,10.3 -33.8,10.2 -27.6,11.6 -27.6,11.6 					"/>
					<polygon class="st276" points="-33.8,10.2 -33.8,10.2 -27.6,11.5 -27.6,11.6 					"/>
					<polygon class="st277" points="-33.8,10.2 -33.8,10.1 -27.6,11.5 -27.6,11.5 					"/>
					<polygon class="st278" points="-33.8,10.1 -33.8,10.1 -27.6,11.4 -27.6,11.5 					"/>
					<polygon class="st279" points="-33.8,10.1 -33.8,10.1 -33.6,10.1 -27.6,11.4 -27.6,11.4 					"/>
					<polygon class="st280" points="-33.4,10.1 -27.6,11.3 -27.6,11.4 -33.6,10.1 					"/>
					<polygon class="st281" points="-33.1,10.1 -27.6,11.3 -27.6,11.3 -33.4,10.1 					"/>
					<polygon class="st282" points="-32.9,10.1 -27.6,11.2 -27.6,11.3 -33.1,10.1 					"/>
					<polygon class="st283" points="-32.7,10.1 -27.6,11.2 -27.6,11.2 -32.9,10.1 					"/>
					<polygon class="st284" points="-32.5,10.1 -27.6,11.1 -27.6,11.2 -32.7,10.1 					"/>
					<polygon class="st284" points="-32.3,10.1 -27.6,11.1 -27.6,11.1 -32.5,10.1 					"/>
					<polygon class="st285" points="-32,10.1 -27.6,11 -27.6,11.1 -32.3,10.1 					"/>
					<polygon class="st286" points="-31.8,10.1 -27.6,11 -27.6,11 -32,10.1 					"/>
					<polygon class="st287" points="-31.6,10.1 -27.6,10.9 -27.6,11 -31.8,10.1 					"/>
					<polygon class="st288" points="-31.4,10.1 -27.6,10.9 -27.6,10.9 -31.6,10.1 					"/>
					<polygon class="st289" points="-31.1,10.1 -27.6,10.8 -27.6,10.9 -31.4,10.1 					"/>
					<polygon class="st289" points="-27.6,10.8 -31.1,10.1 -27.6,10.1 					"/>
				</g>
			</g>
		</g>
		<g>
			<g>
				<g>
					<defs>
						<path id="SVGID_9_" d="M-24.1,9.4c0,0-0.8-0.7-1.1-1.3c-0.3-0.6-0.5-2-0.8-2.7c-0.1-0.3-0.6-0.9-1.4-0.7
							c-1,0.3-2.2,0.6-2.9,0.9c-0.6,0.2-1.4,1.7-1,2.7c0.5,1.5,1.9,1.5,2.7,1.7C-27.5,10.3-24.1,9.4-24.1,9.4z"/>
					</defs>
					<clipPath id="SVGID_10_">
						<use xlink:href="#SVGID_9_"  style="overflow:visible;"/>
					</clipPath>
					<polygon class="st290" points="-24.1,5 -31.7,5.2 -31.7,4.5 -24.1,4.5 					"/>
					<polygon class="st290" points="-24.1,5 -31.7,5.3 -31.7,5.2 -24.1,5 					"/>
					<polygon class="st291" points="-24.1,5.1 -31.7,5.4 -31.7,5.3 -24.1,5 					"/>
					<polygon class="st292" points="-24.1,5.2 -31.7,5.4 -31.7,5.4 -24.1,5.1 					"/>
					<polygon class="st293" points="-24.1,5.3 -31.7,5.5 -31.7,5.4 -24.1,5.2 					"/>
					<polygon class="st294" points="-24.1,5.4 -31.7,5.6 -31.7,5.5 -24.1,5.3 					"/>
					<polygon class="st295" points="-24.1,5.4 -31.7,5.7 -31.7,5.6 -24.1,5.4 					"/>
					<polygon class="st296" points="-24.1,5.5 -31.7,5.8 -31.7,5.7 -24.1,5.4 					"/>
					<polygon class="st297" points="-24.1,5.6 -31.7,5.8 -31.7,5.8 -24.1,5.5 					"/>
					<polygon class="st298" points="-24.1,5.7 -31.7,5.9 -31.7,5.8 -24.1,5.6 					"/>
					<polygon class="st299" points="-24.1,5.7 -31.7,6 -31.7,5.9 -24.1,5.7 					"/>
					<polygon class="st300" points="-24.1,5.8 -31.7,6.1 -31.7,6 -24.1,5.7 					"/>
					<polygon class="st301" points="-24.1,5.9 -31.7,6.1 -31.7,6.1 -24.1,5.8 					"/>
					<polygon class="st302" points="-24.1,6 -31.7,6.2 -31.7,6.1 -24.1,5.9 					"/>
					<polygon class="st303" points="-24.1,6.1 -31.7,6.3 -31.7,6.2 -24.1,6 					"/>
					<polygon class="st304" points="-24.1,6.1 -31.7,6.4 -31.7,6.3 -24.1,6.1 					"/>
					<polygon class="st304" points="-24.1,6.2 -31.7,6.5 -31.7,6.4 -24.1,6.1 					"/>
					<polygon class="st305" points="-24.1,6.3 -31.7,6.5 -31.7,6.5 -24.1,6.2 					"/>
					<polygon class="st306" points="-24.1,6.4 -31.7,6.6 -31.7,6.5 -24.1,6.3 					"/>
					<polygon class="st307" points="-24.1,6.4 -31.7,6.7 -31.7,6.6 -24.1,6.4 					"/>
					<polygon class="st308" points="-24.1,6.5 -31.7,6.8 -31.7,6.7 -24.1,6.4 					"/>
					<polygon class="st309" points="-24.1,6.6 -31.7,6.8 -31.7,6.8 -24.1,6.5 					"/>
					<polygon class="st310" points="-24.1,6.7 -31.7,6.9 -31.7,6.8 -24.1,6.6 					"/>
					<polygon class="st311" points="-24.1,6.8 -31.7,7 -31.7,6.9 -24.1,6.7 					"/>
					<polygon class="st312" points="-24.1,6.8 -31.7,7.1 -31.7,7 -24.1,6.8 					"/>
					<polygon class="st313" points="-24.1,6.9 -31.7,7.2 -31.7,7.1 -24.1,6.8 					"/>
					<polygon class="st314" points="-24.1,7 -31.7,7.2 -31.7,7.2 -24.1,6.9 					"/>
					<polygon class="st315" points="-24.1,7.1 -31.7,7.3 -31.7,7.2 -24.1,7 					"/>
					<polygon class="st316" points="-24.1,7.2 -31.7,7.4 -31.7,7.3 -24.1,7.1 					"/>
					<polygon class="st317" points="-24.1,7.2 -31.7,7.5 -31.7,7.4 -24.1,7.2 					"/>
					<polygon class="st318" points="-24.1,7.3 -31.7,7.5 -31.7,7.5 -24.1,7.2 					"/>
					<polygon class="st318" points="-24.1,7.4 -31.7,7.7 -31.7,7.5 -24.1,7.3 					"/>
					<polygon class="st319" points="-24.1,7.5 -31.7,7.8 -31.7,7.7 -24.1,7.4 					"/>
					<polygon class="st320" points="-24.1,7.7 -31.7,7.9 -31.7,7.8 -24.1,7.5 					"/>
					<polygon class="st321" points="-24.1,7.8 -31.7,8 -31.7,7.9 -24.1,7.7 					"/>
					<polygon class="st322" points="-24.1,7.9 -31.7,8.1 -31.7,8 -24.1,7.8 					"/>
					<polygon class="st323" points="-24.1,8 -31.7,8.2 -31.7,8.1 -24.1,7.9 					"/>
					<polygon class="st324" points="-24.1,8.1 -31.7,8.4 -31.7,8.2 -24.1,8 					"/>
					<polygon class="st325" points="-24.1,8.2 -31.7,8.5 -31.7,8.4 -24.1,8.1 					"/>
					<polygon class="st326" points="-24.1,8.4 -31.7,8.6 -31.7,8.5 -24.1,8.2 					"/>
					<polygon class="st327" points="-24.1,8.5 -31.7,8.7 -31.7,8.6 -24.1,8.4 					"/>
					<polygon class="st328" points="-24.1,8.6 -31.7,8.8 -31.7,8.7 -24.1,8.5 					"/>
					<polygon class="st329" points="-24.1,8.7 -31.7,8.9 -31.7,8.8 -24.1,8.6 					"/>
					<polygon class="st330" points="-24.1,8.8 -31.7,9.1 -31.7,8.9 -24.1,8.7 					"/>
					<polygon class="st331" points="-24.1,8.9 -31.7,9.2 -31.7,9.1 -24.1,8.8 					"/>
					<polygon class="st332" points="-24.1,9.1 -31.7,9.3 -31.7,9.2 -24.1,8.9 					"/>
					<polygon class="st333" points="-24.1,9.2 -31.7,9.4 -31.7,9.3 -24.1,9.1 					"/>
					<polygon class="st334" points="-24.1,9.3 -31.7,9.5 -31.7,9.4 -24.1,9.2 					"/>
					<polygon class="st335" points="-24.1,9.4 -31.7,9.6 -31.7,9.5 -24.1,9.3 					"/>
					<polygon class="st335" points="-31.7,9.6 -24.1,9.4 -24.1,10.3 -31.7,10.3 					"/>
				</g>
			</g>
			<g>
				<path class="st7" d="M-24.4,9.3c0,0-0.7-0.4-1.1-1.2c-0.4-0.7-0.5-2.6-1.2-2.9c-0.4-0.2-1-0.1-1.4,0.5c-0.4,0.6-0.4,1.4-0.1,2.1
					c0.4,0.7,1,1.3,1.5,1.5C-25.6,9.7-24.4,9.3-24.4,9.3z"/>
			</g>
		</g>
		<g>
			<g>
				<g>
					<defs>
						<path id="SVGID_11_" d="M-31.7,7.8c-0.4,0.2-0.8,0.8-0.6,1.7c0.2,0.8,1.2,1.2,1.7,1.3c1.1,0.2,4.2-0.8,4.2-0.8l1.6-0.5
							c0,0-1.4-0.3-2.1-0.8c-0.6-0.4-0.6-1.3-1.3-1.5c-0.4-0.1-1.3,0.1-2,0.2C-30.9,7.6-31.4,7.7-31.7,7.8z"/>
					</defs>
					<clipPath id="SVGID_12_">
						<use xlink:href="#SVGID_11_"  style="overflow:visible;"/>
					</clipPath>
					<polygon class="st336" points="-28.4,7.2 -32.5,7.5 -32.5,7.2 					"/>
					<polygon class="st336" points="-27.5,7.2 -32.5,7.5 -32.5,7.5 -28.4,7.2 					"/>
					<polygon class="st337" points="-26.7,7.2 -32.5,7.6 -32.5,7.5 -27.5,7.2 					"/>
					<polygon class="st338" points="-25.8,7.2 -32.5,7.6 -32.5,7.6 -26.7,7.2 					"/>
					<polygon class="st339" points="-24.9,7.2 -32.5,7.7 -32.5,7.6 -25.8,7.2 					"/>
					<polygon class="st340" points="-24.8,7.2 -32.5,7.7 -32.5,7.7 -24.9,7.2 -24.8,7.2 					"/>
					<polygon class="st341" points="-24.8,7.3 -32.5,7.8 -32.5,7.7 -24.8,7.2 					"/>
					<polygon class="st342" points="-24.8,7.4 -32.5,7.9 -32.5,7.8 -24.8,7.3 					"/>
					<polygon class="st343" points="-24.8,7.4 -32.5,7.9 -32.5,7.9 -24.8,7.4 					"/>
					<polygon class="st344" points="-24.8,7.5 -32.5,8 -32.5,7.9 -24.8,7.4 					"/>
					<polygon class="st345" points="-24.8,7.5 -32.5,8 -32.5,8 -24.8,7.5 					"/>
					<polygon class="st346" points="-24.8,7.6 -32.5,8.1 -32.5,8 -24.8,7.5 					"/>
					<polygon class="st347" points="-24.8,7.6 -32.5,8.2 -32.5,8.1 -24.8,7.6 					"/>
					<polygon class="st348" points="-24.8,7.7 -32.5,8.2 -32.5,8.2 -24.8,7.6 					"/>
					<polygon class="st349" points="-24.8,7.8 -32.5,8.3 -32.5,8.2 -24.8,7.7 					"/>
					<polygon class="st350" points="-24.8,7.8 -32.5,8.3 -32.5,8.3 -24.8,7.8 					"/>
					<polygon class="st350" points="-24.8,7.9 -32.5,8.4 -32.5,8.3 -24.8,7.8 					"/>
					<polygon class="st351" points="-24.8,7.9 -32.5,8.4 -32.5,8.4 -24.8,7.9 					"/>
					<polygon class="st352" points="-24.8,8 -32.5,8.5 -32.5,8.4 -24.8,7.9 					"/>
					<polygon class="st353" points="-24.8,8 -32.5,8.6 -32.5,8.5 -24.8,8 					"/>
					<polygon class="st354" points="-24.8,8.1 -32.5,8.6 -32.5,8.6 -24.8,8 					"/>
					<polygon class="st355" points="-24.8,8.2 -32.5,8.7 -32.5,8.6 -24.8,8.1 					"/>
					<polygon class="st356" points="-24.8,8.2 -32.5,8.7 -32.5,8.7 -24.8,8.2 					"/>
					<polygon class="st357" points="-24.8,8.3 -32.5,8.8 -32.5,8.7 -24.8,8.2 					"/>
					<polygon class="st358" points="-24.8,8.3 -32.5,8.8 -32.5,8.8 -24.8,8.3 					"/>
					<polygon class="st359" points="-24.8,8.4 -32.5,8.9 -32.5,8.8 -24.8,8.3 					"/>
					<polygon class="st360" points="-24.8,8.4 -32.5,9 -32.5,8.9 -24.8,8.4 					"/>
					<polygon class="st361" points="-24.8,8.5 -32.5,9 -32.5,9 -24.8,8.4 					"/>
					<polygon class="st362" points="-24.8,8.6 -32.5,9.1 -32.5,9 -24.8,8.5 					"/>
					<polygon class="st363" points="-24.8,8.6 -32.5,9.1 -32.5,9.1 -24.8,8.6 					"/>
					<polygon class="st364" points="-24.8,8.7 -32.5,9.2 -32.5,9.1 -24.8,8.6 					"/>
					<polygon class="st364" points="-24.8,8.8 -32.5,9.3 -32.5,9.2 -24.8,8.7 					"/>
					<polygon class="st365" points="-24.8,8.8 -32.5,9.4 -32.5,9.3 -24.8,8.8 					"/>
					<polygon class="st366" points="-24.8,8.9 -32.5,9.4 -32.5,9.4 -24.8,8.8 					"/>
					<polygon class="st367" points="-24.8,9 -32.5,9.5 -32.5,9.4 -24.8,8.9 					"/>
					<polygon class="st368" points="-24.8,9.1 -32.5,9.6 -32.5,9.5 -24.8,9 					"/>
					<polygon class="st369" points="-24.8,9.2 -32.5,9.7 -32.5,9.6 -24.8,9.1 					"/>
					<polygon class="st370" points="-24.8,9.3 -32.5,9.8 -32.5,9.7 -24.8,9.2 					"/>
					<polygon class="st371" points="-24.8,9.4 -32.5,9.9 -32.5,9.8 -24.8,9.3 					"/>
					<polygon class="st372" points="-24.8,9.4 -32.5,10 -32.5,9.9 -24.8,9.4 					"/>
					<polygon class="st373" points="-24.8,9.5 -32.5,10 -32.5,10 -24.8,9.4 					"/>
					<polygon class="st374" points="-24.8,9.6 -32.5,10.1 -32.5,10 -24.8,9.5 					"/>
					<polygon class="st375" points="-24.8,9.7 -32.5,10.2 -32.5,10.1 -24.8,9.6 					"/>
					<polygon class="st376" points="-24.8,9.8 -32.5,10.3 -32.5,10.2 -24.8,9.7 					"/>
					<polygon class="st377" points="-24.8,9.9 -32.5,10.4 -32.5,10.3 -24.8,9.8 					"/>
					<polygon class="st378" points="-24.8,10 -32.5,10.5 -32.5,10.4 -24.8,9.9 					"/>
					<polygon class="st379" points="-24.8,10 -32.5,10.6 -32.5,10.5 -24.8,10 					"/>
					<polygon class="st380" points="-24.8,10.1 -32.5,10.6 -32.5,10.6 -24.8,10 					"/>
					<polygon class="st381" points="-24.8,10.2 -32.5,10.7 -32.5,10.6 -24.8,10.1 					"/>
					<polygon class="st381" points="-32.5,10.7 -24.8,10.2 -24.8,11 -32.5,11 					"/>
				</g>
			</g>
			<g>
				<path class="st7" d="M-24.6,9.5c0,0-1.8,0-2.6-0.6c-0.5-0.4-0.6-1.4-1.3-1.4c-0.6,0-1.2,1.2-0.6,2.1c0.4,0.6,1,0.8,1.7,0.7
					C-26.7,10-24.6,9.5-24.6,9.5z"/>
			</g>
		</g>
	</g>
</g>
<g>
	<g>
		
		
		<g>
			<g>
				<polygon class="st0" points="-76.3,20.7 -78.6,34.2 -75.8,34.7 -75.8,36.8 -73.1,36.8 -72.8,39.1 -61.9,37.2 -51.3,39 
					-50.9,36.8 -48.2,36.8 -47.9,34.9 -45.6,34.3 -47.9,19.7 -47,14.6 -48.2,12.8 -48.2,12 -49.8,10.5 -49.9,9.9 -50.7,9.3 
					-53.7,4.9 -55.7,4.6 -56.5,3.7 -58.7,3.7 -59.5,3.1 -61.7,3.5 -72.8,1.5 -73.2,3.7 -75.8,3.7 -75.8,6 -78.6,6.5 -76.3,19.3 				
					"/>
			</g>
		</g>
	</g>
	<g>
		<g>
			<polygon class="st0" points="-73.8,7 -78.6,34.2 -51.4,39 -47,14.5 -53.8,4.9 -72.8,1.5 			"/>
		</g>
		<g>
			<path class="st3" d="M-51.3,39.3C-51.3,39.3-51.4,39.3-51.3,39.3l-27.3-4.8c-0.2,0-0.3-0.2-0.3-0.4L-74.1,7
				c0-0.2,0.2-0.3,0.4-0.3c0.2,0,0.3,0.2,0.3,0.4l-4.7,26.8l26.6,4.7l4.2-24l-6.6-9.4l-13.5-2.4c-0.2,0-0.3-0.2-0.3-0.4
				c0-0.2,0.2-0.3,0.4-0.3l13.6,2.4c0.1,0,0.2,0.1,0.2,0.1l6.7,9.7c0.1,0.1,0.1,0.2,0.1,0.2L-51,39.1c0,0.1-0.1,0.2-0.1,0.2
				C-51.2,39.3-51.3,39.3-51.3,39.3z"/>
		</g>
		<g>
			<polygon class="st2" points="-53.8,5 -55.2,13.1 -47,14.6 			"/>
			<path class="st3" d="M-47,14.9C-47,14.9-47.1,14.9-47,14.9l-8.2-1.5c-0.2,0-0.3-0.2-0.3-0.4l1.4-8.2c0-0.1,0.1-0.2,0.3-0.3
				c0.1,0,0.3,0,0.3,0.1l6.7,9.6c0.1,0.1,0.1,0.3,0,0.4C-46.8,14.8-46.9,14.9-47,14.9z M-54.8,12.8l7,1.2l-5.8-8.3L-54.8,12.8z"/>
		</g>
	</g>
	<g>
		<g>
			<polygon class="st0" points="-77.6,12 -72.8,39.1 -45.6,34.3 -49.9,9.9 -59.5,3.1 -78.6,6.5 			"/>
		</g>
		<g>
			<path class="st3" d="M-72.8,39.5c-0.1,0-0.1,0-0.2-0.1c-0.1-0.1-0.1-0.1-0.1-0.2L-77.9,12c0-0.2,0.1-0.4,0.3-0.4
				c0.2,0,0.4,0.1,0.4,0.3l4.7,26.8l26.6-4.7l-4.2-24l-9.4-6.6L-73,5.8c-0.2,0-0.4-0.1-0.4-0.3c0-0.2,0.1-0.4,0.3-0.4l13.6-2.4
				c0.1,0,0.2,0,0.2,0.1l9.6,6.8c0.1,0.1,0.1,0.1,0.1,0.2l4.3,24.4c0,0.2-0.1,0.4-0.3,0.4L-72.8,39.5
				C-72.7,39.5-72.8,39.5-72.8,39.5z"/>
		</g>
		<g>
			<polygon class="st2" points="-59.5,3.2 -58,11.3 -49.9,9.9 			"/>
			<path class="st3" d="M-58,11.7c-0.2,0-0.3-0.1-0.3-0.3l-1.4-8.2c0-0.1,0-0.3,0.1-0.3c0.1-0.1,0.3-0.1,0.4,0l9.6,6.7
				c0.1,0.1,0.2,0.2,0.1,0.3c0,0.1-0.1,0.2-0.3,0.3L-58,11.7C-58,11.7-58,11.7-58,11.7z M-59,3.9l1.2,7l7-1.2L-59,3.9z"/>
		</g>
	</g>
	<g>
		<g>
			<path class="st3" d="M-75.8,6.9c-0.2,0-0.3-0.1-0.3-0.3V3.7c0-0.2,0.1-0.3,0.3-0.3h2.8c0.2,0,0.3,0.1,0.3,0.3S-72.9,4-73.1,4
				h-2.4v2.5C-75.5,6.7-75.7,6.9-75.8,6.9z"/>
		</g>
		<g>
			<polygon class="st0" points="-75.5,9.6 -75.5,36.8 -48.2,36.8 -48.2,12.3 -56.4,4.1 -75.5,4.1 			"/>
		</g>
		<g>
			<polygon class="st2" points="-56.5,3.7 -56.5,12 -48.2,12 			"/>
			<path class="st3" d="M-48.2,12.4C-48.2,12.4-48.2,12.4-48.2,12.4l-8.3,0c-0.2,0-0.3-0.1-0.3-0.3V3.7c0-0.1,0.1-0.3,0.2-0.3
				c0.1-0.1,0.3,0,0.4,0.1l8.3,8.3c0.1,0.1,0.1,0.2,0.1,0.4S-48.1,12.4-48.2,12.4z M-56.2,11.7l7.2,0l-7.2-7.2V11.7z"/>
		</g>
		<g>
			<path class="st4" d="M-60.3,14.8c0,3.1-2.5,5.5-5.5,5.5c-3.1,0-5.5-2.5-5.5-5.5s2.5-5.5,5.5-5.5v5.5H-60.3z"/>
		</g>
		<g>
			<path class="st4" d="M-64.8,8.3c3.1,0,5.5,2.5,5.5,5.5h-5.6L-64.8,8.3z"/>
		</g>
		<g>
			<g>
				<path class="st3" d="M-51.1,18.5h-8.3c-0.2,0-0.3-0.1-0.3-0.3c0-0.2,0.1-0.3,0.3-0.3h8.3c0.2,0,0.3,0.1,0.3,0.3
					C-50.7,18.3-50.9,18.5-51.1,18.5z"/>
			</g>
			<g>
				<path class="st3" d="M-51,21.8h-8.3c-0.2,0-0.3-0.1-0.3-0.3s0.1-0.3,0.3-0.3h8.3c0.2,0,0.3,0.1,0.3,0.3S-50.8,21.8-51,21.8z"/>
			</g>
			<g>
				<path class="st3" d="M-51,25.2h-22c-0.2,0-0.3-0.1-0.3-0.3c0-0.2,0.1-0.3,0.3-0.3h22c0.2,0,0.3,0.1,0.3,0.3
					C-50.7,25-50.8,25.2-51,25.2z"/>
			</g>
			<g>
				<path class="st3" d="M-51,28.5h-21.9c-0.2,0-0.3-0.1-0.3-0.3c0-0.2,0.1-0.3,0.3-0.3H-51c0.2,0,0.3,0.1,0.3,0.3
					C-50.7,28.4-50.8,28.5-51,28.5z"/>
			</g>
			<g>
				<path class="st3" d="M-51,31.8h-22c-0.2,0-0.3-0.1-0.3-0.3c0-0.2,0.1-0.3,0.3-0.3h22c0.2,0,0.3,0.1,0.3,0.3
					C-50.7,31.7-50.8,31.8-51,31.8z"/>
			</g>
		</g>
		<g>
			<path class="st3" d="M-48.2,37.2h-27.6c-0.2,0-0.3-0.1-0.3-0.3V9.3c0-0.2,0.1-0.3,0.3-0.3s0.3,0.1,0.3,0.3v27.3h27V12.2L-56.6,4
				h-13.7c-0.2,0-0.3-0.1-0.3-0.3s0.1-0.3,0.3-0.3h13.8c0.1,0,0.2,0,0.2,0.1l8.3,8.3c0.1,0.1,0.1,0.1,0.1,0.2v24.8
				C-47.9,37-48,37.2-48.2,37.2z"/>
		</g>
	</g>
</g>
<g>
	<g>
		
			<image style="overflow:visible;opacity:0.75;" width="621" height="456" xlink:href="assets/svg/D01A9C7A994D0187.png"  transform="matrix(6.377403e-02 0 0 6.377403e-02 0.1982 5.4909)">
		</image>
		<g>
			<g>
				<path class="st0" d="M16.9,12.2l-6.9-1l-8.2,7.5l14.1,14.1l9-7.4l7.4,0.3l7.1-7l-15.7-13l-3.2,3.4c-0.3,0-1.4,0.1-2.3,0.9
					C17.2,10.8,17,11.9,16.9,12.2z"/>
			</g>
		</g>
	</g>
	<g>
		<polygon class="st2" points="1.7,18.7 10,11.2 24.8,25.4 15.8,32.8 		"/>
	</g>
	<g>
		<polygon class="st2" points="17.5,12.3 23.7,5.7 39.3,18.7 32.3,25.8 		"/>
	</g>
	<g>
		<polygon class="st1" points="22.4,16.7 31.1,11.9 33.3,13.7 24.4,18.6 		"/>
	</g>
	<g>
		<polygon class="st0" points="10,11.2 17.5,12.3 32.3,25.8 24.8,25.4 		"/>
	</g>
	<g>
		<path class="st3" d="M37.5,20.8c-0.1,0-0.1,0-0.2-0.1c-0.1-0.1-0.1-0.3,0-0.4l1.6-1.6l-1.8-1.5c-0.1-0.1-0.1-0.3,0-0.4
			c0.1-0.1,0.3-0.1,0.4,0l2,1.7c0.1,0,0.1,0.1,0.1,0.2c0,0.1,0,0.1-0.1,0.2l-1.8,1.8C37.7,20.8,37.6,20.8,37.5,20.8z"/>
	</g>
	<g>
		<polygon class="st2" points="15.8,16.7 22.4,16.7 24.4,18.6 17.7,18.6 		"/>
	</g>
	<g>
		<polygon class="st1" points="13,20.7 17.7,18.6 15.8,16.7 4.8,21.8 6.7,23.7 11.2,21.6 11.2,28.2 13.1,30.1 		"/>
	</g>
	<g>
		<path class="st3" d="M15.8,33.1c-0.1,0-0.1,0-0.2-0.1L1.6,18.9c-0.1-0.1-0.1-0.1-0.1-0.2c0-0.1,0-0.1,0.1-0.2L9.8,11
			c0.1-0.1,0.1-0.1,0.2-0.1l7.4,1l6-6.5c0.1-0.1,0.3-0.1,0.4,0l12,10c0.1,0.1,0.1,0.3,0,0.4c-0.1,0.1-0.3,0.1-0.4,0L23.7,6.1l-6,6.4
			c-0.1,0.1-0.1,0.1-0.2,0.1l-7.4-1.1l-7.9,7.3l13.7,13.7l8.8-7.2c0.1,0,0.1-0.1,0.2-0.1l7.3,0.3l3.3-3.3c0.1-0.1,0.3-0.1,0.4,0
			c0.1,0.1,0.1,0.3,0,0.4L32.4,26C32.4,26,32.3,26,32.2,26l-7.3-0.3L16,33C15.9,33.1,15.9,33.1,15.8,33.1z"/>
	</g>
	<g>
		<g>
			<path class="st4" d="M20.6,9.1c-2.1,0-3.7,1.7-3.7,3.7c0,2.8,3.7,5.6,3.7,5.6s3.7-2.8,3.7-5.6C24.3,10.8,22.7,9.1,20.6,9.1z
				 M20.6,14.7c-1,0-1.9-0.8-1.9-1.9s0.8-1.9,1.9-1.9c1,0,1.9,0.8,1.9,1.9S21.6,14.7,20.6,14.7z"/>
		</g>
	</g>
</g>
</svg>
